<?xml version="1.0" encoding="UTF-8"?>
<svg version="1.1" xmlns="http://www.w3.org/2000/svg" width="330" height="330">
<path d="M0 0 C3.61432215 2.46081508 6.22777725 5.21901042 9.0390625 8.5390625 C14.42123173 14.73263183 20.36693665 20.37524629 26.23242188 26.10546875 C27.10318359 26.96527344 27.97394531 27.82507813 28.87109375 28.7109375 C29.66443115 29.48743652 30.45776855 30.26393555 31.27514648 31.06396484 C33 33 33 33 33 35 C33.99 35.33 34.98 35.66 36 36 C37.47571456 38.95142912 37.13565889 41.93892126 37.12597656 45.17407227 C37.12877876 46.28470284 37.12877876 46.28470284 37.13163757 47.41777039 C37.13564967 49.03284418 37.13771715 50.64792367 37.13809967 52.2630024 C37.1415331 55.73459885 37.16294911 59.20601113 37.18333054 62.67754269 C37.22110811 69.13311182 37.25265389 75.58849711 37.25048828 82.04418945 C37.24968573 86.5401992 37.27372415 91.03554915 37.3123703 95.53138542 C37.3226221 97.22162824 37.32451389 98.91194934 37.31671906 100.60220528 C37.26103325 114.05152468 39.4466198 126.4898889 42.28633499 139.60957527 C43.52210537 145.48037794 44.59682678 151.38028554 45.67895508 157.28100586 C45.90684943 158.51596046 46.13474379 159.75091507 46.36954403 161.02329254 C46.96489085 164.25197748 47.55858269 167.48096048 48.15133882 170.71012187 C48.78138793 174.14059226 49.41340368 177.57070048 50.04508972 181.00086975 C51.09938658 186.72762269 52.15210821 192.45466343 53.20385742 198.18188477 C54.41899821 204.79871487 55.63686628 211.41503888 56.85608178 218.03111929 C58.03718109 224.44076706 59.21628527 230.85078032 60.39450645 237.26095772 C60.89343267 239.97515753 61.39308123 242.68922289 61.89332008 245.40318108 C62.58692849 249.16676938 63.27763064 252.93088771 63.96801758 256.69506836 C64.17522934 257.817444 64.3824411 258.93981964 64.59593201 260.09620667 C64.87538162 261.62379105 64.87538162 261.62379105 65.16047668 263.18223572 C65.3235925 264.06971465 65.48670832 264.95719358 65.65476704 265.87156582 C66 268 66 268 66 270 C66.76666992 269.97905273 67.53333984 269.95810547 68.32324219 269.93652344 C71.7986946 269.85334842 75.27393763 269.80133425 78.75 269.75 C79.9565625 269.71648437 81.163125 269.68296875 82.40625 269.6484375 C83.56640625 269.63554687 84.7265625 269.62265625 85.921875 269.609375 C86.99018555 269.58842773 88.05849609 269.56748047 89.15917969 269.54589844 C92.70064832 270.11199776 93.85168951 271.1793078 96 274 C96.47442511 277.25320078 96.39081022 279.19053333 94.95899963 282.15617466 C92.02960541 284.91334276 89.03464462 284.54995783 85.21850586 284.50120544 C84.41768302 284.50673984 83.61686018 284.51227424 82.79176998 284.51797634 C80.09914878 284.53162689 77.40744748 284.51659021 74.71484375 284.50170898 C72.78825485 284.50549057 70.86166867 284.51098928 68.93508911 284.51808167 C63.69544799 284.53207451 58.45613383 284.52083964 53.21651077 284.50437045 C47.7406105 284.49054848 42.26472976 284.49697677 36.78881836 284.50050354 C27.59190585 284.50320792 18.39512369 284.48971043 9.19824219 284.46655273 C-1.44400363 284.4399416 -12.08603146 284.43819507 -22.72829914 284.4499411 C-32.95373138 284.4607096 -43.17908454 284.4545391 -53.4045105 284.44038582 C-57.76172752 284.43461796 -62.11888684 284.43471498 -66.47610474 284.43945122 C-71.60445627 284.4442135 -76.73256824 284.43415043 -81.86087418 284.41249657 C-83.74630042 284.40691829 -85.63174965 284.40647289 -87.51717758 284.41144943 C-90.08455543 284.41737754 -92.6511947 284.40494523 -95.21850586 284.38768005 C-95.97034684 284.3936901 -96.72218782 284.39970014 -97.49681187 284.40589231 C-100.41690621 284.37001147 -102.49107256 284.34016474 -104.95899963 282.69061375 C-106.76176265 279.76287613 -106.40852524 277.32656269 -106 274 C-104.42089844 271.80175781 -104.42089844 271.80175781 -102 270 C-98.70019531 269.54589844 -98.70019531 269.54589844 -94.828125 269.609375 C-94.1457074 269.61503479 -93.46328979 269.62069458 -92.76019287 269.62652588 C-90.58940238 269.64884364 -88.42028794 269.69902492 -86.25 269.75 C-84.7747635 269.77007124 -83.29950101 269.78832093 -81.82421875 269.8046875 C-78.21560499 269.8486912 -74.60796619 269.91768417 -71 270 C-70.95557014 269.36327803 -70.91114029 268.72655605 -70.86536407 268.07053947 C-70.25892386 260.41960979 -69.02577804 252.97609252 -67.60742188 245.43798828 C-67.36216451 244.11452564 -67.11735014 242.79098083 -66.87294006 241.46736145 C-66.21422749 237.90702615 -65.54937086 234.34786397 -64.88331032 230.78889704 C-64.18485452 227.05100131 -63.49210622 223.3120479 -62.79870605 219.57321167 C-61.48651471 212.50266515 -60.1691618 205.43309062 -58.84995794 198.36384952 C-57.35105805 190.3301166 -55.85834174 182.29523852 -54.36596203 174.26029229 C-52.16575608 162.41571314 -49.96341573 150.57152961 -47.75485039 138.72850609 C-47.40298123 136.84143625 -47.05140828 134.95431118 -46.69984436 133.06718445 C-46.38441933 131.37685341 -46.38441933 131.37685341 -46.06262207 129.65237427 C-45.88048409 128.67573381 -45.6983461 127.69909336 -45.51068878 126.69285774 C-45.17357373 124.91525285 -44.81664752 123.14127682 -44.4388485 121.37187195 C-43.81012871 117.97379075 -43.91432661 114.61182232 -43.96923828 111.17138672 C-43.98533643 109.5695737 -44.00103439 107.96775661 -44.01638794 106.36593628 C-44.02592625 105.5213876 -44.03546455 104.67683891 -44.0452919 103.80669785 C-44.09713668 98.36331248 -44.09106815 92.91960396 -44.09665108 87.47601128 C-44.10485773 82.70400861 -44.13256638 77.93364001 -44.20214844 73.16210938 C-44.26851958 68.53256883 -44.28054867 63.90562211 -44.25689316 59.27569962 C-44.25750005 57.52070764 -44.27736893 55.76560356 -44.31766129 54.01107407 C-44.64737066 38.87900939 -44.64737066 38.87900939 -39.1522274 33.00392342 C-36.87497428 30.86707784 -34.44684644 28.93798199 -32 27 C-30.76912343 25.67689883 -29.56318254 24.32896836 -28.41015625 22.9375 C-24.27255433 18.10886067 -19.88196345 13.54571203 -15.4375 9 C-14.61314453 8.12988281 -13.78878906 7.25976562 -12.93945312 6.36328125 C-11.72999023 5.13158203 -11.72999023 5.13158203 -10.49609375 3.875 C-9.77607178 3.12992188 -9.0560498 2.38484375 -8.31420898 1.6171875 C-5.32650752 -0.47064186 -3.57459254 -0.45219843 0 0 Z M-5.60400391 19.36108398 C-6.22194824 19.98313721 -6.83989258 20.60519043 -7.4765625 21.24609375 C-8.146875 21.91833984 -8.8171875 22.59058594 -9.5078125 23.28320312 C-10.55582031 24.34958008 -10.55582031 24.34958008 -11.625 25.4375 C-12.33140625 26.14455078 -13.0378125 26.85160156 -13.765625 27.58007812 C-17.17004812 30.39545439 -17.17004812 30.39545439 -19 34 C-8.77 34 1.46 34 12 34 C10.02 31.69 8.04 29.38 6 27 C5.25234375 26.12472656 4.5046875 25.24945313 3.734375 24.34765625 C3.07953125 23.59355469 2.4246875 22.83945312 1.75 22.0625 C1.08484375 21.29035156 0.4196875 20.51820312 -0.265625 19.72265625 C-2.48028538 17.52295979 -3.20532849 17.32567829 -5.60400391 19.36108398 Z M-30 49 C-30 68.8 -30 88.6 -30 109 C-12.18 109 5.64 109 24 109 C24 107.35 24 105.7 24 104 C23.05898437 103.57589844 22.11796875 103.15179688 21.1484375 102.71484375 C12.56990794 98.72715444 6.20239383 95.24217698 2.125 86.3125 C-0.20906458 79.15748059 -0.12453295 70.70729113 2.96875 63.8046875 C6.88964036 56.94312937 11.95974654 53.39496667 19 50 C19 49.67 19 49.34 19 49 C2.83 49 -13.34 49 -30 49 Z M16 68 C13.63189678 70.98586928 13.57519372 74.20337679 13.6875 77.97265625 C14.21989473 81.42656706 15.71862577 83.41844495 18 86 C19.98 86.99 21.96 87.98 24 89 C24 80.42 24 71.84 24 63 C21.20422281 63 18.07987612 66.30764797 16 68 Z M-31 124 C-34.39470533 142.29689224 -37.78570943 160.5944577 -41.16993713 178.89329052 C-42.74140165 187.38967926 -44.31453601 195.88575248 -45.89160156 204.38110352 C-47.26612508 211.78542291 -48.63751561 219.1903145 -50.00514317 226.59591085 C-50.72943456 230.51727912 -51.45529417 234.43834245 -52.18490601 238.35872459 C-52.8716538 242.04906276 -53.55420832 245.74015188 -54.23356247 249.43185806 C-54.48355444 250.78620873 -54.73507369 252.14027852 -54.98823929 253.49403954 C-55.33393646 255.34386661 -55.67358608 257.19482079 -56.01293945 259.04582214 C-56.20467239 260.08099566 -56.39640533 261.11616919 -56.59394836 262.1827116 C-57.11887872 265.35041049 -57.11887872 265.35041049 -57 270 C-21.03 270 14.94 270 52 270 C49.195 254.5725 46.39 239.145 43.5 223.25 C40.87304688 208.80175781 40.87304688 208.80175781 39.78015137 202.79022217 C39.03484161 198.69091032 38.28907458 194.59168192 37.54309082 190.49249268 C35.76781207 180.73557288 33.994541 170.97831578 32.23332977 161.21884537 C31.48903885 157.09503635 30.74323419 152.97150174 29.99732971 148.84798431 C29.64759722 146.91193667 29.29865704 144.97574572 28.95054626 143.03940582 C28.47354079 140.38626517 27.99389843 137.7336139 27.51367188 135.08105469 C27.37403015 134.30012199 27.23438843 133.5191893 27.09051514 132.71459198 C26.54678953 129.72331021 25.96297813 126.88893438 25 124 C6.52 124 -11.96 124 -31 124 Z " fill="#304353" transform="translate(151,25)"/>
<path d="M0 0 C2.5 1.5625 2.5 1.5625 4 4 C3.94105038 7.3601285 3.88315417 9.85432899 1.78355408 12.57803345 C-0.5069779 14.40419611 -2.71322818 15.20665091 -5.47436523 16.18896484 C-6.59660995 16.59303558 -7.71885468 16.99710632 -8.87510681 17.41342163 C-10.69843285 18.05569199 -10.69843285 18.05569199 -12.55859375 18.7109375 C-13.82623009 19.16466717 -15.09356469 19.61924064 -16.36061096 20.07461548 C-19.70221361 21.27348884 -23.04717196 22.46269035 -26.39312744 23.64935303 C-31.71612385 25.53874262 -37.03419229 27.44192653 -42.35173225 29.34660721 C-44.19144475 30.00391214 -46.03288548 30.65637369 -47.87437439 31.3086853 C-55.3542661 33.97644406 -62.7018836 36.86875169 -70 40 C-68.97215141 40.37797981 -68.97215141 40.37797981 -67.92353821 40.76359558 C-61.40798211 43.15981319 -54.89277038 45.556965 -48.37792683 47.95511913 C-45.03004838 49.18745789 -41.68204618 50.41945797 -38.33374023 51.65063477 C-35.09144339 52.84284695 -31.84949897 54.03601306 -28.60777855 55.22979164 C-26.79322263 55.89774438 -24.97831982 56.56475456 -23.16340637 57.23173523 C-20.89365816 58.0679266 -18.6254779 58.90838878 -16.35903931 59.75350952 C-14.04297329 60.61296783 -11.72106968 61.45680181 -9.3946228 62.28775024 C-8.23854523 62.71010956 -7.08246765 63.13246887 -5.89135742 63.56762695 C-4.85516769 63.93942581 -3.81897797 64.31122467 -2.75138855 64.69429016 C0.222115 66.10540778 1.97083224 67.41407357 4 70 C3.9375 73.625 3.9375 73.625 3 77 C-0.58253643 79.38835762 -2.86851867 79.61674785 -7 79 C-11.10798243 77.82522868 -15.07236811 76.31552003 -19.0625 74.79296875 C-20.2353656 74.35615784 -21.4082312 73.91934692 -22.61663818 73.46929932 C-25.76655138 72.29433871 -28.91253849 71.10983885 -32.05711365 69.92072678 C-37.2303547 67.96839495 -42.41306911 66.04118915 -47.59358978 64.10827827 C-49.5108128 63.39242179 -51.42746626 62.67505648 -53.34405518 61.95750427 C-60.3671763 59.33330506 -67.40245581 56.75809517 -74.484375 54.296875 C-75.22175903 54.04017532 -75.95914307 53.78347565 -76.71887207 53.51899719 C-79.95117456 52.39746203 -83.18729978 51.29019566 -86.4296875 50.19799805 C-87.52023438 49.82199463 -88.61078125 49.44599121 -89.734375 49.05859375 C-90.64413086 48.75236084 -91.55388672 48.44612793 -92.49121094 48.13061523 C-95.46897662 46.78865018 -97.63570894 45.25216841 -100 43 C-100.54226552 38.58440935 -100.48836965 36.73255448 -98 33 C-95.64556885 31.87805176 -95.64556885 31.87805176 -92.64941406 30.81445312 C-91.52513 30.40972778 -90.40084595 30.00500244 -89.24249268 29.5880127 C-88.01262634 29.15678101 -86.78276001 28.72554932 -85.515625 28.28125 C-84.22238957 27.81956113 -82.92948776 27.35693684 -81.63690186 26.89343262 C-78.20571808 25.66570563 -74.77042048 24.44992479 -71.33404541 23.23681641 C-67.29319245 21.80816867 -63.25697516 20.36650143 -59.22028351 18.92614746 C-55.87353694 17.73221721 -52.52594133 16.5408253 -49.17614746 15.35546875 C-42.27211164 12.90855455 -35.39110547 10.4121444 -28.53710938 7.828125 C-27.16058535 7.31202031 -25.78401941 6.7960274 -24.40740967 6.28015137 C-21.81398605 5.3079011 -19.22667659 4.32128451 -16.64190674 3.32629395 C-15.47713806 2.88926147 -14.31236938 2.452229 -13.11230469 2.00195312 C-12.09738953 1.61430786 -11.08247437 1.2266626 -10.0368042 0.82727051 C-6.54462557 -0.12405075 -3.60456759 -0.24525439 0 0 Z " fill="#304453" transform="translate(297,64)"/>
<path d="M0 0 C2.06774533 3.101618 2.25118113 3.7634646 2.26069641 7.27536011 C2.26778122 8.14733032 2.27486603 9.01930054 2.28216553 9.91769409 C2.27968811 10.87152985 2.27721069 11.8253656 2.2746582 12.80810547 C2.27976913 13.81488342 2.28488007 14.82166138 2.29014587 15.85894775 C2.30407329 19.19508774 2.30308258 22.53102185 2.30078125 25.8671875 C2.30466672 28.18262815 2.30900108 30.49806808 2.31376648 32.81350708 C2.32123567 37.6707795 2.32093253 42.52797926 2.31567383 47.38525391 C2.30988126 53.61196191 2.32680191 59.83837226 2.3500185 66.06503105 C2.36474651 70.84853863 2.36562875 75.6319744 2.36250877 80.41550064 C2.36302255 82.7112296 2.36827082 85.00696251 2.37832069 87.30266953 C2.39064811 90.51301176 2.38391502 93.72277264 2.37231445 96.93310547 C2.37995819 97.88289276 2.38760193 98.83268005 2.39547729 99.81124878 C2.35674621 104.65716639 2.25197599 108.11241122 -1 112 C-2.9375 112.62890625 -2.9375 112.62890625 -5 112.5625 C-5.680625 112.56378906 -6.36125 112.56507813 -7.0625 112.56640625 C-9.8080145 111.76378608 -10.50306388 110.39272199 -12 108 C-12.37752342 105.87915802 -12.37752342 105.87915802 -12.38095093 103.55969238 C-12.3894104 102.67648819 -12.39786987 101.793284 -12.40658569 100.88331604 C-12.400513 99.92215378 -12.39444031 98.96099152 -12.38818359 97.97070312 C-12.39344055 96.95241928 -12.39869751 95.93413544 -12.40411377 94.88499451 C-12.41732431 91.51692393 -12.4085717 88.14932544 -12.3984375 84.78125 C-12.40045792 82.44242258 -12.4033691 80.10359577 -12.40713501 77.76477051 C-12.4115598 72.86216232 -12.40512215 67.95971805 -12.39111328 63.05712891 C-12.37402151 56.76867881 -12.38386183 50.48061282 -12.40183067 44.19217682 C-12.41266419 39.3623769 -12.40922411 34.53266825 -12.4014473 29.7028656 C-12.3994441 27.38398697 -12.40190872 25.06510008 -12.40888596 22.74623108 C-12.41649312 19.50702928 -12.40490595 16.26845208 -12.38818359 13.02929688 C-12.39425629 12.06813461 -12.40032898 11.10697235 -12.40658569 10.11668396 C-12.39812622 9.23347977 -12.38966675 8.35027557 -12.38095093 7.44030762 C-12.37981985 6.67488396 -12.37868877 5.9094603 -12.37752342 5.12084198 C-11.89114014 2.38844968 -10.88039087 1.01747946 -9 -1 C-5.18652885 -2.27115705 -3.64026964 -1.54905091 0 0 Z " fill="#2E4252" transform="translate(152,166)"/>
<path d="M0 0 C0.66 0 1.32 0 2 0 C4 3 4 3 3.8125 6.5625 C3 10 3 10 0 12 C-2.33199388 12.07905064 -4.66832622 12.08798769 -7 12 C-6.34 10.68 -5.68 9.36 -5 8 C-3.68 8.66 -2.36 9.32 -1 10 C0.77759876 5.03079316 0.77759876 5.03079316 0 0 Z " fill="#34414C" transform="translate(297,131)"/>
<path d="M0 0 C0.66 0 1.32 0 2 0 C2.53132389 2.58157368 3.05034379 5.16461756 3.5625 7.75 C3.78969727 8.84441406 3.78969727 8.84441406 4.02148438 9.9609375 C4.74557178 13.66557073 5.09817231 16.39322322 4 20 C2.9375 17.625 2.9375 17.625 2 15 C2.33 14.34 2.66 13.68 3 13 C2.34 12.67 1.68 12.34 1 12 C0.5859375 9.27734375 0.5859375 9.27734375 0.375 5.9375 C0.30023438 4.83277344 0.22546875 3.72804687 0.1484375 2.58984375 C0.09945312 1.73519531 0.05046875 0.88054687 0 0 Z " fill="#323F49" transform="translate(195,185)"/>
<path d="M0 0 C2 1 2 1 2.81640625 3.0390625 C6.7183908 16.56321839 6.7183908 16.56321839 4 22 C2.68 14.74 1.36 7.48 0 0 Z " fill="#313E49" transform="translate(194,249)"/>
<path d="M0 0 C0.66 0.66 1.32 1.32 2 2 C1.071875 2.53625 0.14375 3.0725 -0.8125 3.625 C-4.24016479 6.17894631 -5.4037685 8.09810078 -7 12 C-7.66 12 -8.32 12 -9 12 C-9 12.66 -9 13.32 -9 14 C-9.66 14 -10.32 14 -11 14 C-9.18352668 8.00563806 -5.14218863 3.42812575 0 0 Z " fill="#33404A" transform="translate(164,77)"/>
<path d="M0 0 C0.66 0.33 1.32 0.66 2 1 C2 1.99 2 2.98 2 4 C1.34 4 0.68 4 0 4 C0 4.66 0 5.32 0 6 C-2.375 7.6875 -2.375 7.6875 -5 9 C-5.66 8.67 -6.32 8.34 -7 8 C-4.69 5.36 -2.38 2.72 0 0 Z " fill="#313D4B" transform="translate(126,44)"/>
<path d="M0 0 C-0.33 0.66 -0.66 1.32 -1 2 C-4.10520767 3.00167989 -6.74975106 3 -10 3 C-7.00991906 -1.48512141 -4.87831759 -1.18661779 0 0 Z " fill="#2F3C49" transform="translate(151,165)"/>
<path d="M0 0 C0.66 0 1.32 0 2 0 C4.1519437 3.22791555 4.20086443 4.28400809 4 8 C3.01 8 2.02 8 1 8 C1.020625 7.236875 1.04125 6.47375 1.0625 5.6875 C1.12942841 2.89814214 1.12942841 2.89814214 0 0 Z " fill="#2D3A42" transform="translate(297,131)"/>
<path d="M0 0 C2.25 0.25 2.25 0.25 4 1 C3.401875 1.2475 2.80375 1.495 2.1875 1.75 C-0.28647521 3.16370012 -1.43370255 4.65055383 -3 7 C-3.33 6.01 -3.66 5.02 -4 4 C-2.25 1.9375 -2.25 1.9375 0 0 Z " fill="#2E3F48" transform="translate(49,295)"/>
<path d="M0 0 C2 1.375 2 1.375 4 3 C4 3.66 4 4.32 4 5 C4.99 5.33 5.98 5.66 7 6 C6.67 6.66 6.34 7.32 6 8 C5.01 7.34 4.02 6.68 3 6 C3 5.34 3 4.68 3 4 C2.01 3.67 1.02 3.34 0 3 C0 2.01 0 1.02 0 0 Z " fill="#2E3943" transform="translate(180,55)"/>
</svg>
