<svg width="50" height="45" viewBox="0 0 50 45" fill="none" xmlns="http://www.w3.org/2000/svg">
<rect width="50" height="45" rx="8" fill="#23BDEE"/>
<path d="M18 6C17.4477 6 17 6.52766 17 7.17859V9.53571H19V7.17859C19 6.52766 18.5523 6 18 6Z" fill="white"/>
<path d="M32 6C31.4477 6 31 6.52766 31 7.17859V9.53571H32.9999V7.17859C33 6.52766 32.5523 6 32 6Z" fill="white"/>
<path d="M36 9.53571H33V13.7369C33 14.3169 32.5523 14.7872 32 14.7872C31.4477 14.7872 31 14.3169 31 13.7369V9.53571H19V13.7369C19 14.3169 18.5523 14.7872 18 14.7872C17.4477 14.7872 16.9999 14.3169 16.9999 13.7369V9.53571H14C12.3431 9.53571 11 10.9464 11 12.6866V32.642C11 34.3821 12.3431 35.7928 14 35.7928H36C37.6569 35.7928 39 34.3821 39 32.642V12.6866C39 10.9464 37.6569 9.53571 36 9.53571ZM37 32.642C37 33.222 36.5522 33.6923 35.9999 33.6923H14C13.4477 33.6923 13 33.222 13 32.642V18.9883H37V32.642Z" fill="white"/>
<path d="M19 21.0888H17C16.4477 21.0888 16 21.5591 16 22.1391C16 22.7192 16.4477 23.1894 17 23.1894H19C19.5523 23.1894 20 22.7192 20 22.1391C20 21.5591 19.5523 21.0888 19 21.0888Z" fill="white"/>
<path d="M26 21.0888H24C23.4477 21.0888 23 21.5591 23 22.1391C23 22.7192 23.4477 23.1894 24 23.1894H26C26.5523 23.1894 27 22.7192 27 22.1391C27 21.5591 26.5523 21.0888 26 21.0888Z" fill="white"/>
<path d="M33 21.0888H31C30.4477 21.0888 30 21.5591 30 22.1391C30 22.7192 30.4477 23.1894 31 23.1894H33C33.5523 23.1894 34 22.7192 34 22.1391C34 21.5591 33.5523 21.0888 33 21.0888Z" fill="white"/>
<path d="M19 25.2899H17C16.4477 25.2899 16 25.7602 16 26.3403C16 26.9203 16.4477 27.3906 17 27.3906H19C19.5523 27.3906 20 26.9203 20 26.3403C20 25.7602 19.5523 25.2899 19 25.2899Z" fill="white"/>
<path d="M26 25.2899H24C23.4477 25.2899 23 25.7602 23 26.3403C23 26.9203 23.4477 27.3906 24 27.3906H26C26.5523 27.3906 27 26.9203 27 26.3403C27 25.7602 26.5523 25.2899 26 25.2899Z" fill="white"/>
<path d="M33 25.2899H31C30.4477 25.2899 30 25.7602 30 26.3403C30 26.9203 30.4477 27.3906 31 27.3906H33C33.5523 27.3906 34 26.9203 34 26.3403C34 25.7602 33.5523 25.2899 33 25.2899Z" fill="white"/>
<path d="M19 29.4911H17C16.4477 29.4911 16 29.9613 16 30.5414C16 31.1214 16.4477 31.5916 17 31.5916H19C19.5523 31.5916 20 31.1214 20 30.5413C20 29.9612 19.5523 29.4911 19 29.4911Z" fill="white"/>
<path d="M26 29.4911H24C23.4477 29.4911 23 29.9613 23 30.5414C23 31.1215 23.4477 31.5917 24 31.5917H26C26.5523 31.5917 27 31.1215 27 30.5414C27 29.9613 26.5523 29.4911 26 29.4911Z" fill="white"/>
<path d="M33 29.4911H31C30.4477 29.4911 30 29.9613 30 30.5414C30 31.1215 30.4477 31.5917 31 31.5917H33C33.5523 31.5917 34 31.1215 34 30.5414C34 29.9613 33.5523 29.4911 33 29.4911Z" fill="white"/>
</svg>
