<svg xmlns="http://www.w3.org/2000/svg" viewBox="0 0 1200 800" width="1200" height="800"><path fill="#FFF" d="M0 0h1200v800H0z"/><g transform="translate(320.0 120.0) rotate(0.0 280.0 280.0) scale(0.582794855170275 0.582794855170275)"><svg width="960.887" height="960.887" viewBox="0 0 960.887 960.887"><clipPath id="a"><circle cx="480.443" cy="480.443" r="480.443"/></clipPath><circle cx="480.443" cy="480.443" fill="#AFB639" r="480.443"/><path d="M370.82 586.927C311.628 616.409 251.938 740.01 207.391 875.8a477.772 477.772 0 0 0 235.364 83.624c16.363-51.2 50.331-164.422 58.39-245.465 8.337-83.837-87.087-148.568-130.325-127.032z" fill="#ea2688"/><rect fill="#a85f36" height="330.316" rx="76.879" transform="matrix(-.97461291 .22389655 -.22389655 -.97461291 1153.27 804.687)" width="153.758" x="454.135" y="302.569"/><path d="M827.241 812.937c-10.694-116.9-21.9-221.413-54.257-237.033-35.5-17.135-147.277-39.352-147.277-39.352-49.563 18.308-101.072 22.635-154.138 15.78 0 0-64.158 14.012-100.749 34.6s-17.335 130.35-37.254 169.228-46.461 91.749-41.887 145.492a211.016 211.016 0 0 0 3.38 22.155 478.952 478.952 0 0 0 185.384 37.08c136.309 0 259.357-56.77 346.798-147.95z" fill="#ea2688"/><path d="m471.569 552.332-26.37 6.647s-19.615 86.287 45.974 90.978c71.158 5.088 141.416-35.349 166.8-106.576l-32.268-6.829z" fill="#a85f36"/><path d="M864.765 768.791c-5.72-94.535-31.1-172.786-91.781-192.887-87.466-28.973-153.71 153.259-168.492 211.251-10.431 40.92-20.294 120.329-25.2 163.543a480.546 480.546 0 0 0 285.473-181.907z" fill="#ea2688"/><path d="M334.485 248.422c-21.343 39.639-13.212 99.6-8.131 132.128s-14.229 58.949 8.131 97.571 73.913 59.058 121.45 55.1c45.92-3.825 135.425-48.258 135.425-132.787s-7.61-141.818-59.7-182.5c-58.21-45.465-160.971-36.747-197.175 30.488z" fill="#a85f36"/><g fill="#4f2000"><path d="M422.29 174.436c-16.822-9.808-51.672-10.139-59.25 11.848 0 0-48.23 3.349-36.867 40.747 0 0-29.144 2.212-22.722 36.374 5.64 30-32.512 25.212-34.225 46.509-1.855 23.057 29.947 25.27 11.733 41.562 17.1-1.081 25.873-12.72 10.835-28.421-5.567-5.812-3.2-16.8 7.582-16.269 16.776.829 37.179-14.7 41.438-46.031 4.9-36.072 55.395-36.072 55.395-36.072zm114.873-9.036c-5.284-31.368 18.816-54.116 37.6-31.916 0 0 23.3-28.58 38.621-16.546 9.587 7.531 9.266 24.768 9.266 24.768 15.522-11.262 48.351-8.927 58.518 26.862 0 0 38.312 7.171 24.034 44.911 25.671 26.756 31.752 67.1 1.03 86.6 0 0 3.321 33.268-46.774 34.292-68.345-37.392-103.388-90.085-122.295-168.971z"/><path d="M396.209 224.683c7.745-56.111 58.29-72.266 96.2-66.421 9.792-11.891 29.443-18.44 49.345-1.9 18.475-1.511 32.079 9.742 40.079 31.177 39.445-2.539 50.95 15.684 65.593 66.084 15.923 6.368 23.67 33.958 10.3 56.837 20.847 16.674 21.534 60.758.963 74.927 0 0 12.836 35.753-20.036 44.961-19.389 5.431-13.061 33.411 9.229 17.5-1.394 16.227-36.048 29.7-41.223 5.753l-8.96-39 12.683-41.538S553.154 371 540.5 298.413c-11.759-67.43-87.568-84.787-144.291-73.73z"/><path d="M525.036 251.23c13.6 23.7-4.14 52.179-.545 72.723 4.916 28.1 49.432 48.283 13.9 60.949 17.519 4.195 34.628-3.556 25.572-30.717-11.863-35.585 15.554-37.385-1.389-68.642-6.059-11.178-37.538-34.313-37.538-34.313z"/></g><path d="M671.551 340.744a7.5 7.5 0 0 1-7.5-7.5c0-4.671-6.794-13.049-11.383-17.241a7.51 7.51 0 0 1-1.167-9.741c5.419-8.028 7.013-19 4.263-29.337-2.077-7.809-6.434-14.006-11.654-16.574a7.5 7.5 0 0 1-4.035-5.223c-5.053-24.633-16.978-45.188-31.9-54.982-8.023-5.266-16.368-7.038-24.8-5.269a7.5 7.5 0 0 1-8.649-4.951c-9.591-28.55-29.554-26.489-31.8-26.157a7.5 7.5 0 0 1-2.416-14.8c11.144-1.882 34.2 2.4 46.212 30.351 10.179-.671 20.337 2.151 29.689 8.29 17.474 11.469 31.4 34.184 37.64 61.19 7.578 5.018 13.392 13.659 16.215 24.275a52.532 52.532 0 0 1-3.195 36.153c4.952 5.415 11.98 14.733 11.986 24.01a7.5 7.5 0 0 1-7.5 7.505z" fill="#111"/><path d="M443.554 213.373c12.815 6.252 14.364 20.29 9.076 34.187-7.053 18.537 7.439 37.263 29.577 29.008-20.448-5.774-10.336-19.682-2.631-34.724 8.309-16.222 9.131-38.073-10.466-42.622s-25.556 14.151-25.556 14.151z" fill="#4f2000"/><path d="M583.4 364.025c9.83-24.006 67.437-8.456 41.971 33.26-13.121 21.494-30.884 30.093-41.971 23.758s-7.916-37.68 0-57.018z" fill="#a85f36"/><ellipse cx="478.29" cy="365.263" fill="#fff" rx="30.376" ry="35.193" transform="matrix(.99133516 -.13135674 .13135674 .99133516 -43.834 65.99)"/><ellipse cx="476.813" cy="362.669" fill="#111" rx="18.659" ry="27.3" transform="matrix(.99133516 -.13135674 .13135674 .99133516 -43.506 65.773)"/><ellipse cx="363.076" cy="375.881" fill="#fff" rx="27.313" ry="32.938" transform="matrix(.99133516 -.13135674 .13135674 .99133516 -46.227 50.948)"/><ellipse cx="364.184" cy="373.271" fill="#111" rx="16.848" ry="25.477" transform="matrix(.99133516 -.13135674 .13135674 .99133516 -45.875 51.071)"/><path d="M589.356 415.787a7.5 7.5 0 0 1-7.5-7.351c-.355-17.8 8.5-38.144 26.114-42.591a7.5 7.5 0 1 1 3.672 14.543c-7.5 1.9-15.087 12.792-14.789 27.749a7.5 7.5 0 0 1-7.349 7.648c-.047.002-.097.002-.148.002z" fill="#773a11"/><path d="M604.014 402.492a7.456 7.456 0 0 1-3.793-1.035l-10.721-6.3a7.5 7.5 0 0 1 7.6-12.932l10.72 6.3a7.5 7.5 0 0 1-3.807 13.967z" fill="#773a11"/><path d="M378.71 322.193c15.328 6.642 26.679-23.706 7.369-28.887s-55.535 5.506-66.569 21.848-2.674 25.605 10.218 13.968c10.64-9.604 34.853-13.052 48.982-6.929zm64.844-3.593c-14.164 7.689-24.187-20.5-7.809-26.611 16.58-6.187 57.008-5.949 75.465 14.936 9.358 10.59 3.076 23.254-10.107 16.223s-42.169-12.898-57.549-4.548z" fill="#111"/><path d="M391.3 434.988a7.5 7.5 0 0 1-7.478-7.026c-.766-12.082 5.156-22.247 15.455-26.527 11.292-4.693 24.489-1.058 33.621 9.263a7.5 7.5 0 1 1-11.234 9.939c-5.856-6.617-12.62-7.019-16.63-5.35-4.326 1.8-6.6 6.071-6.242 11.726a7.5 7.5 0 0 1-7.01 7.96 7.88 7.88 0 0 1-.482.015z" fill="#773a11"/><path d="M485.129 445.8c6.147-6.977 19.656 40.586-22.931 55.52-37.232 13.056-63.6-13.242-56.7-15.224 23.816-6.843 56.767-14.348 79.631-40.296z" fill="#fff"/><path d="M466.821 539.2a7.5 7.5 0 0 1-1.674-14.812c39.882-9.167 70.56-25.839 86.382-46.949a7.5 7.5 0 0 1 12 9c-17.943 23.933-51.689 42.604-95.021 52.561a7.53 7.53 0 0 1-1.687.2z" fill="#773a11"/><path d="M396.218 232.183q-.344 0-.691-.032A7.5 7.5 0 0 1 388.74 224c2.052-22.485 11.435-40.565 28.684-55.272a7.5 7.5 0 1 1 9.732 11.414c-14.316 12.207-21.776 26.576-23.478 45.221a7.5 7.5 0 0 1-7.46 6.82zm166.359 123.504a7.5 7.5 0 0 1-6.9-4.549c-5.629-13.136-1.84-23.395 1.5-32.445 3.548-9.607 6.351-17.194-1.009-29.24a7.5 7.5 0 1 1 12.8-7.821c11.149 18.246 6.232 31.56 2.281 42.258-2.938 7.953-5.06 13.7-1.786 21.342a7.5 7.5 0 0 1-6.891 10.455z" fill="#111"/><g clip-path="url(#a)" fill="#b7006d"><path d="M285.148 927.605a7.5 7.5 0 0 1-7.313-5.867 974.23 974.23 0 0 1-3.552-16.562c-8.224-40.058 30.911-112.351 49.717-147.092 1.061-1.96 2.052-3.791 2.959-5.478a7.5 7.5 0 0 1 13.21 7.107c-.913 1.7-1.91 3.539-2.978 5.511-16.56 30.591-55.342 102.23-48.217 136.936a958.588 958.588 0 0 0 3.5 16.308 7.511 7.511 0 0 1-7.326 9.137zm293.7 30.549q-.375 0-.756-.038a7.5 7.5 0 0 1-6.716-8.21c4.356-43.488 13.514-122.735 25.921-164.868a7.5 7.5 0 1 1 14.389 4.236c-12.061 40.963-21.081 119.16-25.386 162.126a7.5 7.5 0 0 1-7.452 6.754z"/></g></svg></g></svg>