<svg height="1042" viewBox="0 0 1041.422 1041.422" width="1042" xmlns="http://www.w3.org/2000/svg" xmlns:xlink="http://www.w3.org/1999/xlink"><clipPath id="a"><ellipse cx="616.575" cy="335.811" rx="24.149" ry="27.535"/></clipPath><clipPath id="b"><ellipse cx="521.008" cy="337.811" rx="27.108" ry="30.098"/></clipPath><clipPath id="c"><circle cx="520.711" cy="520.711" r="520.711"/></clipPath><circle cx="520.711" cy="520.711" fill="#5917c1" r="520.711"/><path d="m493.094 497.513c32.359-64.718 9.311-383.654-68.422-359.464-96.733 30.1-111.006 105.886-131.852 194.167-30.373 128.63-182.24 98.855-249.631 205.162a355.408 355.408 0 0 0 -35.255 74.35c24.937 141.455 106.971 263.219 221.455 340.636 117.03-9.54 244.794-57.731 267.713-115.049 55.79-139.528-54.313-239.19-4.008-339.802z" fill="#ea2688"/><path d="m745.443 922.58c-25.192-54.78-186.806-370.965-214.743-385.618-66.33-34.8-148.9 73.618-120.352 181.993 19.389 73.611 69.1 145.294 129.4 296.651 3.559 8.934 7.311 17.219 11.224 24.94a517.667 517.667 0 0 0 217.06-61.5c-7.713-22.375-16.167-42.501-22.589-56.466z" fill="#5ac4ff"/><path d="m774.417 562.413c-11.34-15.064-180.993 40.877-180.733 56.587.248 14.994 204.555-24.942 180.733-56.587z" fill="#111"/><path d="m590.713 541.037 67.5 229.133c32.2 120.759 203.9 40.736 146.948-71.353-1.511-2.973-95.377-197.55-95.377-197.55-19.184-39.927-130.218 1.375-119.071 39.77z" fill="#f4bbab"/><path d="m630.71 680.711c-10.474 49.159-3.421 71.45 17.252 115.9s6.521 48.451 14.79 71.191c0 0-13.74 65.118 16.055 100.7a283.826 283.826 0 0 0 -3.6 49.617 521.307 521.307 0 0 0 246.524-165.247c-23.675-42.019-135.057-221.772-135.057-221.772s-152.122 31.578-155.964 49.611z" fill="#5ac4ff"/><path d="m623.034 695.3c-13.132-23.68-29.264-47.9-29.35-76.3 17.37 11.877 185.59-31.027 180.733-56.588 18.784 25.117 24.17 50.944 30.045 76.019 0 0-20.183 25.815-68.473 42.279-55.259 18.841-112.955 14.59-112.955 14.59z" fill="#5ac4ff"/><g fill="#f4bbab"><path d="m590.713 541.037c-7.363-23.647-5.656-57.626 35.421-85.18s50.148-53.249 50.148-53.249 123.661-6.973 116.982 13.532c-11.045 33.91-69.741 85.314-72.456 107.975-4.02 33.551-124.801 33.928-130.095 16.922z"/><path d="m793.264 416.14c9.5-32.392 16.733-75.07 16.574-99.88s-7.035-73.291-8.14-90.992c-2.044-32.718-40.575-37.132-38.826 3.606 1.914 44.585 7.67 83.037 7.67 83.037l-15.669 93.925z"/><path d="m769.871 408.212c5.785-21.815 14.173-77.809 13.18-94.089s-49.691-80.02-58.53-92.446c-17.043-23.959-49.1-6.78-29.429 22.162 23.228 34.183 49.4 73.716 49.4 73.716l-11.331 87.157z"/><path d="m746.494 407.921c4.85-19.82 17.381-67.733 11.976-88.231s-65.286-50.958-76.969-57.369c-20.312-11.145-37.033 24.454-11.8 38.227s50.415 29.82 50.415 29.82l-11.142 71.6z"/><path d="m718.893 406.742c6.1-14.958 17.548-53 13.374-65.527-4.6-13.8-36.31-29.792-45.094-35.986-23.152-16.325-40.939 20.736-17.635 35.922 16.342 10.65 24.679 17.7 24.679 17.7l-17.935 43.752z"/></g><path d="m769.876 415.713a7.509 7.509 0 0 1 -7.294-9.27c6.819-28.1 12.879-71.254 12.969-92.353.03-7.022-8.45-20.4-14.48-27.658a7.5 7.5 0 0 1 11.527-9.6c1.844 2.214 18.018 22.067 17.953 37.323-.1 22.037-6.352 66.815-13.392 95.825a7.5 7.5 0 0 1 -7.283 5.733z" fill="#e09273"/><path d="m746.5 415.422a7.509 7.509 0 0 1 -7.3-9.25c.563-2.348 1.356-5.366 2.275-8.859 4.913-18.67 15.134-57.52 9.8-75.49-3.737-12.6-24.513-25.444-32.2-29.33a7.5 7.5 0 0 1 6.75-13.4c3.42 1.722 33.6 17.429 39.833 38.46 6.02 20.295-1.839 53.779-9.677 83.572-.9 3.408-1.671 6.352-2.2 8.539a7.5 7.5 0 0 1 -7.281 5.758z" fill="#e09273"/><path d="m718.893 414.244a7.506 7.506 0 0 1 -7.045-10.074c14.655-40.155 14.521-55.552 13.138-61.157-1.125-4.555-19.33-19.962-41.215-31.1-8.673-4.415-12.5-4.037-12.532-4.037a2.142 2.142 0 0 0 .69-.167l-4.454-14.324c2.421-.75 9.515-1.756 23.1 5.16.444.226 44.592 23.129 48.973 40.872 3.232 13.086-1.22 35.95-13.609 69.9a7.506 7.506 0 0 1 -7.046 4.927z" fill="#e09273"/><path d="m678.814 976a7.493 7.493 0 0 1 -6.163-3.217c-28.723-41.289-20.229-92.491-17.729-104.363-3.122-8.327-3.323-15.324-3.534-22.7-.313-10.895-.668-23.242-10.338-46.209-2.094-4.973-4.236-9.648-6.306-14.17-11.178-24.41-20.831-45.492-12.609-89.1a7.5 7.5 0 0 1 14.74 2.78c-7.338 38.919.567 56.181 11.507 80.074 2.118 4.625 4.308 9.408 6.492 14.6 10.76 25.551 11.174 39.994 11.508 51.6.213 7.429.367 12.8 3.263 19.545a7.5 7.5 0 0 1 .379 4.793c-.132.529-13.109 54.264 14.94 94.584a7.5 7.5 0 0 1 -6.15 11.783z" fill="#2199ce"/><path d="m633.842 704.088c-11.33 0-13.766-1.706-15.111-2.648-13.338-9.341-26.086-38.308-29.655-67.377a7.5 7.5 0 1 1 14.889-1.828 133.121 133.121 0 0 0 10.309 37.436c4.712 10.462 9.432 16.6 12.5 19.057 3.617.728 17.944.607 43.758-2.752 24.494-3.188 48.15-7.838 63.278-12.44 33.423-10.169 57.195-32.07 57.431-32.291a7.5 7.5 0 0 1 10.224 10.977c-1.068.994-26.581 24.5-63.289 35.664-16.631 5.06-42.265 10.043-68.573 13.33-17.166 2.145-28.36 2.872-35.761 2.872z" fill="#2199ce"/><path d="m696.206 905.827a7.462 7.462 0 0 1 -3.672-.966c-2.9-1.632-28.558-16.45-36.6-33.93a7.5 7.5 0 0 1 13.628-6.268c5.118 11.129 23.627 23.355 30.326 27.127a7.5 7.5 0 0 1 -3.686 14.037z" fill="#2199ce"/><rect fill="#f4bbab" height="229.577" rx="66.108" transform="matrix(.91291968 .40813927 -.40813927 .91291968 223.827 -127.351)" width="132.215" x="344.242" y="346.058"/><path d="m527.722 652.066c-9.322-33.588-25.114-125.395-49.7-130.193 0 0-117.644-14.986-187.946-25.583s-97.635 12.642-128.145 63.064c-20.532 33.932-46.283 157.356-56.8 275.122 95.059 125.71 245.833 206.946 415.586 206.946q23.357 0 46.2-2.025c1.9-15.723 4.209-32.061 7.343-48.225 14.9-76.871 35.011-135.557 20.042-186.79-18.256-62.477-37.979-49.26-66.58-152.316z" fill="#111"/><path d="m290.073 489.053c28.15 5.643 174.055 24.285 184.536 26.418s12.665 142.239-17.7 145.447c-46.559 4.918-166.836-171.865-166.836-171.865z" fill="#f4bbab"/><path d="m527.722 652.066c-9.322-33.588 21.66-98.409 2.98-115.1-24.043-21.491-70.465-25.731-70.465-25.731 6.749 43.892 11.6 95.388 21.415 149.787 14.5 80.388 51.531 128.093 51.721 161 .342 59.555-20.042 141.1-26.455 183.583-1.388 9.194-3.359 21.626-5.594 35.462q9.649.354 19.387.359a526.7 526.7 0 0 0 55.271-2.908c1.619-18.157 3.2-34.584 5.251-45.838 14.378-78.7 35.846-139.13 20.877-190.363-18.254-62.481-45.787-47.195-74.388-150.251z" fill="#5ac4ff"/><path d="m403.087 575.036 7.263-37.336-80.22-59.389-15.473 20.916s-108.406-26.038-143.895 12.009c-36.284 38.893-78.492 147.484-109.142 255.385 71.855 133.865 200.54 232.679 353.793 264.146 9.3-71.07 16.09-154.858 13.26-198.453-5.332-82.153-25.586-257.278-25.586-257.278z" fill="#5ac4ff"/><path d="m525.672 407.921c-1.048 69.852 25.623 93.706 29.561 135.655 3.127 33.3-9.167 71.891-32.446 96.734 0 0 8.362-50.546-9.461-96.734-12.35-32-38.717-28.105-33.491-90.572 2.854-34.117 45.837-45.083 45.837-45.083z" fill="#ea2688"/><path d="m335 450.584 75.35 87.116c-12.033 17.674-21.65 38.43-28.15 63.134-33.07-36-59.141-70.556-75.754-103.15z" fill="#5ac4ff"/><path d="m472.281 484.292c20.813 13.221 58.042 89.736 49.16 118.569-5.032-16.884-25.536-30.912-39.789-31.959l-9.371 29.932-12.915-87.653z" fill="#5ac4ff"/><path d="m369.868 389.423c-17.229 38.537 32.7 95.722-9.651 126.048-34.1 24.422-65.051-27.041-84.818-30.4-19.608-3.323 37.311-128.171 94.469-95.648z" fill="#ea2688"/><path d="m636.734 230.563c15.541 28.073 10.436 82.742 8.2 106.6s8.126 57.6-.388 87.931c-9.422 33.568-52.538 67.864-98.754 66.373s-104.373-42.135-138.663-96.552-19.368-198.638 67.847-216.528 138.65 10.432 161.758 52.176z" fill="#f4bbab"/><path d="m409.311 332.216c30.232-24.927 28.217-52.472 54.418-66.58s80.618-42.325 100.1-71.213c0 0 54.521-.142 80.877 60.322 10.413-18.036-3.086-69.024-57.364-101.974-45.18-27.429-112.968-29.683-162.671-14.722-57.986 17.451-104.605 101.151-61.715 187.379 13.949 28.043 46.355 6.788 46.355 6.788z" fill="#ea2688"/><path d="m409.311 332.216c-16.245-47-81.961-41.051-68.525 10.679s40.309 51.73 57.776 49.715 17.545-40.732 10.749-60.394z" fill="#f4bbab"/><path d="m606.872 292.968c-14.73 8.942-26.539-10.437-8.473-19.926 16.06-8.435 36.374-6.835 49.563 1.152 9.418 5.7 8.25 16.258 1.153 14.731-10.885-2.342-30.429-3.125-42.243 4.043z" fill="#b7006d"/><path d="m544.5 293.957c15.212 8.718 26.13-12.425 7.666-21.956-15.463-7.981-49.317-7.125-64.586 2.133-13.422 8.139-10.739 18.033.2 14.948 16.989-4.793 41.399-3.905 56.72 4.875z" fill="#b7006d"/><path d="m596.519 398.523a7.506 7.506 0 0 1 -7.019-10.142c2.3-6.126 1.283-9.089.814-9.293-1.27-.554-7.886 1.12-13.473 12.354a7.5 7.5 0 0 1 -13.431-6.68c9.058-18.21 23.4-23.559 32.891-19.427 7.091 3.087 13.243 12.358 7.239 28.326a7.5 7.5 0 0 1 -7.021 4.862z" fill="#e09273"/><path d="m551.749 456.588c-20.709 0-39.352-11.034-45.454-27.448a7.5 7.5 0 1 1 14.061-5.227c4.148 11.161 19.578 18.849 35.119 17.515a7.5 7.5 0 0 1 1.286 14.945q-2.52.217-5.012.215z" fill="#e09273"/><path d="m393.61 371.846a7.5 7.5 0 0 1 -7.477-7.027c-1.19-18.84-14.6-31.282-23.692-31.908a7.5 7.5 0 1 1 1.03-14.965c16.846 1.16 35.987 19.892 37.631 45.927a7.5 7.5 0 0 1 -7.012 7.958c-.16.01-.321.015-.48.015z" fill="#e09273"/><path d="m373.623 361.451a7.5 7.5 0 0 1 -5.433-12.669l12.238-12.865a7.5 7.5 0 0 1 10.872 10.338l-12.242 12.865a7.481 7.481 0 0 1 -5.435 2.331z" fill="#e09273"/><path d="m563.822 201.924a7.5 7.5 0 0 1 -7.366-6.133c-6.548-35.286-44.3-57.088-98.657-57.088-.479 0-.951 0-1.432 0h-.053a7.5 7.5 0 0 1 -.051-15h1.534c62.064 0 105.452 26.488 113.407 69.352a7.5 7.5 0 0 1 -7.382 8.869z" fill="#b7006d"/><ellipse cx="616.575" cy="335.811" fill="#fff" rx="24.149" ry="27.535"/><g clip-path="url(#a)"><ellipse cx="613.293" cy="333.331" fill="#111" rx="14.912" ry="21.853"/></g><ellipse cx="521.008" cy="337.811" fill="#fff" rx="27.108" ry="30.098"/><g clip-path="url(#b)"><ellipse cx="518.791" cy="334.69" fill="#111" rx="17.063" ry="23.315"/></g><path d="m479.152 476.254a7.466 7.466 0 0 1 -3.628-.94c-17.883-9.906-34.592-27.325-39.287-32.429a7.5 7.5 0 1 1 11.038-10.156c4.31 4.683 19.607 20.649 35.518 29.464a7.5 7.5 0 0 1 -3.641 14.061z" fill="#e09273"/><path d="m387.881 403.276a34.838 34.838 0 0 1 -22.764-8.05 7.5 7.5 0 1 1 9.5-11.606c5.521 4.522 11.521 5.63 20.709 3.832a7.5 7.5 0 1 1 2.882 14.72 53.623 53.623 0 0 1 -10.327 1.104z" fill="#e09273"/><path d="m581.243 1000.176a7.5 7.5 0 0 1 -7.432-8.577c2.547-17.576 6.566-35.663 10.821-54.812 10.128-45.584 20.6-92.718 10.22-132.584-4.8-18.438-13.771-31.211-25.127-47.384-15.553-22.15-34.91-49.716-49.244-102.8a7.5 7.5 0 0 1 14.481-3.91c13.646 50.533 31.387 75.8 47.039 98.088 11.743 16.722 21.884 31.165 27.367 52.224 11.292 43.367.42 92.3-10.094 139.618-4.192 18.867-8.151 36.688-10.618 53.71a7.5 7.5 0 0 1 -7.413 6.427z" fill="#2199ce"/><path d="m326.576 539.467c-49.944-112.951-196.191-55.234-201.023 48.262-3.531 75.613 15.019 194.6 26.172 300.383a520.379 520.379 0 0 0 222.549 132.426c19.543-31.038 32.686-61.138 31.663-79.868-3.125-57.17-36.372-303.981-79.361-401.203z" fill="#5ac4ff"/><path d="m520.711 1041.422a518.439 518.439 0 0 0 242.809-59.96c-19.031-8.55-44.076-14.409-51.841-12.648a76.932 76.932 0 0 0 -15.885 7.105c-44.12-13.254-112.5-32.824-141.891-36.09-45.128-5.014-47.369-15.966-72.251-21.729-28.87-6.685-71.3 9.193-71.3 9.193-24.488-19.221-46.329-2.183-76.24 12.536-23.488 11.559-44.12 24.574-60.968 39.084a518.389 518.389 0 0 0 247.567 62.509z" fill="#5ac4ff"/><path d="m696.21 983.171a7.476 7.476 0 0 1 -2.857-.568c-12.462-5.142-111.156-29.952-140.8-35.4-16.722-3.072-29.494-7.708-41.846-12.191-10-3.629-19.445-7.058-30.7-9.6-23.61-5.327-66.855 8.852-67.288 9a7.5 7.5 0 0 1 -5.651-.378c-21.334-10.41-32.179-5.078-50.147 3.756-5.872 2.888-12.528 6.16-20.142 9.051a7.5 7.5 0 0 1 -5.325-14.023c6.954-2.641 13-5.614 18.849-8.489 18.365-9.028 34.308-16.866 60.582-5.07 10.745-3.3 48.386-13.9 72.425-8.475 12.182 2.751 22.52 6.5 32.518 10.131 11.773 4.274 23.946 8.693 39.438 11.538 29.259 5.374 128.985 30.166 143.815 36.283a7.5 7.5 0 0 1 -2.864 14.435z" fill="#2199ce"/><path d="m404.605 932.255a7.5 7.5 0 0 1 -7.448-6.71c-11.91-112.257-28.522-210.612-50.787-300.685a7.5 7.5 0 1 1 14.561-3.6c22.432 90.744 39.16 189.759 51.142 302.7a7.51 7.51 0 0 1 -7.468 8.292z" fill="#2199ce"/><g clip-path="url(#c)" fill="#2199ce"><path d="m152.346 895.537a7.5 7.5 0 0 1 -7.436-6.6c-5.963-49.327-11.249-105.025-17.369-169.519-2.385-25.133-4.851-51.124-7.515-78.378a7.5 7.5 0 0 1 14.929-1.459c2.665 27.275 5.133 53.276 7.519 78.42 6.11 64.39 11.388 120 17.327 169.135a7.5 7.5 0 0 1 -6.546 8.347 7.764 7.764 0 0 1 -.909.054z"/><path d="m648.153 1033.21a7.5 7.5 0 0 1 -6.33-11.51c20.039-31.676 38.838-48.455 67.049-59.841 11.427-4.613 41.739 3.988 58.323 11.7a7.5 7.5 0 0 1 -6.324 13.6c-19.428-9.033-42.045-12.834-46.428-11.374-24.944 10.07-41.763 25.2-59.945 53.934a7.494 7.494 0 0 1 -6.345 3.491z"/></g><path d="m382.2 608.334a7.5 7.5 0 0 1 -5.424-2.319c-2.224-2.328-54.6-57.356-65.841-87.029a7.5 7.5 0 1 1 14.026-5.315c7.609 20.079 38.571 55.652 53.934 72.557 6.7-18.1 18.926-42.608 25.094-52.5a7.5 7.5 0 1 1 12.728 7.935c-7.292 11.7-24.117 46.444-27.185 60.746a7.5 7.5 0 0 1 -7.332 5.926z" fill="#2199ce"/><path d="m521.436 610.361a7.5 7.5 0 0 1 -7.292-5.767c-2.076-8.742-8.141-15.766-18.027-20.877a59.117 59.117 0 0 0 -9.416-3.839l-7.262 23.2a7.5 7.5 0 1 1 -14.315-4.481l9.37-29.932a7.492 7.492 0 0 1 8.313-5.169c1 .156 16.435 2.7 29.39 12.678a145.417 145.417 0 0 0 -18.278-50.374 7.5 7.5 0 0 1 12.89-7.67c25.446 42.762 22.253 83.656 22.1 85.375a7.5 7.5 0 0 1 -6.92 6.835c-.183.014-.369.021-.553.021z" fill="#2199ce"/><path d="m463.729 265.636c-21.973 34.633-6.359 107.182-5.1 150.294 1.345 45.923-21.8 77.3-32.486 97.633-11.409 21.718-13.366 60.968-2.388 77.858 0 0-39.31-50.169-28.008-94.986 5.865-23.261 21.395-33.046 25.121-76.529 2.065-24.1-.515-49.694-11.56-87.69-9.093-31.295 28.013-97.816 54.421-66.58z" fill="#ea2688"/><path d="m600.155 488.214a7.5 7.5 0 0 1 -6.461-11.3c6.167-10.5 21.647-22.462 28.016-27.115a7.5 7.5 0 1 1 8.848 12.111c-11.516 8.415-20.685 17.074-23.928 22.6a7.5 7.5 0 0 1 -6.475 3.704z" fill="#e09273"/></svg>