<svg height="958" viewBox="0 0 957.582 957.582" width="958" xmlns="http://www.w3.org/2000/svg" xmlns:xlink="http://www.w3.org/1999/xlink"><clipPath id="a"><circle cx="478.791" cy="478.791" r="478.791"/></clipPath><circle cx="478.791" cy="478.791" fill="#e3e5e5" r="478.791"/><path d="m630.7 488.608c-7.508-15.016-59.163-27.874-140.767-22.676s-107.453 17.231-127.07 34.135c-11.65 10.251-2.44 62.038-2.44 62.038 22.327-42.983 62.96-40.222 129.511-43.4 67.625-3.231 117.913-5.32 139.015 27.174 4.39-9.938 6.579-41.828 1.751-57.271z" fill="#40b509"/><rect fill="#e09273" height="343.606" rx="82.508" transform="matrix(.99861304 -.05264968 .05264968 .99861304 -24.494 26.584)" width="165.015" x="409.806" y="306.395"/><path d="m78.458 741.517a481.006 481.006 0 0 0 181.962 163.477l50.338-104.377-71.926-221.856c-67.948 9.812-115.822 82.064-160.374 162.756z" fill="#2471ed"/><path d="m716.939 521.094c-41.015 2.486-117.526 13.165-117.526 13.165-59.613 15.673-164.473 30.562-213.665 18.891 0 0-115.844 20.639-146.916 25.611s-17.805 110.122-25.262 179.724c-3.959 36.951-3.364 79.508-.633 118.556a479 479 0 0 0 543.66-8.255c-.145-8.787-.126-15.875.114-20.813 2.489-50.958 1.243-329.365-39.772-326.879z" fill="#2471ed"/><path d="m478.791 957.582a476.62 476.62 0 0 0 232.909-60.374c-1.92-41.621-5.042-78.585-8.638-78.584-64.353 22.865-363.838 28.187-426.826 18.494-4.992 17.194-7.42 43.865-8.107 71.741a476.823 476.823 0 0 0 210.662 48.723z" fill="#5ac4ff"/><path d="m413.4 548.452-27.647 4.7s1.428 76.594 87.12 73.718c87.059-2.922 121.013-68.5 126.545-92.609l-21.44 1.639z" fill="#e09273"/><path d="m923.131 657.441c-51.847-72.965-121.47-141.634-206.192-136.347 0 0-40.61 213.946-20.666 239.33 11.993 15.263 39.686 68.592 59.864 108.694a480.364 480.364 0 0 0 166.994-211.677z" fill="#2471ed"/><path d="m597.944 635.4c-7.837 24.022-16.433 52.944-32.394 59.665l-28.45-9.281c-22.168-7.232-30.868-41.515-19.431-76.572s38.679-57.615 60.848-50.383l28.454 9.283c7.638 14.917-1.632 44.619-9.027 67.288z" fill="#111"/><ellipse cx="586.259" cy="631.589" fill="#40b509" rx="66.77" ry="42.221" transform="matrix(.31014551 -.9506891 .9506891 .31014551 -196.012 993.054)"/><path d="m626.954 542.43s-8.836-10.786-20.638-15.677c-9.53-3.95 26.37-27.786 24.385-38.145 3.958 26.897 14.227 46.371-3.747 53.822z" fill="#40b509"/><path d="m630.7 488.608a298.139 298.139 0 0 1 14.126 52.73c1.212 19.417-3.057 61.262-15.266 73.656-12.477 12.667-30.147-33.8-30.147-33.8 6.887-9.119 14.628-28.327 20.8-41.482 7.578-21.441 12.058-40.231 10.487-51.104z" fill="#40b509"/><path d="m584.842 691.474a26.035 26.035 0 0 1 -8.117-1.287c-20.511-6.691-28.231-37.515-17.577-70.173 4.852-14.882 12.852-27.872 22.529-36.577 10.789-9.71 22.525-13.168 33.049-9.732a7.5 7.5 0 1 1 -4.653 14.26c-5.132-1.672-11.825.74-18.362 6.622-7.75 6.973-14.25 17.656-18.3 30.079-6.787 20.8-5.183 46.971 7.968 51.262 4.734 1.54 9.721-.576 13.07-2.625a7.5 7.5 0 1 1 7.831 12.793 33.48 33.48 0 0 1 -17.438 5.378z" fill="#297700"/><path d="m622.5 540.536a7.5 7.5 0 0 1 -6.777-10.7c6.942-14.7 9.492-28.172 7.578-40.029a7.5 7.5 0 1 1 14.808-2.391c2.406 14.9-.562 31.33-8.822 48.824a7.5 7.5 0 0 1 -6.787 4.296z" fill="#297700"/><path d="m389.277 639.183c4.088 20.262 9.581 52.528 15.47 63.941 0 0 25.7-4.929 29.581-5.712 8.741-1.764 9.865-32.746 2.51-69.2s-20.405-64.579-29.146-62.815c-4.371.882-29.581 5.712-29.581 5.712-.454 12.522 7.489 49.846 11.166 68.074z" fill="#111"/><path d="m369.3 643.489c3.957 19.612 8.41 43.95 11.847 57.2 0 0 19.565 3.247 23.6 2.432 8.741-1.764 9.865-32.746 2.51-69.2s-20.4-64.578-29.146-62.815c-3.971.8-20.663 12.145-20.663 12.145-.895 12.777 7.834 40.349 11.852 60.238z" fill="#40b509"/><ellipse cx="369.296" cy="641.973" fill="#40b509" rx="16.147" ry="59.903" transform="matrix(.98024702 -.1977771 .1977771 .98024702 -119.672 85.718)"/><path d="m372.486 544.872c-7.15 6.805-8.647 14.054-10.063 17.233s-13.845-47.075.44-62.038c5.249-5.498 9.623 44.805 9.623 44.805z" fill="#40b509"/><path d="m362.863 500.067c-8.49 6.14-19.267 46.959-20.308 55.564-2.421 20.015-.2 45.643 8.992 78.59 10.253 36.719 18.053-35.512 17.753-45.489-.133-4.35 1.682-8.506 0-13.107-8.7-23.785-15.964-65.148-6.437-75.558z" fill="#40b509"/><path d="m365.333 595a7.5 7.5 0 0 1 -7.2-5.4c-7.572-26-10.474-73.676 6.783-98.267a7.5 7.5 0 1 1 12.278 8.617c-12.49 17.8-12.493 58.556-4.659 85.456a7.506 7.506 0 0 1 -7.2 9.6z" fill="#297700"/><path d="m381.135 708.194a7.5 7.5 0 0 1 -2.426-14.6c2.731-3.826 5.19-22.965-.937-53.335s-15.816-47.06-19.816-49.527a7.5 7.5 0 0 1 -1.991-14.835c8.089-1.635 15.778 4.742 22.858 18.947 5.512 11.061 10.361 26.135 13.652 42.448s4.667 32.088 3.874 44.421c-1.018 15.838-5.635 24.7-13.723 26.327a7.526 7.526 0 0 1 -1.491.154z" fill="#297700"/><path d="m351.577 224.537c-7.588 28.074-57.6 214.313-43.159 240.364 19.448 35.081 134.056 53.268 206.01 14.485 66.761-35.984 70.27-153.733 61.964-191.525-32.192-146.461-207.092-128.886-224.815-63.324z" fill="#e09273"/><path d="m562.123 357.8c-17.78-14.5-26.649-72.192-21.636-98.38-20.621 4.654-64.768-16.14-66.687-36.462-10.076 15.832-58.18 11.374-59.952-9.3 0 0-47.81 46.889-91.87 13.394-32.216-24.492-20.059-73.775-.956-87.325 27.981-19.849 59.542-6.922 70.257.709 8.156-31.185 53.734-39.821 68.623-7.38 32.609-41.556 114.169-12.29 111.513 41.009 23.767-13.567 43.259 11.831 26.721 30.142 44.341-7.068 76.155 64.141 42.962 94.091 19.058 6.913 25.809 63.958-4.569 73.067 11.378 36.641-16.987 83.858-63.277 74.9l-1.652-31.834z" fill="#773a11"/><ellipse cx="475.636" cy="337.607" fill="#fff" rx="36.275" ry="30.826" transform="matrix(.08225161 -.9966116 .9966116 .08225161 100.049 783.861)"/><ellipse cx="475.636" cy="335.442" fill="#111" rx="26.584" ry="18.636" transform="matrix(.08225161 -.9966116 .9966116 .08225161 102.206 781.874)"/><ellipse cx="357.008" cy="334.303" fill="#fff" rx="33.498" ry="27.055" transform="matrix(.08225161 -.9966116 .9966116 .08225161 -5.529 662.602)"/><ellipse cx="360.171" cy="333.442" fill="#111" rx="24.929" ry="17.475" transform="matrix(.08225161 -.9966116 .9966116 .08225161 -1.768 664.964)"/><path d="m455.19 288.475c-13.494 5.47-22-15.806-8.957-23.064 18.2-10.128 53.14-7.153 66.487 9.038 11.107 13.472 1.83 24.749-6.212 19s-30.872-13.263-51.318-4.974z" fill="#4f2000"/><path d="m383.359 259.727c14.051 7.366 9.9 27.955-7.061 25.3-13.949-2.183-34.424-.426-43.659 6.235-6.373 4.6-11.272-8.98-5.235-16.682 8.696-11.097 43.332-21.471 55.955-14.853z" fill="#4f2000"/><path d="m383.8 396.224a7.5 7.5 0 0 1 -7.173-5.322c-7-23.023 3.185-30.111 7.887-32.09 9.264-3.9 21.875 1.531 27.537 11.855a7.5 7.5 0 0 1 -13.151 7.213c-2.276-4.153-6.983-5.907-8.566-5.241-.813.341-2.232 4.428.647 13.9a7.509 7.509 0 0 1 -7.179 9.683z" fill="#a85f36"/><path d="m426.167 456.97a45.826 45.826 0 0 1 -13.593-1.956 7.5 7.5 0 1 1 4.468-14.319c15.449 4.823 36.218-3.521 41.153-16.533a7.5 7.5 0 1 1 14.025 5.32c-6.713 17.7-27.452 27.488-46.053 27.488z" fill="#a85f36"/><path d="m559.123 355.72c17.832-43.985 58.251-17.237 52.9 22.587-5.011 37.305-36.852 48.288-51.712 39.6s-7.786-45.907-1.188-62.187z" fill="#e09273"/><path d="m572.7 404.765a7.5 7.5 0 0 1 -7.4-6.34c-2.139-13.649 1.572-29.421 9.235-39.249 4.86-6.235 11.084-9.863 18-10.492a7.5 7.5 0 1 1 1.361 14.937c-2.719.248-5.253 1.855-7.531 4.777-5.108 6.551-7.734 18.2-6.245 27.7a7.5 7.5 0 0 1 -6.248 8.571 7.629 7.629 0 0 1 -1.172.096z" fill="#a85f36"/><path d="m588.842 387.077a7.462 7.462 0 0 1 -3.8-1.037l-13.009-7.654a7.5 7.5 0 1 1 7.607-12.928l13.009 7.654a7.5 7.5 0 0 1 -3.811 13.965z" fill="#a85f36"/><path d="m413.845 221.162a7.5 7.5 0 0 1 -5.651-12.427 20.568 20.568 0 0 0 5.258-15.843l7.384-1.315 7.366-1.409a35.656 35.656 0 0 1 -8.7 28.421 7.483 7.483 0 0 1 -5.657 2.573z" fill="#4f2000"/><path d="m427.623 507.486a174.449 174.449 0 0 1 -18.695-.942 7.5 7.5 0 1 1 1.62-14.912c31.076 3.377 80.165-3.7 99.353-18.226a7.5 7.5 0 1 1 9.054 11.959c-19.055 14.428-58.623 22.121-91.332 22.121z" fill="#a85f36"/><g fill="#e09273"><path d="m359.312 730.707c-30.312 3.42-110.684 25.453-141.169 43.852 0 0 12.954 85.148 35.568 126.917a476.545 476.545 0 0 0 49.015 22.693c30.479-1.289 57.693-7.762 75.493-15.313 22.519-9.556 11.409-181.569-18.907-178.149z"/><path d="m218.143 774.559c12.918-18.2 28.107-64.033 39.1-77.181s29.708-34.1 37.325-63.9c7.831-30.63 45.76-25.928 40.915 6.174s-17.783 51.348-19.212 60.839c-2.4 15.912 13.29 29.293 31.42 33.212-28.082 31.063-105.382 55.157-129.548 40.856z"/><path d="m372.564 867.548c9-4.2 49.592-23.694 54.6-18.281s10.367 22.913 1.373 32.058c-6.675 6.787-30.5 21.067-50.316 27.531s-5.657-41.308-5.657-41.308z"/><path d="m371.845 827.53c10.3-4.075 54.577-22.235 59.962-16.765s10.563 30.317 3.288 37.37-39.475 22.378-54.7 25.515-8.55-46.12-8.55-46.12z"/><path d="m370.832 782.913c9.555-4.361 61.341-22.97 66.558-19.435s20.413 20.935 7.734 38.429-47.776 28.864-64.605 32.353-9.687-51.347-9.687-51.347z"/><path d="m359.312 730.707c19.848-3.187 71.911-11.244 82.5-4.213s15.84 28.784 4.749 37.979-63.727 21.046-71.4 22.994-15.849-56.76-15.849-56.76z"/></g><path d="m375.154 794.97a7.5 7.5 0 0 1 -1.785-14.786c17.412-4.281 53.643-13.19 64.727-19.276a7.5 7.5 0 1 1 7.219 13.149c-11.82 6.49-41.486 14.085-68.364 20.694a7.563 7.563 0 0 1 -1.797.219z" fill="#a85f36"/><path d="m380.514 841.762a7.5 7.5 0 0 1 -1.9-14.755c22.482-5.917 47.1-15.008 50.658-18.707a7.5 7.5 0 1 1 11.024 10.171c-9.4 10.2-55.891 22.522-57.865 23.042a7.53 7.53 0 0 1 -1.917.249z" fill="#a85f36"/><path d="m380.39 881.152a7.5 7.5 0 0 1 -1.593-14.829c16.534-3.612 34.817-13.766 46.914-20.486a7.5 7.5 0 0 1 7.289 13.113c-12.866 7.146-32.308 17.945-51 22.027a7.454 7.454 0 0 1 -1.61.175z" fill="#a85f36"/><path d="m290.957 919.325-72.814-144.766c-20.543 21.441-41.464 40.641-61.873 58.096a479.206 479.206 0 0 0 134.687 86.67z" fill="#e09273"/><g clip-path="url(#a)"><path d="m758.548 881.407a7.5 7.5 0 0 1 -6.718-4.156c-8.26-16.569-28.933-57.659-42.459-81.294a7.5 7.5 0 1 1 13.019-7.451c13.719 23.972 34.546 65.368 42.864 82.053a7.5 7.5 0 0 1 -6.706 10.848z" fill="#004ebf"/></g></svg>