<?xml version="1.0" encoding="UTF-8"?>
<svg version="1.1" xmlns="http://www.w3.org/2000/svg" width="225" height="205">
<path d="M0 0 C2.10633718 1.70828921 2.93801608 2.52148416 3.29296875 5.26171875 C3.25816406 6.06222656 3.22335938 6.86273438 3.1875 7.6875 C3.14689453 8.89986328 3.14689453 8.89986328 3.10546875 10.13671875 C3.05326172 11.05904297 3.05326172 11.05904297 3 12 C4.98 12.66 6.96 13.32 9 14 C9 18 9 18 8 21 C7.94098078 23.02077346 7.94098078 23.02077346 9 25 C10.95890881 26.39300182 12.9639118 27.72245446 15 29 C15.5775 29.639375 16.155 30.27875 16.75 30.9375 C19.72071376 33.66065428 23.01545431 35.08227603 26.66015625 36.75390625 C29 38 29 38 30.5 39.53125 C32.45561975 41.44612767 34.365443 42.03631311 36.9375 42.9375 C40.78078769 44.39065549 43.40048644 45.6915282 46 49 C40.94579144 48.5186468 38.11595959 46.88992907 34 44 C33.22398437 43.70222656 32.44796875 43.40445313 31.6484375 43.09765625 C28.6616254 41.8597592 26.30850032 40.26212023 23.6875 38.375 C22.80449219 37.74335937 21.92148438 37.11171875 21.01171875 36.4609375 C20.34785156 35.97882813 19.68398437 35.49671875 19 35 C18.896875 35.598125 18.79375 36.19625 18.6875 36.8125 C18 39 18 39 16.47124672 40.37671089 C14.59628688 42.44543387 14.66235216 43.41105112 14.77255249 46.16012573 C14.81366213 47.35836283 14.81366213 47.35836283 14.85560226 48.58080673 C14.90325352 49.37914051 14.95090477 50.17747429 15 51 C15.04039021 51.69580296 15.08078041 52.39160591 15.12239456 53.1084938 C15.26838813 55.22133648 15.44852953 57.32871849 15.63916016 59.43798828 C15.70755096 60.22785126 15.77594177 61.01771423 15.84640503 61.83151245 C16.0718836 64.41162702 16.30430547 66.99102622 16.5390625 69.5703125 C16.6602199 70.90183161 16.6602199 70.90183161 16.78382492 72.26025009 C17.21263416 76.95028127 17.64836834 81.63962079 18.08837891 86.32861328 C18.44971466 90.19531369 18.7960356 94.06291789 19.12939453 97.93212891 C19.53391702 102.62624523 19.96434961 107.31731047 20.41328049 112.00738144 C20.57932359 113.78706413 20.73637811 115.56761032 20.88405228 117.34891129 C21.09271284 119.84258131 21.33463766 122.33096463 21.58447266 124.82080078 C21.63770691 125.548255 21.69094116 126.27570923 21.74578857 127.02520752 C22.38135818 132.80022527 24.91501371 135.9765936 29 140 C32.40736003 138.38331641 35.07571362 136.38560204 38 134 C41.21357476 132.39321262 44.5140305 132.52434435 48 133 C51.1875 134.75 51.1875 134.75 54 137 C54.94875 137.7425 55.8975 138.485 56.875 139.25 C57.57625 139.8275 58.2775 140.405 59 141 C59.556875 140.236875 60.11375 139.47375 60.6875 138.6875 C64.22478442 134.57660189 66.4958196 133.16713116 71.9375 132.5625 C78.85678396 132.91039696 82.2748384 137.25957694 86.8125 142 C91.14233371 146.45466958 95.10426704 149.09171928 101 151 C100.67 151.99 100.34 152.98 100 154 C90.94850008 151.94575888 85.45026536 146.86101123 79.375 140.0625 C76.19400294 137.30005519 74.18984025 136.92649403 70 137 C66.0498037 139.05106346 63.4060809 141.25720748 61 145 C64.93828536 147.31663844 68.69235185 149.43358249 73 151 C72.67 151.99 72.34 152.98 72 154 C66.29370646 153.57202798 62.58921384 151.15654048 58 148 C57.29037109 148.52400391 57.29037109 148.52400391 56.56640625 149.05859375 C51.57853382 152.49079446 47.16004692 154.57951661 41 154 C36.92559791 152.59454423 33.56879263 150.37919508 30 148 C29.5153125 148.34933594 29.030625 148.69867188 28.53125 149.05859375 C23.55639916 152.43575211 20.05677219 154 14 154 C9.24020937 152.83433699 5.08882412 150.68329083 1 148 C0.29875 148.61875 -0.4025 149.2375 -1.125 149.875 C-6.24052678 153.65604153 -10.5483119 154.46484754 -16.7421875 153.625 C-20.52578998 152.57763599 -22.99962056 150.48967656 -26 148 C-26.71285156 148.433125 -27.42570312 148.86625 -28.16015625 149.3125 C-38.03321843 155.05296145 -38.03321843 155.05296145 -44 154 C-47.89015568 152.36613461 -51.41325546 150.21534222 -55 148 C-55.50789063 148.34933594 -56.01578125 148.69867188 -56.5390625 149.05859375 C-60.69405656 151.80524712 -63.90884805 153.6181636 -69 154 C-69 153.01 -69 152.02 -69 151 C-67.37750059 150.16180842 -65.75191503 149.3295884 -64.125 148.5 C-63.22007813 148.0359375 -62.31515625 147.571875 -61.3828125 147.09375 C-59 146 -59 146 -57 146 C-59.21585521 141.56828959 -61.55182502 139.22408749 -66 137 C-70.94279127 136.72540049 -73.49454629 138.13135837 -77.125 141.25 C-79.34470245 143.32937643 -81.42702731 145.45905436 -83.5 147.6875 C-86.60252521 150.55733582 -89.93193785 152.7545098 -94 154 C-96.24609375 153.6015625 -96.24609375 153.6015625 -98 153 C-95.76588148 150.53108558 -93.59586429 149.16279268 -90.625 147.6875 C-86.36631049 145.39699711 -84.02480439 142.80039526 -81 139 C-77.38555694 135.55056412 -74.02067049 132.65048523 -68.875 132.375 C-64.5100976 133.07901652 -62.42825211 134.25739831 -59 137 C-58.05125 137.7425 -57.1025 138.485 -56.125 139.25 C-55.42375 139.8275 -54.7225 140.405 -54 141 C-53.27683594 140.25943359 -53.27683594 140.25943359 -52.5390625 139.50390625 C-51.90742187 138.86324219 -51.27578125 138.22257813 -50.625 137.5625 C-49.68527344 136.60537109 -49.68527344 136.60537109 -48.7265625 135.62890625 C-45.56525375 132.64640455 -42.73228014 132.5 -38.5234375 132.5 C-34.44830143 133.3074573 -31.89425857 135.76065905 -28.84765625 138.46875 C-27.143299 140.2127002 -27.143299 140.2127002 -25 140 C-22.75212311 136.62818467 -22.54905379 134.83059537 -22.10546875 130.84375 C-21.9569043 129.53519043 -21.80833984 128.22663086 -21.65527344 126.87841797 C-21.49888744 125.41899469 -21.34297838 123.95952025 -21.1875 122.5 C-21.02015207 120.9792969 -20.85250052 119.45862719 -20.68457031 117.93798828 C-20.10410605 112.62727605 -19.5494258 107.31400339 -19 102 C-18.89133606 100.94905151 -18.78267212 99.89810303 -18.67071533 98.81530762 C-17.84862487 90.83670336 -17.04558129 82.85628633 -16.25 74.875 C-16.08097672 73.19555298 -16.08097672 73.19555298 -15.90853882 71.48217773 C-15.58522654 68.25680428 -15.26821133 65.03087377 -14.953125 61.8046875 C-14.85645035 60.84654144 -14.7597757 59.88839539 -14.66017151 58.9012146 C-14.24708169 54.60388967 -13.90712449 50.31266188 -13.78027344 45.99658203 C-13.7591449 45.29066925 -13.73801636 44.58475647 -13.71624756 43.85745239 C-14.20128143 40.68240546 -16.72889631 39.09640341 -19 37 C-19.3125 34.5625 -19.3125 34.5625 -18 32 C-14.94219977 29.25462719 -11.68024923 26.84012462 -8 25 C-7.87530901 19.42169984 -7.87530901 19.42169984 -9 14 C-6.69 13.01 -4.38 12.02 -2 11 C-2.02320312 10.37351562 -2.04640625 9.74703125 -2.0703125 9.1015625 C-2.08835937 8.28429688 -2.10640625 7.46703125 -2.125 6.625 C-2.14820312 5.81289063 -2.17140625 5.00078125 -2.1953125 4.1640625 C-2 2 -2 2 0 0 Z M-5 16 C-5 16.33 -5 16.66 -5 17 C-1.04 17 2.92 17 7 17 C7 16.67 7 16.34 7 16 C2.6835078 15.23826608 -0.74433453 14.83936396 -5 16 Z M-3 21 C-3 21.99 -3 22.98 -3 24 C-0.36 24 2.28 24 5 24 C4.67 23.01 4.34 22.02 4 21 C1.69 21 -0.62 21 -3 21 Z M-1 27 C0.96463802 29.23139909 0.96463802 29.23139909 4.1875 30.25 C8.50442459 32.00034968 11.63576945 34.84028194 15 38 C15.33 37.01 15.66 36.02 16 35 C11.74291556 30.36729046 8.08392234 27.17132902 1.625 26.8125 C0.325625 26.9053125 0.325625 26.9053125 -1 27 Z M-9.125 29.875 C-10.14980469 30.39707031 -10.14980469 30.39707031 -11.1953125 30.9296875 C-13.15818388 31.9931916 -13.15818388 31.9931916 -15 34 C-15 34.99 -15 35.98 -15 37 C-11.67954906 36.40888676 -9.91217346 35.32679853 -7.4375 33.0625 C-5.32613399 31.14863371 -3.39165661 29.59443774 -1 28 C-4.79782269 28 -5.94180394 28.21683323 -9.125 29.875 Z M-6 35 C-8.04796882 38.07195324 -8.32246319 39.1800858 -8.6328125 42.71875 C-8.71660156 43.65203125 -8.80039063 44.5853125 -8.88671875 45.546875 C-8.96535156 46.52140625 -9.04398437 47.4959375 -9.125 48.5 C-9.21136719 49.44359375 -9.29773438 50.3871875 -9.38671875 51.359375 C-9.95129006 57.91915594 -10.10113775 64.41801949 -10 71 C-9.34 71 -8.68 71 -8 71 C-8 71.99 -8 72.98 -8 74 C-8.99 73.67 -9.98 73.34 -11 73 C-11 74.32 -11 75.64 -11 77 C-9.68 77 -8.36 77 -7 77 C-7 77.99 -7 78.98 -7 80 C-8.65 80 -10.3 80 -12 80 C-12 80.99 -12 81.98 -12 83 C-10.35 83.33 -8.7 83.66 -7 84 C-7 84.33 -7 84.66 -7 85 C-9.475 85.495 -9.475 85.495 -12 86 C-11.67 87.32 -11.34 88.64 -11 90 C-9.35 90 -7.7 90 -6 90 C-6.33 90.66 -6.66 91.32 -7 92 C-8.98 92 -10.96 92 -13 92 C-13 93.32 -13 94.64 -13 96 C-11.02 96 -9.04 96 -7 96 C-7.66 97.32 -8.32 98.64 -9 100 C-10.32 99.67 -11.64 99.34 -13 99 C-13.33 100.65 -13.66 102.3 -14 104 C-12.02 104 -10.04 104 -8 104 C-8 104.66 -8 105.32 -8 106 C-11.465 106.99 -11.465 106.99 -15 108 C-15 108.99 -15 109.98 -15 111 C-12.36 111 -9.72 111 -7 111 C-7 111.99 -7 112.98 -7 114 C-9.64 114 -12.28 114 -15 114 C-15 114.99 -15 115.98 -15 117 C-12.03 117.33 -9.06 117.66 -6 118 C-6 118.66 -6 119.32 -6 120 C-9.3 120 -12.6 120 -16 120 C-16 121.32 -16 122.64 -16 124 C-12.7 124 -9.4 124 -6 124 C-6.495 124.99 -6.495 124.99 -7 126 C-9.28515625 126.4140625 -9.28515625 126.4140625 -12.0625 126.625 C-13.44115234 126.73714844 -13.44115234 126.73714844 -14.84765625 126.8515625 C-15.55792969 126.90054688 -16.26820312 126.94953125 -17 127 C-17 127.99 -17 128.98 -17 130 C-14.29120665 131.35439668 -11.99066732 131.06501451 -9 131 C-8.67 131.99 -8.34 132.98 -8 134 C-7.34 134 -6.68 134 -6 134 C-5.88930176 133.40985107 -5.77860352 132.81970215 -5.66455078 132.21166992 C-5.15845008 129.53555054 -4.6418511 126.86156297 -4.125 124.1875 C-3.95097656 123.25873047 -3.77695313 122.32996094 -3.59765625 121.37304688 C-3.42363281 120.48037109 -3.24960938 119.58769531 -3.0703125 118.66796875 C-2.91320801 117.84578857 -2.75610352 117.0236084 -2.59423828 116.17651367 C-2 114 -2 114 0 111 C2.625 110.8125 2.625 110.8125 5 111 C6.60850387 116.14315734 7.52795025 121.08852151 8.125 126.4375 C8.21136719 127.16904297 8.29773438 127.90058594 8.38671875 128.65429688 C8.59628393 130.43560094 8.79887868 132.21772281 9 134 C10.9490625 133.7834375 10.9490625 133.7834375 12.9375 133.5625 C13.66839844 133.48128906 14.39929688 133.40007812 15.15234375 133.31640625 C17.01140229 133.18113386 17.01140229 133.18113386 18 132 C17.97167405 129.64953196 17.86999917 127.34351668 17.71484375 125 C17.66778793 124.25161865 17.62073212 123.5032373 17.57225037 122.73217773 C16.83878519 111.79855585 15.67092855 100.90048794 14.5625 90 C14.12322315 85.66697053 13.68771263 81.33358019 13.25390625 77 C13.14535309 75.93700684 13.03679993 74.87401367 12.92495728 73.77880859 C12.36516843 68.18271895 11.88951723 62.59352113 11.53466797 56.98046875 C11.45893051 55.84158203 11.38319305 54.70269531 11.30516052 53.52929688 C11.16511738 51.35577494 11.04000569 49.18122184 10.93226624 47.00585938 C10.57237585 41.51587002 10.29828898 37.89371412 6 34 C1.97080971 31.98540486 -2.32047075 32.50317658 -6 35 Z M1 113 C-2.5688565 116.5688565 -2.1486754 129.30249702 -2.3125 134.25 C-1.98205578 138.21533059 -1.80772911 138.59972498 1 141 C3.03241727 140.36020151 3.03241727 140.36020151 5 139 C6.6614381 134.19607042 5.6977887 129.24815326 5.125 124.3125 C5.03347656 123.44560547 4.94195312 122.57871094 4.84765625 121.68554688 C4.45593095 117.19604237 4.45593095 117.19604237 3 113 C2.34 113 1.68 113 1 113 Z M-49.3984375 140.26171875 C-51.16755617 142.18185975 -51.61102727 143.44945025 -52 146 C-48.00491128 148.94875596 -45.02922134 150.89941557 -40 151 C-35.49513693 149.8759294 -32.15077039 148.47267572 -29 145 C-30.50432705 141.17080388 -32.55656194 139.21910453 -36 137 C-42.00725427 134.95980044 -44.70510068 136.61033895 -49.3984375 140.26171875 Z M4 143 C4.96558401 145.54563057 5.93868805 146.94635204 8 148.75 C12.37715574 150.57381489 16.33007212 150.81216137 21 150 C23.75095306 148.59525801 25.64360634 147.04903796 28 145 C25.27768102 140.28829407 23.11515796 137.95899666 18 136 C12.30488053 136 8.19440054 139.42242307 4 143 Z M32 143 C32.96558401 145.54563057 33.93868805 146.94635204 36 148.75 C40.37715574 150.57381489 44.33007212 150.81216137 49 150 C51.75095306 148.59525801 53.64360634 147.04903796 56 145 C54.09723494 141.47988464 52.53518186 138.96398992 49 137 C41.11280105 134.99234936 37.89967868 138.11169481 32 143 Z M-22 141 C-23.38868516 143.10039331 -23.38868516 143.10039331 -24 145 C-20.08185425 148.63827819 -17.56648999 150.88403146 -12 151 C-7.86525726 149.98740994 -4.56279423 148.30533744 -1 146 C-1.24212654 142.73129165 -2.27532907 141.7045249 -4.5625 139.25 C-7.67004476 136.84295694 -10.14777514 136.31330868 -14.0390625 136.57421875 C-17.33703977 137.29031342 -19.46959001 138.83107715 -22 141 Z " fill="#293345" transform="translate(111,38)"/>
<path d="M0 0 C3.1875 1.75 3.1875 1.75 6 4 C6.94875 4.7425 7.8975 5.485 8.875 6.25 C9.57625 6.8275 10.2775 7.405 11 8 C11.48210938 7.50628906 11.96421875 7.01257813 12.4609375 6.50390625 C13.09257813 5.86324219 13.72421875 5.22257813 14.375 4.5625 C15.00148437 3.92441406 15.62796875 3.28632813 16.2734375 2.62890625 C19.43474625 -0.35359545 22.26771986 -0.5 26.4765625 -0.5 C30.55169857 0.3074573 33.10574143 2.76065905 36.15234375 5.46875 C37.856701 7.2127002 37.856701 7.2127002 40 7 C41.63676257 5.0399719 41.63676257 5.0399719 43 3 C45.97 3.495 45.97 3.495 49 4 C47.824375 4.86625 47.824375 4.86625 46.625 5.75 C44.19952756 7.82897637 43.14305583 9.09040333 42 12 C45.59622235 15.27890861 48.09198415 16.79967282 53 17 C56.08333333 16.25 56.08333333 16.25 59 15 C59.94875 14.62875 60.8975 14.2575 61.875 13.875 C62.57625 13.58625 63.2775 13.2975 64 13 C63.01 11.02 62.02 9.04 61 7 C62.32 7.33 63.64 7.66 65 8 C65 8.99 65 9.98 65 11 C65.886875 11.268125 66.77375 11.53625 67.6875 11.8125 C71 13 71 13 73.25 14.625 C77.43063071 16.71531535 81.41594257 16.69455416 86 16 C88.40342402 14.90494882 89.95691016 13.7204967 92 12 C89.48592381 7.71675909 87.87685861 5.35468295 83 4 C83.33 3.34 83.66 2.68 84 2 C84.99 2 85.98 2 87 2 C87.33 1.34 87.66 0.68 88 0 C89.98 2.31 91.96 4.62 94 7 C97.50091591 5.24954204 99.9999686 3.44739404 103 1 C106.21357476 -0.60678738 109.5140305 -0.47565565 113 0 C116.1875 1.75 116.1875 1.75 119 4 C119.94875 4.7425 120.8975 5.485 121.875 6.25 C122.57625 6.8275 123.2775 7.405 124 8 C124.556875 7.236875 125.11375 6.47375 125.6875 5.6875 C129.22478442 1.57660189 131.4958196 0.16713116 136.9375 -0.4375 C143.85678396 -0.08960304 147.2748384 4.25957694 151.8125 9 C156.14233371 13.45466958 160.10426704 16.09171928 166 18 C165.67 18.99 165.34 19.98 165 21 C155.94850008 18.94575888 150.45026536 13.86101123 144.375 7.0625 C141.19400294 4.30005519 139.18984025 3.92649403 135 4 C131.0498037 6.05106346 128.4060809 8.25720748 126 12 C129.93828536 14.31663844 133.69235185 16.43358249 138 18 C137.67 18.99 137.34 19.98 137 21 C131.29370646 20.57202798 127.58921384 18.15654048 123 15 C122.52691406 15.34933594 122.05382812 15.69867188 121.56640625 16.05859375 C116.57853382 19.49079446 112.16004692 21.57951661 106 21 C101.92559791 19.59454423 98.56879263 17.37919508 95 15 C94.5153125 15.34933594 94.030625 15.69867188 93.53125 16.05859375 C88.55639916 19.43575211 85.05677219 21 79 21 C74.24020937 19.83433699 70.08882412 17.68329083 66 15 C64.948125 15.928125 64.948125 15.928125 63.875 16.875 C58.75947322 20.65604153 54.4516881 21.46484754 48.2578125 20.625 C44.47421002 19.57763599 42.00037944 17.48967656 39 15 C38.28714844 15.433125 37.57429688 15.86625 36.83984375 16.3125 C26.96678157 22.05296145 26.96678157 22.05296145 21 21 C17.10984432 19.36613461 13.58674454 17.21534222 10 15 C9.49210937 15.34933594 8.98421875 15.69867188 8.4609375 16.05859375 C4.30594344 18.80524712 1.09115195 20.6181636 -4 21 C-4 20.01 -4 19.02 -4 18 C-2.37750059 17.16180842 -0.75191503 16.3295884 0.875 15.5 C1.77992187 15.0359375 2.68484375 14.571875 3.6171875 14.09375 C6 13 6 13 8 13 C5.78414479 8.56828959 3.44817498 6.22408749 -1 4 C-5.94279127 3.72540049 -8.49454629 5.13135837 -12.125 8.25 C-14.34470245 10.32937643 -16.42702731 12.45905436 -18.5 14.6875 C-21.60252521 17.55733582 -24.93193785 19.7545098 -29 21 C-31.24609375 20.6015625 -31.24609375 20.6015625 -33 20 C-30.76588148 17.53108558 -28.59586429 16.16279268 -25.625 14.6875 C-21.36631049 12.39699711 -19.02480439 9.80039526 -16 6 C-10.8437587 1.07915233 -7.17614927 -1.15744343 0 0 Z M15.6015625 7.26171875 C13.83244383 9.18185975 13.38897273 10.44945025 13 13 C16.99508872 15.94875596 19.97077866 17.89941557 25 18 C29.50486307 16.8759294 32.84922961 15.47267572 36 12 C34.49567295 8.17080388 32.44343806 6.21910453 29 4 C22.99274573 1.95980044 20.29489932 3.61033895 15.6015625 7.26171875 Z M97 10 C97.96558401 12.54563057 98.93868805 13.94635204 101 15.75 C105.37715574 17.57381489 109.33007212 17.81216137 114 17 C116.75095306 15.59525801 118.64360634 14.04903796 121 12 C119.09723494 8.47988464 117.53518186 5.96398992 114 4 C106.11280105 1.99234936 102.89967868 5.11169481 97 10 Z " fill="#000108" transform="translate(46,171)"/>
<path d="M0 0 C7.35144524 0.66217062 11.7013391 1.97217274 16.953125 7.19140625 C19.91074187 9.80472039 23.21857803 11.26228597 26.80078125 12.859375 C29 14 29 14 30.484375 15.51953125 C32.44952617 17.43909902 34.35565867 18.03288492 36.9375 18.9375 C40.78078769 20.39065549 43.40048644 21.6915282 46 25 C40.94579144 24.5186468 38.11595959 22.88992907 34 20 C33.22398437 19.70222656 32.44796875 19.40445313 31.6484375 19.09765625 C28.6616254 17.8597592 26.30850032 16.26212023 23.6875 14.375 C22.80449219 13.74335937 21.92148438 13.11171875 21.01171875 12.4609375 C20.01591797 11.73777344 20.01591797 11.73777344 19 11 C18.896875 11.598125 18.79375 12.19625 18.6875 12.8125 C18 15 18 15 16.47473145 16.40805054 C14.29580381 18.76016874 14.69456099 21.01409395 14.80053711 24.08624268 C15.19033935 29.78048048 15.72256152 35.45660213 16.29637146 41.134655 C16.53591481 43.50713864 16.76970679 45.88012991 17.0020752 48.25332642 C17.58010046 54.14593325 18.16673791 60.03767405 18.75506592 65.92926025 C19.25313579 70.91821029 19.74690514 75.90754749 20.23472595 80.89751053 C20.46318875 83.216977 20.69785534 85.53576016 20.93273926 87.85458374 C21.69844491 95.58391969 22.23024235 103.22357761 22 111 C21.19175781 111.24234375 20.38351563 111.4846875 19.55078125 111.734375 C11.53044107 114.04712206 11.53044107 114.04712206 5 119 C5 119.99 5 120.98 5 122 C3.35 121.34 1.7 120.68 0 120 C0 119.01 0 118.02 0 117 C-0.94875 116.71125 -1.8975 116.4225 -2.875 116.125 C-6 115 -6 115 -8 113 C-6.3125 112.25 -6.3125 112.25 -4 112 C-2.3174387 113.31321858 -0.65002828 114.64613064 1 116 C2.485 115.505 2.485 115.505 4 115 C4.84499413 111.46210656 5.0369051 108.53032537 4.66015625 104.91796875 C4.56669922 103.98662109 4.47324219 103.05527344 4.37695312 102.09570312 C4.22129883 100.65614258 4.22129883 100.65614258 4.0625 99.1875 C3.96259766 98.20845703 3.86269531 97.22941406 3.75976562 96.22070312 C3.51312654 93.81303587 3.25966713 91.40629115 3 89 C2.01 89.495 2.01 89.495 1 90 C0.43759058 92.02820507 0.43759058 92.02820507 0.1484375 94.47265625 C-0.04492188 95.82133789 -0.04492188 95.82133789 -0.2421875 97.19726562 C-0.36851563 98.14279297 -0.49484375 99.08832031 -0.625 100.0625 C-0.7590625 101.01189453 -0.893125 101.96128906 -1.03125 102.93945312 C-1.36225648 105.29196345 -1.68478072 107.64533094 -2 110 C-3.485 110.495 -3.485 110.495 -5 111 C-5.55811913 94.256426 -5.55811913 94.256426 -1.59375 87.66015625 C0 86 0 86 2.6875 85.75 C3.450625 85.8325 4.21375 85.915 5 86 C8.71043477 93.74351604 8.70309796 101.56388678 9 110 C12.96 109.01 12.96 109.01 17 108 C16.3416591 93.94895173 14.98525022 79.99158432 13.5625 66 C13.23285552 62.74838494 12.90435464 59.49667106 12.57894897 56.24462891 C12.3630083 54.08907425 12.14429783 51.93379519 11.92276001 49.77880859 C11.35993953 44.18203323 10.89451721 38.59642248 10.56982422 32.98046875 C10.49859848 31.84158203 10.42737274 30.70269531 10.35398865 29.52929688 C10.22284684 27.35592528 10.11053969 25.1813072 10.02015686 23.00585938 C9.7242377 18.25274502 9.54102876 15.72526464 6.63623047 11.83129883 C3.26382354 9.48860348 1.25287458 9.48217805 -2.8125 9.6875 C-4.55466797 9.75517578 -4.55466797 9.75517578 -6.33203125 9.82421875 C-7.65267578 9.91123047 -7.65267578 9.91123047 -9 10 C-4.82429501 5.34707158 -4.82429501 5.34707158 -1.625 4 C3.9124573 4 7.65010382 6.4179689 11.4375 10.1875 C12.283125 11.115625 13.12875 12.04375 14 13 C14.33 12.34 14.66 11.68 15 11 C11.03649333 6.56087253 6.00269215 2.96043074 0 2 C0 1.34 0 0.68 0 0 Z " fill="#0A1328" transform="translate(111,62)"/>
<path d="M0 0 C0.33 0 0.66 0 1 0 C1 1.98 1 3.96 1 6 C1.66 5.34 2.32 4.68 3 4 C6.125 3.875 6.125 3.875 9 4 C9 4.99 9 5.98 9 7 C7.35 7 5.7 7 4 7 C4.33 7.99 4.66 8.98 5 10 C6.65 10.33 8.3 10.66 10 11 C9.67 11.99 9.34 12.98 9 14 C7.35 14 5.7 14 4 14 C3.67 14.99 3.34 15.98 3 17 C4.98 17 6.96 17 9 17 C8.67 18.65 8.34 20.3 8 22 C6.35 21.67 4.7 21.34 3 21 C2.67 22.32 2.34 23.64 2 25 C3.98 24.67 5.96 24.34 8 24 C8 25.32 8 26.64 8 28 C6.02 28.33 4.04 28.66 2 29 C1.67 29.99 1.34 30.98 1 32 C3.64 32 6.28 32 9 32 C9 32.99 9 33.98 9 35 C6.36 35 3.72 35 1 35 C1 35.99 1 36.98 1 38 C3.97 38.33 6.94 38.66 10 39 C10 39.66 10 40.32 10 41 C6.7 41 3.4 41 0 41 C0 42.32 0 43.64 0 45 C3.3 45 6.6 45 10 45 C9.67 45.99 9.34 46.98 9 48 C5.7 48 2.4 48 -1 48 C-1 48.99 -1 49.98 -1 51 C0.258125 51.103125 1.51625 51.20625 2.8125 51.3125 C5.60499657 51.64858808 6.74433121 51.80025876 9 53.5625 C9.33 54.036875 9.66 54.51125 10 55 C10.33 53.68 10.66 52.36 11 51 C12.74627478 53.61941217 13.38722388 55.03824877 14 58 C11.2291017 58.02696009 8.4584655 58.04681952 5.6875 58.0625 C4.90181641 58.07087891 4.11613281 58.07925781 3.30664062 58.08789062 C2.54931641 58.09111328 1.79199219 58.09433594 1.01171875 58.09765625 C-0.03302612 58.10551147 -0.03302612 58.10551147 -1.09887695 58.11352539 C-3 58 -3 58 -6 57 C-4.98880371 43.3570195 -3.82842776 29.73457489 -2.4375 16.125 C-2.31076904 14.86598877 -2.18403809 13.60697754 -2.0534668 12.30981445 C-1.93140869 11.13765381 -1.80935059 9.96549316 -1.68359375 8.7578125 C-1.57587646 7.7177002 -1.46815918 6.67758789 -1.35717773 5.60595703 C-1 3 -1 3 0 0 Z " fill="#3A404B" transform="translate(95,117)"/>
<path d="M0 0 C7.35144524 0.66217062 11.7013391 1.97217274 16.953125 7.19140625 C19.91074187 9.80472039 23.21857803 11.26228597 26.80078125 12.859375 C29 14 29 14 30.484375 15.51953125 C32.44952617 17.43909902 34.35565867 18.03288492 36.9375 18.9375 C40.78078769 20.39065549 43.40048644 21.6915282 46 25 C40.94579144 24.5186468 38.11595959 22.88992907 34 20 C33.22398437 19.70222656 32.44796875 19.40445313 31.6484375 19.09765625 C28.6616254 17.8597592 26.30850032 16.26212023 23.6875 14.375 C22.80449219 13.74335937 21.92148438 13.11171875 21.01171875 12.4609375 C20.01591797 11.73777344 20.01591797 11.73777344 19 11 C18.8659375 11.63035156 18.731875 12.26070312 18.59375 12.91015625 C18 15 18 15 16.5 16.4375 C14.53426922 18.48513623 14.37331439 20.23747349 14 23 C13.34 23 12.68 23 12 23 C12 26.3 12 29.6 12 33 C11.67 33 11.34 33 11 33 C10.91363281 31.75863281 10.82726562 30.51726562 10.73828125 29.23828125 C10.59753592 27.59625244 10.45554304 25.95433024 10.3125 24.3125 C10.25900391 23.49587891 10.20550781 22.67925781 10.15039062 21.83789062 C9.76301342 17.67779626 9.29705591 15.4219055 6.84375 11.9375 C3.33310105 9.54562928 1.3926115 9.47512063 -2.8125 9.6875 C-4.55466797 9.75517578 -4.55466797 9.75517578 -6.33203125 9.82421875 C-7.65267578 9.91123047 -7.65267578 9.91123047 -9 10 C-4.82429501 5.34707158 -4.82429501 5.34707158 -1.625 4 C3.9124573 4 7.65010382 6.4179689 11.4375 10.1875 C12.283125 11.115625 13.12875 12.04375 14 13 C14.33 12.34 14.66 11.68 15 11 C11.03649333 6.56087253 6.00269215 2.96043074 0 2 C0 1.34 0 0.68 0 0 Z " fill="#192439" transform="translate(111,62)"/>
<path d="M0 0 C0.66 0 1.32 0 2 0 C3.97060619 12.20131341 5.11462426 24.48032697 6.28710938 36.77856445 C6.62594082 40.32233989 6.97284569 43.86526516 7.3203125 47.40820312 C7.53954885 49.68484905 7.7583153 51.96154029 7.9765625 54.23828125 C8.07965729 55.28534744 8.18275208 56.33241364 8.28897095 57.41120911 C8.84364379 63.30577871 9.10059072 69.07935303 9 75 C3.93657736 67.40486604 4.01247433 56.87530686 3 48 C2.67 48 2.34 48 2 48 C-1.78804162 14.49821699 -1.78804162 14.49821699 0 0 Z " fill="#3A4960" transform="translate(123,85)"/>
<path d="M0 0 C2.10633718 1.70828921 2.93801608 2.52148416 3.29296875 5.26171875 C3.25816406 6.06222656 3.22335938 6.86273438 3.1875 7.6875 C3.16042969 8.49574219 3.13335937 9.30398437 3.10546875 10.13671875 C3.07066406 10.75160156 3.03585938 11.36648437 3 12 C4.98 12.66 6.96 13.32 9 14 C9 18 9 18 8 21 C8.39397335 23.63804589 8.39397335 23.63804589 9 26 C7.02 25.67 5.04 25.34 3 25 C3.33 23.68 3.66 22.36 4 21 C1.69 21 -0.62 21 -3 21 C-3 21.99 -3 22.98 -3 24 C-2.01 24 -1.02 24 0 24 C0 24.66 0 25.32 0 26 C1.32 26.33 2.64 26.66 4 27 C1.1875 27.6875 1.1875 27.6875 -2 28 C-3.75 26.5625 -3.75 26.5625 -5 25 C-5.66 25 -6.32 25 -7 25 C-7.2165625 23.39125 -7.2165625 23.39125 -7.4375 21.75 C-7.83749442 19.08337051 -8.27591924 16.58600271 -9 14 C-6.69 13.01 -4.38 12.02 -2 11 C-2.02320312 10.37351562 -2.04640625 9.74703125 -2.0703125 9.1015625 C-2.09738281 7.87566406 -2.09738281 7.87566406 -2.125 6.625 C-2.14820312 5.81289063 -2.17140625 5.00078125 -2.1953125 4.1640625 C-2 2 -2 2 0 0 Z M-5 16 C-5 16.33 -5 16.66 -5 17 C-1.04 17 2.92 17 7 17 C7 16.67 7 16.34 7 16 C2.6835078 15.23826608 -0.74433453 14.83936396 -5 16 Z " fill="#4C535F" transform="translate(111,38)"/>
<path d="M0 0 C0.99 0 1.98 0 3 0 C3 1.32 3 2.64 3 4 C5.64 4 8.28 4 11 4 C11 4.99 11 5.98 11 7 C8.36 7 5.72 7 3 7 C3 7.99 3 8.98 3 10 C5.97 10.33 8.94 10.66 12 11 C12 11.66 12 12.32 12 13 C8.7 13 5.4 13 2 13 C2 14.32 2 15.64 2 17 C5.3 17 8.6 17 12 17 C11.67 17.99 11.34 18.98 11 20 C7.7 20 4.4 20 1 20 C1 20.99 1 21.98 1 23 C3.31 23.66 5.62 24.32 8 25 C8 25.66 8 26.32 8 27 C5.03 27.33 2.06 27.66 -1 28 C-0.67 18.76 -0.34 9.52 0 0 Z " fill="#292F3C" transform="translate(93,145)"/>
<path d="M0 0 C1.1446875 0.12375 1.1446875 0.12375 2.3125 0.25 C4.89136807 6.30473373 5.92270794 11.69074057 6.3125 18.25 C5.6525 18.25 4.9925 18.25 4.3125 18.25 C4.3125 21.55 4.3125 24.85 4.3125 28.25 C3.6525 27.92 2.9925 27.59 2.3125 27.25 C1.90185547 24.93334961 1.90185547 24.93334961 1.6796875 21.90234375 C1.59589844 20.82275391 1.51210937 19.74316406 1.42578125 18.63085938 C1.30783203 16.92639648 1.30783203 16.92639648 1.1875 15.1875 C1.10113281 14.04732422 1.01476562 12.90714844 0.92578125 11.73242188 C0.71287249 8.90546667 0.50885078 6.07814574 0.3125 3.25 C-0.6775 3.745 -0.6775 3.745 -1.6875 4.25 C-2.24990942 6.27820507 -2.24990942 6.27820507 -2.5390625 8.72265625 C-2.66796875 9.62177734 -2.796875 10.52089844 -2.9296875 11.44726562 C-3.05601563 12.39279297 -3.18234375 13.33832031 -3.3125 14.3125 C-3.4465625 15.26189453 -3.580625 16.21128906 -3.71875 17.18945312 C-4.04975648 19.54196345 -4.37228072 21.89533094 -4.6875 24.25 C-5.6775 24.58 -6.6675 24.91 -7.6875 25.25 C-8.24561913 8.506426 -8.24561913 8.506426 -4.28125 1.91015625 C-2.6875 0.25 -2.6875 0.25 0 0 Z " fill="#091022" transform="translate(113.6875,147.75)"/>
<path d="M0 0 C1.22589844 0.01353516 1.22589844 0.01353516 2.4765625 0.02734375 C3.41628906 0.04474609 3.41628906 0.04474609 4.375 0.0625 C4.40185095 2.54173801 4.42176547 5.0206884 4.4375 7.5 C4.44587891 8.20705078 4.45425781 8.91410156 4.46289062 9.64257812 C4.47153588 11.44943559 4.42720011 13.25637603 4.375 15.0625 C2.47614904 16.96135096 -0.19747903 16.18617506 -2.71484375 16.1953125 C-4.625 16.0625 -4.625 16.0625 -6.625 15.0625 C-6.625 10.4425 -6.625 5.8225 -6.625 1.0625 C-4.21954362 -0.14022819 -2.67503047 -0.03821472 0 0 Z M-2.625 3.0625 C-1.635 4.5475 -1.635 4.5475 -0.625 6.0625 C0.035 6.0625 0.695 6.0625 1.375 6.0625 C1.375 5.0725 1.375 4.0825 1.375 3.0625 C0.055 3.0625 -1.265 3.0625 -2.625 3.0625 Z M-2.625 7.0625 C-2.955 8.7125 -3.285 10.3625 -3.625 12.0625 C-2.635 12.0625 -1.645 12.0625 -0.625 12.0625 C-0.625 10.4125 -0.625 8.7625 -0.625 7.0625 C-1.285 7.0625 -1.945 7.0625 -2.625 7.0625 Z " fill="#515663" transform="translate(114.625,99.9375)"/>
<path d="M0 0 C7.35144524 0.66217062 11.7013391 1.97217274 16.953125 7.19140625 C19.91074187 9.80472039 23.21857803 11.26228597 26.80078125 12.859375 C29 14 29 14 30.484375 15.51953125 C32.44952617 17.43909902 34.35565867 18.03288492 36.9375 18.9375 C40.78078769 20.39065549 43.40048644 21.6915282 46 25 C40.94579144 24.5186468 38.11595959 22.88992907 34 20 C33.22398437 19.70222656 32.44796875 19.40445313 31.6484375 19.09765625 C28.6616254 17.8597592 26.30850032 16.26212023 23.6875 14.375 C22.80449219 13.74335937 21.92148438 13.11171875 21.01171875 12.4609375 C20.01591797 11.73777344 20.01591797 11.73777344 19 11 C18.87625 11.639375 18.7525 12.27875 18.625 12.9375 C18.41875 13.618125 18.2125 14.29875 18 15 C17.01 15.495 17.01 15.495 16 16 C15.87625 14.96875 15.7525 13.9375 15.625 12.875 C14.55008095 8.98632225 12.51121904 7.67665036 9.125 5.625 C6.11032877 3.94218352 3.39069278 2.67813856 0 2 C0 1.34 0 0.68 0 0 Z " fill="#02050F" transform="translate(111,62)"/>
<path d="M0 0 C2.10633718 1.70828921 2.93801608 2.52148416 3.29296875 5.26171875 C3.25816406 6.06222656 3.22335938 6.86273438 3.1875 7.6875 C3.16042969 8.49574219 3.13335937 9.30398437 3.10546875 10.13671875 C3.07066406 10.75160156 3.03585938 11.36648437 3 12 C4.98 12.66 6.96 13.32 9 14 C9 14.99 9 15.98 9 17 C8.01 16.67 7.02 16.34 6 16 C4.50062972 15.95653999 2.99946695 15.96001421 1.5 16 C-1.45924233 16.07891313 -3.13339242 15.95553586 -6 15 C-6.33 15.99 -6.66 16.98 -7 18 C-7.66 17.67 -8.32 17.34 -9 17 C-9 16.01 -9 15.02 -9 14 C-6.69 13.01 -4.38 12.02 -2 11 C-2.02320312 10.37351562 -2.04640625 9.74703125 -2.0703125 9.1015625 C-2.09738281 7.87566406 -2.09738281 7.87566406 -2.125 6.625 C-2.14820312 5.81289063 -2.17140625 5.00078125 -2.1953125 4.1640625 C-2 2 -2 2 0 0 Z " fill="#5A5E68" transform="translate(111,38)"/>
<path d="M0 0 C-1.32 0.33 -2.64 0.66 -4 1 C-4 1.66 -4 2.32 -4 3 C-6 4.33333333 -8 5.66666667 -10 7 C-11.83300909 9.10575643 -11.83300909 9.10575643 -13 11 C-9.06171464 13.31663844 -5.30764815 15.43358249 -1 17 C-1.33 17.99 -1.66 18.98 -2 20 C-7.77714504 19.70373615 -12.93554958 17.08251464 -17 13 C-17.390625 10.45703125 -17.390625 10.45703125 -17 8 C-12.27579169 2.30316057 -7.58624362 -2.16749818 0 0 Z " fill="#00020E" transform="translate(185,172)"/>
<path d="M0 0 C1.29914639 4.61918716 0.77764428 8.33413434 0 13 C-1 14 -1 14 -2.84765625 14.09765625 C-4.8984375 14.06510417 -6.94921875 14.03255208 -9 14 C-10.12758089 10.61725734 -9.81750262 9.23221777 -9.0625 5.8125 C-8.86785156 4.91144531 -8.67320313 4.01039062 -8.47265625 3.08203125 C-8.23869141 2.05142578 -8.23869141 2.05142578 -8 1 C-5.07175348 0.02391783 -3.04386724 -0.08226668 0 0 Z M-5 3 C-5.33 5.64 -5.66 8.28 -6 11 C-5.01 10.34 -4.02 9.68 -3 9 C-2.74969023 6.41619823 -2.74969023 6.41619823 -3 4 C-3.66 3.67 -4.32 3.34 -5 3 Z " fill="#5F636A" transform="translate(117,80)"/>
<path d="M0 0 C0.66 0 1.32 0 2 0 C3.27109113 7.29039042 4.33705643 14.04459648 3.29296875 21.40234375 C2.70949652 26.5757975 2.92665844 31.80089832 3 37 C2.34 37 1.68 37 1 37 C-0.56922526 24.45916675 -1.20702374 12.59219361 0 0 Z " fill="#303D53" transform="translate(123,85)"/>
<path d="M0 0 C-1.39332574 3.36720387 -2.9789286 4.9859524 -6 7 C-5.27907585 10.06269695 -5.27907585 10.06269695 -3.0625 11.5625 C1.15013366 13.53985866 5.42989579 14.24571096 10 15 C9.01 15.495 9.01 15.495 8 16 C8 16.66 8 17.32 8 18 C2.0046738 17.73354106 -2.37483686 17.18467141 -7 13 C-8.30754061 10.69199271 -9.12557398 8.5261196 -10 6 C-9.34 6 -8.68 6 -8 6 C-7.7525 5.38125 -7.505 4.7625 -7.25 4.125 C-5.4936973 1.13928541 -3.46854079 0 0 0 Z " fill="#000009" transform="translate(150,174)"/>
<path d="M0 0 C0.99 0.66 1.98 1.32 3 2 C3 2.66 3 3.32 3 4 C2.38511719 4.26554687 1.77023438 4.53109375 1.13671875 4.8046875 C0.32847656 5.15789062 -0.47976562 5.51109375 -1.3125 5.875 C-2.51326172 6.39707031 -2.51326172 6.39707031 -3.73828125 6.9296875 C-6.1961834 8.02571894 -6.1961834 8.02571894 -9 10 C-9.33 10.99 -9.66 11.98 -10 13 C-9.34 13.33 -8.68 13.66 -8 14 C-8.33 14.99 -8.66 15.98 -9 17 C-9.66 17 -10.32 17 -11 17 C-13.10985653 14.89014347 -13.95085732 13.62247399 -14.1875 10.625 C-11.92066833 5.61410894 -6.90484071 3.01591505 -2.1875 0.5 C-1.465625 0.335 -0.74375 0.17 0 0 Z " fill="#05080E" transform="translate(106,62)"/>
<path d="M0 0 C0.33 0 0.66 0 1 0 C1 1.98 1 3.96 1 6 C1.66 5.34 2.32 4.68 3 4 C6.125 3.875 6.125 3.875 9 4 C9 4.99 9 5.98 9 7 C7.35 7 5.7 7 4 7 C4.33 7.99 4.66 8.98 5 10 C6.65 10.33 8.3 10.66 10 11 C9.67 11.99 9.34 12.98 9 14 C6.69 14 4.38 14 2 14 C1.67 13.01 1.34 12.02 1 11 C0.67 12.98 0.34 14.96 0 17 C-0.66 17 -1.32 17 -2 17 C-1.85899143 14.72886197 -1.71203245 12.45809275 -1.5625 10.1875 C-1.48128906 8.92292969 -1.40007812 7.65835938 -1.31640625 6.35546875 C-1 3 -1 3 0 0 Z " fill="#434B59" transform="translate(95,117)"/>
<path d="M0 0 C0.33 0 0.66 0 1 0 C1 9.24 1 18.48 1 28 C1.66 28 2.32 28 3 28 C3 28.99 3 29.98 3 31 C2.34 31 1.68 31 1 31 C0.505 32.485 0.505 32.485 0 34 C1.32 34 2.64 34 4 34 C4 34.99 4 35.98 4 37 C2.02 37 0.04 37 -2 37 C-2.23302818 24.48120831 -1.79849819 12.39679111 0 0 Z " fill="#414C5D" transform="translate(100,81)"/>
<path d="M0 0 C0.33 0 0.66 0 1 0 C1.08040527 0.7206665 1.16081055 1.44133301 1.24365234 2.18383789 C1.61463675 5.47744906 1.99473853 8.76994754 2.375 12.0625 C2.50132812 13.19623047 2.62765625 14.32996094 2.7578125 15.49804688 C3.53970585 22.42365806 3.53970585 22.42365806 5.1640625 29.18359375 C6 32 6 32 5 34 C4.01 33.67 3.02 33.34 2 33 C0.67959106 21.94157511 -0.32748137 11.15255987 0 0 Z " fill="#1A233A" transform="translate(126,130)"/>
<path d="M0 0 C2.64 0 5.28 0 8 0 C7.67 1.65 7.34 3.3 7 5 C5.35 4.67 3.7 4.34 2 4 C1.67 5.32 1.34 6.64 1 8 C2.98 7.67 4.96 7.34 7 7 C7 8.32 7 9.64 7 11 C5.00045254 11.04254356 2.99958364 11.04080783 1 11 C0 10 0 10 -0.09765625 7.71484375 C-0.08605469 6.79832031 -0.07445313 5.88179687 -0.0625 4.9375 C-0.05347656 4.01839844 -0.04445313 3.09929687 -0.03515625 2.15234375 C-0.02355469 1.44207031 -0.01195313 0.73179687 0 0 Z " fill="#787E8C" transform="translate(96,134)"/>
<path d="M0 0 C0 0.99 0 1.98 0 3 C-1.6171875 4.39453125 -1.6171875 4.39453125 -3.875 5.8125 C-4.6896875 6.32683594 -5.504375 6.84117188 -6.34375 7.37109375 C-7.2203125 7.90863281 -8.096875 8.44617188 -9 9 C-9.8971875 9.56847656 -10.794375 10.13695313 -11.71875 10.72265625 C-18.59485816 15 -18.59485816 15 -22 15 C-22 14.34 -22 13.68 -22 13 C-21.16597656 12.56429687 -20.33195312 12.12859375 -19.47265625 11.6796875 C-12.72526949 8.1089055 -6.2491652 4.40832584 0 0 Z " fill="#0C0E10" transform="translate(89,72)"/>
<path d="M0 0 C3.125 1.5 3.125 1.5 5 3 C4.67 3.66 4.34 4.32 4 5 C3.01 4.67 2.02 4.34 1 4 C-0.49937028 3.95653999 -2.00053305 3.96001421 -3.5 4 C-6.45924233 4.07891313 -8.13339242 3.95553586 -11 3 C-11.33 3.99 -11.66 4.98 -12 6 C-12.66 5.67 -13.32 5.34 -14 5 C-14 4.01 -14 3.02 -14 2 C-9.45268513 -0.63597236 -5.13668637 -0.57258701 0 0 Z " fill="#1F2534" transform="translate(116,50)"/>
<path d="M0 0 C0.99 0 1.98 0 3 0 C2.79375 0.515625 2.5875 1.03125 2.375 1.5625 C1.84112974 5.03265671 2.92323239 7.70635791 4 11 C6.31 11 8.62 11 11 11 C10.67 11.99 10.34 12.98 10 14 C2.25 14.125 2.25 14.125 0 13 C0 8.71 0 4.42 0 0 Z " fill="#2F3441" transform="translate(108,102)"/>
<path d="M0 0 C0.66 0.33 1.32 0.66 2 1 C2 6.28 2 11.56 2 17 C1.01 17 0.02 17 -1 17 C-1.22262606 14.91814549 -1.42757926 12.83439574 -1.625 10.75 C-1.74101563 9.58984375 -1.85703125 8.4296875 -1.9765625 7.234375 C-1.99955595 4.06127909 -1.69705154 2.61682756 0 0 Z " fill="#3C4453" transform="translate(97,106)"/>
<path d="M0 0 C2.49505962 2.49505962 2.35948376 3.67328888 2.625 7.125 C2.69976562 8.03507813 2.77453125 8.94515625 2.8515625 9.8828125 C2.92503906 10.93082031 2.92503906 10.93082031 3 12 C2.34 12 1.68 12 1 12 C1 15.3 1 18.6 1 22 C0.34 21.67 -0.32 21.34 -1 21 C-1.0269501 18.06243881 -1.04681474 15.12512445 -1.0625 12.1875 C-1.07087891 11.35412109 -1.07925781 10.52074219 -1.08789062 9.66210938 C-1.09111328 8.85966797 -1.09433594 8.05722656 -1.09765625 7.23046875 C-1.10289307 6.49207764 -1.10812988 5.75368652 -1.11352539 4.99291992 C-1 3 -1 3 0 0 Z " fill="#202C45" transform="translate(117,154)"/>
<path d="M0 0 C4.057041 0.53039297 5.94844566 2.57643552 8.75 5.4375 C9.54921875 6.24058594 10.3484375 7.04367188 11.171875 7.87109375 C13 10 13 10 13 12 C7.78220912 10.57696612 4.37194736 7.0699042 1 3 C0.67 2.01 0.34 1.02 0 0 Z " fill="#000107" transform="translate(132,82)"/>
<path d="M0 0 C5.93002267 -0.37851209 10.47239641 0.89424625 16 3 C16 3.66 16 4.32 16 5 C10.72 4.34 5.44 3.68 0 3 C0 2.01 0 1.02 0 0 Z " fill="#080B14" transform="translate(140,68)"/>
<path d="M0 0 C0.66 0 1.32 0 2 0 C2 3.63 2 7.26 2 11 C-0.97 10.505 -0.97 10.505 -4 10 C-3.34 7.36 -2.68 4.72 -2 2 C-1.34 2 -0.68 2 0 2 C0 1.34 0 0.68 0 0 Z " fill="#161A25" transform="translate(131,162)"/>
<path d="M0 0 C0.99 0 1.98 0 3 0 C3 3.3 3 6.6 3 10 C0.29120665 11.35439668 -2.00933268 11.06501451 -5 11 C-4.67 10.34 -4.34 9.68 -4 9 C-3.34 9 -2.68 9 -2 9 C-2 7.35 -2 5.7 -2 4 C-1.01 4.33 -0.02 4.66 1 5 C0.67 3.35 0.34 1.7 0 0 Z " fill="#515766" transform="translate(116,103)"/>
<path d="M0 0 C0.66 0 1.32 0 2 0 C2.74507544 6.37305598 3.10349817 12.58311325 3 19 C-1.18818623 12.71772065 -1.27812911 7.15752301 0 0 Z " fill="#2D3A50" transform="translate(129,141)"/>
<path d="M0 0 C1.74627478 2.61941217 2.38722388 4.03824877 3 7 C1.37581255 7.08090971 -0.24951745 7.13914995 -1.875 7.1875 C-2.77992187 7.22230469 -3.68484375 7.25710937 -4.6171875 7.29296875 C-5.79667969 7.14794922 -5.79667969 7.14794922 -7 7 C-7.66 6.01 -8.32 5.02 -9 4 C-7.68 4 -6.36 4 -5 4 C-5.33 3.01 -5.66 2.02 -6 1 C-4 1 -4 1 -2.375 2.5 C-1.92125 2.995 -1.4675 3.49 -1 4 C-0.67 2.68 -0.34 1.36 0 0 Z " fill="#364255" transform="translate(106,168)"/>
<path d="M0 0 C-1.42598708 3.15703606 -3.1629134 5.58028568 -5.4375 8.1875 C-6.33275391 9.22970703 -6.33275391 9.22970703 -7.24609375 10.29296875 C-9 12 -9 12 -12 13 C-11.46960703 8.942959 -9.42356448 7.05155434 -6.5625 4.25 C-5.75941406 3.45078125 -4.95632812 2.6515625 -4.12890625 1.828125 C-2 0 -2 0 0 0 Z " fill="#000001" transform="translate(91,82)"/>
<path d="M0 0 C0 0.66 0 1.32 0 2 C-1.725227 2.67679658 -3.45538939 3.34102 -5.1875 4 C-6.15042969 4.37125 -7.11335937 4.7425 -8.10546875 5.125 C-10.92182358 5.97636772 -13.08164439 6.17072647 -16 6 C-11.9039822 1.45876288 -6.09426446 -0.57133729 0 0 Z " fill="#010101" transform="translate(156,47)"/>
<path d="M0 0 C0.66 0 1.32 0 2 0 C1.57910004 5.60461531 1.08386889 10.72086547 -1 16 C-1.66 16 -2.32 16 -3 16 C-2.52013969 10.43109483 -1.70084819 5.32932432 0 0 Z " fill="#050608" transform="translate(121,15)"/>
<path d="M0 0 C2 1 2 1 2.8515625 3.109375 C3.23441406 4.41648437 3.23441406 4.41648437 3.625 5.75 C3.88539062 6.61109375 4.14578125 7.4721875 4.4140625 8.359375 C4.99939868 10.99729006 5.10651736 13.30801576 5 16 C1.57722917 13.71815278 1.35579762 12.92758978 0.25 9.125 C-0.01296875 8.26132812 -0.2759375 7.39765625 -0.546875 6.5078125 C-1.01313271 3.92731727 -0.84414055 2.45257052 0 0 Z " fill="#000000" transform="translate(99,15)"/>
<path d="M0 0 C0.33 0 0.66 0 1 0 C2.18933594 6.99272215 1.99415978 11.53261488 -1 18 C-2.76462683 14.91190305 -3 13.76687864 -3 10 C-2.34 10 -1.68 10 -1 10 C-0.67 6.7 -0.34 3.4 0 0 Z " fill="#2C3545" transform="translate(96,124)"/>
<path d="M0 0 C-0.33 0.99 -0.66 1.98 -1 3 C-3.6171875 3.94921875 -3.6171875 3.94921875 -6.875 4.6875 C-7.94492188 4.93886719 -9.01484375 5.19023438 -10.1171875 5.44921875 C-13 6 -13 6 -16 6 C-16 5.34 -16 4.68 -16 4 C-10.71396808 1.90381493 -5.77562107 0 0 0 Z " fill="#02050D" transform="translate(83,68)"/>
<path d="M0 0 C0.66 0.33 1.32 0.66 2 1 C2 1.66 2 2.32 2 3 C2.66 3 3.32 3 4 3 C4 3.99 4 4.98 4 6 C3.34 6 2.68 6 2 6 C1.67 6.99 1.34 7.98 1 9 C2.32 9 3.64 9 5 9 C5 9.99 5 10.98 5 12 C3.02 12 1.04 12 -1 12 C-0.67 8.04 -0.34 4.08 0 0 Z " fill="#4E5460" transform="translate(99,106)"/>
<path d="M0 0 C0.33 1.32 0.66 2.64 1 4 C3.64 4 6.28 4 9 4 C9 4.99 9 5.98 9 7 C7.72125 7.12375 6.4425 7.2475 5.125 7.375 C1.65209064 7.69042399 1.65209064 7.69042399 -1 10 C-0.67 6.7 -0.34 3.4 0 0 Z " fill="#4F545C" transform="translate(95,145)"/>
<path d="M0 0 C4.95 0.99 9.9 1.98 15 3 C15 3.66 15 4.32 15 5 C9.39538469 4.57910004 4.27913453 4.08386889 -1 2 C-0.67 1.34 -0.34 0.68 0 0 Z " fill="#08090A" transform="translate(68,48)"/>
<path d="M0 0 C1.45903258 0.30921884 2.91720722 0.62248799 4.375 0.9375 C5.18710938 1.11152344 5.99921875 1.28554687 6.8359375 1.46484375 C9 2 9 2 11 3 C10.67 3.99 10.34 4.98 10 6 C6.38238619 5.67112602 4.44334967 5.37334709 1.625 3 C0 1 0 1 0 0 Z " fill="#041135" transform="translate(173,186)"/>
<path d="M0 0 C0.66 0.33 1.32 0.66 2 1 C2.125 6.75 2.125 6.75 1 9 C2.98 9 4.96 9 7 9 C7.33 9.66 7.66 10.32 8 11 C1.375 11.125 1.375 11.125 -2 10 C-2 9.01 -2 8.02 -2 7 C-1.34 7 -0.68 7 0 7 C0 4.69 0 2.38 0 0 Z " fill="#232C3E" transform="translate(91,164)"/>
<path d="M0 0 C0.33 0.99 0.66 1.98 1 3 C4.51190809 4.22969878 4.51190809 4.22969878 8 5 C8 5.66 8 6.32 8 7 C3.545 7.495 3.545 7.495 -1 8 C-0.67 5.36 -0.34 2.72 0 0 Z " fill="#798392" transform="translate(93,165)"/>
<path d="M0 0 C0.99 0.33 1.98 0.66 3 1 C3 4.63 3 8.26 3 12 C2.01 12.495 2.01 12.495 1 13 C-0.32229189 10.35541621 -0.09677194 8.32238699 -0.0625 5.375 C-0.05347656 4.37210938 -0.04445313 3.36921875 -0.03515625 2.3359375 C-0.02355469 1.56507812 -0.01195313 0.79421875 0 0 Z " fill="#0B0C11" transform="translate(110,24)"/>
<path d="M0 0 C0.99 0.33 1.98 0.66 3 1 C-0.3 4.63 -3.6 8.26 -7 12 C-7.66 11.67 -8.32 11.34 -9 11 C-7.87672229 9.54033966 -6.75131706 8.08231636 -5.625 6.625 C-4.99851563 5.81289063 -4.37203125 5.00078125 -3.7265625 4.1640625 C-2 2 -2 2 0 0 Z " fill="#000000" transform="translate(141,27)"/>
<path d="M0 0 C4.10447392 0.51776621 5.95699523 2.64627444 8.75 5.5625 C9.94882813 6.80193359 9.94882813 6.80193359 11.171875 8.06640625 C11.77515625 8.70449219 12.3784375 9.34257813 13 10 C12.67 10.66 12.34 11.32 12 12 C7.57905197 8.27653164 3.42166518 4.70478962 0 0 Z " fill="#000000" transform="translate(78,28)"/>
<path d="M0 0 C0.33 0 0.66 0 1 0 C1.08159574 4.16138263 0.98248524 7.9472484 0 12 C-0.99 12.33 -1.98 12.66 -3 13 C-3.05422947 11.5629191 -3.09289723 10.12524538 -3.125 8.6875 C-3.14820312 7.88699219 -3.17140625 7.08648437 -3.1953125 6.26171875 C-2.95960019 3.53217016 -1.95098132 1.95098132 0 0 Z " fill="#232A3A" transform="translate(109,160)"/>
<path d="M0 0 C3.63 0 7.26 0 11 0 C10.67 0.99 10.34 1.98 10 3 C6.37 3 2.74 3 -1 3 C-0.67 2.01 -0.34 1.02 0 0 Z " fill="#555C64" transform="translate(94,162)"/>
<path d="M0 0 C1.77305664 0.25587405 3.54344608 0.53027739 5.3125 0.8125 C6.79169922 1.03873047 6.79169922 1.03873047 8.30078125 1.26953125 C11.12699269 2.03436705 12.1959128 2.75258762 14 5 C11.8125 5.6875 11.8125 5.6875 9 6 C6.4375 4.625 6.4375 4.625 4 3 C1.80869466 2.30420546 1.80869466 2.30420546 0 2 C0 1.34 0 0.68 0 0 Z " fill="#111626" transform="translate(111,62)"/>
<path d="M0 0 C2.00720923 0.28674418 4.0085944 0.61866701 6 1 C4.33784732 2.33895632 2.67036393 3.67130142 1 5 C-0.0828125 5.86625 -0.0828125 5.86625 -1.1875 6.75 C-3 8 -3 8 -5 8 C-5 7.34 -5 6.68 -5 6 C-4.34 6 -3.68 6 -3 6 C-2.690625 5.195625 -2.38125 4.39125 -2.0625 3.5625 C-1 1 -1 1 0 0 Z " fill="#070C1D" transform="translate(89,174)"/>
<path d="M0 0 C0.66 0 1.32 0 2 0 C2.33 3.63 2.66 7.26 3 11 C2.34 11 1.68 11 1 11 C1.33 12.32 1.66 13.64 2 15 C1.34 15 0.68 15 0 15 C-0.19517554 13.06325815 -0.38087873 11.12555991 -0.5625 9.1875 C-0.66691406 8.10855469 -0.77132812 7.02960938 -0.87890625 5.91796875 C-1 3 -1 3 0 0 Z " fill="#374355" transform="translate(128,130)"/>
<path d="M0 0 C-1.41345476 3.41584899 -3.03347106 4.86780732 -6 7 C-6.99 8.485 -6.99 8.485 -8 10 C-8.66 8.68 -9.32 7.36 -10 6 C-9.34 6 -8.68 6 -8 6 C-7.7525 5.38125 -7.505 4.7625 -7.25 4.125 C-5.4936973 1.13928541 -3.46854079 0 0 0 Z " fill="#05091A" transform="translate(150,174)"/>
<path d="M0 0 C0.66 0.33 1.32 0.66 2 1 C2 3.64 2 6.28 2 9 C1.34 9 0.68 9 0 9 C-0.33 9.99 -0.66 10.98 -1 12 C-2.36884358 7.48281619 -1.47075246 4.41225737 0 0 Z " fill="#161A27" transform="translate(109,151)"/>
<path d="M0 0 C0.66 0 1.32 0 2 0 C2.33 0.99 2.66 1.98 3 3 C4.65 3.33 6.3 3.66 8 4 C7.67 4.99 7.34 5.98 7 7 C4.69 7 2.38 7 0 7 C0 4.69 0 2.38 0 0 Z " fill="#62667E" transform="translate(97,124)"/>
<path d="M0 0 C3.3 0 6.6 0 10 0 C9.67 0.99 9.34 1.98 9 3 C5.7 3 2.4 3 -1 3 C-0.67 2.01 -0.34 1.02 0 0 Z " fill="#000000" transform="translate(137,59)"/>
<path d="M0 0 C5.70629354 0.42797202 9.41078616 2.84345952 14 6 C12.328125 6.6796875 12.328125 6.6796875 10 7 C7.421875 5.8203125 7.421875 5.8203125 4.75 4.125 C3.85796875 3.57070312 2.9659375 3.01640625 2.046875 2.4453125 C1.37140625 1.96835938 0.6959375 1.49140625 0 1 C0 0.67 0 0.34 0 0 Z " fill="#12141E" transform="translate(143,80)"/>
<path d="M0 0 C2.64752004 2.57784846 4.94432065 4.91648098 7 8 C7 8.99 7 9.98 7 11 C3.17131081 9.54773858 1.7461047 7.66681987 0 4 C0 2.68 0 1.36 0 0 Z " fill="#000000" transform="translate(93,28)"/>
<path d="M0 0 C0.33 1.65 0.66 3.3 1 5 C0.34 5 -0.32 5 -1 5 C-1 4.34 -1 3.68 -1 3 C-2.32 3 -3.64 3 -5 3 C-5 3.99 -5 4.98 -5 6 C-5.66 6 -6.32 6 -7 6 C-7.33 4.35 -7.66 2.7 -8 1 C-5.07175348 0.02391783 -3.04386724 -0.08226668 0 0 Z " fill="#3C414B" transform="translate(117,80)"/>
<path d="M0 0 C4.51478398 0.53115106 7.34666857 2.36620292 11 5 C9.4375 5.75 9.4375 5.75 7 6 C4.49713591 4.86915563 2.32992278 3.47860484 0 2 C0 1.34 0 0.68 0 0 Z " fill="#000004" transform="translate(80,42)"/>
<path d="M0 0 C0.66 0.33 1.32 0.66 2 1 C2.125 8.75 2.125 8.75 1 11 C0.34 11 -0.32 11 -1 11 C-2.60080151 6.99799622 -1.29279692 3.95443764 0 0 Z " fill="#181819" transform="translate(111,7)"/>
<path d="M0 0 C0.99 0.33 1.98 0.66 3 1 C2.814375 1.721875 2.62875 2.44375 2.4375 3.1875 C1.98004693 6.12826973 2.26483643 8.14103058 3 11 C0.03 10.505 0.03 10.505 -3 10 C-2.690625 9.46375 -2.38125 8.9275 -2.0625 8.375 C-0.82172561 5.6015043 -0.4090325 2.99957163 0 0 Z " fill="#515866" transform="translate(117,53)"/>
<path d="M0 0 C3.3 0 6.6 0 10 0 C10.33 0.66 10.66 1.32 11 2 C10.01 3.485 10.01 3.485 9 5 C8.67 4.01 8.34 3.02 8 2 C5.36 2.33 2.72 2.66 0 3 C0 2.01 0 1.02 0 0 Z " fill="#2B313F" transform="translate(107,55)"/>
<path d="M0 0 C-1.10815825 3.21365891 -1.98529554 3.9914224 -5 5.75 C-8 7 -8 7 -10 7 C-8.89184175 3.78634109 -8.01470446 3.0085776 -5 1.25 C-2 0 -2 0 0 0 Z " fill="#000000" transform="translate(142,42)"/>
<path d="M0 0 C1.625 1 1.625 1 3 3 C2.65009645 5.8158905 1.84980278 8.2716858 1 11 C-0.5 9.875 -0.5 9.875 -2 8 C-2.3125 4.9375 -2.3125 4.9375 -2 2 C-1.34 1.34 -0.68 0.68 0 0 Z " fill="#2F3033" transform="translate(111,38)"/>
<path d="M0 0 C3.82669043 3.42388092 5.72278474 6.00724943 7 11 C3.66428571 9.88809524 3.41582921 9.53679327 1.8125 6.625 C1.46832031 6.01914062 1.12414062 5.41328125 0.76953125 4.7890625 C0 3 0 3 0 0 Z " fill="#000000" transform="translate(85,14)"/>
<path d="M0 0 C2.5 1.1875 2.5 1.1875 4.5 3.1875 C4.5 4.1775 4.5 5.1675 4.5 6.1875 C5.16 6.1875 5.82 6.1875 6.5 6.1875 C6.17 6.8475 5.84 7.5075 5.5 8.1875 C4.84 7.8575 4.18 7.5275 3.5 7.1875 C3.5 6.1975 3.5 5.2075 3.5 4.1875 C2.55125 3.89875 1.6025 3.61 0.625 3.3125 C-2.5 2.1875 -2.5 2.1875 -4.5 0.1875 C-2.5 -0.8125 -2.5 -0.8125 0 0 Z " fill="#050B1E" transform="translate(107.5,174.8125)"/>
<path d="M0 0 C1.65 0.33 3.3 0.66 5 1 C4.67 3.97 4.34 6.94 4 10 C2.35 10 0.7 10 -1 10 C-0.67 8.68 -0.34 7.36 0 6 C0.33 6.66 0.66 7.32 1 8 C2.27003323 6.94689723 2.27003323 6.94689723 2.1875 4.5625 C2.26839983 1.83265325 2.26839983 1.83265325 0 0 Z " fill="#6F7580" transform="translate(111,82)"/>
<path d="M0 0 C0.66 0 1.32 0 2 0 C0.85569823 3.87302138 -0.23320098 7.00263439 -3 10 C-3.66 10 -4.32 10 -5 10 C-4.38479725 6.00118212 -2.39731331 3.19641774 0 0 Z " fill="#010102" transform="translate(128,29)"/>
<path d="M0 0 C2.97 0.33 5.94 0.66 9 1 C9 1.66 9 2.32 9 3 C5.37 3 1.74 3 -2 3 C-1.34 2.67 -0.68 2.34 0 2 C0 1.34 0 0.68 0 0 Z " fill="#67686A" transform="translate(96,155)"/>
<path d="M0 0 C5.59282842 1.36410449 8.91193811 4.15383526 13 8 C12.67 8.66 12.34 9.32 12 10 C11.01 9.67 10.02 9.34 9 9 C8.33333333 7.66666667 7.66666667 6.33333333 7 5 C6.01 4.67 5.02 4.34 4 4 C4 3.34 4 2.68 4 2 C2.68 2 1.36 2 0 2 C0 1.34 0 0.68 0 0 Z " fill="#2B3543" transform="translate(111,66)"/>
<path d="M0 0 C0.33 0.66 0.66 1.32 1 2 C1.66 2.33 2.32 2.66 3 3 C-1.01786884 5.00893442 -3.43912556 6.12002301 -8 6 C-3.375 1.125 -3.375 1.125 0 0 Z " fill="#0C1224" transform="translate(110,66)"/>
<path d="M0 0 C0.66 0.33 1.32 0.66 2 1 C2 1.66 2 2.32 2 3 C-0.97 2.505 -0.97 2.505 -4 2 C-4.33 2.99 -4.66 3.98 -5 5 C-5.66 4.67 -6.32 4.34 -7 4 C-7 3.01 -7 2.02 -7 1 C-3.375 -1.125 -3.375 -1.125 0 0 Z " fill="#30343E" transform="translate(109,51)"/>
<path d="M0 0 C0.33 0.66 0.66 1.32 1 2 C2.98 1.67 4.96 1.34 7 1 C7 2.32 7 3.64 7 5 C5.02 5 3.04 5 1 5 C0.67 3.35 0.34 1.7 0 0 Z " fill="#646B77" transform="translate(96,140)"/>
<path d="M0 0 C0.99 0 1.98 0 3 0 C3.28875 0.61875 3.5775 1.2375 3.875 1.875 C4.93720042 4.13325765 4.93720042 4.13325765 7 6 C6.67 6.66 6.34 7.32 6 8 C3.53199953 6.84826645 1.95216435 5.95216435 0 4 C0 2.68 0 1.36 0 0 Z " fill="#050816" transform="translate(168,180)"/>
<path d="M0 0 C0.33 0 0.66 0 1 0 C1.09765625 6.15234375 1.09765625 6.15234375 1 8 C0 9 0 9 -3.5625 9.0625 C-4.696875 9.041875 -5.83125 9.02125 -7 9 C-4 7 -4 7 -1 7 C-0.67 4.69 -0.34 2.38 0 0 Z " fill="#505560" transform="translate(116,85)"/>
<path d="M0 0 C3.3 0.33 6.6 0.66 10 1 C9.67 1.66 9.34 2.32 9 3 C6.36 3 3.72 3 1 3 C0.67 2.01 0.34 1.02 0 0 Z " fill="#000000" transform="translate(60,59)"/>
<path d="M0 0 C-0.99 0.495 -0.99 0.495 -2 1 C-2 1.66 -2 2.32 -2 3 C-3.98 3 -5.96 3 -8 3 C-8 2.34 -8 1.68 -8 1 C-8.66 0.67 -9.32 0.34 -10 0 C-6.30581799 -1.231394 -3.7943739 -0.64432764 0 0 Z " fill="#000220" transform="translate(160,189)"/>
<path d="M0 0 C0 1.98 0 3.96 0 6 C-0.33 6 -0.66 6 -1 6 C-1.33 7.98 -1.66 9.96 -2 12 C-2.66 12 -3.32 12 -4 12 C-3.88648483 10.18674449 -3.75887039 8.37436643 -3.625 6.5625 C-3.55539063 5.55316406 -3.48578125 4.54382813 -3.4140625 3.50390625 C-3.27742188 2.67761719 -3.14078125 1.85132813 -3 1 C-1 0 -1 0 0 0 Z " fill="#3A4A54" transform="translate(93,159)"/>
<path d="M0 0 C0.99 0.66 1.98 1.32 3 2 C3 2.66 3 3.32 3 4 C0.69 4.33 -1.62 4.66 -4 5 C-4.33 4.01 -4.66 3.02 -5 2 C-2.6875 0.875 -2.6875 0.875 0 0 Z " fill="#151B28" transform="translate(106,62)"/>
<path d="M0 0 C3.67420866 0.30618405 4.78135513 0.75771784 7.3125 3.5625 C8.1478125 4.7690625 8.1478125 4.7690625 9 6 C5.51669784 5.35494404 2.90567134 4.01782732 0 2 C0 1.34 0 0.68 0 0 Z " fill="#000000" transform="translate(67,34)"/>
<path d="M0 0 C3.96 0 7.92 0 12 0 C11.67 0.66 11.34 1.32 11 2 C7.7 2 4.4 2 1 2 C0.67 1.34 0.34 0.68 0 0 Z " fill="#000000" transform="translate(75,60)"/>
<path d="M0 0 C0.66 0 1.32 0 2 0 C0.68775452 3.93673644 -0.91910327 6.22719294 -4 9 C-3.4739075 5.21213403 -2.61896089 2.82847776 0 0 Z " fill="#000000" transform="translate(136,15)"/>
<path d="M0 0 C0.556875 0.226875 1.11375 0.45375 1.6875 0.6875 C-3.9375 4.6875 -3.9375 4.6875 -7.3125 4.6875 C-7.3125 4.0275 -7.3125 3.3675 -7.3125 2.6875 C-3.15982824 -0.42700382 -3.15982824 -0.42700382 0 0 Z " fill="#000000" transform="translate(74.3125,82.3125)"/>
<path d="M0 0 C3.3 0 6.6 0 10 0 C10 0.66 10 1.32 10 2 C6.37 2 2.74 2 -1 2 C-0.67 1.34 -0.34 0.68 0 0 Z " fill="#000000" transform="translate(153,59)"/>
<path d="M0 0 C0 0.66 0 1.32 0 2 C-5.2734375 5.22265625 -5.2734375 5.22265625 -7 6 C-7.66 5.67 -8.32 5.34 -9 5 C-3.375 0 -3.375 0 0 0 Z " fill="#000000" transform="translate(156,34)"/>
<path d="M0 0 C0.99 0 1.98 0 3 0 C3 3.3 3 6.6 3 10 C2.01 9.67 1.02 9.34 0 9 C0 6.03 0 3.06 0 0 Z " fill="#6A6F7B" transform="translate(116,103)"/>
<path d="M0 0 C0.99 0.33 1.98 0.66 3 1 C3 2.98 3 4.96 3 7 C2.01 7 1.02 7 0 7 C0 4.69 0 2.38 0 0 Z " fill="#313949" transform="translate(96,116)"/>
<path d="M0 0 C-0.33 0.99 -0.66 1.98 -1 3 C-3.64 3 -6.28 3 -9 3 C-8.67 2.34 -8.34 1.68 -8 1 C-5.30114269 0.42577504 -2.76207303 0 0 0 Z " fill="#3F424A" transform="translate(119,113)"/>
<path d="M0 0 C0 0.66 0 1.32 0 2 C-0.66 2 -1.32 2 -2 2 C-2.66 3.32 -3.32 4.64 -4 6 C-4.33 5.01 -4.66 4.02 -5 3 C-5.66 2.67 -6.32 2.34 -7 2 C-4.35261084 0.5393715 -3.10551666 0 0 0 Z " fill="#202C3B" transform="translate(107,71)"/>
<path d="M0 0 C1.98 0 3.96 0 6 0 C6 0.99 6 1.98 6 3 C4.35 3 2.7 3 1 3 C0.67 2.01 0.34 1.02 0 0 Z " fill="#62666A" transform="translate(98,121)"/>
<path d="M0 0 C0.33 0.66 0.66 1.32 1 2 C0.67 2.99 0.34 3.98 0 5 C-1.32 5 -2.64 5 -4 5 C-3.6875 3.0625 -3.6875 3.0625 -3 1 C-2.01 0.67 -1.02 0.34 0 0 Z " fill="#3B4454" transform="translate(102,73)"/>
</svg>
