<?xml version="1.0" encoding="UTF-8"?>
<svg version="1.1" xmlns="http://www.w3.org/2000/svg" width="330" height="330">
<path d="M0 0 C5.89464052 4.21716152 10.8040503 9.81196473 15.6875 15.125 C16.95984751 16.50481378 18.23467803 17.88234122 19.51171875 19.2578125 C20.47569832 20.32127396 20.47569832 20.32127396 21.45915222 21.40621948 C23.3484 23.33482541 25.155431 24.98137061 27.23591614 26.67019653 C32.88466129 31.42932955 37.54115435 35.65432284 38.38988781 43.28097343 C38.56413846 47.23671806 38.46188009 51.15460711 38.3125 55.109375 C38.29793373 56.84690217 38.28993707 58.58449528 38.28808594 60.32208252 C38.26924262 64.87809586 38.17747528 69.42939894 38.0647583 73.98394775 C37.89524975 81.22424737 37.82860393 88.46556499 37.77963257 95.70752716 C37.7512207 98.19020826 37.68590998 100.66954564 37.61450195 103.15130615 C37.36581019 115.7425428 39.59757921 127.34133353 42.2795372 139.60686874 C43.52593895 145.47699103 44.59789447 151.37858714 45.67895508 157.28100586 C46.02074563 159.13341747 46.02074563 159.13341747 46.36944103 161.02325153 C46.96486954 164.25194156 47.55857912 167.480941 48.15133882 170.71012187 C48.78138793 174.14059226 49.41340368 177.57070048 50.04508972 181.00086975 C51.09938658 186.72762269 52.15210821 192.45466343 53.20385742 198.18188477 C54.41899821 204.79871487 55.63686628 211.41503888 56.85608178 218.03111929 C58.03718109 224.44076706 59.21628527 230.85078032 60.39450645 237.26095772 C60.89343267 239.97515753 61.39308123 242.68922289 61.89332008 245.40318108 C62.58692849 249.16676938 63.27763064 252.93088771 63.96801758 256.69506836 C64.17522934 257.817444 64.3824411 258.93981964 64.59593201 260.09620667 C64.87538162 261.62379105 64.87538162 261.62379105 65.16047668 263.18223572 C65.3235925 264.06971465 65.48670832 264.95719358 65.65476704 265.87156582 C66 268 66 268 66 270 C66.76666992 269.97905273 67.53333984 269.95810547 68.32324219 269.93652344 C71.7986946 269.85334842 75.27393763 269.80133425 78.75 269.75 C79.9565625 269.71648437 81.163125 269.68296875 82.40625 269.6484375 C83.56640625 269.63554687 84.7265625 269.62265625 85.921875 269.609375 C86.99018555 269.58842773 88.05849609 269.56748047 89.15917969 269.54589844 C92.71014252 270.11351539 93.89457489 271.12432851 96 274 C95.78571429 280.21428571 95.78571429 280.21428571 93 283 C90.41117338 283.19971174 87.92896158 283.27366648 85.33876038 283.26069641 C84.53879196 283.26452196 83.73882355 283.26834751 82.91461366 283.27228898 C80.21913305 283.28265362 77.52386407 283.27862031 74.82836914 283.2746582 C72.90192974 283.27900277 70.97549208 283.28418505 69.04905701 283.29014587 C63.80532023 283.30357468 58.56165535 283.30411024 53.31790471 283.30158257 C48.94638879 283.30051548 44.57488758 283.30538951 40.2033748 283.310188 C29.89346597 283.32129662 19.58359357 283.32171299 9.27368164 283.31567383 C-1.37591395 283.30963178 -12.02537749 283.32194784 -22.67495054 283.3432439 C-31.80618095 283.36083489 -40.93736923 283.36686522 -50.06861597 283.36360615 C-55.52762696 283.36178914 -60.98654377 283.36447096 -66.44553947 283.37832069 C-71.57795652 283.39085378 -76.71016709 283.38899796 -81.8425808 283.37590981 C-83.72962767 283.37353457 -85.61668887 283.37631235 -87.50371933 283.38453293 C-90.07331476 283.39492246 -92.64220734 283.3869631 -95.21177673 283.3742218 C-95.96429984 283.38159609 -96.71682294 283.38897037 -97.49214977 283.39656812 C-102.49675045 283.34410755 -102.49675045 283.34410755 -104.9594202 281.66020489 C-106.62980254 278.99517436 -106.43751629 277.06261403 -106 274 C-104.42089844 271.83300781 -104.42089844 271.83300781 -102 270 C-98.70019531 269.54589844 -98.70019531 269.54589844 -94.828125 269.609375 C-94.1457074 269.61503479 -93.46328979 269.62069458 -92.76019287 269.62652588 C-90.58940238 269.64884364 -88.42028794 269.69902492 -86.25 269.75 C-84.7747635 269.77007124 -83.29950101 269.78832093 -81.82421875 269.8046875 C-78.21560499 269.8486912 -74.60796619 269.91768417 -71 270 C-70.95557014 269.36327803 -70.91114029 268.72655605 -70.86536407 268.07053947 C-70.25892386 260.41960979 -69.02577804 252.97609252 -67.60742188 245.43798828 C-67.36216451 244.11452564 -67.11735014 242.79098083 -66.87294006 241.46736145 C-66.21422749 237.90702615 -65.54937086 234.34786397 -64.88331032 230.78889704 C-64.18485452 227.05100131 -63.49210622 223.3120479 -62.79870605 219.57321167 C-61.48651471 212.50266515 -60.1691618 205.43309062 -58.84995794 198.36384952 C-57.35105805 190.3301166 -55.85834174 182.29523852 -54.36596203 174.26029229 C-52.16575608 162.41571314 -49.96341573 150.57152961 -47.75485039 138.72850609 C-47.40298123 136.84143625 -47.05140828 134.95431118 -46.69984436 133.06718445 C-46.38441933 131.37685341 -46.38441933 131.37685341 -46.06262207 129.65237427 C-45.88048409 128.67573381 -45.6983461 127.69909336 -45.51068878 126.69285774 C-45.17382495 124.91657754 -44.81817467 123.14374366 -44.44263363 121.37523651 C-43.80287219 117.94218345 -43.83879348 114.52421888 -43.82641602 111.04443359 C-43.819729 110.25848312 -43.81304199 109.47253265 -43.80615234 108.6627655 C-43.79214428 106.9625844 -43.78023687 105.26238496 -43.77020454 103.56217575 C-43.75374747 100.8724875 -43.7305109 98.18293632 -43.70530701 95.49331665 C-43.63463834 87.84847871 -43.57428101 80.20358731 -43.52319336 72.55859375 C-43.49144059 67.87785843 -43.45018435 63.19728562 -43.40299797 58.51668167 C-43.38696717 56.73289526 -43.37465059 54.94907152 -43.36609077 53.16523361 C-43.35396506 50.67557957 -43.3298302 48.18630979 -43.30297852 45.69677734 C-43.30238937 44.95800858 -43.30180023 44.21923981 -43.30119324 43.45808411 C-43.24821926 39.75992396 -43.10718604 38.16077907 -41 35 C-40.34 35 -39.68 35 -39 35 C-38.67237671 34.18233154 -38.67237671 34.18233154 -38.33813477 33.34814453 C-36.55826362 30.22484574 -34.14311186 27.9157703 -31.58984375 25.4296875 C-31.06234024 24.90738556 -30.53483673 24.38508362 -29.99134827 23.84695435 C-28.3114287 22.18479666 -26.62495728 20.52950195 -24.9375 18.875 C-23.24736984 17.21249027 -21.5587228 15.54854046 -19.87294006 13.88162231 C-18.82509029 12.8460278 -17.77457886 11.81311817 -16.72117615 10.78317261 C-14.01638571 8.15409686 -14.01638571 8.15409686 -12 5 C-11.34 5 -10.68 5 -10 5 C-9.71125 4.360625 -9.4225 3.72125 -9.125 3.0625 C-7.02502796 -0.78744874 -4.05710108 -0.60105201 0 0 Z M-7.4765625 20.2109375 C-8.146875 20.87867188 -8.8171875 21.54640625 -9.5078125 22.234375 C-10.55582031 23.29398438 -10.55582031 23.29398438 -11.625 24.375 C-12.33140625 25.07367188 -13.0378125 25.77234375 -13.765625 26.4921875 C-14.76722656 27.49765625 -14.76722656 27.49765625 -15.7890625 28.5234375 C-16.71259521 29.450354 -16.71259521 29.450354 -17.65478516 30.39599609 C-19.21419673 31.90649906 -19.21419673 31.90649906 -19 34 C-8.44 34 2.12 34 13 34 C7.65495028 27.75469052 7.65495028 27.75469052 2.25 21.5625 C1.49203125 20.69753906 0.7340625 19.83257812 -0.046875 18.94140625 C-3.39106696 15.61727945 -4.55642951 17.30146471 -7.4765625 20.2109375 Z M-30 48 C-30 68.13 -30 88.26 -30 109 C-12.18 109 5.64 109 24 109 C24 107.02 24 105.04 24 103 C23.05898437 102.57589844 22.11796875 102.15179688 21.1484375 101.71484375 C12.54624548 97.71615505 6.16767254 94.23168423 2.125 85.25 C-0.11581334 78.3675019 -0.0264809 70.56639579 2.8984375 63.91015625 C6.8718063 57.02016567 11.74835925 53.02027099 19 50 C20.32 49.34 21.64 48.68 23 48 C5.51 48 -11.98 48 -30 48 Z M19.5625 64.25 C18.94503906 64.66765625 18.32757813 65.0853125 17.69140625 65.515625 C15.14257655 67.75247324 14.16003867 69.8381608 13.69921875 73.18359375 C13.67458203 77.92205558 13.72066141 81.29752095 17 85 C20.465 86.98 20.465 86.98 24 89 C24 80.09 24 71.18 24 62 C22.22967606 62 20.9809984 63.27091171 19.5625 64.25 Z M-31 123 C-34.39565737 141.27944607 -37.78686326 159.5596996 -41.16993713 177.84147835 C-42.7409154 186.33008284 -44.31389559 194.81830719 -45.89160156 203.30566406 C-47.26679891 210.70364288 -48.63822722 218.10230874 -50.00514317 225.50182235 C-50.72897473 229.41939798 -51.45468272 233.33660483 -52.18490601 237.25299454 C-52.87243477 240.94073207 -53.55491247 244.62936892 -54.23356247 248.31875038 C-54.6021101 250.31498002 -54.97597548 252.31022561 -55.3500061 254.30543518 C-55.56877411 255.50007889 -55.78754211 256.6947226 -56.01293945 257.92556763 C-56.20467239 258.95981936 -56.39640533 259.99407108 -56.59394836 261.05966377 C-57.13679874 264.49589202 -57.13679874 264.49589202 -57 270 C-21.03 270 14.94 270 52 270 C47.71153621 245.11358706 47.71153621 245.11358706 43.25738525 220.25778198 C43.04467232 219.09295162 42.83195938 217.92812126 42.6128006 216.72799301 C42.39510765 215.53642719 42.1774147 214.34486137 41.953125 213.1171875 C41.49178195 210.58750478 41.03049988 208.05781094 40.5692749 205.52810669 C39.61566974 200.29981135 38.66101023 195.07170959 37.70556641 189.84375 C36.60297749 183.81048391 35.5031056 177.77672662 34.40444875 171.74274337 C33.33690232 165.88025724 32.26693713 160.01821435 31.19600677 154.15634537 C30.74398172 151.68046669 30.29264731 149.20446182 29.84201813 146.7283287 C29.21739638 143.29750589 28.59002111 139.86719791 27.96191406 136.43701172 C27.68454155 134.90852852 27.68454155 134.90852852 27.40156555 133.34916687 C27.23071945 132.4193248 27.05987335 131.48948273 26.8838501 130.53146362 C26.73640476 129.7238452 26.58895943 128.91622677 26.43704605 128.08413506 C26.00406318 125.8208716 26.00406318 125.8208716 25 123 C6.52 123 -11.96 123 -31 123 Z " fill="#FEFEFE" transform="translate(154,22)"/>
<path d="M0 0 C1.88644674 2.37856329 2.0337486 3.53876916 1.8125 6.5625 C0.89865299 9.30404103 0.20281946 10.17356014 -2 12 C-4.47518921 13.12435913 -4.47518921 13.12435913 -7.45849609 14.18896484 C-8.57751312 14.59303558 -9.69653015 14.99710632 -10.84945679 15.41342163 C-12.66807724 16.05569199 -12.66807724 16.05569199 -14.5234375 16.7109375 C-15.7886619 17.16471421 -17.05360103 17.61928702 -18.31826782 18.07461548 C-21.65451195 19.27360011 -24.99421528 20.46263399 -28.33483887 21.64935303 C-32.34754658 23.07659775 -36.35650717 24.51432138 -40.36561012 25.95165443 C-43.49626868 27.07400084 -46.62769834 28.19394131 -49.76107788 29.3086853 C-57.55570898 32.0888807 -65.289684 34.99412791 -73 38 C-64.52732205 41.6330957 -55.96703085 44.89171126 -47.28125 47.9765625 C-46.00744183 48.4325878 -44.73380421 48.8890897 -43.46032715 49.34603882 C-38.11687059 51.26273518 -32.7711615 53.17305985 -27.42285156 55.07617188 C-24.1260445 56.24965301 -20.83170352 57.42984217 -17.5388031 58.61423874 C-15.69049115 59.27678835 -13.83946729 59.93175686 -11.98840332 60.58657837 C-10.30514954 61.19268448 -10.30514954 61.19268448 -8.58789062 61.81103516 C-7.60260376 62.16235504 -6.61731689 62.51367493 -5.60217285 62.87564087 C-3.01299453 63.99438526 -1.09092234 65.11224797 1 67 C2 69.9375 2 69.9375 2 73 C0.5 75.375 0.5 75.375 -2 77 C-8.8736878 77.85576033 -14.47593753 75.26149697 -20.8125 72.8125 C-23.45213418 71.81497487 -26.09266174 70.82010666 -28.734375 69.828125 C-29.48316422 69.54578506 -30.23195343 69.26344513 -31.00343323 68.97254944 C-37.89033649 66.38731734 -44.81297722 63.90461496 -51.74166298 61.43410683 C-53.70555824 60.73350697 -55.66893309 60.03146898 -57.63212585 59.3289032 C-58.28478078 59.0953478 -58.9374357 58.86179239 -59.60986805 58.62115955 C-60.93496424 58.14692272 -62.26004698 57.67264829 -63.58511639 57.1983366 C-66.90262131 56.01146809 -70.22126699 54.82798821 -73.54238892 53.65127563 C-76.11048199 52.74114675 -78.6766474 51.82594189 -81.24078369 50.90472412 C-83.61017039 50.05347483 -85.98217579 49.20946846 -88.3571167 48.37384033 C-89.4220636 47.9888739 -90.4870105 47.60390747 -91.58422852 47.20727539 C-92.51300308 46.87627335 -93.44177765 46.5452713 -94.3986969 46.20423889 C-97.39385874 44.8176683 -99.6061483 43.27183196 -102 41 C-102.5625 37.4375 -102.5625 37.4375 -102 34 C-99.06092705 31.22501172 -95.8236862 30.03001623 -92.05175781 28.69091797 C-90.24641571 28.04411575 -90.24641571 28.04411575 -88.40460205 27.38424683 C-87.08747025 26.9201498 -85.77031044 26.45613227 -84.453125 25.9921875 C-83.08120508 25.50303207 -81.70952558 25.01320184 -80.33807373 24.5227356 C-76.71293148 23.22804193 -73.08500195 21.94135166 -69.45629883 20.65667725 C-63.736654 18.63024449 -58.02122431 16.5919305 -52.3056488 14.55405426 C-50.90520481 14.05491785 -49.50462104 13.55617342 -48.10389709 13.05782318 C-37.75796104 9.37633092 -27.45310272 5.59856383 -17.19268799 1.68356323 C-16.29475525 1.34213287 -15.39682251 1.00070251 -14.47167969 0.64892578 C-13.69878601 0.35269318 -12.92589233 0.05646057 -12.12957764 -0.24874878 C-7.31563425 -1.94696385 -4.82585192 -2.20310631 0 0 Z " fill="#FDFDFD" transform="translate(302,62)"/>
<path d="M0 0 C3.453558 1.27631491 4.16487672 1.82182822 5.875 5.0625 C6.32464401 8.33740087 6.28449021 11.59113355 6.26318359 14.89233398 C6.26844055 15.88950439 6.27369751 16.8866748 6.27911377 17.9140625 C6.29232416 21.21239864 6.28357111 24.51025264 6.2734375 27.80859375 C6.27545809 30.10018507 6.2783694 32.39177576 6.28213501 34.68336487 C6.28655991 39.48762124 6.28012239 44.29171033 6.26611328 49.09594727 C6.24903113 55.25426538 6.25885564 61.41219098 6.27683067 67.57049465 C6.28767213 72.30340023 6.28422029 77.03621279 6.2764473 81.76912117 C6.2744458 84.03972482 6.27690278 86.31033691 6.28388596 88.58093071 C6.29150509 91.75527173 6.27988872 94.92897775 6.26318359 98.10327148 C6.27229263 99.51156975 6.27229263 99.51156975 6.28158569 100.94831848 C6.23457027 105.77103739 6.10144195 109.18944394 2.875 113.0625 C0.9375 113.69140625 0.9375 113.69140625 -1.125 113.625 C-1.805625 113.62628906 -2.48625 113.62757813 -3.1875 113.62890625 C-5.125 113.0625 -5.125 113.0625 -6.71984863 111.64720154 C-8.91373275 107.61166786 -8.55887194 103.6641414 -8.54492188 99.14086914 C-8.55339142 98.13394516 -8.56186096 97.12702118 -8.57058716 96.08958435 C-8.59399934 92.75881341 -8.5949783 89.42850327 -8.59375 86.09765625 C-8.60084889 83.78364374 -8.60854748 81.469633 -8.61682129 79.15562439 C-8.63027573 74.30430204 -8.63183042 69.45314244 -8.62597656 64.60180664 C-8.62007896 58.38277962 -8.65067099 52.16453284 -8.69109344 45.94565678 C-8.71693341 41.16641527 -8.7198512 36.38736257 -8.71620178 31.60806084 C-8.71789642 29.31510901 -8.72757177 27.02214878 -8.74534607 24.72926521 C-8.76746224 21.52348618 -8.75787023 18.31929862 -8.74023438 15.11352539 C-8.75349762 14.16530914 -8.76676086 13.2170929 -8.78042603 12.24014282 C-8.72214976 7.68482915 -8.5894305 5.68175983 -5.78186035 1.93821716 C-3.125 0.0625 -3.125 0.0625 0 0 Z " fill="#FEFEFE" transform="translate(151.125,160.9375)"/>
</svg>
