<svg width="241" height="239" viewBox="0 0 241 239" fill="none" xmlns="http://www.w3.org/2000/svg">
<path d="M242.037 55.5837C242.732 56.7301 243.409 57.8877 244.067 59.0561C242.872 58.3114 242.073 57.0374 242.037 55.5837Z" fill="#172D59"/>
<path d="M217.495 26.1189C219.584 27.9852 221.61 29.9143 223.57 31.9031C222.812 33.2369 221.329 34.1429 219.625 34.1429C217.15 34.1429 215.143 32.2321 215.143 29.875C215.143 28.252 216.094 26.8406 217.495 26.1189Z" fill="#172D59"/>
<path d="M188.979 6.60138C190.206 7.22827 191.422 7.87277 192.626 8.53453C191.099 8.5006 189.761 7.73975 188.979 6.60138Z" fill="#172D59"/>
<path d="M58.3745 8.53453C59.5784 7.87277 60.7942 7.22827 62.0213 6.60138C61.2391 7.73975 59.9012 8.5006 58.3745 8.53453Z" fill="#172D59"/>
<path d="M27.4303 31.9031C29.3903 29.9143 31.4163 27.9852 33.5049 26.1189C34.9057 26.8406 35.8571 28.252 35.8571 29.875C35.8571 32.2321 33.8504 34.1429 31.375 34.1429C29.6705 34.1429 28.1882 33.2369 27.4303 31.9031Z" fill="#172D59"/>
<path d="M6.93283 59.0561C7.5912 57.8877 8.26806 56.7301 8.96304 55.5837C8.92741 57.0374 8.12836 58.3114 6.93283 59.0561Z" fill="#172D59"/>
<path d="M244.067 179.944C243.409 181.112 242.732 182.27 242.037 183.416C242.073 181.963 242.872 180.689 244.067 179.944Z" fill="#172D59"/>
<path d="M223.57 207.097C222.812 205.763 221.329 204.857 219.625 204.857C217.15 204.857 215.143 206.768 215.143 209.125C215.143 210.748 216.094 212.159 217.495 212.881C219.584 211.015 221.61 209.086 223.57 207.097Z" fill="#172D59"/>
<path d="M192.626 230.465C191.099 230.499 189.761 231.26 188.979 232.399C190.206 231.772 191.422 231.127 192.626 230.465Z" fill="#172D59"/>
<path d="M62.0213 232.399C61.2391 231.26 59.9012 230.499 58.3745 230.465C59.5784 231.127 60.7942 231.772 62.0213 232.399Z" fill="#172D59"/>
<path d="M33.5049 212.881C34.9057 212.159 35.8571 210.748 35.8571 209.125C35.8571 206.768 33.8504 204.857 31.375 204.857C29.6705 204.857 28.1882 205.763 27.4303 207.097C29.3903 209.086 31.4163 211.015 33.5049 212.881Z" fill="#172D59"/>
<path d="M8.96304 183.416C8.92741 181.963 8.12836 180.689 6.93283 179.944C7.5912 181.112 8.26806 182.27 8.96304 183.416Z" fill="#172D59"/>
<path d="M89.6429 4.26786C89.6429 6.62493 87.6361 8.53571 85.1607 8.53571C82.6853 8.53571 80.6786 6.62493 80.6786 4.26786C80.6786 1.91078 82.6853 0 85.1607 0C87.6361 0 89.6429 1.91078 89.6429 4.26786Z" fill="#172D59"/>
<path d="M116.536 4.26786C116.536 6.62493 114.529 8.53571 112.054 8.53571C109.578 8.53571 107.571 6.62493 107.571 4.26786C107.571 1.91078 109.578 0 112.054 0C114.529 0 116.536 1.91078 116.536 4.26786Z" fill="#172D59"/>
<path d="M143.429 4.26786C143.429 6.62493 141.422 8.53571 138.946 8.53571C136.471 8.53571 134.464 6.62493 134.464 4.26786C134.464 1.91078 136.471 0 138.946 0C141.422 0 143.429 1.91078 143.429 4.26786Z" fill="#172D59"/>
<path d="M170.321 4.26786C170.321 6.62493 168.315 8.53571 165.839 8.53571C163.364 8.53571 161.357 6.62493 161.357 4.26786C161.357 1.91078 163.364 0 165.839 0C168.315 0 170.321 1.91078 170.321 4.26786Z" fill="#172D59"/>
<path d="M62.75 29.875C62.75 32.2321 60.7433 34.1429 58.2679 34.1429C55.7924 34.1429 53.7857 32.2321 53.7857 29.875C53.7857 27.5179 55.7924 25.6071 58.2679 25.6071C60.7433 25.6071 62.75 27.5179 62.75 29.875Z" fill="#172D59"/>
<path d="M89.6429 29.875C89.6429 32.2321 87.6361 34.1429 85.1607 34.1429C82.6853 34.1429 80.6786 32.2321 80.6786 29.875C80.6786 27.5179 82.6853 25.6071 85.1607 25.6071C87.6361 25.6071 89.6429 27.5179 89.6429 29.875Z" fill="#172D59"/>
<path d="M116.536 29.875C116.536 32.2321 114.529 34.1429 112.054 34.1429C109.578 34.1429 107.571 32.2321 107.571 29.875C107.571 27.5179 109.578 25.6071 112.054 25.6071C114.529 25.6071 116.536 27.5179 116.536 29.875Z" fill="#172D59"/>
<path d="M143.429 29.875C143.429 32.2321 141.422 34.1429 138.946 34.1429C136.471 34.1429 134.464 32.2321 134.464 29.875C134.464 27.5179 136.471 25.6071 138.946 25.6071C141.422 25.6071 143.429 27.5179 143.429 29.875Z" fill="#172D59"/>
<path d="M170.321 29.875C170.321 32.2321 168.315 34.1429 165.839 34.1429C163.364 34.1429 161.357 32.2321 161.357 29.875C161.357 27.5179 163.364 25.6071 165.839 25.6071C168.315 25.6071 170.321 27.5179 170.321 29.875Z" fill="#172D59"/>
<path d="M197.214 29.875C197.214 32.2321 195.208 34.1429 192.732 34.1429C190.257 34.1429 188.25 32.2321 188.25 29.875C188.25 27.5179 190.257 25.6071 192.732 25.6071C195.208 25.6071 197.214 27.5179 197.214 29.875Z" fill="#172D59"/>
<path d="M35.8571 55.4821C35.8571 57.8392 33.8504 59.75 31.375 59.75C28.8996 59.75 26.8929 57.8392 26.8929 55.4821C26.8929 53.1251 28.8996 51.2143 31.375 51.2143C33.8504 51.2143 35.8571 53.1251 35.8571 55.4821Z" fill="#172D59"/>
<path d="M62.75 55.4821C62.75 57.8392 60.7433 59.75 58.2679 59.75C55.7924 59.75 53.7857 57.8392 53.7857 55.4821C53.7857 53.1251 55.7924 51.2143 58.2679 51.2143C60.7433 51.2143 62.75 53.1251 62.75 55.4821Z" fill="#172D59"/>
<path d="M89.6429 55.4821C89.6429 57.8392 87.6361 59.75 85.1607 59.75C82.6853 59.75 80.6786 57.8392 80.6786 55.4821C80.6786 53.1251 82.6853 51.2143 85.1607 51.2143C87.6361 51.2143 89.6429 53.1251 89.6429 55.4821Z" fill="#172D59"/>
<path d="M116.536 55.4821C116.536 57.8392 114.529 59.75 112.054 59.75C109.578 59.75 107.571 57.8392 107.571 55.4821C107.571 53.1251 109.578 51.2143 112.054 51.2143C114.529 51.2143 116.536 53.1251 116.536 55.4821Z" fill="#172D59"/>
<path d="M143.429 55.4821C143.429 57.8392 141.422 59.75 138.946 59.75C136.471 59.75 134.464 57.8392 134.464 55.4821C134.464 53.1251 136.471 51.2143 138.946 51.2143C141.422 51.2143 143.429 53.1251 143.429 55.4821Z" fill="#172D59"/>
<path d="M170.321 55.4821C170.321 57.8392 168.315 59.75 165.839 59.75C163.364 59.75 161.357 57.8392 161.357 55.4821C161.357 53.1251 163.364 51.2143 165.839 51.2143C168.315 51.2143 170.321 53.1251 170.321 55.4821Z" fill="#172D59"/>
<path d="M197.214 55.4821C197.214 57.8392 195.208 59.75 192.732 59.75C190.257 59.75 188.25 57.8392 188.25 55.4821C188.25 53.1251 190.257 51.2143 192.732 51.2143C195.208 51.2143 197.214 53.1251 197.214 55.4821Z" fill="#172D59"/>
<path d="M224.107 55.4821C224.107 57.8392 222.1 59.75 219.625 59.75C217.15 59.75 215.143 57.8392 215.143 55.4821C215.143 53.1251 217.15 51.2143 219.625 51.2143C222.1 51.2143 224.107 53.1251 224.107 55.4821Z" fill="#172D59"/>
<path d="M8.96429 81.0893C8.96429 83.4464 6.95756 85.3571 4.48214 85.3571C2.00672 85.3571 0 83.4464 0 81.0893C0 78.7322 2.00672 76.8214 4.48214 76.8214C6.95756 76.8214 8.96429 78.7322 8.96429 81.0893Z" fill="#172D59"/>
<path d="M35.8571 81.0893C35.8571 83.4464 33.8504 85.3571 31.375 85.3571C28.8996 85.3571 26.8929 83.4464 26.8929 81.0893C26.8929 78.7322 28.8996 76.8214 31.375 76.8214C33.8504 76.8214 35.8571 78.7322 35.8571 81.0893Z" fill="#172D59"/>
<path d="M62.75 81.0893C62.75 83.4464 60.7433 85.3571 58.2679 85.3571C55.7924 85.3571 53.7857 83.4464 53.7857 81.0893C53.7857 78.7322 55.7924 76.8214 58.2679 76.8214C60.7433 76.8214 62.75 78.7322 62.75 81.0893Z" fill="#172D59"/>
<path d="M89.6429 81.0893C89.6429 83.4464 87.6361 85.3571 85.1607 85.3571C82.6853 85.3571 80.6786 83.4464 80.6786 81.0893C80.6786 78.7322 82.6853 76.8214 85.1607 76.8214C87.6361 76.8214 89.6429 78.7322 89.6429 81.0893Z" fill="#172D59"/>
<path d="M116.536 81.0893C116.536 83.4464 114.529 85.3571 112.054 85.3571C109.578 85.3571 107.571 83.4464 107.571 81.0893C107.571 78.7322 109.578 76.8214 112.054 76.8214C114.529 76.8214 116.536 78.7322 116.536 81.0893Z" fill="#172D59"/>
<path d="M143.429 81.0893C143.429 83.4464 141.422 85.3571 138.946 85.3571C136.471 85.3571 134.464 83.4464 134.464 81.0893C134.464 78.7322 136.471 76.8214 138.946 76.8214C141.422 76.8214 143.429 78.7322 143.429 81.0893Z" fill="#172D59"/>
<path d="M170.321 81.0893C170.321 83.4464 168.315 85.3571 165.839 85.3571C163.364 85.3571 161.357 83.4464 161.357 81.0893C161.357 78.7322 163.364 76.8214 165.839 76.8214C168.315 76.8214 170.321 78.7322 170.321 81.0893Z" fill="#172D59"/>
<path d="M197.214 81.0893C197.214 83.4464 195.208 85.3571 192.732 85.3571C190.257 85.3571 188.25 83.4464 188.25 81.0893C188.25 78.7322 190.257 76.8214 192.732 76.8214C195.208 76.8214 197.214 78.7322 197.214 81.0893Z" fill="#172D59"/>
<path d="M224.107 81.0893C224.107 83.4464 222.1 85.3571 219.625 85.3571C217.15 85.3571 215.143 83.4464 215.143 81.0893C215.143 78.7322 217.15 76.8214 219.625 76.8214C222.1 76.8214 224.107 78.7322 224.107 81.0893Z" fill="#172D59"/>
<path d="M251 81.0893C251 83.4464 248.993 85.3571 246.518 85.3571C244.042 85.3571 242.036 83.4464 242.036 81.0893C242.036 78.7322 244.042 76.8214 246.518 76.8214C248.993 76.8214 251 78.7322 251 81.0893Z" fill="#172D59"/>
<path d="M8.96429 106.696C8.96429 109.053 6.95756 110.964 4.48214 110.964C2.00672 110.964 0 109.053 0 106.696C0 104.339 2.00672 102.429 4.48214 102.429C6.95756 102.429 8.96429 104.339 8.96429 106.696Z" fill="#172D59"/>
<path d="M35.8571 106.696C35.8571 109.053 33.8504 110.964 31.375 110.964C28.8996 110.964 26.8929 109.053 26.8929 106.696C26.8929 104.339 28.8996 102.429 31.375 102.429C33.8504 102.429 35.8571 104.339 35.8571 106.696Z" fill="#172D59"/>
<path d="M62.75 106.696C62.75 109.053 60.7433 110.964 58.2679 110.964C55.7924 110.964 53.7857 109.053 53.7857 106.696C53.7857 104.339 55.7924 102.429 58.2679 102.429C60.7433 102.429 62.75 104.339 62.75 106.696Z" fill="#172D59"/>
<path d="M89.6429 106.696C89.6429 109.053 87.6361 110.964 85.1607 110.964C82.6853 110.964 80.6786 109.053 80.6786 106.696C80.6786 104.339 82.6853 102.429 85.1607 102.429C87.6361 102.429 89.6429 104.339 89.6429 106.696Z" fill="#172D59"/>
<path d="M116.536 106.696C116.536 109.053 114.529 110.964 112.054 110.964C109.578 110.964 107.571 109.053 107.571 106.696C107.571 104.339 109.578 102.429 112.054 102.429C114.529 102.429 116.536 104.339 116.536 106.696Z" fill="#172D59"/>
<path d="M143.429 106.696C143.429 109.053 141.422 110.964 138.946 110.964C136.471 110.964 134.464 109.053 134.464 106.696C134.464 104.339 136.471 102.429 138.946 102.429C141.422 102.429 143.429 104.339 143.429 106.696Z" fill="#172D59"/>
<path d="M170.321 106.696C170.321 109.053 168.315 110.964 165.839 110.964C163.364 110.964 161.357 109.053 161.357 106.696C161.357 104.339 163.364 102.429 165.839 102.429C168.315 102.429 170.321 104.339 170.321 106.696Z" fill="#172D59"/>
<path d="M197.214 106.696C197.214 109.053 195.208 110.964 192.732 110.964C190.257 110.964 188.25 109.053 188.25 106.696C188.25 104.339 190.257 102.429 192.732 102.429C195.208 102.429 197.214 104.339 197.214 106.696Z" fill="#172D59"/>
<path d="M224.107 106.696C224.107 109.053 222.1 110.964 219.625 110.964C217.15 110.964 215.143 109.053 215.143 106.696C215.143 104.339 217.15 102.429 219.625 102.429C222.1 102.429 224.107 104.339 224.107 106.696Z" fill="#172D59"/>
<path d="M251 106.696C251 109.053 248.993 110.964 246.518 110.964C244.042 110.964 242.036 109.053 242.036 106.696C242.036 104.339 244.042 102.429 246.518 102.429C248.993 102.429 251 104.339 251 106.696Z" fill="#172D59"/>
<path d="M8.96429 132.304C8.96429 134.661 6.95756 136.571 4.48214 136.571C2.00672 136.571 0 134.661 0 132.304C0 129.947 2.00672 128.036 4.48214 128.036C6.95756 128.036 8.96429 129.947 8.96429 132.304Z" fill="#172D59"/>
<path d="M35.8571 132.304C35.8571 134.661 33.8504 136.571 31.375 136.571C28.8996 136.571 26.8929 134.661 26.8929 132.304C26.8929 129.947 28.8996 128.036 31.375 128.036C33.8504 128.036 35.8571 129.947 35.8571 132.304Z" fill="#172D59"/>
<path d="M62.75 132.304C62.75 134.661 60.7433 136.571 58.2679 136.571C55.7924 136.571 53.7857 134.661 53.7857 132.304C53.7857 129.947 55.7924 128.036 58.2679 128.036C60.7433 128.036 62.75 129.947 62.75 132.304Z" fill="#172D59"/>
<path d="M89.6429 132.304C89.6429 134.661 87.6361 136.571 85.1607 136.571C82.6853 136.571 80.6786 134.661 80.6786 132.304C80.6786 129.947 82.6853 128.036 85.1607 128.036C87.6361 128.036 89.6429 129.947 89.6429 132.304Z" fill="#172D59"/>
<path d="M116.536 132.304C116.536 134.661 114.529 136.571 112.054 136.571C109.578 136.571 107.571 134.661 107.571 132.304C107.571 129.947 109.578 128.036 112.054 128.036C114.529 128.036 116.536 129.947 116.536 132.304Z" fill="#172D59"/>
<path d="M143.429 132.304C143.429 134.661 141.422 136.571 138.946 136.571C136.471 136.571 134.464 134.661 134.464 132.304C134.464 129.947 136.471 128.036 138.946 128.036C141.422 128.036 143.429 129.947 143.429 132.304Z" fill="#172D59"/>
<path d="M170.321 132.304C170.321 134.661 168.315 136.571 165.839 136.571C163.364 136.571 161.357 134.661 161.357 132.304C161.357 129.947 163.364 128.036 165.839 128.036C168.315 128.036 170.321 129.947 170.321 132.304Z" fill="#172D59"/>
<path d="M197.214 132.304C197.214 134.661 195.208 136.571 192.732 136.571C190.257 136.571 188.25 134.661 188.25 132.304C188.25 129.947 190.257 128.036 192.732 128.036C195.208 128.036 197.214 129.947 197.214 132.304Z" fill="#172D59"/>
<path d="M224.107 132.304C224.107 134.661 222.1 136.571 219.625 136.571C217.15 136.571 215.143 134.661 215.143 132.304C215.143 129.947 217.15 128.036 219.625 128.036C222.1 128.036 224.107 129.947 224.107 132.304Z" fill="#172D59"/>
<path d="M251 132.304C251 134.661 248.993 136.571 246.518 136.571C244.042 136.571 242.036 134.661 242.036 132.304C242.036 129.947 244.042 128.036 246.518 128.036C248.993 128.036 251 129.947 251 132.304Z" fill="#172D59"/>
<path d="M8.96429 157.911C8.96429 160.268 6.95756 162.179 4.48214 162.179C2.00672 162.179 0 160.268 0 157.911C0 155.554 2.00672 153.643 4.48214 153.643C6.95756 153.643 8.96429 155.554 8.96429 157.911Z" fill="#172D59"/>
<path d="M35.8571 157.911C35.8571 160.268 33.8504 162.179 31.375 162.179C28.8996 162.179 26.8929 160.268 26.8929 157.911C26.8929 155.554 28.8996 153.643 31.375 153.643C33.8504 153.643 35.8571 155.554 35.8571 157.911Z" fill="#172D59"/>
<path d="M62.75 157.911C62.75 160.268 60.7433 162.179 58.2679 162.179C55.7924 162.179 53.7857 160.268 53.7857 157.911C53.7857 155.554 55.7924 153.643 58.2679 153.643C60.7433 153.643 62.75 155.554 62.75 157.911Z" fill="#172D59"/>
<path d="M89.6429 157.911C89.6429 160.268 87.6361 162.179 85.1607 162.179C82.6853 162.179 80.6786 160.268 80.6786 157.911C80.6786 155.554 82.6853 153.643 85.1607 153.643C87.6361 153.643 89.6429 155.554 89.6429 157.911Z" fill="#172D59"/>
<path d="M116.536 157.911C116.536 160.268 114.529 162.179 112.054 162.179C109.578 162.179 107.571 160.268 107.571 157.911C107.571 155.554 109.578 153.643 112.054 153.643C114.529 153.643 116.536 155.554 116.536 157.911Z" fill="#172D59"/>
<path d="M143.429 157.911C143.429 160.268 141.422 162.179 138.946 162.179C136.471 162.179 134.464 160.268 134.464 157.911C134.464 155.554 136.471 153.643 138.946 153.643C141.422 153.643 143.429 155.554 143.429 157.911Z" fill="#172D59"/>
<path d="M170.321 157.911C170.321 160.268 168.315 162.179 165.839 162.179C163.364 162.179 161.357 160.268 161.357 157.911C161.357 155.554 163.364 153.643 165.839 153.643C168.315 153.643 170.321 155.554 170.321 157.911Z" fill="#172D59"/>
<path d="M197.214 157.911C197.214 160.268 195.208 162.179 192.732 162.179C190.257 162.179 188.25 160.268 188.25 157.911C188.25 155.554 190.257 153.643 192.732 153.643C195.208 153.643 197.214 155.554 197.214 157.911Z" fill="#172D59"/>
<path d="M224.107 157.911C224.107 160.268 222.1 162.179 219.625 162.179C217.15 162.179 215.143 160.268 215.143 157.911C215.143 155.554 217.15 153.643 219.625 153.643C222.1 153.643 224.107 155.554 224.107 157.911Z" fill="#172D59"/>
<path d="M251 157.911C251 160.268 248.993 162.179 246.518 162.179C244.042 162.179 242.036 160.268 242.036 157.911C242.036 155.554 244.042 153.643 246.518 153.643C248.993 153.643 251 155.554 251 157.911Z" fill="#172D59"/>
<path d="M35.8571 183.518C35.8571 185.875 33.8504 187.786 31.375 187.786C28.8996 187.786 26.8929 185.875 26.8929 183.518C26.8929 181.161 28.8996 179.25 31.375 179.25C33.8504 179.25 35.8571 181.161 35.8571 183.518Z" fill="#172D59"/>
<path d="M62.75 183.518C62.75 185.875 60.7433 187.786 58.2679 187.786C55.7924 187.786 53.7857 185.875 53.7857 183.518C53.7857 181.161 55.7924 179.25 58.2679 179.25C60.7433 179.25 62.75 181.161 62.75 183.518Z" fill="#172D59"/>
<path d="M89.6429 183.518C89.6429 185.875 87.6361 187.786 85.1607 187.786C82.6853 187.786 80.6786 185.875 80.6786 183.518C80.6786 181.161 82.6853 179.25 85.1607 179.25C87.6361 179.25 89.6429 181.161 89.6429 183.518Z" fill="#172D59"/>
<path d="M116.536 183.518C116.536 185.875 114.529 187.786 112.054 187.786C109.578 187.786 107.571 185.875 107.571 183.518C107.571 181.161 109.578 179.25 112.054 179.25C114.529 179.25 116.536 181.161 116.536 183.518Z" fill="#172D59"/>
<path d="M143.429 183.518C143.429 185.875 141.422 187.786 138.946 187.786C136.471 187.786 134.464 185.875 134.464 183.518C134.464 181.161 136.471 179.25 138.946 179.25C141.422 179.25 143.429 181.161 143.429 183.518Z" fill="#172D59"/>
<path d="M170.321 183.518C170.321 185.875 168.315 187.786 165.839 187.786C163.364 187.786 161.357 185.875 161.357 183.518C161.357 181.161 163.364 179.25 165.839 179.25C168.315 179.25 170.321 181.161 170.321 183.518Z" fill="#172D59"/>
<path d="M197.214 183.518C197.214 185.875 195.208 187.786 192.732 187.786C190.257 187.786 188.25 185.875 188.25 183.518C188.25 181.161 190.257 179.25 192.732 179.25C195.208 179.25 197.214 181.161 197.214 183.518Z" fill="#172D59"/>
<path d="M224.107 183.518C224.107 185.875 222.1 187.786 219.625 187.786C217.15 187.786 215.143 185.875 215.143 183.518C215.143 181.161 217.15 179.25 219.625 179.25C222.1 179.25 224.107 181.161 224.107 183.518Z" fill="#172D59"/>
<path d="M62.75 209.125C62.75 211.482 60.7433 213.393 58.2679 213.393C55.7924 213.393 53.7857 211.482 53.7857 209.125C53.7857 206.768 55.7924 204.857 58.2679 204.857C60.7433 204.857 62.75 206.768 62.75 209.125Z" fill="#172D59"/>
<path d="M89.6429 209.125C89.6429 211.482 87.6361 213.393 85.1607 213.393C82.6853 213.393 80.6786 211.482 80.6786 209.125C80.6786 206.768 82.6853 204.857 85.1607 204.857C87.6361 204.857 89.6429 206.768 89.6429 209.125Z" fill="#172D59"/>
<path d="M116.536 209.125C116.536 211.482 114.529 213.393 112.054 213.393C109.578 213.393 107.571 211.482 107.571 209.125C107.571 206.768 109.578 204.857 112.054 204.857C114.529 204.857 116.536 206.768 116.536 209.125Z" fill="#172D59"/>
<path d="M143.429 209.125C143.429 211.482 141.422 213.393 138.946 213.393C136.471 213.393 134.464 211.482 134.464 209.125C134.464 206.768 136.471 204.857 138.946 204.857C141.422 204.857 143.429 206.768 143.429 209.125Z" fill="#172D59"/>
<path d="M170.321 209.125C170.321 211.482 168.315 213.393 165.839 213.393C163.364 213.393 161.357 211.482 161.357 209.125C161.357 206.768 163.364 204.857 165.839 204.857C168.315 204.857 170.321 206.768 170.321 209.125Z" fill="#172D59"/>
<path d="M197.214 209.125C197.214 211.482 195.208 213.393 192.732 213.393C190.257 213.393 188.25 211.482 188.25 209.125C188.25 206.768 190.257 204.857 192.732 204.857C195.208 204.857 197.214 206.768 197.214 209.125Z" fill="#172D59"/>
<path d="M89.6429 234.732C89.6429 237.089 87.6361 239 85.1607 239C82.6853 239 80.6786 237.089 80.6786 234.732C80.6786 232.375 82.6853 230.464 85.1607 230.464C87.6361 230.464 89.6429 232.375 89.6429 234.732Z" fill="#172D59"/>
<path d="M116.536 234.732C116.536 237.089 114.529 239 112.054 239C109.578 239 107.571 237.089 107.571 234.732C107.571 232.375 109.578 230.464 112.054 230.464C114.529 230.464 116.536 232.375 116.536 234.732Z" fill="#172D59"/>
<path d="M143.429 234.732C143.429 237.089 141.422 239 138.946 239C136.471 239 134.464 237.089 134.464 234.732C134.464 232.375 136.471 230.464 138.946 230.464C141.422 230.464 143.429 232.375 143.429 234.732Z" fill="#172D59"/>
<path d="M170.321 234.732C170.321 237.089 168.315 239 165.839 239C163.364 239 161.357 237.089 161.357 234.732C161.357 232.375 163.364 230.464 165.839 230.464C168.315 230.464 170.321 232.375 170.321 234.732Z" fill="#172D59"/>
</svg>
