<svg width="107" height="99" viewBox="0 0 107 99" fill="none" xmlns="http://www.w3.org/2000/svg">
<path fill-rule="evenodd" clip-rule="evenodd" d="M22.9272 0.268695L0.345429 22.8505L26.6909 49.1959L0.345429 75.5414L22.9272 98.1232L49.2727 71.7777L75.6181 98.1232L98.1999 75.5414L71.8544 49.1959L98.1999 22.8505L75.6181 0.268692L49.2727 26.6141L22.9272 0.268695ZM34.5374 49.196L8.19201 75.5414L30.7738 98.1232L57.1192 71.7778L83.4647 98.1232L106.046 75.5414L79.701 49.196L106.046 22.8505L83.4647 0.268736L57.1192 26.6142L30.7738 0.268738L8.19201 22.8505L34.5374 49.196ZM11.0204 22.8505L37.3659 49.196L11.0204 75.5414L30.7738 95.2948L57.1192 68.9493L83.4647 95.2948L103.218 75.5414L76.8726 49.196L103.218 22.8505L83.4647 3.09716L57.1192 29.4426L30.7738 3.09717L11.0204 22.8505Z" fill="#172D59"/>
</svg>
