<svg width="50" height="50" viewBox="0 0 50 50" fill="none" xmlns="http://www.w3.org/2000/svg">
<g clip-path="url(#clip0_3318_2318)">
<path d="M14.2857 0C15.7701 0 16.9643 1.04492 16.9643 2.34375V6.25H33.0357V2.34375C33.0357 1.04492 34.2299 0 35.7143 0C37.1987 0 38.3929 1.04492 38.3929 2.34375V6.25H42.8571C46.7969 6.25 50 9.05273 50 12.5V14.0625V18.75V43.75C50 47.1973 46.7969 50 42.8571 50H7.14286C3.20312 50 0 47.1973 0 43.75V18.75V14.0625V12.5C0 9.05273 3.20312 6.25 7.14286 6.25H11.6071V2.34375C11.6071 1.04492 12.8013 0 14.2857 0ZM44.6429 18.75H5.35714V43.75C5.35714 44.6094 6.16071 45.3125 7.14286 45.3125H42.8571C43.8393 45.3125 44.6429 44.6094 44.6429 43.75V18.75ZM36.7188 29.0039L24.2188 39.9414C23.1696 40.8594 21.4732 40.8594 20.4353 39.9414L13.2924 33.6914C12.2433 32.7734 12.2433 31.2891 13.2924 30.3809C14.3415 29.4727 16.0379 29.4629 17.0759 30.3809L22.3214 34.9707L32.9241 25.6934C33.9732 24.7754 35.6696 24.7754 36.7076 25.6934C37.7455 26.6113 37.7567 28.0957 36.7076 29.0039H36.7188Z" fill="black"/>
</g>
<defs>
<clipPath id="clip0_3318_2318">
<rect width="50" height="50" fill="white"/>
</clipPath>
</defs>
</svg>
