<svg width="178" height="10" viewBox="0 0 178 10" fill="none" xmlns="http://www.w3.org/2000/svg">
<rect width="178" height="10" fill="#1E1E1E"/>
<g clip-path="url(#clip0_0_1)">
<rect width="1440" height="5120" transform="translate(-961 -1235)" fill="white"/>
<g clip-path="url(#clip1_0_1)">
<rect width="1440" height="1024" transform="translate(-961 -211)" fill="white"/>
<path d="M-608.191 -4.71914L-610.7 -12.8678L-623.192 -12.8299L-625.652 -4.6662L-633.48 -4.64246L-621.49 -39.0852L-612.608 -39.1122L-600.363 -4.74287L-608.191 -4.71914ZM-612.453 -18.9563L-614.961 -26.9175C-615.119 -27.4482 -615.332 -28.1273 -615.6 -28.9546C-615.853 -29.7976 -616.113 -30.6484 -616.381 -31.5069C-616.634 -32.3812 -616.839 -33.1384 -616.998 -33.7785C-617.152 -33.1374 -617.368 -32.3399 -617.647 -31.3859C-617.909 -30.4476 -618.165 -29.5562 -618.412 -28.7117C-618.659 -27.8672 -618.837 -27.2651 -618.946 -26.9054L-621.382 -18.9292L-612.453 -18.9563ZM-588.446 -10.0056C-587.665 -10.008 -586.907 -10.0884 -586.173 -10.2469C-585.424 -10.4054 -584.682 -10.6029 -583.949 -10.8395L-583.932 -5.51926C-584.697 -5.17319 -585.649 -4.88905 -586.789 -4.66684C-587.913 -4.42906 -589.148 -4.30813 -590.491 -4.30405C-592.054 -4.29932 -593.461 -4.54505 -594.712 -5.04126C-595.948 -5.55314 -596.927 -6.43299 -597.65 -7.6808C-598.357 -8.94429 -598.714 -10.701 -598.721 -12.951L-598.759 -25.5838L-602.181 -25.5734L-602.19 -28.5968L-598.26 -30.9994L-596.214 -36.5368L-591.644 -36.5507L-591.627 -30.9726L-584.291 -30.9948L-584.275 -25.6277L-591.611 -25.6054L-591.572 -12.9727C-591.569 -11.9727 -591.286 -11.2236 -590.722 -10.7253C-590.142 -10.2426 -589.384 -10.0027 -588.446 -10.0056ZM-575.731 -31.0208L-567.903 -31.0445L-562.913 -16.3174C-562.755 -15.8491 -562.621 -15.373 -562.51 -14.8889C-562.399 -14.4049 -562.304 -13.9052 -562.224 -13.3898C-562.144 -12.8744 -562.08 -12.3355 -562.032 -11.7732L-561.891 -11.7736C-561.8 -12.6176 -561.677 -13.4071 -561.523 -14.1419C-561.353 -14.8768 -561.145 -15.604 -560.897 -16.3235L-556.09 -31.0804L-548.426 -31.1036L-559.422 -1.51543C-560.089 0.2991 -560.959 1.80956 -562.034 3.01595C-563.108 4.23796 -564.347 5.15578 -565.752 5.76942C-567.141 6.38301 -568.671 6.69234 -570.343 6.69741C-571.155 6.69987 -571.859 6.65513 -572.453 6.56318C-573.047 6.48685 -573.555 6.40246 -573.977 6.30999L-573.994 0.638138C-573.666 0.715267 -573.251 0.784324 -572.751 0.845308C-572.251 0.906291 -571.727 0.935954 -571.181 0.934296C-570.181 0.931264 -569.322 0.717722 -568.604 0.29367C-567.887 -0.130383 -567.287 -0.702516 -566.805 -1.42273C-566.323 -2.12732 -565.942 -2.90192 -565.664 -3.74652L-565.246 -5.03685L-575.731 -31.0208ZM-523.681 -18.1239C-523.674 -15.9364 -523.965 -13.998 -524.554 -12.3087C-525.127 -10.6195 -525.974 -9.18719 -527.095 -8.01191C-528.201 -6.8523 -529.542 -5.97323 -531.119 -5.3747C-532.679 -4.77622 -534.444 -4.47399 -536.413 -4.46802C-538.256 -4.46243 -539.953 -4.75416 -541.501 -5.34322C-543.034 -5.93232 -544.373 -6.80327 -545.517 -7.95606C-546.646 -9.12451 -547.525 -10.5515 -548.155 -12.2371C-548.77 -13.9228 -549.08 -15.8594 -549.087 -18.0468C-549.096 -20.9531 -548.587 -23.4156 -547.562 -25.4343C-546.537 -27.4531 -545.073 -28.9887 -543.17 -30.0414C-541.267 -31.094 -538.995 -31.6244 -536.354 -31.6324C-533.901 -31.6398 -531.728 -31.123 -529.834 -30.0818C-527.925 -29.0407 -526.428 -27.514 -525.344 -25.5017C-524.244 -23.4894 -523.689 -21.0301 -523.681 -18.1239ZM-541.798 -18.0689C-541.793 -16.3502 -541.601 -14.9055 -541.222 -13.7347C-540.844 -12.564 -540.255 -11.683 -539.456 -11.0916C-538.658 -10.5003 -537.618 -10.2066 -536.336 -10.2105C-535.071 -10.2143 -534.048 -10.5143 -533.269 -11.1104C-532.474 -11.7066 -531.898 -12.5911 -531.542 -13.7641C-531.171 -14.9371 -530.988 -16.383 -530.993 -18.1017C-530.998 -19.8361 -531.19 -21.273 -531.569 -22.4125C-531.932 -23.5676 -532.512 -24.4331 -533.311 -25.0088C-534.11 -25.5845 -535.15 -25.8704 -536.431 -25.8665C-538.321 -25.8608 -539.694 -25.2082 -540.55 -23.9087C-541.39 -22.6093 -541.806 -20.6627 -541.798 -18.0689ZM-496.647 -31.2606L-496.568 -5.05758L-502.052 -5.04095L-503.023 -8.38959L-503.398 -8.38845C-503.958 -7.49612 -504.659 -6.76743 -505.501 -6.20238C-506.343 -5.63732 -507.271 -5.22044 -508.286 -4.95174C-509.301 -4.68304 -510.355 -4.54703 -511.449 -4.54371C-513.324 -4.53802 -514.958 -4.8612 -516.351 -5.51323C-517.743 -6.18088 -518.832 -7.21665 -519.618 -8.62052C-520.388 -10.0244 -520.776 -11.8514 -520.783 -14.1014L-520.835 -31.1872L-513.686 -31.2089L-513.64 -15.9043C-513.634 -14.0293 -513.294 -12.6163 -512.619 -11.6652C-511.944 -10.7141 -510.873 -10.2408 -509.404 -10.2452C-507.951 -10.2497 -506.811 -10.5812 -505.985 -11.24C-505.159 -11.9144 -504.584 -12.8927 -504.26 -14.1749C-503.92 -15.4728 -503.753 -17.0515 -503.758 -18.9108L-503.796 -31.2389L-496.647 -31.2606ZM-477.404 -31.8111C-477.044 -31.8122 -476.63 -31.79 -476.161 -31.7446C-475.677 -31.7148 -475.286 -31.6691 -474.989 -31.6075L-475.508 -24.9028C-475.742 -24.9802 -476.079 -25.0339 -476.516 -25.0638C-476.938 -25.1094 -477.305 -25.1317 -477.618 -25.1308C-478.54 -25.128 -479.438 -25.008 -480.312 -24.771C-481.171 -24.534 -481.943 -24.1489 -482.629 -23.6156C-483.315 -23.0978 -483.86 -22.4087 -484.263 -21.5481C-484.651 -20.7032 -484.844 -19.6635 -484.84 -18.4291L-484.799 -5.09326L-491.948 -5.07159L-492.027 -31.2746L-486.613 -31.291L-485.545 -26.888L-485.194 -26.889C-484.681 -27.7812 -484.043 -28.5957 -483.279 -29.3324C-482.5 -30.0847 -481.619 -30.6811 -480.636 -31.1216C-479.638 -31.5778 -478.56 -31.8076 -477.404 -31.8111ZM-449.021 -26.0378L-455.209 -26.019L-455.145 -5.18317L-462.294 -5.1615L-462.357 -25.9973L-466.295 -25.9854L-466.305 -29.4307L-462.373 -31.3645L-462.379 -33.2864C-462.386 -35.5207 -462.016 -37.2562 -461.27 -38.4929C-460.508 -39.7452 -459.44 -40.6234 -458.067 -41.1276C-456.678 -41.6474 -455.038 -41.9102 -453.147 -41.916C-451.757 -41.9202 -450.491 -41.8068 -449.35 -41.5759C-448.208 -41.3606 -447.278 -41.1134 -446.558 -40.8344L-448.37 -35.5789C-448.918 -35.7491 -449.512 -35.9035 -450.153 -36.0422C-450.794 -36.1809 -451.529 -36.249 -452.357 -36.2465C-453.357 -36.2434 -454.09 -35.9365 -454.557 -35.3257C-455.009 -34.7306 -455.233 -33.9643 -455.23 -33.0268L-455.225 -31.3862L-449.037 -31.4049L-449.021 -26.0378ZM-437.788 -31.439L-437.708 -5.23604L-444.856 -5.21437L-444.936 -31.4174L-437.788 -31.439ZM-441.381 -41.6938C-440.319 -41.697 -439.404 -41.4498 -438.637 -40.9521C-437.87 -40.4701 -437.484 -39.5572 -437.48 -38.2134C-437.476 -36.8853 -437.856 -35.9623 -438.62 -35.4444C-439.384 -34.942 -440.297 -34.6893 -441.36 -34.686C-442.438 -34.6828 -443.361 -34.93 -444.128 -35.4277C-444.879 -35.941 -445.257 -36.8617 -445.261 -38.1899C-445.265 -39.5336 -444.893 -40.4488 -444.144 -40.9354C-443.38 -41.4378 -442.459 -41.6906 -441.381 -41.6938ZM-418.286 -31.9904C-415.489 -31.9988 -413.237 -31.24 -411.529 -29.714C-409.822 -28.2035 -408.963 -25.7686 -408.953 -22.4092L-408.901 -5.32339L-416.049 -5.30172L-416.096 -20.6063C-416.101 -22.4813 -416.449 -23.8943 -417.14 -24.8454C-417.814 -25.7965 -418.878 -26.2698 -420.331 -26.2654C-422.519 -26.2588 -424.009 -25.512 -424.801 -24.0253C-425.594 -22.5385 -425.986 -20.3967 -425.977 -17.5998L-425.94 -5.27173L-433.088 -5.25005L-433.168 -31.4531L-427.707 -31.4696L-426.736 -28.121L-426.337 -28.1222C-425.777 -29.0301 -425.084 -29.7666 -424.258 -30.3316C-423.416 -30.8967 -422.487 -31.3136 -421.473 -31.5823C-420.442 -31.851 -419.38 -31.987 -418.286 -31.9904ZM-396.722 6.17099C-400.379 6.18207 -403.177 5.54993 -405.119 4.27456C-407.044 3.01477 -408.011 1.23644 -408.018 -1.06042C-408.023 -2.63854 -407.534 -3.96034 -406.553 -5.02582C-405.572 -6.0913 -404.129 -6.85349 -402.224 -7.31239C-402.96 -7.62266 -403.602 -8.12853 -404.151 -8.82999C-404.7 -9.54708 -404.975 -10.3041 -404.978 -11.1009C-404.981 -12.1009 -404.694 -12.9299 -404.118 -13.5879C-403.542 -14.2616 -402.708 -14.9203 -401.616 -15.5643C-402.993 -16.1538 -404.09 -17.1037 -404.906 -18.4137C-405.707 -19.7238 -406.11 -21.2694 -406.116 -23.0507C-406.121 -24.9569 -405.712 -26.5753 -404.888 -27.906C-404.049 -29.2523 -402.833 -30.2794 -401.241 -30.9874C-399.634 -31.6954 -397.682 -32.0528 -395.385 -32.0598C-394.901 -32.0613 -394.338 -32.0317 -393.697 -31.9712C-393.057 -31.9106 -392.47 -31.8421 -391.939 -31.7656C-391.392 -31.6891 -391.024 -31.6277 -390.837 -31.5814L-381.696 -31.6091L-381.685 -27.9763L-385.784 -26.9092C-385.407 -26.3322 -385.124 -25.7159 -384.934 -25.0602C-384.745 -24.4045 -384.649 -23.7095 -384.647 -22.9751C-384.638 -20.1626 -385.616 -17.9644 -387.58 -16.3803C-389.528 -14.8119 -392.245 -14.0224 -395.729 -14.0118C-396.557 -14.0562 -397.339 -14.1163 -398.073 -14.1922C-398.432 -13.9099 -398.704 -13.6122 -398.891 -13.2991C-399.077 -12.986 -399.17 -12.6576 -399.169 -12.3139C-399.168 -11.9701 -399.027 -11.6815 -398.745 -11.448C-398.447 -11.2301 -398.009 -11.0596 -397.43 -10.9363C-396.836 -10.8287 -396.102 -10.7763 -395.227 -10.7789L-390.774 -10.7924C-387.899 -10.8012 -385.709 -10.1906 -384.206 -8.96078C-382.686 -7.73101 -381.923 -5.92081 -381.916 -3.5302C-381.906 -0.467713 -383.181 1.91116 -385.738 3.60642C-388.28 5.30164 -391.941 6.15649 -396.722 6.17099ZM-396.432 1.50602C-394.729 1.50086 -393.268 1.33237 -392.051 1.00055C-390.817 0.684309 -389.873 0.22832 -389.219 -0.367417C-388.564 -0.947529 -388.238 -1.64383 -388.241 -2.45633C-388.243 -3.11258 -388.44 -3.63542 -388.831 -4.02486C-389.207 -4.39872 -389.786 -4.66259 -390.568 -4.81647C-391.334 -4.9704 -392.319 -5.04554 -393.522 -5.04189L-397.225 -5.03066C-398.1 -5.02801 -398.889 -4.88499 -399.591 -4.60161C-400.278 -4.31828 -400.823 -3.926 -401.228 -3.42477C-401.633 -2.90791 -401.834 -2.31355 -401.832 -1.64168C-401.829 -0.657309 -401.358 0.114704 -400.419 0.674358C-399.464 1.23397 -398.135 1.51119 -396.432 1.50602ZM-395.344 -18.3724C-394 -18.3764 -393.017 -18.7935 -392.394 -19.6235C-391.772 -20.4535 -391.463 -21.5795 -391.467 -23.0013C-391.472 -24.5794 -391.804 -25.7581 -392.462 -26.5374C-393.105 -27.3323 -394.075 -27.7278 -395.372 -27.7239C-396.684 -27.7199 -397.668 -27.3185 -398.321 -26.5196C-398.975 -25.7364 -399.3 -24.5557 -399.295 -22.9776C-399.291 -21.5557 -398.967 -20.4317 -398.324 -19.6055C-397.665 -18.7794 -396.672 -18.3683 -395.344 -18.3724ZM-369.437 -32.1385C-367.015 -32.1458 -364.928 -31.6834 -363.175 -30.7512C-361.422 -29.8346 -360.067 -28.495 -359.108 -26.7323C-358.15 -24.9695 -357.667 -22.8147 -357.659 -20.2679L-357.648 -16.7992L-374.547 -16.7479C-374.463 -14.7325 -373.856 -13.1484 -372.728 -11.9956C-371.584 -10.8584 -370.004 -10.2929 -367.988 -10.299C-366.316 -10.3041 -364.786 -10.4806 -363.396 -10.8286C-362.006 -11.1765 -360.578 -11.6965 -359.112 -12.3884L-359.095 -6.85722C-360.39 -6.21267 -361.748 -5.7398 -363.169 -5.43861C-364.574 -5.13747 -366.284 -4.98385 -368.3 -4.97774C-370.925 -4.96978 -373.255 -5.44709 -375.289 -6.40968C-377.307 -7.37231 -378.898 -8.84406 -380.06 -10.8249C-381.207 -12.8058 -381.785 -15.3041 -381.794 -18.3197C-381.803 -21.3822 -381.295 -23.9306 -380.27 -25.965C-379.229 -28.015 -377.781 -29.5507 -375.925 -30.5719C-374.068 -31.6088 -371.906 -32.131 -369.437 -32.1385ZM-369.375 -27.0527C-370.765 -27.0485 -371.92 -26.5997 -372.84 -25.7063C-373.743 -24.8129 -374.262 -23.4129 -374.397 -21.5062L-364.366 -21.5366C-364.385 -22.5991 -364.583 -23.5438 -364.96 -24.3708C-365.322 -25.1978 -365.871 -25.8524 -366.607 -26.3345C-367.327 -26.8167 -368.25 -27.0561 -369.375 -27.0527ZM-340.138 -32.2273C-339.778 -32.2284 -339.364 -32.2062 -338.895 -32.1608C-338.411 -32.131 -338.02 -32.0853 -337.723 -32.0237L-338.242 -25.319C-338.476 -25.3964 -338.812 -25.4501 -339.25 -25.48C-339.672 -25.5256 -340.039 -25.5479 -340.352 -25.5469C-341.274 -25.5442 -342.172 -25.4242 -343.046 -25.1872C-343.905 -24.9502 -344.677 -24.5651 -345.363 -24.0317C-346.049 -23.514 -346.593 -22.8249 -346.997 -21.9643C-347.385 -21.1194 -347.577 -20.0797 -347.574 -18.8453L-347.533 -5.50946L-354.682 -5.48778L-354.761 -31.6908L-349.347 -31.7072L-348.279 -27.3042L-347.927 -27.3052C-347.414 -28.1974 -346.776 -29.0119 -346.013 -29.7486C-345.234 -30.5009 -344.353 -31.0973 -343.37 -31.5378C-342.371 -31.994 -341.294 -32.2238 -340.138 -32.2273ZM-324.742 -10.8051C-323.96 -10.8075 -323.203 -10.8879 -322.469 -11.0464C-321.719 -11.2049 -320.978 -11.4025 -320.244 -11.6391L-320.228 -6.31881C-320.993 -5.97274 -321.945 -5.6886 -323.085 -5.4664C-324.209 -5.22861 -325.443 -5.10768 -326.787 -5.10361C-328.349 -5.09887 -329.756 -5.3446 -331.008 -5.84081C-332.244 -6.35269 -333.223 -7.23254 -333.946 -8.48035C-334.653 -9.74384 -335.009 -11.5006 -335.016 -13.7506L-335.055 -26.3833L-338.476 -26.3729L-338.486 -29.3964L-334.555 -31.7989L-332.51 -37.3364L-327.939 -37.3503L-327.922 -31.7722L-320.587 -31.7944L-320.57 -26.4272L-327.906 -26.405L-327.868 -13.7722C-327.865 -12.7722 -327.581 -12.0231 -327.017 -11.5248C-326.438 -11.0422 -325.679 -10.8023 -324.742 -10.8051ZM-310.717 -31.8243L-310.637 -5.62133L-317.786 -5.59965L-317.865 -31.8027L-310.717 -31.8243ZM-314.31 -42.0791C-313.248 -42.0823 -312.333 -41.8351 -311.566 -41.3374C-310.799 -40.8554 -310.413 -39.9425 -310.409 -38.5987C-310.405 -37.2706 -310.785 -36.3476 -311.549 -35.8296C-312.313 -35.3273 -313.226 -35.0745 -314.289 -35.0713C-315.367 -35.0681 -316.29 -35.3153 -317.057 -35.8129C-317.808 -36.3263 -318.186 -37.247 -318.19 -38.5751C-318.194 -39.9189 -317.822 -40.8341 -317.073 -41.3207C-316.309 -41.823 -315.388 -42.0758 -314.31 -42.0791ZM-291.497 -32.3748C-288.543 -32.3837 -286.157 -31.2425 -284.338 -28.9512C-282.503 -26.6598 -281.578 -23.2954 -281.565 -18.858C-281.556 -15.8892 -281.978 -13.3879 -282.831 -11.3541C-283.684 -9.33587 -284.867 -7.80884 -286.38 -6.773C-287.892 -5.73716 -289.633 -5.21626 -291.602 -5.21029C-292.867 -5.20645 -293.954 -5.35941 -294.861 -5.66916C-295.768 -5.99453 -296.543 -6.40625 -297.185 -6.90431C-297.827 -7.41799 -298.384 -7.96318 -298.854 -8.53988L-299.229 -8.53874C-299.102 -7.91412 -299.006 -7.27378 -298.942 -6.61773C-298.877 -5.96167 -298.844 -5.32114 -298.842 -4.69614L-298.81 5.87412L-305.959 5.89579L-306.073 -31.8384L-300.261 -31.856L-299.243 -28.4607L-298.914 -28.4617C-298.448 -29.1662 -297.879 -29.8164 -297.209 -30.4122C-296.539 -31.0079 -295.736 -31.4791 -294.8 -31.8257C-293.848 -32.188 -292.747 -32.371 -291.497 -32.3748ZM-293.776 -26.6491C-295.026 -26.6453 -296.017 -26.3845 -296.75 -25.8666C-297.483 -25.3488 -298.02 -24.5737 -298.36 -23.5414C-298.685 -22.5092 -298.861 -21.204 -298.888 -19.6258L-298.885 -18.8523C-298.88 -17.1648 -298.72 -15.7356 -298.404 -14.5647C-298.072 -13.3938 -297.53 -12.5048 -296.778 -11.8977C-296.011 -11.2907 -294.963 -10.9892 -293.635 -10.9932C-292.541 -10.9965 -291.644 -11.3039 -290.942 -11.9154C-290.241 -12.5269 -289.72 -13.4192 -289.38 -14.5921C-289.024 -15.7807 -288.849 -17.2265 -288.854 -18.9296C-288.862 -21.4921 -289.266 -23.4206 -290.067 -24.715C-290.868 -26.0095 -292.104 -26.6542 -293.776 -26.6491ZM-260.241 -13.5554C-260.236 -11.7742 -260.653 -10.2651 -261.493 -9.02816C-262.318 -7.8069 -263.557 -6.87345 -265.211 -6.22781C-266.866 -5.59779 -268.927 -5.27904 -271.396 -5.27155C-273.224 -5.26601 -274.795 -5.37844 -276.108 -5.60883C-277.405 -5.83927 -278.719 -6.22592 -280.049 -6.76876L-280.067 -12.675C-278.643 -12.0387 -277.118 -11.512 -275.492 -11.0951C-273.85 -10.6938 -272.412 -10.4951 -271.177 -10.4988C-269.787 -10.503 -268.795 -10.7092 -268.203 -11.1172C-267.595 -11.5409 -267.292 -12.0887 -267.294 -12.7606C-267.295 -13.1981 -267.421 -13.5883 -267.672 -13.9313C-267.908 -14.29 -268.424 -14.6869 -269.223 -15.1219C-270.021 -15.5726 -271.273 -16.1548 -272.978 -16.8684C-274.621 -17.5509 -275.974 -18.2421 -277.039 -18.942C-278.088 -19.642 -278.872 -20.4677 -279.39 -21.4193C-279.893 -22.3865 -280.147 -23.6123 -280.151 -25.0967C-280.159 -27.5185 -279.227 -29.3417 -277.355 -30.5661C-275.469 -31.8062 -272.947 -32.431 -269.791 -32.4406C-268.166 -32.4455 -266.618 -32.2862 -265.149 -31.9625C-263.663 -31.6389 -262.138 -31.1201 -260.574 -30.406L-262.714 -25.2433C-264.013 -25.8018 -265.241 -26.2591 -266.398 -26.6149C-267.54 -26.9708 -268.704 -27.147 -269.892 -27.1434C-270.939 -27.1402 -271.727 -26.9972 -272.258 -26.7143C-272.788 -26.4315 -273.052 -26.001 -273.051 -25.4229C-273.049 -25.001 -272.916 -24.6264 -272.649 -24.2991C-272.367 -23.9718 -271.834 -23.6062 -271.052 -23.2024C-270.254 -22.8142 -269.088 -22.3099 -267.555 -21.6895C-266.069 -21.0847 -264.778 -20.4479 -263.682 -19.7794C-262.586 -19.1265 -261.74 -18.3087 -261.143 -17.3261C-260.547 -16.3592 -260.246 -15.1023 -260.241 -13.5554ZM-258.537 -9.13087C-258.542 -10.5996 -258.147 -11.6321 -257.352 -12.2282C-256.541 -12.8244 -255.565 -13.1243 -254.425 -13.1277C-253.315 -13.1311 -252.361 -12.8371 -251.563 -12.2458C-250.748 -11.6545 -250.339 -10.6245 -250.334 -9.15574C-250.33 -7.7495 -250.733 -6.73265 -251.544 -6.10519C-252.339 -5.47777 -253.291 -5.16238 -254.4 -5.15902C-255.541 -5.15556 -256.519 -5.4651 -257.333 -6.08763C-258.132 -6.71021 -258.533 -7.72463 -258.537 -9.13087ZM-258.596 -28.4902C-258.601 -29.9589 -258.205 -30.9914 -257.41 -31.5875C-256.6 -32.1837 -255.624 -32.4836 -254.483 -32.487C-253.374 -32.4904 -252.42 -32.1964 -251.621 -31.6051C-250.807 -31.0138 -250.398 -29.9838 -250.393 -28.515C-250.389 -27.0932 -250.792 -26.0685 -251.603 -25.441C-252.398 -24.8292 -253.35 -24.5217 -254.459 -24.5183C-255.6 -24.5148 -256.577 -24.8166 -257.392 -25.4235C-258.19 -26.0461 -258.592 -27.0683 -258.596 -28.4902ZM-226.47 -32.6188C-222.955 -32.6295 -220.257 -31.872 -218.377 -30.3465C-216.498 -28.8209 -215.553 -26.4957 -215.544 -23.3707L-215.491 -5.90981L-220.483 -5.89467L-221.876 -9.45296L-222.064 -9.4524C-222.811 -8.51263 -223.574 -7.74468 -224.354 -7.14857C-225.133 -6.55245 -226.03 -6.11223 -227.045 -5.8279C-228.06 -5.54357 -229.294 -5.39921 -230.747 -5.3948C-232.294 -5.39011 -233.685 -5.68277 -234.922 -6.27277C-236.142 -6.86282 -237.106 -7.76616 -237.813 -8.98277C-238.519 -10.215 -238.876 -11.7764 -238.881 -13.667C-238.89 -16.4483 -237.92 -18.4981 -235.97 -19.8165C-234.021 -21.1506 -231.094 -21.8938 -227.188 -22.0463L-222.642 -22.2007L-222.645 -23.3491C-222.649 -24.7241 -223.012 -25.7308 -223.732 -26.3693C-224.453 -27.0077 -225.454 -27.325 -226.735 -27.3211C-228.001 -27.3173 -229.243 -27.1338 -230.46 -26.7708C-231.678 -26.4077 -232.895 -25.9509 -234.112 -25.4003L-236.494 -30.2212C-235.106 -30.9598 -233.553 -31.5427 -231.835 -31.9697C-230.102 -32.3969 -228.314 -32.6132 -226.47 -32.6188ZM-222.629 -18.0288L-225.394 -17.9267C-227.707 -17.8572 -229.315 -17.4383 -230.219 -16.6699C-231.107 -15.9016 -231.549 -14.8924 -231.545 -13.6424C-231.542 -12.5487 -231.219 -11.7684 -230.577 -11.3016C-229.935 -10.8504 -229.099 -10.6264 -228.068 -10.6295C-226.536 -10.6342 -225.249 -11.0912 -224.204 -12.0006C-223.145 -12.9101 -222.617 -14.2007 -222.622 -15.8726L-222.629 -18.0288ZM-193.101 -5.50894C-196.023 -5.50008 -198.409 -6.63348 -200.26 -8.90913C-202.095 -11.2005 -203.019 -14.5649 -203.033 -19.0023C-203.046 -23.4867 -202.127 -26.8801 -200.274 -29.1826C-198.422 -31.5007 -195.996 -32.6644 -192.996 -32.6734C-191.746 -32.6772 -190.644 -32.5087 -189.69 -32.1678C-188.735 -31.827 -187.914 -31.3685 -187.224 -30.7925C-186.52 -30.2165 -185.924 -29.5699 -185.437 -28.8526L-185.203 -28.8533C-185.298 -29.353 -185.418 -30.087 -185.561 -31.0554C-185.689 -32.0393 -185.755 -33.047 -185.758 -34.0782L-185.783 -42.4688L-178.611 -42.4905L-178.501 -6.02196L-183.985 -6.00533L-185.378 -9.39956L-185.683 -9.39864C-186.134 -8.67852 -186.702 -8.02054 -187.388 -7.42471C-188.058 -6.84455 -188.861 -6.38118 -189.798 -6.03459C-190.734 -5.688 -191.835 -5.51278 -193.101 -5.50894ZM-190.61 -11.2118C-188.657 -11.2178 -187.284 -11.8 -186.491 -12.9587C-185.682 -14.133 -185.257 -15.8921 -185.218 -18.236L-185.22 -19.0095C-185.228 -21.5563 -185.624 -23.5004 -186.41 -24.8418C-187.195 -26.1988 -188.65 -26.8741 -190.775 -26.8677C-192.353 -26.8629 -193.585 -26.1794 -194.472 -24.8174C-195.358 -23.4553 -195.798 -21.493 -195.79 -18.9305C-195.782 -16.3681 -195.331 -14.4397 -194.437 -13.1456C-193.526 -11.8514 -192.251 -11.2069 -190.61 -11.2118ZM-163.181 -32.7638C-160.759 -32.7712 -158.671 -32.3088 -156.919 -31.3766C-155.166 -30.46 -153.81 -29.1204 -152.852 -27.3576C-151.893 -25.5949 -151.41 -23.4401 -151.402 -20.8933L-151.392 -17.4245L-168.29 -17.3733C-168.206 -15.3579 -167.6 -13.7738 -166.471 -12.621C-165.327 -11.4838 -163.747 -10.9183 -161.732 -10.9244C-160.06 -10.9295 -158.529 -11.106 -157.139 -11.4539C-155.75 -11.8019 -154.322 -12.3219 -152.855 -13.0138L-152.838 -7.48259C-154.133 -6.83804 -155.491 -6.36517 -156.912 -6.06398C-158.317 -5.76285 -160.028 -5.60922 -162.044 -5.60311C-164.669 -5.59515 -166.998 -6.07246 -169.032 -7.03505C-171.051 -7.99769 -172.641 -9.46943 -173.804 -11.4503C-174.95 -13.4312 -175.528 -15.9295 -175.537 -18.9451C-175.546 -22.0076 -175.039 -24.556 -174.014 -26.5903C-172.973 -28.6404 -171.524 -30.176 -169.668 -31.1973C-167.812 -32.2342 -165.649 -32.7564 -163.181 -32.7638ZM-163.118 -27.6781C-164.509 -27.6739 -165.664 -27.225 -166.583 -26.3316C-167.487 -25.4383 -168.006 -24.0382 -168.141 -22.1316L-158.109 -22.162C-158.128 -23.2244 -158.326 -24.1692 -158.704 -24.9961C-159.066 -25.8232 -159.615 -26.4778 -160.351 -26.9599C-161.071 -27.4421 -161.993 -27.6815 -163.118 -27.6781ZM-140.127 -5.66956C-143.049 -5.6607 -145.435 -6.7941 -147.286 -9.06975C-149.121 -11.3611 -150.045 -14.7255 -150.058 -19.1629C-150.072 -23.6473 -149.153 -27.0407 -147.3 -29.3432C-145.448 -31.6614 -143.022 -32.825 -140.022 -32.8341C-138.772 -32.8379 -137.67 -32.6693 -136.715 -32.3285C-135.761 -31.9876 -134.94 -31.5292 -134.25 -30.9531C-133.545 -30.3771 -132.95 -29.7305 -132.463 -29.0132L-132.229 -29.0139C-132.324 -29.5136 -132.443 -30.2477 -132.587 -31.216C-132.715 -32.2 -132.781 -33.2076 -132.784 -34.2388L-132.809 -42.6294L-125.637 -42.6512L-125.527 -6.18258L-131.011 -6.16595L-132.404 -9.56018L-132.709 -9.55926C-133.16 -8.83914 -133.728 -8.18116 -134.414 -7.58533C-135.084 -7.00517 -135.887 -6.54179 -136.824 -6.1952C-137.76 -5.84861 -138.861 -5.6734 -140.127 -5.66956ZM-137.636 -11.3725C-135.683 -11.3784 -134.31 -11.9607 -133.517 -13.1193C-132.708 -14.2937 -132.283 -16.0528 -132.243 -18.3966L-132.246 -19.1701C-132.254 -21.7169 -132.65 -23.6611 -133.435 -25.0024C-134.221 -26.3594 -135.676 -27.0347 -137.801 -27.0283C-139.379 -27.0235 -140.611 -26.3401 -141.498 -24.978C-142.384 -23.6159 -142.824 -21.6536 -142.816 -19.0912C-142.808 -16.5287 -142.357 -14.6003 -141.462 -13.3062C-140.552 -12.0121 -139.277 -11.3675 -137.636 -11.3725ZM-113.861 -32.4212L-113.782 -6.21819L-120.93 -6.19652L-121.01 -32.3995L-113.861 -32.4212ZM-117.455 -42.676C-116.392 -42.6792 -115.478 -42.432 -114.71 -41.9343C-113.943 -41.4522 -113.558 -40.5393 -113.554 -39.1956C-113.55 -37.8675 -113.93 -36.9444 -114.694 -36.4265C-115.458 -35.9242 -116.371 -35.6714 -117.434 -35.6682C-118.512 -35.6649 -119.434 -35.9121 -120.201 -36.4098C-120.953 -36.9232 -121.331 -37.8439 -121.335 -39.172C-121.339 -40.5157 -120.967 -41.4309 -120.218 -41.9176C-119.454 -42.4199 -118.533 -42.6727 -117.455 -42.676ZM-98.4963 -5.79579C-101.09 -5.78792 -103.302 -6.24997 -105.133 -7.18192C-106.964 -8.1295 -108.359 -9.59402 -109.319 -11.5755C-110.278 -13.557 -110.762 -16.0946 -110.771 -19.1883C-110.781 -22.3914 -110.25 -25.0024 -109.178 -27.0213C-108.09 -29.0559 -106.587 -30.5526 -104.668 -31.5116C-102.733 -32.4706 -100.493 -32.9539 -97.9459 -32.9616C-96.1334 -32.9671 -94.5703 -32.7922 -93.2568 -32.4368C-91.9276 -32.0971 -90.7701 -31.6865 -89.7843 -31.2051L-91.8769 -25.6675C-93.0032 -26.1172 -94.0512 -26.4812 -95.0208 -26.7595C-95.9904 -27.0535 -96.9596 -27.199 -97.9284 -27.196C-99.1784 -27.1923 -100.217 -26.8922 -101.043 -26.296C-101.869 -25.7153 -102.484 -24.8385 -102.886 -23.6654C-103.289 -22.4923 -103.488 -21.0229 -103.482 -19.2573C-103.477 -17.5229 -103.254 -16.0861 -102.813 -14.9468C-102.372 -13.8075 -101.737 -12.9579 -100.907 -12.3979C-100.077 -11.8535 -99.0686 -11.5831 -97.8811 -11.5867C-96.3967 -11.5912 -95.077 -11.7906 -93.9219 -12.1847C-92.7669 -12.5944 -91.6436 -13.1603 -90.5521 -13.8824L-90.5335 -7.76525C-91.6252 -7.07444 -92.7721 -6.57877 -93.9743 -6.27825C-95.1609 -5.96215 -96.6682 -5.80133 -98.4963 -5.79579ZM-76.6621 -33.073C-73.1464 -33.0837 -70.4488 -32.3263 -68.5692 -30.8007C-66.6896 -29.2751 -65.745 -26.9499 -65.7355 -23.8249L-65.6826 -6.36403L-70.6747 -6.34889L-72.0684 -9.90718L-72.2559 -9.90662C-73.003 -8.96685 -73.7663 -8.1989 -74.5458 -7.60279C-75.3252 -7.00667 -76.2223 -6.56645 -77.2371 -6.28212C-78.2518 -5.99779 -79.4858 -5.85343 -80.9389 -5.84902C-82.4858 -5.84433 -83.8773 -6.13699 -85.1135 -6.72699C-86.334 -7.31704 -87.2977 -8.22038 -88.0045 -9.43699C-88.7114 -10.6692 -89.0677 -12.2307 -89.0734 -14.1213C-89.0818 -16.9025 -88.1115 -18.9523 -86.1623 -20.2707C-84.2133 -21.6048 -81.2858 -22.348 -77.38 -22.5005L-72.8336 -22.6549L-72.8371 -23.8034C-72.8412 -25.1783 -73.2037 -26.1851 -73.9243 -26.8235C-74.645 -27.462 -75.646 -27.7792 -76.9272 -27.7753C-78.1929 -27.7715 -79.4345 -27.5881 -80.6522 -27.225C-81.8698 -26.8619 -83.0872 -26.4051 -84.3043 -25.8545L-86.6861 -30.6755C-85.2977 -31.414 -83.7448 -31.9969 -82.0273 -32.424C-80.2942 -32.8511 -78.5058 -33.0675 -76.6621 -33.073ZM-72.8209 -18.4831L-75.5863 -18.3809C-77.8986 -18.3114 -79.5067 -17.8925 -80.4106 -17.1241C-81.2989 -16.3558 -81.7411 -15.3466 -81.7374 -14.0966C-81.734 -13.0029 -81.4114 -12.2226 -80.7693 -11.7558C-80.1273 -11.3046 -79.2907 -11.0806 -78.2595 -11.0837C-76.7282 -11.0884 -75.4405 -11.5454 -74.3964 -12.4548C-73.3367 -13.3643 -72.8093 -14.655 -72.8144 -16.3268L-72.8209 -18.4831ZM-50.1566 -11.6377C-49.3754 -11.6401 -48.6178 -11.7205 -47.8839 -11.879C-47.1344 -12.0375 -46.3928 -12.235 -45.6591 -12.4716L-45.643 -7.15136C-46.4076 -6.80529 -47.3599 -6.52115 -48.4998 -6.29894C-49.6241 -6.06115 -50.8581 -5.94023 -52.2019 -5.93615C-53.7643 -5.93141 -55.1714 -6.17715 -56.4229 -6.67336C-57.6588 -7.18524 -58.638 -8.06508 -59.3606 -9.3129C-60.0675 -10.5764 -60.4244 -12.3331 -60.4312 -14.5831L-60.4695 -27.2159L-63.8914 -27.2055L-63.9006 -30.2289L-59.9703 -32.6315L-57.9246 -38.1689L-53.3543 -38.1828L-53.3374 -32.6047L-46.0015 -32.6269L-45.9852 -27.2598L-53.3211 -27.2375L-53.2828 -14.6048C-53.2798 -13.6048 -52.9963 -12.8556 -52.4323 -12.3574C-51.8527 -11.8747 -51.0941 -11.6348 -50.1566 -11.6377ZM-32.4768 -33.1601C-30.055 -33.1675 -27.9676 -32.7051 -26.2148 -31.7729C-24.462 -30.8563 -23.1063 -29.5167 -22.1479 -27.7539C-21.1894 -25.9912 -20.7063 -23.8364 -20.6986 -21.2896L-20.6881 -17.8208L-37.5864 -17.7696C-37.5022 -15.7542 -36.8958 -14.1701 -35.7673 -13.0173C-34.6232 -11.8801 -33.0434 -11.3146 -31.0278 -11.3207C-29.3559 -11.3258 -27.8252 -11.5023 -26.4356 -11.8502C-25.046 -12.1982 -23.6179 -12.7182 -22.1513 -13.4101L-22.1345 -7.87889C-23.4294 -7.23433 -24.7874 -6.76146 -26.2083 -6.46028C-27.6137 -6.15914 -29.3242 -6.00552 -31.3398 -5.9994C-33.9648 -5.99145 -36.2943 -6.46876 -38.3285 -7.43135C-40.3471 -8.39398 -41.9375 -9.86573 -43.0997 -11.8466C-44.2464 -13.8275 -44.8243 -16.3258 -44.8334 -19.3414C-44.8427 -22.4039 -44.3348 -24.9523 -43.3097 -26.9866C-42.269 -29.0367 -40.8206 -30.5723 -38.9643 -31.5936C-37.108 -32.6305 -34.9456 -33.1527 -32.4768 -33.1601ZM-32.4145 -28.0744C-33.8051 -28.0702 -34.96 -27.6213 -35.8792 -26.7279C-36.7827 -25.8346 -37.3019 -24.4345 -37.4368 -22.5279L-27.4056 -22.5583C-27.4244 -23.6207 -27.6226 -24.5654 -28.0001 -25.3924C-28.362 -26.2195 -28.9109 -26.8741 -29.6467 -27.3562C-30.3669 -27.8384 -31.2895 -28.0778 -32.4145 -28.0744ZM-9.423 -6.06586C-12.3449 -6.057 -14.7311 -7.19039 -16.5818 -9.46604C-18.4169 -11.7574 -19.3411 -15.1218 -19.3546 -19.5592C-19.3682 -24.0436 -18.4488 -27.437 -16.5964 -29.7395C-14.744 -32.0577 -12.3179 -33.2213 -9.31786 -33.2304C-8.06787 -33.2342 -6.96579 -33.0656 -6.01163 -32.7248C-5.05747 -32.3839 -4.23576 -31.9255 -3.54651 -31.3494C-2.84164 -30.7734 -2.24592 -30.1268 -1.75937 -29.4095L-1.525 -29.4102C-1.62026 -29.9099 -1.73968 -30.644 -1.88324 -31.6123C-2.01122 -32.5963 -2.07678 -33.6039 -2.0799 -34.6351L-2.10534 -43.0257L5.0665 -43.0475L5.17707 -6.57888L-0.307278 -6.56225L-1.70039 -9.95648L-2.00507 -9.95555C-2.45602 -9.23543 -3.02434 -8.57746 -3.71003 -7.98162C-4.38015 -7.40147 -5.18344 -6.93809 -6.11989 -6.5915C-7.05635 -6.24491 -8.15738 -6.06969 -9.423 -6.06586ZM-6.93247 -11.7687C-4.97935 -11.7747 -3.60611 -12.357 -2.81275 -13.5156C-2.0038 -14.69 -1.57945 -16.4491 -1.53968 -18.7929L-1.54202 -19.5664C-1.54975 -22.1132 -1.94627 -24.0574 -2.73159 -25.3987C-3.51696 -26.7557 -4.97214 -27.431 -7.09713 -27.4246C-8.67524 -27.4198 -9.90755 -26.7364 -10.7941 -25.3743C-11.6806 -24.0122 -12.1199 -22.0499 -12.1121 -19.4875C-12.1044 -16.925 -11.6532 -14.9966 -10.7587 -13.7025C-9.84848 -12.4083 -8.57309 -11.7638 -6.93247 -11.7687ZM30.0043 -6.1854C27.4106 -6.17754 25.1982 -6.63958 23.3673 -7.57153C21.5363 -8.51911 20.1412 -9.98364 19.182 -11.9651C18.2229 -13.9466 17.7386 -16.4842 17.7293 -19.5779C17.7196 -22.781 18.2507 -25.392 19.3227 -27.4109C20.4103 -29.4455 21.9136 -30.9422 23.8326 -31.9012C25.7672 -32.8602 28.0079 -33.3435 30.5548 -33.3513C32.3672 -33.3568 33.9303 -33.1818 35.2439 -32.8264C36.573 -32.4867 37.7305 -32.0761 38.7164 -31.5947L36.6238 -26.0571C35.4974 -26.5068 34.4494 -26.8708 33.4798 -27.1492C32.5102 -27.4431 31.541 -27.5886 30.5722 -27.5857C29.3222 -27.5819 28.2841 -27.2818 27.4578 -26.6856C26.6314 -26.105 26.0169 -25.2281 25.6142 -24.055C25.2115 -22.8819 25.0128 -21.4125 25.0182 -19.6469C25.0234 -17.9125 25.2465 -16.4757 25.6875 -15.3364C26.1284 -14.1971 26.7638 -13.3475 27.5937 -12.7875C28.4234 -12.2431 29.4321 -11.9728 30.6196 -11.9764C32.1039 -11.9809 33.4236 -12.1802 34.5787 -12.5743C35.7337 -12.9841 36.857 -13.55 37.9486 -14.272L37.9671 -8.15487C36.8755 -7.46405 35.7285 -6.96838 34.5263 -6.66786C33.3398 -6.35176 31.8324 -6.19094 30.0043 -6.1854ZM64.9578 -19.9086C64.9645 -17.7211 64.6735 -15.7827 64.0849 -14.0935C63.5118 -12.4042 62.6646 -10.9719 61.5432 -9.79667C60.4373 -8.63706 59.0962 -7.75799 57.5199 -7.15946C55.9592 -6.56097 54.1945 -6.25875 52.2258 -6.25278C50.382 -6.24719 48.6858 -6.53892 47.1371 -7.12798C45.6041 -7.71708 44.2655 -8.58803 43.1214 -9.74081C41.9928 -10.9093 41.1135 -12.3363 40.4834 -14.0219C39.8689 -15.7075 39.5584 -17.6441 39.5517 -19.8316C39.5429 -22.7378 40.0511 -25.2003 41.0762 -27.2191C42.1013 -29.2378 43.5654 -30.7735 45.4685 -31.8262C47.3716 -32.8788 49.6434 -33.4091 52.284 -33.4171C54.7371 -33.4246 56.9106 -32.9077 58.8044 -31.8666C60.7138 -30.8255 62.2106 -29.2988 63.2948 -27.2864C64.3947 -25.2741 64.949 -22.8149 64.9578 -19.9086ZM46.8407 -19.8537C46.846 -18.135 47.0378 -16.6902 47.4164 -15.5195C47.7949 -14.3488 48.3836 -13.4677 49.1822 -12.8764C49.9809 -12.2851 51.0209 -11.9913 52.3021 -11.9952C53.5677 -11.9991 54.5903 -12.299 55.3697 -12.8952C56.1648 -13.4913 56.7402 -14.3759 57.096 -15.5488C57.4675 -16.7218 57.6506 -18.1677 57.6454 -19.8865C57.6401 -21.6208 57.4483 -23.0577 57.0698 -24.1972C56.7069 -25.3524 56.1262 -26.2178 55.3276 -26.7935C54.5289 -27.3692 53.489 -27.6551 52.2078 -27.6513C50.3171 -27.6455 48.9441 -26.9929 48.0887 -25.6934C47.2489 -24.394 46.8329 -22.4474 46.8407 -19.8537ZM78.6772 -33.544C82.1928 -33.5547 84.8904 -32.7972 86.7701 -31.2717C88.6497 -29.7461 89.5942 -27.4209 89.6037 -24.2959L89.6567 -6.83502L84.6645 -6.81988L83.2709 -10.3782L83.0834 -10.3776C82.3362 -9.43784 81.5729 -8.66989 80.7935 -8.07378C80.014 -7.47766 79.1169 -7.03744 78.1022 -6.75311C77.0874 -6.46878 75.8535 -6.32442 74.4003 -6.32001C72.8535 -6.31532 71.462 -6.60798 70.2258 -7.19798C69.0052 -7.78803 68.0416 -8.69137 67.3347 -9.90798C66.6279 -11.1402 66.2716 -12.7016 66.2658 -14.5923C66.2574 -17.3735 67.2278 -19.4233 69.1769 -20.7417C71.126 -22.0758 74.0534 -22.819 77.9592 -22.9715L82.5057 -23.1259L82.5022 -24.2743C82.498 -25.6493 82.1356 -26.6561 81.4149 -27.2945C80.6942 -27.9329 79.6932 -28.2502 78.412 -28.2463C77.1464 -28.2425 75.9047 -28.059 74.6871 -27.696C73.4694 -27.3329 72.2521 -26.8761 71.035 -26.3255L68.6532 -31.1464C70.0416 -31.885 71.5945 -32.4679 73.3119 -32.895C75.045 -33.3221 76.8334 -33.5384 78.6772 -33.544ZM82.5183 -18.9541L79.753 -18.8519C77.4407 -18.7824 75.8326 -18.3635 74.9287 -17.5951C74.0404 -16.8268 73.5981 -15.8176 73.6019 -14.5676C73.6052 -13.4739 73.9279 -12.6936 74.5699 -12.2268C75.2119 -11.7756 76.0485 -11.5516 77.0798 -11.5547C78.611 -11.5594 79.8987 -12.0164 80.9428 -12.9258C82.0026 -13.8353 82.5299 -15.1259 82.5249 -16.7978L82.5183 -18.9541ZM104.801 -6.41219C102.208 -6.40432 99.9954 -6.86637 98.1644 -7.79832C96.3334 -8.7459 94.9383 -10.2104 93.9792 -12.1919C93.02 -14.1734 92.5358 -16.711 92.5264 -19.8047C92.5167 -23.0078 93.0478 -25.6188 94.1199 -27.6377C95.2074 -29.6723 96.7107 -31.169 98.6297 -32.128C100.564 -33.087 102.805 -33.5703 105.352 -33.578C107.164 -33.5835 108.727 -33.4086 110.041 -33.0532C111.37 -32.7135 112.528 -32.3029 113.514 -31.8215L111.421 -26.2839C110.295 -26.7336 109.247 -27.0976 108.277 -27.3759C107.307 -27.6699 106.338 -27.8154 105.369 -27.8124C104.119 -27.8087 103.081 -27.5086 102.255 -26.9124C101.429 -26.3317 100.814 -25.4549 100.411 -24.2818C100.009 -23.1087 99.8099 -21.6393 99.8153 -19.8737C99.8206 -18.1393 100.044 -16.7025 100.485 -15.5632C100.926 -14.4239 101.561 -13.5743 102.391 -13.0143C103.221 -12.4699 104.229 -12.1995 105.417 -12.2031C106.901 -12.2076 108.221 -12.407 109.376 -12.8011C110.531 -13.2108 111.654 -13.7767 112.746 -14.4988L112.764 -8.38165C111.673 -7.69084 110.526 -7.19517 109.323 -6.89465C108.137 -6.57855 106.63 -6.41773 104.801 -6.41219ZM123.02 -43.4051L123.043 -35.9754C123.047 -34.6786 123.004 -33.4441 122.913 -32.2719C122.839 -31.0998 122.779 -30.2715 122.733 -29.787L123.108 -29.7881C123.668 -30.6961 124.33 -31.4324 125.094 -31.9973C125.873 -32.5621 126.732 -32.9788 127.668 -33.2473C128.605 -33.5157 129.612 -33.6516 130.691 -33.6549C132.581 -33.6606 134.231 -33.3297 135.639 -32.6621C137.047 -32.0101 138.144 -30.9743 138.93 -29.5548C139.715 -28.151 140.111 -26.324 140.118 -24.074L140.17 -6.98818L133.021 -6.9665L132.975 -22.2711C132.969 -24.1461 132.621 -25.5591 131.931 -26.5102C131.241 -27.4612 130.177 -27.9345 128.739 -27.9302C127.302 -27.9258 126.17 -27.5864 125.344 -26.9121C124.518 -26.2533 123.935 -25.275 123.595 -23.9771C123.255 -22.6948 123.088 -21.1239 123.093 -19.2646L123.131 -6.93651L115.982 -6.91484L115.872 -43.3834L123.02 -43.4051Z" fill="#0B7077"/>
<path d="M1 8.32205C49.5338 0.233062 116.717 -0.441062 177.834 8.32205" stroke="#FD661F" stroke-width="2.24694"/>
</g>
</g>
<defs>
<clipPath id="clip0_0_1">
<rect width="1440" height="5120" fill="white" transform="translate(-961 -1235)"/>
</clipPath>
<clipPath id="clip1_0_1">
<rect width="1440" height="1024" fill="white" transform="translate(-961 -211)"/>
</clipPath>
</defs>
</svg>
