<?xml version="1.0" encoding="UTF-8"?>
<svg version="1.1" xmlns="http://www.w3.org/2000/svg" width="500" height="500">
<path d="M0 0 C0.99 0.495 0.99 0.495 2 1 C2.4140625 3.50390625 2.4140625 3.50390625 2.625 6.5625 C2.73714844 8.08037109 2.73714844 8.08037109 2.8515625 9.62890625 C2.90054688 10.41136719 2.94953125 11.19382813 3 12 C3.33 11.67 3.66 11.34 4 11 C6.9375 11.75 6.9375 11.75 10 13 C11 14.9375 11 14.9375 11 17 C10.01 18.485 10.01 18.485 9 20 C8.75714105 23.55125329 8.75714105 23.55125329 10 27 C13.35838543 28.76075515 13.35838543 28.76075515 17 30 C19.68814126 32.42799855 19.96411503 33.75777647 20.5 37.375 C20 41 20 41 17.40576172 43.34667969 C14.58279876 46.59928691 14.76528701 49.13323177 15.05908203 53.34082031 C15.34681522 55.92773857 15.66275523 58.49937015 16.0078125 61.078125 C16.17184725 62.4545365 16.33350382 63.83123331 16.4928894 65.20819092 C16.91801226 68.82094864 17.37730361 72.42857745 17.84332275 76.03625488 C18.21882007 78.98734649 18.57043142 81.94105083 18.92074776 84.89522171 C19.64397063 90.99210576 20.38591203 97.08669944 21.16455078 103.17675781 C21.30176544 104.2556427 21.4389801 105.33452759 21.58035278 106.44610596 C21.86751815 108.98192908 21.86751815 108.98192908 23 111 C23.02051367 113.29166955 22.99138133 115.58387212 22.9375 117.875 C22.41037027 129.8222417 22.41037027 129.8222417 26.953125 140.20703125 C27.96632813 141.09455078 27.96632813 141.09455078 29 142 C29.66 142.66 30.32 143.32 31 144 C32.3303125 142.824375 32.3303125 142.824375 33.6875 141.625 C38.2952006 137.83358202 42.14789615 136.63414725 48.078125 136.8125 C52.04647036 137.19965564 54.33747474 138.29732169 57.0625 141.1875 C58.79362962 143.22060282 58.79362962 143.22060282 60.9375 143 C63.1686892 142.03625291 63.1686892 142.03625291 65.2421875 139.98046875 C69.36329834 137.02097414 72.67847535 137.26962998 77.625 137.41015625 C83.1061913 138.36809593 87.09710534 141.10502197 91 145 C91.70151152 146.3153341 92.37640363 147.64598752 93 149 C94.83284443 150.12516085 94.83284443 150.12516085 97 151 C97.86625 151.53625 98.7325 152.0725 99.625 152.625 C101.83109005 154.16701209 101.83109005 154.16701209 104 154 C106 158.75 106 158.75 106 161 C94.07250198 159.38702874 94.07250198 159.38702874 89 155 C89 154.34 89 153.68 89 153 C88.34 153 87.68 153 87 153 C86.38125 152.05125 85.7625 151.1025 85.125 150.125 C82.74275404 146.5340265 82.74275404 146.5340265 79 145 C73.93593379 144.44433242 73.93593379 144.44433242 69.625 146.8125 C67.82933128 148.99221829 67.82933128 148.99221829 67 152 C67.56589844 152.18175781 68.13179687 152.36351562 68.71484375 152.55078125 C69.81505859 152.92783203 69.81505859 152.92783203 70.9375 153.3125 C71.66839844 153.55613281 72.39929688 153.79976562 73.15234375 154.05078125 C75 155 75 155 76 158 C75.67 158.66 75.34 159.32 75 160 C66.62344032 159.48093968 66.62344032 159.48093968 63.8125 157.3125 C63.214375 156.879375 62.61625 156.44625 62 156 C58.83333333 156.5 58.83333333 156.5 56 158 C55.34 158.99 54.68 159.98 54 161 C48.26258375 161.97546565 42.39365555 161.04958911 37 159 C36.278125 158.443125 35.55625 157.88625 34.8125 157.3125 C33.10017619 155.76882627 33.10017619 155.76882627 31 156.1875 C26.73848513 157.69379877 26.73848513 157.69379877 24 161 C11.24055418 160.61625727 11.24055418 160.61625727 7.0625 157.875 C4.16295785 155.72121708 4.16295785 155.72121708 0.9375 156.0625 C-2.04930889 156.8992258 -2.04930889 156.8992258 -4.6875 158.5625 C-9.46999291 160.63792145 -13.86074796 160.70553316 -19 160 C-21.6947192 158.92675839 -23.61456311 157.69631068 -26 156 C-25.67 156.66 -25.34 157.32 -25 158 C-26.051875 157.95875 -27.10375 157.9175 -28.1875 157.875 C-31.84371648 157.7727694 -31.84371648 157.7727694 -34.3984375 158.984375 C-38.83164306 160.71505585 -43.31738091 160.6017546 -48 160 C-50.02951535 158.71203834 -52.03501678 157.38442 -54 156 C-57.7500288 155.97475672 -57.7500288 155.97475672 -61 157 C-61.33 157.66 -61.66 158.32 -62 159 C-62.66 158.67 -63.32 158.34 -64 158 C-64.33 158.99 -64.66 159.98 -65 161 C-68.375 160.75 -68.375 160.75 -72 160 C-72.66 158.68 -73.32 157.36 -74 156 C-68.06 154.02 -68.06 154.02 -62 152 C-62.99 150.02 -63.98 148.04 -65 146 C-65.66 146 -66.32 146 -67 146 C-67 145.34 -67 144.68 -67 144 C-67.556875 144.185625 -68.11375 144.37125 -68.6875 144.5625 C-71.399133 145.07551165 -73.34371039 144.6640724 -76 144 C-76.33 144.66 -76.66 145.32 -77 146 C-77.763125 146.598125 -78.52625 147.19625 -79.3125 147.8125 C-82.55380456 150.45077115 -85.12279175 153.24558349 -87 157 C-89 157.66666667 -91 158.33333333 -93 159 C-93.495 159.99 -93.495 159.99 -94 161 C-96.97 160.67 -99.94 160.34 -103 160 C-103.33 159.01 -103.66 158.02 -104 157 C-102.6875 155.5 -102.6875 155.5 -101 154 C-100.01 154 -99.02 154 -98 154 C-94.35859404 152.33535728 -91.92443638 149.96926721 -89.1875 147.125 C-83.58339956 141.46871985 -79.26550899 137.78035222 -71.0625 137.3125 C-64.73798253 137.54555083 -60.74242537 139.97612393 -56 144 C-55.55011719 143.566875 -55.10023438 143.13375 -54.63671875 142.6875 C-49.72846725 138.43827225 -46.11484814 137.17098623 -39.62109375 137.53125 C-35.67136773 138.23760935 -33.26988817 139.68382921 -30 142 C-28.515 142.99 -28.515 142.99 -27 144 C-23.83722907 142.35191397 -23.83722907 142.35191397 -23.3046875 139.68286133 C-22.12671079 131.69604536 -21.46605658 123.74528918 -21 115.6875 C-20.44235482 106.7674303 -19.80858164 97.96639217 -18.3671875 89.140625 C-18.07177707 86.61392304 -17.99285028 84.35933225 -18.0390625 81.83203125 C-18.09612999 76.28716791 -17.29527297 70.914853 -16.5 65.4375 C-14.13225667 53.80085724 -14.13225667 53.80085724 -17 43 C-20.23197005 42.65979263 -22.89176384 43.17113702 -26 44 C-29 44 -29 44 -32 43 C-32 42.01 -32 41.02 -32 40 C-35.31070838 38.99890485 -38.30084769 38.89643866 -41.75 38.9375 C-43.22726563 38.95103516 -43.22726563 38.95103516 -44.734375 38.96484375 C-45.48203125 38.97644531 -46.2296875 38.98804688 -47 39 C-46.8125 36.125 -46.8125 36.125 -46 33 C-43.55404507 31.47954153 -42.05197574 30.78234985 -39.1875 31.375 C-38.1046875 31.684375 -38.1046875 31.684375 -37 32 C-34.3269273 32.09785815 -31.67613767 32.04460229 -29 32 C-28.67 32.66 -28.34 33.32 -28 34 C-26.11736119 34.90343684 -26.11736119 34.90343684 -23.9375 35.625 C-23.20402344 35.88539063 -22.47054687 36.14578125 -21.71484375 36.4140625 C-21.14894531 36.60742188 -20.58304687 36.80078125 -20 37 C-19.79375 36.0925 -19.5875 35.185 -19.375 34.25 C-17.65990874 30.19614792 -15.72940676 29.20719992 -12 27 C-10.18445841 25.43897509 -10.18445841 25.43897509 -9 24 C-9 23.67 -9 23.34 -9 23 C-9.33 23 -9.66 23 -10 23 C-11.125 16.375 -11.125 16.375 -10 13 C-6.5625 11.25 -6.5625 11.25 -3 10 C-2.01 10.495 -2.01 10.495 -1 11 C-1.33 7.7 -1.66 4.4 -2 1 C-1.34 0.67 -0.68 0.34 0 0 Z M-8 13 C-8 13.33 -8 13.66 -8 14 C-5.69 14 -3.38 14 -1 14 C-1 13.67 -1 13.34 -1 13 C-3.31 13 -5.62 13 -8 13 Z M-31 34 C-31.66 34.66 -32.32 35.32 -33 36 C-31.68 35.67 -30.36 35.34 -29 35 C-29.66 34.67 -30.32 34.34 -31 34 Z M-1 39 C-1 39.66 -1 40.32 -1 41 C0.65 41 2.3 41 4 41 C4 40.34 4 39.68 4 39 C2.35 39 0.7 39 -1 39 Z M-3 85 C-3.22515501 88.95756644 -3.42727348 92.91597588 -3.625 96.875 C-3.68945312 98.00292969 -3.75390625 99.13085938 -3.8203125 100.29296875 C-3.871875 101.36933594 -3.9234375 102.44570312 -3.9765625 103.5546875 C-4.02893066 104.54968262 -4.08129883 105.54467773 -4.13525391 106.56982422 C-4.26064624 109.18383391 -4.26064624 109.18383391 -2 111 C0.10088214 111.52952378 0.10088214 111.52952378 2.4375 111.875 C6.74891199 112.77321083 6.74891199 112.77321083 8.9375 114.75 C11.61446881 120.41887513 12.32085134 125.49377107 12.65625 131.70703125 C12.7696875 132.46371094 12.883125 133.22039062 13 134 C13.66 134.33 14.32 134.66 15 135 C14.55858902 124.04083075 13.73671206 113.115999 12.75772095 102.19287109 C12.62748203 100.72992785 12.5003496 99.26670475 12.37631226 97.80322266 C12.19875242 95.72205074 12.00922904 93.6423064 11.81640625 91.5625 C11.70756104 90.34691406 11.59871582 89.13132812 11.48657227 87.87890625 C11.26553479 84.8792816 11.26553479 84.8792816 9 83 C4.08454331 82.68287376 1.35230594 82.71194358 -3 85 Z M41.1875 146.3125 C39.7122533 148.06499542 39.7122533 148.06499542 40 151 C44.3164922 151.76173392 47.74433453 152.16063604 52 151 C51.72382467 149.05925139 51.72382467 149.05925139 51 147 C47.47408479 144.64938986 44.82494446 143.6784885 41.1875 146.3125 Z M-48 148 C-48 148.99 -48 149.98 -48 151 C-42.85910687 152.85072153 -40.04468729 153.21474076 -35 151 C-35.4100567 148.92064793 -35.4100567 148.92064793 -37 147 C-41.39965882 145.64114209 -44.11508309 145.41005539 -48 148 Z M-17 146 C-18.485 147.98 -18.485 147.98 -20 150 C-18.19400239 152.22052862 -18.19400239 152.22052862 -15.6875 152.265625 C-14.800625 152.26046875 -13.91375 152.2553125 -13 152.25 C-11.6696875 152.25773438 -11.6696875 152.25773438 -10.3125 152.265625 C-7.80599761 152.22052862 -7.80599761 152.22052862 -6 150 C-9.42346555 146.85041169 -12.44262737 146.43820891 -17 146 Z M10.0625 147.5 C9.711875 147.995 9.36125 148.49 9 149 C10.05630262 150.64570159 10.05630262 150.64570159 12 152 C15.72986522 152.26641894 18.44646071 152.1845131 22 151 C21.65213292 149.02463255 21.65213292 149.02463255 21 147 C17.41041916 145.20520958 13.2842525 145.00574 10.0625 147.5 Z M65 148 C64.67 148.99 64.34 149.98 64 151 C64.66 151 65.32 151 66 151 C65.67 150.01 65.34 149.02 65 148 Z " fill="#161516" transform="translate(248,139)"/>
<path d="M0 0 C1.0625 1.75 1.0625 1.75 2 4 C1.67 5.32 1.34 6.64 1 8 C4.96 8.33 8.92 8.66 13 9 C13.495 10.485 13.495 10.485 14 12 C11.77644774 14.5570851 10.24981807 15.24170912 7 16 C6.67 16.66 6.34 17.32 6 18 C6.928125 17.938125 7.85625 17.87625 8.8125 17.8125 C12 18 12 18 13.875 19.125 C15.4682099 21.78034983 15.20214032 23.96789518 15 27 C15.66 27.33 16.32 27.66 17 28 C16.34 28 15.68 28 15 28 C15.47651001 29.07894531 15.47651001 29.07894531 15.96264648 30.1796875 C16.98303529 32.95387706 17.37024945 35.19142495 17.59765625 38.125 C17.71657227 39.55585938 17.71657227 39.55585938 17.83789062 41.015625 C17.94907227 42.49289063 17.94907227 42.49289063 18.0625 44 C18.21759299 45.95852962 18.3750661 47.91687252 18.53515625 49.875 C18.600979 50.73867187 18.66680176 51.60234375 18.73461914 52.4921875 C18.95829707 55.04682577 18.95829707 55.04682577 19.59155273 57.6953125 C20 60 20 60 19 62 C18.01 61.67 17.02 61.34 16 61 C10.35833056 60.63005446 6.9166542 60.88212173 2 64 C1.67 64.66 1.34 65.32 1 66 C-1.0625 66.625 -1.0625 66.625 -3 67 C-1.35 67.33 0.3 67.66 2 68 C1 70 1 70 -1 72 C-1.6425235 74.06874034 -1.6425235 74.06874034 -2 76 C-1.34 76 -0.68 76 0 76 C0.66 79.3 1.32 82.6 2 86 C-2.21629134 88.10814567 -4.39790775 88.17700355 -9 88 C-9 86.68 -9 85.36 -9 84 C-10.485 83.505 -10.485 83.505 -12 83 C-13.18612385 78.65364409 -12.75871723 75.17302713 -12.0625 70.75 C-11.42303887 66.66761241 -10.94866092 62.86727824 -11.02734375 58.73828125 C-11.09747878 53.22531403 -10.2906672 47.88313127 -9.5 42.4375 C-7.13225667 30.80085724 -7.13225667 30.80085724 -10 20 C-13.23197005 19.65979263 -15.89176384 20.17113702 -19 21 C-22 21 -22 21 -25 20 C-25 19.01 -25 18.02 -25 17 C-28.31070838 15.99890485 -31.30084769 15.89643866 -34.75 15.9375 C-35.73484375 15.94652344 -36.7196875 15.95554688 -37.734375 15.96484375 C-38.85585937 15.98224609 -38.85585937 15.98224609 -40 16 C-39.8125 13.125 -39.8125 13.125 -39 10 C-36.55404507 8.47954153 -35.05197574 7.78234985 -32.1875 8.375 C-31.465625 8.58125 -30.74375 8.7875 -30 9 C-27.3269273 9.09785815 -24.67613767 9.04460229 -22 9 C-21.67 9.66 -21.34 10.32 -21 11 C-19.11736119 11.90343684 -19.11736119 11.90343684 -16.9375 12.625 C-16.20402344 12.88539063 -15.47054687 13.14578125 -14.71484375 13.4140625 C-13.86599609 13.70410156 -13.86599609 13.70410156 -13 14 C-12.690625 12.63875 -12.690625 12.63875 -12.375 11.25 C-10.65990874 7.19614792 -8.72940676 6.20719992 -5 4 C-3.98198643 3.01834406 -2.9753197 2.02408568 -2 1 C-1.34 0.67 -0.68 0.34 0 0 Z M-24 11 C-24.66 11.66 -25.32 12.32 -26 13 C-24.68 12.67 -23.36 12.34 -22 12 C-22.66 11.67 -23.32 11.34 -24 11 Z " fill="#171617" transform="translate(241,162)"/>
<path d="M0 0 C1.134375 0.020625 2.26875 0.04125 3.4375 0.0625 C7.85673745 7.61797048 10.45471739 15.7219892 13.11352539 24.01245117 C13.40090576 24.90681885 13.68828613 25.80118652 13.984375 26.72265625 C14.24057617 27.53355713 14.49677734 28.34445801 14.76074219 29.17993164 C15.28147301 31.04854248 15.28147301 31.04854248 16.4375 32.0625 C16.51097656 30.97710937 16.58445312 29.89171875 16.66015625 28.7734375 C17.37940117 23.03717489 19.6368124 17.97648791 21.875 12.6875 C22.28298828 11.69105469 22.69097656 10.69460938 23.11132812 9.66796875 C26.15802846 2.34197154 26.15802846 2.34197154 28.4375 0.0625 C31.5625 -0.0625 31.5625 -0.0625 34.4375 0.0625 C35.26961276 5.10104106 35.5453534 9.8750662 35.5 15 C35.49548828 15.68384766 35.49097656 16.36769531 35.48632812 17.07226562 C35.4746956 18.73571604 35.45676694 20.3991205 35.4375 22.0625 C35.7675 22.0625 36.0975 22.0625 36.4375 22.0625 C36.46459444 24.14576131 36.48393873 26.22912441 36.5 28.3125 C36.51160156 29.47265625 36.52320313 30.6328125 36.53515625 31.828125 C36.45532092 34.47227128 36.22393778 36.56076091 35.4375 39.0625 C33.5 39.625 33.5 39.625 31.4375 40.0625 C28.57826381 37.20326381 29.44617965 29.52523387 29.375 25.73046875 C29.375 22.84042861 29.39281439 19.95216932 29.4375 17.0625 C28.4475 17.0625 27.4575 17.0625 26.4375 17.0625 C26.045625 18.3 25.65375 19.5375 25.25 20.8125 C20.04370525 36.45629475 20.04370525 36.45629475 17.4375 39.0625 C15.7875 39.0625 14.1375 39.0625 12.4375 39.0625 C9.7975 32.1325 7.1575 25.2025 4.4375 18.0625 C4.1075 19.7125 3.7775 21.3625 3.4375 23.0625 C3.1075 23.0625 2.7775 23.0625 2.4375 23.0625 C2.1075 28.3425 1.7775 33.6225 1.4375 39.0625 C-1.0375 39.5575 -1.0375 39.5575 -3.5625 40.0625 C-5.40526509 38.21973491 -4.69124411 35.63286241 -4.70144653 33.18115234 C-4.6994223 32.35824707 -4.69739807 31.5353418 -4.6953125 30.6875 C-4.69626923 29.84783691 -4.69722595 29.00817383 -4.69821167 28.14306641 C-4.69889348 26.36425705 -4.69703917 24.58544523 -4.69287109 22.80664062 C-4.68752283 20.07416224 -4.69281605 17.34184824 -4.69921875 14.609375 C-4.69855797 12.8854163 -4.69727681 11.16145771 -4.6953125 9.4375 C-4.69733673 8.61459473 -4.69936096 7.79168945 -4.70144653 6.94384766 C-4.67289191 0.08198056 -4.67289191 0.08198056 0 0 Z M1.4375 11.0625 C1.4375 12.7125 1.4375 14.3625 1.4375 16.0625 C1.7675 16.0625 2.0975 16.0625 2.4375 16.0625 C2.4375 14.4125 2.4375 12.7625 2.4375 11.0625 C2.1075 11.0625 1.7775 11.0625 1.4375 11.0625 Z " fill="#405563" transform="translate(309.5625,326.9375)"/>
<path d="M0 0 C1.0209375 1.0828125 1.0209375 1.0828125 2.0625 2.1875 C3.79362962 4.22060282 3.79362962 4.22060282 5.9375 4 C8.1686892 3.03625291 8.1686892 3.03625291 10.2421875 0.98046875 C14.36329834 -1.97902586 17.67847535 -1.73037002 22.625 -1.58984375 C28.1061913 -0.63190407 32.09710534 2.10502197 36 6 C36.70151152 7.3153341 37.37640363 8.64598752 38 10 C39.83284443 11.12516085 39.83284443 11.12516085 42 12 C42.86625 12.53625 43.7325 13.0725 44.625 13.625 C46.83109005 15.16701209 46.83109005 15.16701209 49 15 C51 19.75 51 19.75 51 22 C39.07250198 20.38702874 39.07250198 20.38702874 34 16 C34 15.34 34 14.68 34 14 C33.34 14 32.68 14 32 14 C31.071875 12.576875 31.071875 12.576875 30.125 11.125 C27.74275404 7.5340265 27.74275404 7.5340265 24 6 C18.93593379 5.44433242 18.93593379 5.44433242 14.625 7.8125 C12.82933128 9.99221829 12.82933128 9.99221829 12 13 C12.56589844 13.18175781 13.13179688 13.36351562 13.71484375 13.55078125 C14.44832031 13.80214844 15.18179688 14.05351562 15.9375 14.3125 C16.66839844 14.55613281 17.39929688 14.79976563 18.15234375 15.05078125 C20 16 20 16 21 19 C20.67 19.66 20.34 20.32 20 21 C11.62344032 20.48093968 11.62344032 20.48093968 8.8125 18.3125 C8.214375 17.879375 7.61625 17.44625 7 17 C3.83333333 17.5 3.83333333 17.5 1 19 C0.34 19.99 -0.32 20.98 -1 22 C-9.88736709 23.51101488 -17.55671004 20.5571163 -25 16 C-24.34 15.34 -23.68 14.68 -23 14 C-22.01 14.33 -21.02 14.66 -20 15 C-19.34 13.35 -18.68 11.7 -18 10 C-17.34 10 -16.68 10 -16 10 C-16.33 9.01 -16.66 8.02 -17 7 C-17 6.01 -17 5.02 -17 4 C-18.98 4.33 -20.96 4.66 -23 5 C-16.70045807 -1.83950266 -8.66398776 -4.81332653 0 0 Z M-13.8125 7.3125 C-15.2877467 9.06499542 -15.2877467 9.06499542 -15 12 C-10.6835078 12.76173392 -7.25566547 13.16063604 -3 12 C-3.27617533 10.05925139 -3.27617533 10.05925139 -4 8 C-7.52591521 5.64938986 -10.17505554 4.6784885 -13.8125 7.3125 Z M10 9 C9.67 9.99 9.34 10.98 9 12 C9.66 12 10.32 12 11 12 C10.67 11.01 10.34 10.02 10 9 Z " fill="#111111" transform="translate(303,278)"/>
<path d="M0 0 C0.78697266 -0.02900391 1.57394531 -0.05800781 2.38476562 -0.08789062 C8.12710336 -0.14943258 12.72983432 0.88514729 17.4375 4.3125 C22.86730722 11.05536562 23.22961315 19.00089019 22.4375 27.3125 C19.60189146 33.31090269 15.10130784 37.33109711 8.875 39.625 C3.18242517 40.79895512 -2.78427823 40.67735101 -8.5625 40.3125 C-10.40526509 38.46973491 -9.69124411 35.88286241 -9.70144653 33.43115234 C-9.6994223 32.60824707 -9.69739807 31.7853418 -9.6953125 30.9375 C-9.69626923 30.09783691 -9.69722595 29.25817383 -9.69821167 28.39306641 C-9.69889348 26.61425705 -9.69703917 24.83544523 -9.69287109 23.05664062 C-9.68752283 20.32416224 -9.69281605 17.59184824 -9.69921875 14.859375 C-9.69855797 13.1354163 -9.69727681 11.41145771 -9.6953125 9.6875 C-9.69733673 8.86459473 -9.69936096 8.04168945 -9.70144653 7.19384766 C-9.66757536 -0.94562343 -7.39971696 0.08788262 0 0 Z M-3.5625 7.3125 C-3.66125585 8.6455177 -3.69329205 9.9836432 -3.6953125 11.3203125 C-3.69660156 12.14273437 -3.69789063 12.96515625 -3.69921875 13.8125 C-3.69535156 14.67875 -3.69148437 15.545 -3.6875 16.4375 C-3.69136719 17.28054688 -3.69523438 18.12359375 -3.69921875 18.9921875 C-3.6916412 23.8721307 -3.38389062 28.50149782 -2.5625 33.3125 C3.7781218 33.76540156 8.16201632 32.9992748 13.4375 29.3125 C16.70662537 25.73689412 16.91352898 22.26505217 16.7109375 17.59765625 C16.25199015 13.7621677 15.58684445 11.60368368 13.4375 8.3125 C9.57401437 6.80639543 -0.18113487 3.93113487 -3.5625 7.3125 Z " fill="#132732" transform="translate(229.5625,326.6875)"/>
<path d="M0 0 C1.39025391 -0.02126953 1.39025391 -0.02126953 2.80859375 -0.04296875 C5.74083373 0.20242438 7.90111389 0.96548423 10.5625 2.1875 C10.5625 3.8375 10.5625 5.4875 10.5625 7.1875 C9.32113281 7.20167969 8.07976562 7.21585937 6.80078125 7.23046875 C5.15881757 7.277382 3.51689163 7.32562932 1.875 7.375 C1.05837891 7.38080078 0.24175781 7.38660156 -0.59960938 7.39257812 C-4.89658819 7.5491482 -6.9197171 7.80284216 -10.4609375 10.43359375 C-13.45787513 14.6091689 -13.57906649 18.1540248 -13.4375 23.1875 C-12.55451253 28.16433846 -11.38003413 30.98419102 -7.4375 34.1875 C-4.60480334 35.60384833 -1.96283562 35.5338005 1.1875 35.75 C2.37601563 35.83378906 3.56453125 35.91757812 4.7890625 36.00390625 C6.16191406 36.09478516 6.16191406 36.09478516 7.5625 36.1875 C7.5625 32.5575 7.5625 28.9275 7.5625 25.1875 C4.9225 25.1875 2.2825 25.1875 -0.4375 25.1875 C-1 23.25 -1 23.25 -1.4375 21.1875 C-0.4375 20.1875 -0.4375 20.1875 2.28515625 20.08984375 C3.38730469 20.10144531 4.48945313 20.11304688 5.625 20.125 C6.72972656 20.13402344 7.83445313 20.14304687 8.97265625 20.15234375 C9.82730469 20.16394531 10.68195313 20.17554688 11.5625 20.1875 C12.61869003 24.47047531 12.67952092 28.61735646 12.625 33 C12.62048828 33.69287109 12.61597656 34.38574219 12.61132812 35.09960938 C12.59963156 36.79561068 12.58169924 38.49156703 12.5625 40.1875 C3.57649449 42.56677333 -3.92720109 43.6393688 -12.4921875 39.38671875 C-17.34248808 36.39667402 -18.92500197 32.47175043 -20.4375 27.1875 C-21.27546159 20.31460349 -21.57071145 13.991347 -17.75 8 C-12.84084784 1.77403997 -7.72559358 0.05357554 0 0 Z " fill="#2D3C47" transform="translate(142.4375,325.8125)"/>
<path d="M0 0 C2.475 0.495 2.475 0.495 5 1 C5.01458252 1.75619629 5.02916504 2.51239258 5.04418945 3.29150391 C5.11892 6.73650277 5.21549928 10.18055921 5.3125 13.625 C5.33505859 14.81480469 5.35761719 16.00460937 5.38085938 17.23046875 C5.52887889 25.61218417 5.52887889 25.61218417 9 33 C12.15796107 34.57898053 15.60670636 34.81928171 19 34 C22.21210997 31.38982019 23.82024863 29.88038909 24.65942383 25.77026367 C24.67513428 24.58150635 24.69084473 23.39274902 24.70703125 22.16796875 C24.75053711 20.22954102 24.75053711 20.22954102 24.79492188 18.25195312 C24.8013102 16.89713781 24.80716288 15.54231987 24.8125 14.1875 C24.83565748 12.8131116 24.86102545 11.43875856 24.88867188 10.06445312 C24.94753342 6.70934485 24.98382337 3.35554126 25 0 C26.66611905 -0.042721 28.33382885 -0.04063832 30 0 C32.60399807 2.60399807 31.27439047 9.60626284 31.29516602 13.13598633 C31.31228728 15.16232407 31.35613972 17.1869903 31.40039062 19.21289062 C31.40876953 20.49744141 31.41714844 21.78199219 31.42578125 23.10546875 C31.44036377 24.28262451 31.45494629 25.45978027 31.4699707 26.67260742 C30.76746645 31.64633754 27.94947886 35.87332923 24 39 C18.58038974 40.7288802 11.14492297 41.5544562 5.953125 38.98828125 C3.47222667 36.94338238 1.77849977 34.66774965 0 32 C-0.17112002 29.52943177 -0.23253124 27.17496079 -0.1953125 24.70703125 C-0.1924826 24.00100266 -0.18965271 23.29497406 -0.18673706 22.56755066 C-0.17555464 20.31569367 -0.1504542 18.06423648 -0.125 15.8125 C-0.11496767 14.28451096 -0.10584226 12.75651567 -0.09765625 11.22851562 C-0.07562172 7.48552337 -0.04110567 3.74282944 0 0 Z " fill="#304250" transform="translate(164,327)"/>
<path d="M0 0 C7.26 0 14.52 0 22 0 C22 1.65 22 3.3 22 5 C21.33613281 4.98839844 20.67226563 4.97679687 19.98828125 4.96484375 C13.43693213 4.88106591 13.43693213 4.88106591 7 6 C7.020625 6.886875 7.04125 7.77375 7.0625 8.6875 C7 12 7 12 6 17 C10.95 17 15.9 17 21 17 C21.33 18.32 21.66 19.64 22 21 C21 22 21 22 18.05859375 22.09765625 C16.86363281 22.08605469 15.66867187 22.07445312 14.4375 22.0625 C12.64119141 22.04896484 12.64119141 22.04896484 10.80859375 22.03515625 C9.88175781 22.02355469 8.95492188 22.01195312 8 22 C8 22.66 8 23.32 8 24 C7.34 24 6.68 24 6 24 C5.979375 25.27875 5.95875 26.5575 5.9375 27.875 C5.92589844 28.59429687 5.91429687 29.31359375 5.90234375 30.0546875 C5.87350758 32.08185404 5.87350758 32.08185404 7 34 C9.54941373 34.31241371 12.00361513 34.51303421 14.5625 34.625 C15.27341797 34.66367187 15.98433594 34.70234375 16.71679688 34.7421875 C18.47742425 34.83671783 20.23867728 34.91945817 22 35 C22.33 36.32 22.66 37.64 23 39 C20.16821942 39.8040612 17.64753417 40.12824903 14.70703125 40.1328125 C13.91232422 40.13410156 13.11761719 40.13539063 12.29882812 40.13671875 C11.47833984 40.13285156 10.65785156 40.12898438 9.8125 40.125 C8.56436523 40.13080078 8.56436523 40.13080078 7.29101562 40.13671875 C1.12667092 40.12667092 1.12667092 40.12667092 0 39 C-0.08865208 36.1156618 -0.11521296 33.25537842 -0.09765625 30.37109375 C-0.0962413 29.50686295 -0.09482635 28.64263214 -0.09336853 27.75221252 C-0.08775239 24.98060708 -0.07519719 22.2090812 -0.0625 19.4375 C-0.05748708 17.5631522 -0.05292381 15.68880315 -0.04882812 13.81445312 C-0.03862681 9.20957979 -0.01905467 4.6048794 0 0 Z " fill="#384C5C" transform="translate(355,327)"/>
<path d="M0 0 C0.87454834 0.00523682 1.74909668 0.01047363 2.65014648 0.01586914 C3.59438477 0.0190918 4.53862305 0.02231445 5.51147461 0.02563477 C6.50469727 0.03401367 7.49791992 0.04239258 8.52124023 0.05102539 C9.51833008 0.05553711 10.51541992 0.06004883 11.54272461 0.06469727 C14.01478872 0.07652532 16.48673541 0.0930069 18.95874023 0.11352539 C19.28874023 1.10352539 19.61874023 2.09352539 19.95874023 3.11352539 C19.62874023 3.77352539 19.29874023 4.43352539 18.95874023 5.11352539 C13.34874023 5.11352539 7.73874023 5.11352539 1.95874023 5.11352539 C2.28874023 5.77352539 2.61874023 6.43352539 2.95874023 7.11352539 C3.09433342 10.11827036 3.0017304 13.10421386 2.95874023 16.11352539 C7.90874023 16.11352539 12.85874023 16.11352539 17.95874023 16.11352539 C17.95874023 17.76352539 17.95874023 19.41352539 17.95874023 21.11352539 C13.00874023 21.44352539 8.05874023 21.77352539 2.95874023 22.11352539 C2.95874023 26.40352539 2.95874023 30.69352539 2.95874023 35.11352539 C8.23874023 35.11352539 13.51874023 35.11352539 18.95874023 35.11352539 C19.28874023 36.10352539 19.61874023 37.09352539 19.95874023 38.11352539 C19.62874023 38.77352539 19.29874023 39.43352539 18.95874023 40.11352539 C15.47959083 40.14240353 12.00047193 40.16028226 8.52124023 40.17602539 C7.03140625 40.18859375 7.03140625 40.18859375 5.51147461 40.20141602 C4.56723633 40.20463867 3.62299805 40.20786133 2.65014648 40.21118164 C1.77559814 40.21641846 0.9010498 40.22165527 0 40.22705078 C-2.04125977 40.11352539 -2.04125977 40.11352539 -3.04125977 39.11352539 C-3.14229231 36.31358942 -3.18096064 33.53883895 -3.17407227 30.73852539 C-3.17502899 29.8988623 -3.17598572 29.05919922 -3.17697144 28.1940918 C-3.17765324 26.41528244 -3.17579893 24.63647062 -3.17163086 22.85766602 C-3.16628259 20.12518763 -3.17157582 17.39287363 -3.17797852 14.66040039 C-3.17731773 12.93644169 -3.17603657 11.2124831 -3.17407227 9.48852539 C-3.1760965 8.66562012 -3.17812073 7.84271484 -3.1802063 6.99487305 C-3.15182764 0.17529002 -3.15182764 0.17529002 0 0 Z " fill="#1E2933" transform="translate(263.041259765625,326.886474609375)"/>
<path d="M0 0 C2.72453426 1.05434056 4.57980702 2.28569664 7 4 C7.99 4.66 8.98 5.32 10 6 C12.67145537 5.19838209 12.67145537 5.19838209 15 4 C14.67 4.99 14.34 5.98 14 7 C14.99 6.67 15.98 6.34 17 6 C17 6.99 17 7.98 17 9 C17.99 9 18.98 9 20 9 C19.34 9.99 18.68 10.98 18 12 C24.28275689 14.64472478 24.28275689 14.64472478 31 15 C30.38125 15.28875 29.7625 15.5775 29.125 15.875 C26.86674235 16.93720042 26.86674235 16.93720042 25 19 C22.875 19.625 22.875 19.625 21 20 C23.64 20.33 26.28 20.66 29 21 C29 21.33 29 21.66 29 22 C22.11936667 22.44075231 17.50437539 22.67871908 12 18 C11.01 17.34 10.02 16.68 9 16 C9.66 15.67 10.32 15.34 11 15 C10.67 13.02 10.34 11.04 10 9 C9.01 8.67 8.02 8.34 7 8 C6.38125 7.34 5.7625 6.68 5.125 6 C1.95665835 3.01803139 -0.7749502 3 -5 3 C-4.07033509 5.4263724 -4.07033509 5.4263724 -0.5 6.3125 C0.655 6.869375 1.81 7.42625 3 8 C3.9375 10.6875 3.9375 10.6875 4 13 C3.01 13 2.02 13 1 13 C0.67 12.01 0.34 11.02 0 10 C-1.27875 9.814375 -2.5575 9.62875 -3.875 9.4375 C-4.59429687 9.33308594 -5.31359375 9.22867187 -6.0546875 9.12109375 C-8.08140667 8.8315703 -8.08140667 8.8315703 -10 10 C-10.33 10.99 -10.66 11.98 -11 13 C-9.02 13.66 -7.04 14.32 -5 15 C-5.99 15.99 -6.98 16.98 -8 18 C-10.9719385 16.87548273 -13.33440687 15.77706209 -16 14 C-16.25660094 10.92078868 -16.39431504 8.78863007 -15 6 C-15.66 6 -16.32 6 -17 6 C-17 6.66 -17 7.32 -17 8 C-17.66 8 -18.32 8 -19 8 C-15.97002695 -0.48392455 -7.7986261 -1.15451359 0 0 Z " fill="#100F0F" transform="translate(211,277)"/>
<path d="M0 0 C0.33 0 0.66 0 1 0 C1.33 3.63 1.66 7.26 2 11 C2.33 9.35 2.66 7.7 3 6 C5.475 6.99 5.475 6.99 8 8 C7.67 9.65 7.34 11.3 7 13 C6.01 13 5.02 13 4 13 C5.98 13.66 7.96 14.32 10 15 C10 13.35 10 11.7 10 10 C10.66 9.67 11.32 9.34 12 9 C12.12375 9.9075 12.2475 10.815 12.375 11.75 C12.92109677 14.58970323 13.57263803 16.52590591 15 19 C14.01 19 13.02 19 12 19 C12 21.46301423 12.75296757 22.52063278 14 24.625 C14.66 25.73875 15.32 26.8525 16 28 C15.01 28.33 14.02 28.66 13 29 C13 29.66 13 30.32 13 31 C6.99690429 32.00051595 0.88018669 32.96006223 -5 31 C-5 30.34 -5 29.68 -5 29 C-5.66 29 -6.32 29 -7 29 C-6.49394035 24.61414969 -3.79780785 22.21747902 -1 19 C-0.67 18.34 -0.34 17.68 0 17 C0.33 16.67 0.66 16.34 1 16 C-0.32 15.67 -1.64 15.34 -3 15 C-3.125 12.625 -3.125 12.625 -3 10 C-2.34 9.34 -1.68 8.68 -1 8 C-0.54188325 6.02764667 -0.54188325 6.02764667 -0.375 3.875 C-0.189375 1.956875 -0.189375 1.956875 0 0 Z M-1.9375 24.5 C-2.288125 24.995 -2.63875 25.49 -3 26 C-1.94369738 27.64570159 -1.94369738 27.64570159 0 29 C3.72986522 29.26641894 6.44646071 29.1845131 10 28 C9.65213292 26.02463255 9.65213292 26.02463255 9 24 C5.41041916 22.20520958 1.2842525 22.00574 -1.9375 24.5 Z " fill="#100D0F" transform="translate(260,262)"/>
<path d="M0 0 C2.96954117 3.3744786 3.88310699 6.69198411 5 11 C5.33 11.66 5.66 12.32 6 13 C6.09603055 14.60842118 6.1307458 16.2207472 6.1328125 17.83203125 C6.13474609 19.27739258 6.13474609 19.27739258 6.13671875 20.75195312 C6.13285156 21.76193359 6.12898438 22.77191406 6.125 23.8125 C6.12886719 24.81087891 6.13273437 25.80925781 6.13671875 26.83789062 C6.13542969 27.80533203 6.13414062 28.77277344 6.1328125 29.76953125 C6.13168457 30.65229736 6.13055664 31.53506348 6.12939453 32.44458008 C5.99743557 35.05064499 5.57516098 37.45803976 5 40 C2.69 39.67 0.38 39.34 -2 39 C-1.67 38.34 -1.34 37.68 -1 37 C-0.01 37 0.98 37 2 37 C1.79623822 35.09415804 1.79623822 35.09415804 1 33 C0.34 32.55785156 -0.32 32.11570312 -1 31.66015625 C-3 30 -3 30 -3.609375 27.828125 C-3.76993968 24.88443928 -3.91342399 21.94704737 -4 19 C-4.06316406 17.70707031 -4.12632812 16.41414063 -4.19140625 15.08203125 C-4.23483301 13.74228325 -4.27522514 12.40243327 -4.3125 11.0625 C-4.34988281 9.81597656 -4.38726562 8.56945312 -4.42578125 7.28515625 C-3.92989515 3.4590993 -2.97875963 2.34423095 0 0 Z " fill="#151312" transform="translate(265,237)"/>
<path d="M0 0 C0.94875 0.04125 1.8975 0.0825 2.875 0.125 C3.70711276 5.16354106 3.9828534 9.9375662 3.9375 15.0625 C3.93298828 15.74634766 3.92847656 16.43019531 3.92382812 17.13476562 C3.9121956 18.79821604 3.89426694 20.4616205 3.875 22.125 C4.205 22.125 4.535 22.125 4.875 22.125 C4.90209444 24.20826131 4.92143873 26.29162441 4.9375 28.375 C4.94910156 29.53515625 4.96070313 30.6953125 4.97265625 31.890625 C4.89282092 34.53477128 4.66143778 36.62326091 3.875 39.125 C1.9375 39.6875 1.9375 39.6875 -0.125 40.125 C-2.98423619 37.26576381 -2.11632035 29.58773387 -2.1875 25.79296875 C-2.1875 22.90292861 -2.16968561 20.01466932 -2.125 17.125 C-3.115 17.125 -4.105 17.125 -5.125 17.125 C-4.25 9.5 -4.25 9.5 -3.125 6.125 C-3.785 6.125 -4.445 6.125 -5.125 6.125 C-5.455 7.775 -5.785 9.425 -6.125 11.125 C-6.785 11.125 -7.445 11.125 -8.125 11.125 C-7.67417531 9.66432801 -7.21406463 8.20651968 -6.75 6.75 C-6.49476563 5.93789063 -6.23953125 5.12578125 -5.9765625 4.2890625 C-4.60251788 0.79722434 -3.78804955 0.15152198 0 0 Z " fill="#374A5A" transform="translate(341.125,326.875)"/>
<path d="M0 0 C1.134375 0.020625 2.26875 0.04125 3.4375 0.0625 C3.7675 0.7225 4.0975 1.3825 4.4375 2.0625 C3.4475 2.3925 2.4575 2.7225 1.4375 3.0625 C1.1075 4.7125 0.7775 6.3625 0.4375 8.0625 C1.4275 8.3925 2.4175 8.7225 3.4375 9.0625 C4.21666092 14.08375926 4.56766601 18.03953996 3.4375 23.0625 C3.1075 23.0625 2.7775 23.0625 2.4375 23.0625 C2.1075 28.3425 1.7775 33.6225 1.4375 39.0625 C-1.0375 39.5575 -1.0375 39.5575 -3.5625 40.0625 C-5.40526509 38.21973491 -4.69124411 35.63286241 -4.70144653 33.18115234 C-4.6994223 32.35824707 -4.69739807 31.5353418 -4.6953125 30.6875 C-4.69626923 29.84783691 -4.69722595 29.00817383 -4.69821167 28.14306641 C-4.69889348 26.36425705 -4.69703917 24.58544523 -4.69287109 22.80664062 C-4.68752283 20.07416224 -4.69281605 17.34184824 -4.69921875 14.609375 C-4.69855797 12.8854163 -4.69727681 11.16145771 -4.6953125 9.4375 C-4.69733673 8.61459473 -4.69936096 7.79168945 -4.70144653 6.94384766 C-4.67289191 0.08198056 -4.67289191 0.08198056 0 0 Z M1.4375 11.0625 C1.4375 12.7125 1.4375 14.3625 1.4375 16.0625 C1.7675 16.0625 2.0975 16.0625 2.4375 16.0625 C2.4375 14.4125 2.4375 12.7625 2.4375 11.0625 C2.1075 11.0625 1.7775 11.0625 1.4375 11.0625 Z " fill="#2A3F4C" transform="translate(309.5625,326.9375)"/>
<path d="M0 0 C0.495 0.99 0.495 0.99 1 2 C2.64295195 3.36244796 4.30824337 4.69864875 6 6 C5.67 6.99 5.34 7.98 5 9 C3.29159719 7.36587557 2.06546953 6.13093906 1 4 C0.443125 4.185625 -0.11375 4.37125 -0.6875 4.5625 C-3.399133 5.07551165 -5.34371039 4.6640724 -8 4 C-8.33 4.66 -8.66 5.32 -9 6 C-9.763125 6.598125 -10.52625 7.19625 -11.3125 7.8125 C-14.55380456 10.45077115 -17.12279175 13.24558349 -19 17 C-21 17.66666667 -23 18.33333333 -25 19 C-25.33 19.66 -25.66 20.32 -26 21 C-28.97 20.67 -31.94 20.34 -35 20 C-35.33 19.01 -35.66 18.02 -36 17 C-34.6875 15.5 -34.6875 15.5 -33 14 C-32.01 14 -31.02 14 -30 14 C-26.33165402 12.32304184 -23.84204508 9.91100326 -21.0625 7.0625 C-14.22381475 0.17296951 -9.79028809 -2.36834908 0 0 Z " fill="#0D0D0D" transform="translate(180,279)"/>
<path d="M0 0 C1.65 0 3.3 0 5 0 C7.16703183 4.33776167 7.18883544 8.19259936 6.9765625 12.92578125 C6.95153656 13.67337204 6.92651062 14.42096283 6.90072632 15.19120789 C6.81893204 17.56546141 6.72218881 19.93883179 6.625 22.3125 C6.56671879 23.92769897 6.50941643 25.54293358 6.453125 27.15820312 C6.31341441 31.1059714 6.16029968 35.05301631 6 39 C4.34385343 39.38218767 2.67542976 39.71395102 1 40 C0 39 0 39 -0.11352539 35.30639648 C-0.11336624 33.66128708 -0.10766988 32.01617269 -0.09765625 30.37109375 C-0.0962413 29.50686295 -0.09482635 28.64263214 -0.09336853 27.75221252 C-0.08775239 24.98060708 -0.07519719 22.2090812 -0.0625 19.4375 C-0.05748708 17.5631522 -0.05292381 15.68880315 -0.04882812 13.81445312 C-0.03777772 9.20960456 -0.0205023 4.60481579 0 0 Z " fill="#394D5E" transform="translate(204,327)"/>
<path d="M0 0 C0.33 0 0.66 0 1 0 C1 3.63 1 7.26 1 11 C3.64 11 6.28 11 9 11 C9 11.66 9 12.32 9 13 C9.99 13.33 10.98 13.66 12 14 C13.00926479 18.15626368 13.10239579 22.04365094 13.0625 26.3125 C13.05347656 27.56675781 13.04445313 28.82101563 13.03515625 30.11328125 C13.02355469 31.06589844 13.01195312 32.01851562 13 33 C9.7 32.34 6.4 31.68 3 31 C2.8046875 28.4609375 2.609375 25.921875 2.4140625 23.3828125 C2.20431868 20.82058097 2.20431868 20.82058097 0 19 C0.375 16.875 0.375 16.875 1 15 C1.66 15 2.32 15 3 15 C3 15.66 3 16.32 3 17 C3.99 16.34 4.98 15.68 6 15 C5.67 14.01 5.34 13.02 5 12 C3.35 12.33 1.7 12.66 0 13 C-2 10 -2 10 -1.7578125 7.51953125 C-1.54898438 6.62621094 -1.34015625 5.73289063 -1.125 4.8125 C-0.92132813 3.91144531 -0.71765625 3.01039063 -0.5078125 2.08203125 C-0.34023437 1.39496094 -0.17265625 0.70789063 0 0 Z M6 32 C8 33 8 33 8 33 Z " fill="#272627" transform="translate(246,184)"/>
<path d="M0 0 C3 1.5 3 1.5 5 3 C4.67 4.32 4.34 5.64 4 7 C4.66 7.33 5.32 7.66 6 8 C6 8.66 6 9.32 6 10 C2.04 11.98 2.04 11.98 -2 14 C-1.34 14.33 -0.68 14.66 0 15 C1.134375 14.505 2.26875 14.01 3.4375 13.5 C7 12 7 12 10 13 C4.32743352 16.90776802 0.93175158 18.34658758 -6 18 C-11.34827993 16.85394001 -15.38932611 14.82286157 -20 12 C-19.34 11.34 -18.68 10.68 -18 10 C-17.01 10.33 -16.02 10.66 -15 11 C-14.34 9.35 -13.68 7.7 -13 6 C-12.34 6 -11.68 6 -11 6 C-11.33 5.01 -11.66 4.02 -12 3 C-8.48236221 -0.51763779 -4.73047678 -0.7306479 0 0 Z M-8.8125 3.3125 C-10.2877467 5.06499542 -10.2877467 5.06499542 -10 8 C-5.6835078 8.76173392 -2.25566547 9.16063604 2 8 C1.72382467 6.05925139 1.72382467 6.05925139 1 4 C-2.52591521 1.64938986 -5.17505554 0.6784885 -8.8125 3.3125 Z " fill="#121011" transform="translate(298,282)"/>
<path d="M0 0 C7.14813062 -0.60577378 7.14813062 -0.60577378 10.8125 2 C15.92206831 9.00740797 17.29534067 16.42789263 16 25 C14.7265625 26.85546875 14.7265625 26.85546875 13 28 C11.68 28 10.36 28 9 28 C7.875 24.25 7.875 24.25 9 22 C9.44614413 16.81227753 9.45317017 11.68332486 7 7 C5.02477154 5.95191959 3.02518491 4.9479589 1 4 C0.125 1.8125 0.125 1.8125 0 0 Z " fill="#354758" transform="translate(236,329)"/>
<path d="M0 0 C6.93 0 13.86 0 21 0 C21.33 0.99 21.66 1.98 22 3 C21.67 3.66 21.34 4.32 21 5 C15.39 5 9.78 5 4 5 C4.020625 6.7325 4.04125 8.465 4.0625 10.25 C4.07276016 19.51492404 3.51633573 28.75205822 3 38 C2.34 38 1.68 38 1 38 C0.67 25.46 0.34 12.92 0 0 Z " fill="#202E3A" transform="translate(261,327)"/>
<path d="M0 0 C7.26 0 14.52 0 22 0 C22 1.65 22 3.3 22 5 C19.03 5 16.06 5 13 5 C12.67 4.34 12.34 3.68 12 3 C14.97 3 17.94 3 21 3 C21 2.34 21 1.68 21 1 C14.4 1 7.8 1 1 1 C1.33 13.21 1.66 25.42 2 38 C2.99 38 3.98 38 5 38 C5 36.02 5 34.04 5 32 C5.66 32.66 6.32 33.32 7 34 C9.56916657 34.30599063 12.04758384 34.51087087 14.625 34.625 C15.68460937 34.68300781 15.68460937 34.68300781 16.765625 34.7421875 C18.50998524 34.83647724 20.25495691 34.91932891 22 35 C22.33 36.32 22.66 37.64 23 39 C20.16821942 39.8040612 17.64753417 40.12824903 14.70703125 40.1328125 C13.91232422 40.13410156 13.11761719 40.13539063 12.29882812 40.13671875 C11.47833984 40.13285156 10.65785156 40.12898438 9.8125 40.125 C8.56436523 40.13080078 8.56436523 40.13080078 7.29101562 40.13671875 C1.12667092 40.12667092 1.12667092 40.12667092 0 39 C-0.08865208 36.1156618 -0.11521296 33.25537842 -0.09765625 30.37109375 C-0.0962413 29.50686295 -0.09482635 28.64263214 -0.09336853 27.75221252 C-0.08775239 24.98060708 -0.07519719 22.2090812 -0.0625 19.4375 C-0.05748708 17.5631522 -0.05292381 15.68880315 -0.04882812 13.81445312 C-0.03862681 9.20957979 -0.01905467 4.6048794 0 0 Z " fill="#171F26" transform="translate(355,327)"/>
<path d="M0 0 C2.83427577 2.83427577 2.63450488 5.24407493 3.125 9.1875 C3.29257812 10.48042969 3.46015625 11.77335938 3.6328125 13.10546875 C3.97797505 16.76639496 4.06671686 20.32580713 4 24 C2.66666667 22 1.33333333 20 0 18 C-2.52259061 19.97420135 -2.9929808 20.96745642 -3.6875 24.1875 C-3.790625 25.115625 -3.89375 26.04375 -4 27 C-4.33 27 -4.66 27 -5 27 C-5.2546343 23.23043131 -5.47432236 19.4596223 -5.6875 15.6875 C-5.76033203 14.61564453 -5.83316406 13.54378906 -5.90820312 12.43945312 C-5.96298828 11.41142578 -6.01777344 10.38339844 -6.07421875 9.32421875 C-6.13182373 8.37635498 -6.18942871 7.42849121 -6.2487793 6.4519043 C-6 4 -6 4 -4.68286133 2.22973633 C-3 1 -3 1 0 0 Z " fill="#141313" transform="translate(265,220)"/>
<path d="M0 0 C1.72880982 -0.05449838 3.45812712 -0.09301688 5.1875 -0.125 C6.15042969 -0.14820313 7.11335938 -0.17140625 8.10546875 -0.1953125 C11.12812778 0.0086456 13.26769985 0.73125368 16 2 C16 3.65 16 5.3 16 7 C14.77023438 7.06058594 13.54046875 7.12117188 12.2734375 7.18359375 C10.64061573 7.26805005 9.00780373 7.35269547 7.375 7.4375 C6.56675781 7.47681641 5.75851563 7.51613281 4.92578125 7.55664062 C0.54849135 7.78796082 -3.68547281 8.16920917 -8 9 C-8 7.68 -8 6.36 -8 5 C-2.25 2 -2.25 2 0 2 C0 1.34 0 0.68 0 0 Z " fill="#2E3B45" transform="translate(137,326)"/>
<path d="M0 0 C0.66 0 1.32 0 2 0 C1.27677983 7.39430275 -0.14522262 14.17002472 -2.875 21.0625 C-3.24165771 22.00814819 -3.24165771 22.00814819 -3.61572266 22.97290039 C-5.16961002 26.72030321 -6.79356968 29.47886557 -10 32 C-10.99 32 -11.98 32 -13 32 C-12.67 30.68 -12.34 29.36 -12 28 C-11.34 28 -10.68 28 -10 28 C-9.98582031 27.41734375 -9.97164063 26.8346875 -9.95703125 26.234375 C-9.5333147 18.95103105 -7.62902829 12.36653228 -4 6 C-3.01 5.67 -2.02 5.34 -1 5 C-0.67 3.35 -0.34 1.7 0 0 Z " fill="#5F6D79" transform="translate(336,333)"/>
<path d="M0 0 C0.99 0.33 1.98 0.66 3 1 C3.08746928 5.04152915 3.14054982 9.08281305 3.1875 13.125 C3.21263672 14.26710938 3.23777344 15.40921875 3.26367188 16.5859375 C3.35493909 27.0512447 3.35493909 27.0512447 0 32 C-0.99 32 -1.98 32 -3 32 C-2.7393926 27.60305629 -2.47275519 23.20653322 -2.20043945 18.81030273 C-2.10859593 17.31365975 -2.01842231 15.81691333 -1.92993164 14.32006836 C-1.80269731 12.17272239 -1.66952801 10.02581589 -1.53515625 7.87890625 C-1.456604 6.5854126 -1.37805176 5.29191895 -1.29711914 3.95922852 C-1 1 -1 1 0 0 Z " fill="#42525E" transform="translate(191,329)"/>
<path d="M0 0 C4.21285902 1.7787627 5.93145393 3.97177871 8 8 C7.01 8.33 6.02 8.66 5 9 C5 9.66 5 10.32 5 11 C-1.00309571 12.00051595 -7.11981331 12.96006223 -13 11 C-13 10.34 -13 9.68 -13 9 C-13.66 9 -14.32 9 -15 9 C-14.4568634 5.19804378 -12.84334437 3.49869657 -10 1 C-6.80401935 -0.59799033 -3.47677244 -0.36773555 0 0 Z M-9.9375 4.5 C-10.288125 4.995 -10.63875 5.49 -11 6 C-9.94369738 7.64570159 -9.94369738 7.64570159 -8 9 C-4.27013478 9.26641894 -1.55353929 9.1845131 2 8 C1.65213292 6.02463255 1.65213292 6.02463255 1 4 C-2.58958084 2.20520958 -6.7157475 2.00574 -9.9375 4.5 Z " fill="#010002" transform="translate(268,282)"/>
<path d="M0 0 C1.65 0 3.3 0 5 0 C7.60399807 2.60399807 6.27439047 9.60626284 6.29516602 13.13598633 C6.31228728 15.16232407 6.35613972 17.1869903 6.40039062 19.21289062 C6.40876953 20.49744141 6.41714844 21.78199219 6.42578125 23.10546875 C6.44036377 24.28262451 6.45494629 25.45978027 6.4699707 26.67260742 C5.76746645 31.64633754 2.94947886 35.87332923 -1 39 C-4.317647 40.07069517 -7.52765622 40.23003184 -11 40.3125 C-12.03125 40.34988281 -13.0625 40.38726562 -14.125 40.42578125 C-17.65703893 39.90269396 -18.77548624 38.71112615 -21 36 C-20.195625 36.33 -19.39125 36.66 -18.5625 37 C-13.29819348 38.47770008 -8.21733901 38.739113 -3 37 C-2.67 36.34 -2.34 35.68 -2 35 C-4.97 35.99 -7.94 36.98 -11 38 C-11.33 37.34 -11.66 36.68 -12 36 C-12.66 35.67 -13.32 35.34 -14 35 C-12.98679688 34.85304688 -12.98679688 34.85304688 -11.953125 34.703125 C-5.04032595 33.62920914 -5.04032595 33.62920914 0 29 C-0.33 30.65 -0.66 32.3 -1 34 C2.14504199 33.33494776 2.14504199 33.33494776 3.16162109 30.80981445 C4.06431737 27.78444128 4.31704393 25.1960724 4.4140625 22.04296875 C4.45273438 20.93115234 4.49140625 19.81933594 4.53125 18.67382812 C4.5621875 17.52333984 4.593125 16.37285156 4.625 15.1875 C4.66367188 14.01767578 4.70234375 12.84785156 4.7421875 11.64257812 C4.8362513 8.76187436 4.92189877 5.88117346 5 3 C4.01 3 3.02 3 2 3 C1.67 6.3 1.34 9.6 1 13 C0.67 13 0.34 13 0 13 C0 8.71 0 4.42 0 0 Z " fill="#374452" transform="translate(189,327)"/>
<path d="M0 0 C0.33 0 0.66 0 1 0 C1 2.97 1 5.94 1 9 C5.95 9 10.9 9 16 9 C16 10.65 16 12.3 16 14 C11.05 14.33 6.1 14.66 1 15 C1 19.29 1 23.58 1 28 C6.28 28 11.56 28 17 28 C17 28.33 17 28.66 17 29 C11.39 29 5.78 29 0 29 C-1.33257403 9.30751708 -1.33257403 9.30751708 0 0 Z " fill="#182026" transform="translate(265,334)"/>
<path d="M0 0 C0.66 0.33 1.32 0.66 2 1 C2.4140625 3.50390625 2.4140625 3.50390625 2.625 6.5625 C2.69976562 7.57441406 2.77453125 8.58632812 2.8515625 9.62890625 C2.90054688 10.41136719 2.94953125 11.19382813 3 12 C3.33 11.67 3.66 11.34 4 11 C6.9375 11.75 6.9375 11.75 10 13 C10.9375 15 10.9375 15 11 17 C10.67 17.66 10.34 18.32 10 19 C9.34 19 8.68 19 8 19 C7.67 19.66 7.34 20.32 7 21 C5.02 20.67 3.04 20.34 1 20 C1.66 19.34 2.32 18.68 3 18 C2.34 17.34 1.68 16.68 1 16 C0.34 15.34 -0.32 14.68 -1 14 C-3.32275177 13.59952556 -5.65739357 13.2602896 -8 13 C-6.1875 11.4375 -6.1875 11.4375 -4 10 C-3.01 10.33 -2.02 10.66 -1 11 C-1.33 7.7 -1.66 4.4 -2 1 C-1.34 0.67 -0.68 0.34 0 0 Z " fill="#101010" transform="translate(248,139)"/>
<path d="M0 0 C1.65322266 0.01740234 1.65322266 0.01740234 3.33984375 0.03515625 C4.99693359 0.04869141 4.99693359 0.04869141 6.6875 0.0625 C7.54214844 0.07410156 8.39679688 0.08570313 9.27734375 0.09765625 C10.33353378 4.38063156 10.39436467 8.52751271 10.33984375 12.91015625 C10.33533203 13.60302734 10.33082031 14.29589844 10.32617188 15.00976562 C10.31447531 16.70576693 10.29654299 18.40172328 10.27734375 20.09765625 C8.95734375 19.76765625 7.63734375 19.43765625 6.27734375 19.09765625 C6.60734375 18.76765625 6.93734375 18.43765625 7.27734375 18.09765625 C7.51413091 15.40529849 7.699324 12.73267469 7.83984375 10.03515625 C7.88302734 9.27654297 7.92621094 8.51792969 7.97070312 7.73632812 C8.07708008 5.85700187 8.17774309 3.97735381 8.27734375 2.09765625 C7.61734375 2.09765625 6.95734375 2.09765625 6.27734375 2.09765625 C6.27734375 7.04765625 6.27734375 11.99765625 6.27734375 17.09765625 C2.64734375 17.09765625 -0.98265625 17.09765625 -4.72265625 17.09765625 C-4.72265625 16.76765625 -4.72265625 16.43765625 -4.72265625 16.09765625 C-1.42265625 16.09765625 1.87734375 16.09765625 5.27734375 16.09765625 C5.27734375 12.46765625 5.27734375 8.83765625 5.27734375 5.09765625 C2.63734375 5.09765625 -0.00265625 5.09765625 -2.72265625 5.09765625 C-3.28515625 3.16015625 -3.28515625 3.16015625 -3.72265625 1.09765625 C-2.72265625 0.09765625 -2.72265625 0.09765625 0 0 Z " fill="#171E24" transform="translate(144.72265625,345.90234375)"/>
<path d="M0 0 C2.93774463 -0.05390357 5.87450232 -0.0936255 8.8125 -0.125 C10.06256836 -0.15013672 10.06256836 -0.15013672 11.33789062 -0.17578125 C12.14033203 -0.18222656 12.94277344 -0.18867188 13.76953125 -0.1953125 C14.50792236 -0.20578613 15.24631348 -0.21625977 16.00708008 -0.22705078 C18 0 18 0 21 2 C19.02 2 17.04 2 15 2 C15.66 3.65 16.32 5.3 17 7 C13.37 7 9.74 7 6 7 C4.71553081 9.56893838 4.67022856 11.76576337 4.4375 14.625 C4.31181641 16.12933594 4.31181641 16.12933594 4.18359375 17.6640625 C4.12300781 18.43492187 4.06242188 19.20578125 4 20 C3.67 20 3.34 20 3 20 C3 14.39 3 8.78 3 3 C1.68 3 0.36 3 -1 3 C-0.67 2.01 -0.34 1.02 0 0 Z " fill="#182941" transform="translate(221,327)"/>
<path d="M0 0 C2.6730727 0.09785815 5.32386233 0.04460229 8 0 C8.33 0.66 8.66 1.32 9 2 C11.01669827 3.13350534 11.01669827 3.13350534 13 4 C11.5682384 4.69937202 10.12932968 5.38412718 8.6875 6.0625 C7.88699219 6.44535156 7.08648437 6.82820312 6.26171875 7.22265625 C4 8 4 8 1 7 C-0.89470816 6.9314505 -2.7916834 6.91519628 -4.6875 6.9375 C-5.68136719 6.94652344 -6.67523438 6.95554688 -7.69921875 6.96484375 C-8.45847656 6.97644531 -9.21773437 6.98804688 -10 7 C-9.8125 4.125 -9.8125 4.125 -9 1 C-5.57645025 -1.12815255 -3.72840115 -1.06525747 0 0 Z M6 2 C5.34 2.66 4.68 3.32 4 4 C5.32 3.67 6.64 3.34 8 3 C7.34 2.67 6.68 2.34 6 2 Z " fill="#161616" transform="translate(211,171)"/>
<path d="M0 0 C0 7.92 0 15.84 0 24 C2.31 24.66 4.62 25.32 7 26 C6.34 26.66 5.68 27.32 5 28 C2.1875 27.4375 2.1875 27.4375 -1 26 C-3.29306574 21.94891719 -4.42351736 18.65869101 -4 14 C-4.66 14 -5.32 14 -6 14 C-5.67 12.35 -5.34 10.7 -5 9 C-5.99 8.34 -6.98 7.68 -8 7 C-6.7934375 7.0309375 -6.7934375 7.0309375 -5.5625 7.0625 C-3.06645115 7.29633621 -3.06645115 7.29633621 -2 6 C-3.98 6 -5.96 6 -8 6 C-7.67 5.34 -7.34 4.68 -7 4 C-4.9375 3.375 -4.9375 3.375 -3 3 C-3.33 2.34 -3.66 1.68 -4 1 C-1 0 -1 0 0 0 Z " fill="#020000" transform="translate(245,224)"/>
<path d="M0 0 C3 1.5 3 1.5 5 3 C4.67 4.32 4.34 5.64 4 7 C4.66 7.33 5.32 7.66 6 8 C6 8.66 6 9.32 6 10 C4.0059626 10.36732268 2.00360906 10.68909515 0 11 C-0.81984375 11.14179688 -1.6396875 11.28359375 -2.484375 11.4296875 C-9.4120134 12.43399011 -9.4120134 12.43399011 -12.625 10.0625 C-13.07875 9.381875 -13.5325 8.70125 -14 8 C-13.67 7.34 -13.34 6.68 -13 6 C-12.34 6 -11.68 6 -11 6 C-11.33 5.01 -11.66 4.02 -12 3 C-8.48236221 -0.51763779 -4.73047678 -0.7306479 0 0 Z M-8.8125 3.3125 C-10.2877467 5.06499542 -10.2877467 5.06499542 -10 8 C-5.6835078 8.76173392 -2.25566547 9.16063604 2 8 C1.72382467 6.05925139 1.72382467 6.05925139 1 4 C-2.52591521 1.64938986 -5.17505554 0.6784885 -8.8125 3.3125 Z " fill="#010102" transform="translate(298,282)"/>
<path d="M0 0 C2.64 0 5.28 0 8 0 C8 0.33 8 0.66 8 1 C6.35 1.33 4.7 1.66 3 2 C3.020625 2.886875 3.04125 3.77375 3.0625 4.6875 C3 8 3 8 2 13 C6.95 13 11.9 13 17 13 C17.33 14.32 17.66 15.64 18 17 C17 18 17 18 14.05859375 18.09765625 C12.86363281 18.08605469 11.66867187 18.07445312 10.4375 18.0625 C8.64119141 18.04896484 8.64119141 18.04896484 6.80859375 18.03515625 C5.88175781 18.02355469 4.95492188 18.01195312 4 18 C4 18.66 4 19.32 4 20 C3.34 20 2.68 20 2 20 C2 21.65 2 23.3 2 25 C1.67 25 1.34 25 1 25 C1 22.36 1 19.72 1 17 C5.62 17 10.24 17 15 17 C15 16.34 15 15.68 15 15 C14.00097656 15.01160156 13.00195312 15.02320313 11.97265625 15.03515625 C10.68230469 15.04417969 9.39195312 15.05320312 8.0625 15.0625 C6.77472656 15.07410156 5.48695313 15.08570313 4.16015625 15.09765625 C1 15 1 15 0 14 C-0.26159628 12.21533207 -0.45999701 10.42117545 -0.625 8.625 C-0.72039062 7.64789063 -0.81578125 6.67078125 -0.9140625 5.6640625 C-1 3 -1 3 0 0 Z " fill="#18222B" transform="translate(359,331)"/>
<path d="M0 0 C0.99 0.33 1.98 0.66 3 1 C2.835 1.99 2.67 2.98 2.5 4 C1.9357352 8.07432377 1.72111466 11.88644129 2 16 C2.99 16.66 3.98 17.32 5 18 C5.875 20.4375 5.875 20.4375 6 23 C4.5625 24.8125 4.5625 24.8125 3 26 C0.82625536 23.35370218 -0.32949391 21.35253045 -1 18 C-1.33 17.34 -1.66 16.68 -2 16 C-2.12257461 14.04450744 -2.17552388 12.08429382 -2.1875 10.125 C-2.20167969 9.07570313 -2.21585937 8.02640625 -2.23046875 6.9453125 C-2.00504937 4.06452929 -1.48964317 2.43759792 0 0 Z " fill="#435565" transform="translate(125,336)"/>
<path d="M0 0 C2.5625 1.8125 2.5625 1.8125 4 4 C3.75 6.25 3.75 6.25 3 8 C1 7 1 7 0 4 C-1.918125 3.7215625 -1.918125 3.7215625 -3.875 3.4375 C-4.59429687 3.33308594 -5.31359375 3.22867187 -6.0546875 3.12109375 C-8.08140667 2.8315703 -8.08140667 2.8315703 -10 4 C-10.33 4.99 -10.66 5.98 -11 7 C-9.02 7.66 -7.04 8.32 -5 9 C-5.99 9.99 -6.98 10.98 -8 12 C-11.37503669 10.8141763 -13.64722731 9.72426311 -16 7 C-13.71611253 1.47058824 -13.71611253 1.47058824 -10.8125 -0.4375 C-7.00359726 -1.19928055 -3.73822486 -1.08252762 0 0 Z " fill="#020202" transform="translate(211,283)"/>
<path d="M0 0 C0.33 0.66 0.66 1.32 1 2 C1.66 2 2.32 2 3 2 C3 2.66 3 3.32 3 4 C6.3 4.33 9.6 4.66 13 5 C13 5.66 13 6.32 13 7 C15.3015411 7.77802187 15.3015411 7.77802187 18 8 C19.34789347 7.01971384 20.68212715 6.02028865 22 5 C24.25 5.3125 24.25 5.3125 26 6 C25.67 6.66 25.34 7.32 25 8 C23.66666667 8.33333333 22.33333333 8.66666667 21 9 C20.67 9.66 20.34 10.32 20 11 C11.42782385 10.85425976 5.10392163 9.97458078 -2 5 C-1.34 4.34 -0.68 3.68 0 3 C0 2.01 0 1.02 0 0 Z " fill="#100F0F" transform="translate(252,289)"/>
<path d="M0 0 C1.65 0 3.3 0 5 0 C7.16703183 4.33776167 7.18883544 8.19259936 6.9765625 12.92578125 C6.95153656 13.67337204 6.92651062 14.42096283 6.90072632 15.19120789 C6.81893204 17.56546141 6.72218881 19.93883179 6.625 22.3125 C6.56671879 23.92769897 6.50941643 25.54293358 6.453125 27.15820312 C6.31341441 31.1059714 6.16029968 35.05301631 6 39 C4.34385343 39.38218767 2.67542976 39.71395102 1 40 C0 39 0 39 -0.11352539 35.30639648 C-0.11336624 33.66128708 -0.10766988 32.01617269 -0.09765625 30.37109375 C-0.0962413 29.50686295 -0.09482635 28.64263214 -0.09336853 27.75221252 C-0.08775239 24.98060708 -0.07519719 22.2090812 -0.0625 19.4375 C-0.05748708 17.5631522 -0.05292381 15.68880315 -0.04882812 13.81445312 C-0.03777772 9.20960456 -0.0205023 4.60481579 0 0 Z M1 1 C1 12.88 1 24.76 1 37 C2.32 37 3.64 37 5 37 C5 25.12 5 13.24 5 1 C3.68 1 2.36 1 1 1 Z " fill="#020304" transform="translate(204,327)"/>
<path d="M0 0 C1.33332095 2.6666419 0.67102033 4.16680303 0 7 C-0.969375 7.28875 -1.93875 7.5775 -2.9375 7.875 C-6.10664203 8.64214682 -6.10664203 8.64214682 -7 11 C-9.97 10.67 -12.94 10.34 -16 10 C-16.33 9.01 -16.66 8.02 -17 7 C-16.01 6.01 -15.02 5.02 -14 4 C-13.67 4.33 -13.34 4.66 -13 5 C-8.11919458 4.40598717 -3.64079872 3.48250312 0 0 Z " fill="#202020" transform="translate(161,289)"/>
<path d="M0 0 C0.99 0.33 1.98 0.66 3 1 C4 6.75 4 6.75 4 9 C4.66 9.33 5.32 9.66 6 10 C5.34 10 4.68 10 4 10 C4.33 11.65 4.66 13.3 5 15 C0.545 14.01 0.545 14.01 -4 13 C-3.28571429 3.28571429 -3.28571429 3.28571429 0 0 Z " fill="#2B292B" transform="translate(252,180)"/>
<path d="M0 0 C1.80411967 2.75924185 2.0127245 3.88972103 1.625 7.25 C1.41875 8.1575 1.2125 9.065 1 10 C0.67 10 0.34 10 0 10 C-0.33 15.28 -0.66 20.56 -1 26 C-2.65 26.33 -4.3 26.66 -6 27 C-7 26 -7 26 -7.09765625 22.18359375 C-7.09098089 20.60153318 -7.07901875 19.01948841 -7.0625 17.4375 C-7.05798828 16.63119141 -7.05347656 15.82488281 -7.04882812 14.99414062 C-7.03700518 12.99606244 -7.01906914 10.99802217 -7 9 C-6.67 9 -6.34 9 -6 9 C-5.87882812 9.85464844 -5.75765625 10.70929688 -5.6328125 11.58984375 C-5.46523438 12.69457031 -5.29765625 13.79929687 -5.125 14.9375 C-4.96257812 16.03964844 -4.80015625 17.14179688 -4.6328125 18.27734375 C-4.42398437 19.17582031 -4.21515625 20.07429688 -4 21 C-3.34 21.33 -2.68 21.66 -2 22 C-2 15.73 -2 9.46 -2 3 C-1.34 3 -0.68 3 0 3 C0 2.01 0 1.02 0 0 Z " fill="#17212C" transform="translate(312,340)"/>
<path d="M0 0 C0.33 0.66 0.66 1.32 1 2 C1.66 2 2.32 2 3 2 C3 8.6 3 15.2 3 22 C2.01 22 1.02 22 0 22 C-1.125 16.375 -1.125 16.375 0 13 C-0.66 12.67 -1.32 12.34 -2 12 C-1.85962479 10.18706911 -1.71255111 8.3746557 -1.5625 6.5625 C-1.48128906 5.55316406 -1.40007812 4.54382813 -1.31640625 3.50390625 C-1 1 -1 1 0 0 Z " fill="#201F1F" transform="translate(266,242)"/>
<path d="M0 0 C0.33 0 0.66 0 1 0 C1.66 9.9 2.32 19.8 3 30 C3.99 24.72 4.98 19.44 6 14 C6.33 14 6.66 14 7 14 C7.02709444 16.08326131 7.04643873 18.16662441 7.0625 20.25 C7.07410156 21.41015625 7.08570313 22.5703125 7.09765625 23.765625 C7.01782092 26.40977128 6.78643778 28.49826091 6 31 C4.0625 31.5625 4.0625 31.5625 2 32 C-0.85923619 29.14076381 0.00867965 21.46273387 -0.0625 17.66796875 C-0.0625 14.77792861 -0.04468561 11.88966932 0 9 C-0.66 9 -1.32 9 -2 9 C-1.34 6.03 -0.68 3.06 0 0 Z " fill="#10181F" transform="translate(339,335)"/>
<path d="M0 0 C0.99 0 1.98 0 3 0 C3 0.66 3 1.32 3 2 C3.99 2.33 4.98 2.66 6 3 C7.6875 4.4375 7.6875 4.4375 9 6 C9 6.66 9 7.32 9 8 C13.51718381 9.36884358 16.58774263 8.47075246 21 7 C20.67 7.99 20.34 8.98 20 10 C14.74746059 11.75084647 9.80905485 11.59205431 4.5625 9.875 C1.37298452 7.54120819 0.81111959 5.81226209 0 2 C0 1.34 0 0.68 0 0 Z " fill="#3B4C5A" transform="translate(166,355)"/>
<path d="M0 0 C0.99 0.33 1.98 0.66 3 1 C3.15956375 12.70134149 2.66408409 24.31923512 2 36 C1.34 36 0.68 36 0 36 C0 24.12 0 12.24 0 0 Z " fill="#405463" transform="translate(262,329)"/>
<path d="M0 0 C1.32 0.33 2.64 0.66 4 1 C3.67 1.33 3.34 1.66 3 2 C2.84011509 4.51880517 2.74065775 7.01342266 2.68359375 9.53515625 C2.66281265 10.28840683 2.64203156 11.04165741 2.62062073 11.81773376 C2.55504575 14.2325599 2.49620379 16.64749798 2.4375 19.0625 C2.3943223 20.69597529 2.35070827 22.3294391 2.30664062 23.96289062 C2.19935638 27.97514464 2.09811179 31.98751164 2 36 C1.34 35.67 0.68 35.34 0 35 C0 23.45 0 11.9 0 0 Z " fill="#243A4C" transform="translate(221,329)"/>
<path d="M0 0 C0.66 0.33 1.32 0.66 2 1 C1.67 1.66 1.34 2.32 1 3 C1.66 3.33 2.32 3.66 3 4 C2.01 4.66 1.02 5.32 0 6 C1.65 6 3.3 6 5 6 C4.8125 7.8125 4.8125 7.8125 4 10 C1.75 11.8125 1.75 11.8125 -1 13 C-3.8125 12.6875 -3.8125 12.6875 -6 12 C-5.34 11.67 -4.68 11.34 -4 11 C-4.66 10.67 -5.32 10.34 -6 10 C-5.1875 7.5625 -5.1875 7.5625 -4 5 C-3.01 4.67 -2.02 4.34 -1 4 C-0.26676204 1.98491642 -0.26676204 1.98491642 0 0 Z " fill="#1D1D1D" transform="translate(275,138)"/>
<path d="M0 0 C0.66 0 1.32 0 2 0 C2.05394705 2.60444348 2.09364469 5.20776998 2.125 7.8125 C2.14175781 8.55048828 2.15851563 9.28847656 2.17578125 10.04882812 C2.21074628 13.91246426 2.19397555 15.70903668 0 19 C-6.88888889 19.66666667 -6.88888889 19.66666667 -10.5 17.5 C-10.995 17.005 -11.49 16.51 -12 16 C-8.0186217 14.6728739 -4.14954773 14.93084087 0 15 C0 10.05 0 5.1 0 0 Z " fill="#384A59" transform="translate(151,348)"/>
<path d="M0 0 C0 1.32 0 2.64 0 4 C-5.12325529 6.45489316 -9.33895411 7.50341703 -15 8 C-15 7.01 -15 6.02 -15 5 C-10.82299972 0.98365357 -5.68388967 -0.33434645 0 0 Z " fill="#212121" transform="translate(294,148)"/>
<path d="M0 0 C1.32 0 2.64 0 4 0 C5.28571429 8.42857143 5.28571429 8.42857143 4 13 C2.33388095 13.042721 0.66617115 13.04063832 -1 13 C-2 12 -2 12 -2.09765625 10.15234375 C-2.06510417 8.1015625 -2.03255208 6.05078125 -2 4 C-1.34 4 -0.68 4 0 4 C0 2.68 0 1.36 0 0 Z " fill="#3A3A3A" transform="translate(253,200)"/>
<path d="M0 0 C3.53164047 -0.32105822 5.35715051 -0.48213712 8.25 1.6875 C10.81532164 5.07738931 12 7.7345467 12 12 C8.20405883 11.43573848 6.41289367 9.81748138 3.75 7.125 C3.04359375 6.42632812 2.3371875 5.72765625 1.609375 5.0078125 C0 3 0 3 0 0 Z " fill="#121212" transform="translate(270,185)"/>
<path d="M0 0 C0.66 0 1.32 0 2 0 C1.7438709 2.08519216 1.46951265 4.1681505 1.1875 6.25 C1.03667969 7.41015625 0.88585937 8.5703125 0.73046875 9.765625 C0.00362557 12.98394666 -0.81661025 14.58331655 -3 17 C-2.67 14.36 -2.34 11.72 -2 9 C-4.92678249 14.55079437 -7.1668733 20.00067626 -9 26 C-10.52222543 21.29689784 -8.97182775 18.2552895 -7.25 13.8125 C-6.98445313 13.07580078 -6.71890625 12.33910156 -6.4453125 11.58007812 C-5.72555965 9.68111854 -4.87068822 7.83466447 -4 6 C-3.01 5.67 -2.02 5.34 -1 5 C-0.67 3.35 -0.34 1.7 0 0 Z " fill="#4C5A65" transform="translate(336,333)"/>
<path d="M0 0 C0.99 0.33 1.98 0.66 3 1 C5.80869495 6.82544138 6.40066311 11.58939027 6 18 C5.01 17.67 4.02 17.34 3 17 C0.46543608 11.55538121 -0.38750411 5.94172964 0 0 Z " fill="#242424" transform="translate(235,116)"/>
<path d="M0 0 C1.6045556 0.14148989 3.20863767 0.28835686 4.8125 0.4375 C5.70582031 0.51871094 6.59914063 0.59992188 7.51953125 0.68359375 C10 1 10 1 13 2 C14.18519265 4.43276386 15 6.28017286 15 9 C7.48918469 8.3843594 7.48918469 8.3843594 5.25 6.625 C4.8375 6.08875 4.425 5.5525 4 5 C3.278125 4.484375 2.55625 3.96875 1.8125 3.4375 C1.214375 2.963125 0.61625 2.48875 0 2 C0 1.34 0 0.68 0 0 Z " fill="#141414" transform="translate(339,291)"/>
<path d="M0 0 C1.65 0 3.3 0 5 0 C7.60133768 2.60133768 6.23009031 9.66162764 6.24023438 13.19091797 C6.24989548 15.2279615 6.28088334 17.26397673 6.3125 19.30078125 C6.31765625 20.58855469 6.3228125 21.87632812 6.328125 23.203125 C6.34214355 24.97671387 6.34214355 24.97671387 6.35644531 26.78613281 C5.96917135 30.27796462 5.0207139 32.16566532 3 35 C2.34 34.67 1.68 34.34 1 34 C1.48082031 33.27554688 1.96164063 32.55109375 2.45703125 31.8046875 C5.03621329 26.64632342 4.57610601 20.76471873 4.6875 15.125 C4.72166016 13.9596875 4.75582031 12.794375 4.79101562 11.59375 C4.87319354 8.72926282 4.94244421 5.86507015 5 3 C4.01 3 3.02 3 2 3 C1.67 6.3 1.34 9.6 1 13 C0.67 13 0.34 13 0 13 C0 8.71 0 4.42 0 0 Z " fill="#2C3542" transform="translate(189,327)"/>
<path d="M0 0 C0.703125 1.7421875 0.703125 1.7421875 1 4 C-0.328125 6.0703125 -0.328125 6.0703125 -2.25 8.125 C-2.87390625 8.80820313 -3.4978125 9.49140625 -4.140625 10.1953125 C-6 12 -6 12 -9 14 C-9.66 13.34 -10.32 12.68 -11 12 C-10.8125 9.5 -10.8125 9.5 -10 7 C-7 5 -7 5 -5 5 C-3.29319053 3.37446717 -1.62339805 1.70884005 0 0 Z " fill="#1C1C1C" transform="translate(225,185)"/>
<path d="M0 0 C0.33 0.99 0.66 1.98 1 3 C0.67 3.66 0.34 4.32 0 5 C-2.1796875 5.34375 -2.1796875 5.34375 -4.875 5.5 C-8.58038253 5.71605729 -9.80892206 5.87261471 -13 8 C-12.68762196 5.11050316 -12.35661121 3.41366901 -10.4375 1.1875 C-6.8580787 -0.55632063 -3.95820158 -0.19791008 0 0 Z " fill="#1B1B1B" transform="translate(326,277)"/>
<path d="M0 0 C3.54433654 1.41773462 4.33806119 2.67612238 6 6 C7.96672915 7.1500831 7.96672915 7.1500831 10 8 C10.66 8.66 11.32 9.32 12 10 C10 11 10 11 6.875 10.0625 C5.451875 9.5365625 5.451875 9.5365625 4 9 C4.8971875 9.8971875 4.8971875 9.8971875 5.8125 10.8125 C7.54166667 12.54166667 9.27083333 14.27083333 11 16 C7.21213403 15.4739075 4.82847776 14.61896089 2 12 C2 11.34 2 10.68 2 10 C1.34 10 0.68 10 0 10 C-0.66 8.35 -1.32 6.7 -2 5 C0.475 6.485 0.475 6.485 3 8 C2.01 5.36 1.02 2.72 0 0 Z " fill="#080808" transform="translate(335,282)"/>
<path d="M0 0 C1.134375 0.020625 2.26875 0.04125 3.4375 0.0625 C3.7675 0.7225 4.0975 1.3825 4.4375 2.0625 C3.4475 2.3925 2.4575 2.7225 1.4375 3.0625 C0.20780122 6.57440809 0.20780122 6.57440809 -0.5625 10.0625 C-1.2225 10.0625 -1.8825 10.0625 -2.5625 10.0625 C-3.2225 11.3825 -3.8825 12.7025 -4.5625 14.0625 C-4.58935938 11.91673363 -4.60883088 9.77087355 -4.625 7.625 C-4.63660156 6.43003906 -4.64820313 5.23507812 -4.66015625 4.00390625 C-4.51766709 -0.28786723 -4.40551892 0.07728981 0 0 Z " fill="#1F2B34" transform="translate(309.5625,326.9375)"/>
<path d="M0 0 C2.97 0 5.94 0 9 0 C9 0.99 9 1.98 9 3 C9.66 3 10.32 3 11 3 C11 3.99 11 4.98 11 6 C8.39820337 7.30089831 6.4030812 7.16840078 3.5 7.1875 C2.5203125 7.20167969 1.540625 7.21585937 0.53125 7.23046875 C-2 7 -2 7 -4 5 C-2.906875 4.690625 -1.81375 4.38125 -0.6875 4.0625 C1.55407994 3.41662103 3.7869351 2.7376883 6 2 C3.03 1.505 3.03 1.505 0 1 C0 0.67 0 0.34 0 0 Z " fill="#242322" transform="translate(234,291)"/>
<path d="M0 0 C2.8125 2.5625 2.8125 2.5625 5 5 C4.01 5.33 3.02 5.66 2 6 C2.66 6.33 3.32 6.66 4 7 C3.67 7.99 3.34 8.98 3 10 C2.34 10 1.68 10 1 10 C0.814375 9.236875 0.62875 8.47375 0.4375 7.6875 C-1.63445622 3.81384272 -3.92286538 3.43454737 -8 2 C-8 1.34 -8 0.68 -8 0 C-4.57930706 -1.14023098 -3.38312738 -1.12770913 0 0 Z " fill="#181816" transform="translate(214,280)"/>
<path d="M0 0 C5.61946506 3.4524818 10.0679294 6.67267854 14 12 C13.01 12.33 12.02 12.66 11 13 C8.30078125 11.26953125 8.30078125 11.26953125 5.3125 8.8125 C4.31863281 8.01457031 3.32476562 7.21664062 2.30078125 6.39453125 C0 4 0 4 0 0 Z " fill="#1B1B1B" transform="translate(214,128)"/>
<path d="M0 0 C0.33 0.66 0.66 1.32 1 2 C1.66 2 2.32 2 3 2 C3.66 4.31 4.32 6.62 5 9 C4.01 9.495 4.01 9.495 3 10 C2.67 10.99 2.34 11.98 2 13 C4.99332739 12.0022242 5.94766315 11.2477975 8 9 C7.125 12.875 7.125 12.875 6 14 C4.33382885 14.04063832 2.66611905 14.042721 1 14 C-1.61895048 9.22426677 -0.83119431 5.15565119 0 0 Z " fill="#47545F" transform="translate(321,352)"/>
<path d="M0 0 C2.93774463 -0.05390357 5.87450232 -0.0936255 8.8125 -0.125 C10.06256836 -0.15013672 10.06256836 -0.15013672 11.33789062 -0.17578125 C12.14033203 -0.18222656 12.94277344 -0.18867188 13.76953125 -0.1953125 C14.50792236 -0.20578613 15.24631348 -0.21625977 16.00708008 -0.22705078 C18 0 18 0 21 2 C19.02 2 17.04 2 15 2 C15.66 3.65 16.32 5.3 17 7 C14.03 6.505 14.03 6.505 11 6 C10.67 5.01 10.34 4.02 10 3 C6.7 2.34 3.4 1.68 0 1 C0 0.67 0 0.34 0 0 Z " fill="#111C25" transform="translate(221,327)"/>
<path d="M0 0 C0.66 0.33 1.32 0.66 2 1 C2.3733852 3.55648416 2.6126492 5.99097188 2.75 8.5625 C2.81465454 9.65208008 2.81465454 9.65208008 2.88061523 10.76367188 C3.11543814 15.88499305 2.72486721 20.12978669 1 25 C0.67 25 0.34 25 0 25 C-0.19628414 21.20873402 -0.38053896 17.41697828 -0.5625 13.625 C-0.61857422 12.54476562 -0.67464844 11.46453125 -0.73242188 10.3515625 C-0.78076172 9.3203125 -0.82910156 8.2890625 -0.87890625 7.2265625 C-0.9260376 6.27346191 -0.97316895 5.32036133 -1.02172852 4.33837891 C-1 2 -1 2 0 0 Z " fill="#0F0005" transform="translate(260,222)"/>
<path d="M0 0 C4.23291565 0.24420667 6.37020421 0.401694 9.5 3.375 C9.995 4.24125 10.49 5.1075 11 6 C10.67 6.99 10.34 7.98 10 9 C9.01 9.33 8.02 9.66 7 10 C7 9.01 7 8.02 7 7 C6.34 7 5.68 7 5 7 C5 6.34 5 5.68 5 5 C3.35 4.67 1.7 4.34 0 4 C0 2.68 0 1.36 0 0 Z " fill="#171717" transform="translate(257,167)"/>
<path d="M0 0 C1.8871875 0.0309375 1.8871875 0.0309375 3.8125 0.0625 C4.1425 1.0525 4.4725 2.0425 4.8125 3.0625 C4.1525 3.0625 3.4925 3.0625 2.8125 3.0625 C2.4825 4.0525 2.1525 5.0425 1.8125 6.0625 C-1.5625 5.8125 -1.5625 5.8125 -5.1875 5.0625 C-6.625 3 -6.625 3 -7.1875 1.0625 C-4.43671116 0.14557039 -2.82801087 -0.04636083 0 0 Z " fill="#191919" transform="translate(181.1875,293.9375)"/>
<path d="M0 0 C-0.34442894 2.49710982 -0.84703999 3.82154665 -2.5 5.75 C-6.25557239 7.62778619 -9.87646606 7.23789619 -14 7 C-13.67 6.34 -13.34 5.68 -13 5 C-12.34 5 -11.68 5 -11 5 C-10.67 4.34 -10.34 3.68 -10 3 C-8.01751285 2.28293018 -6.01584651 1.61709587 -4 1 C-2 0 -2 0 0 0 Z " fill="#344656" transform="translate(247,358)"/>
<path d="M0 0 C0.33 0 0.66 0 1 0 C1.0272616 2.04159095 1.04651345 4.08328963 1.0625 6.125 C1.07410156 7.26195312 1.08570313 8.39890625 1.09765625 9.5703125 C1.005327 12.8129156 0.61389906 15.81932612 0 19 C-0.66 18.67 -1.32 18.34 -2 18 C-2.33 12.39 -2.66 6.78 -3 1 C-2.01 1.495 -2.01 1.495 -1 2 C-1.33 2.66 -1.66 3.32 -2 4 C-1.34 4 -0.68 4 0 4 C0 2.68 0 1.36 0 0 Z " fill="#334558" transform="translate(343,347)"/>
<path d="M0 0 C2.21336414 3.32004621 2.20762974 4.07410932 1.9765625 7.88671875 C1.925 8.82451172 1.8734375 9.76230469 1.8203125 10.72851562 C1.75585938 11.70498047 1.69140625 12.68144531 1.625 13.6875 C1.56828125 14.67556641 1.5115625 15.66363281 1.453125 16.68164062 C1.31166481 19.12182885 1.16025726 21.56098591 1 24 C0.01 23.67 -0.98 23.34 -2 23 C-3.25396825 17.48253968 -3.25396825 17.48253968 -2.0625 15.21875 C-0.62869446 12.22462667 -0.57307708 9.55128473 -0.375 6.25 C-0.30023438 5.07953125 -0.22546875 3.9090625 -0.1484375 2.703125 C-0.09945313 1.81109375 -0.05046875 0.9190625 0 0 Z " fill="#314555" transform="translate(309,338)"/>
<path d="M0 0 C0.66 0 1.32 0 2 0 C2 0.99 2 1.98 2 3 C2.99 3 3.98 3 5 3 C4.01 4.485 4.01 4.485 3 6 C5.475 6.99 5.475 6.99 8 8 C6.3125 9.625 6.3125 9.625 4 11 C1.3125 10.375 1.3125 10.375 -1 9 C-2.10107995 5.69676014 -1.86709271 4.29495231 -1 1 C-0.67 0.67 -0.34 0.34 0 0 Z " fill="#070508" transform="translate(226,283)"/>
<path d="M0 0 C1.80125336 2.70188004 3.00243753 4.93057703 4 8 C3.02391783 10.92824652 1.89213369 12.61426621 0 15 C-0.69685498 13.3789897 -1.38222861 11.75303934 -2.0625 10.125 C-2.44535156 9.22007812 -2.82820313 8.31515625 -3.22265625 7.3828125 C-4 5 -4 5 -3 3 C-2.67 3.99 -2.34 4.98 -2 6 C-1.01 6 -0.02 6 1 6 C0.67 4.02 0.34 2.04 0 0 Z " fill="#374551" transform="translate(319,343)"/>
<path d="M0 0 C0.66 0.66 1.32 1.32 2 2 C4.10820797 1.6814823 4.10820797 1.6814823 6 1 C5.67 1.99 5.34 2.98 5 4 C5.99 4.66 6.98 5.32 8 6 C6.48065294 9.03869411 4.01995228 9.64410306 1 11 C0.34 11 -0.32 11 -1 11 C-1.14285714 3.57142857 -1.14285714 3.57142857 0 0 Z " fill="#080708" transform="translate(235,198)"/>
<path d="M0 0 C4.05606165 0.46800711 7.46588679 0.87953208 11 3 C10.67 4.32 10.34 5.64 10 7 C7.69 6.01 5.38 5.02 3 4 C2.01 4.99 1.02 5.98 0 7 C-0.66 6.67 -1.32 6.34 -2 6 C-1.34 4.02 -0.68 2.04 0 0 Z M1 1 C2 3 2 3 2 3 Z " fill="#101010" transform="translate(269,176)"/>
<path d="M0 0 C0.29240794 3.09194322 0.2622862 4.59815511 -1.4609375 7.23828125 C-2.09257812 7.92277344 -2.72421875 8.60726562 -3.375 9.3125 C-4.00148438 10.00988281 -4.62796875 10.70726562 -5.2734375 11.42578125 C-7 13 -7 13 -9 13 C-9.35964961 9.74031863 -9.31635547 8.41291956 -7.28515625 5.76171875 C-6.55167969 5.07722656 -5.81820313 4.39273438 -5.0625 3.6875 C-4.33160156 2.99011719 -3.60070312 2.29273438 -2.84765625 1.57421875 C-1 0 -1 0 0 0 Z " fill="#1B191A" transform="translate(280,128)"/>
<path d="M0 0 C1.32 0.33 2.64 0.66 4 1 C4.84098656 5.01804691 5.05404945 8.01803543 4 12 C1.69 11.67 -0.62 11.34 -3 11 C-2.67 10.34 -2.34 9.68 -2 9 C-1.01 9 -0.02 9 1 9 C0.67 6.03 0.34 3.06 0 0 Z " fill="#1A1A1B" transform="translate(266,265)"/>
<path d="M0 0 C0 2.3125 0 2.3125 -1 5 C-3.52877482 6.47280292 -6.13140904 7.42510856 -9 8 C-9.66 7.67 -10.32 7.34 -11 7 C-10 4 -10 4 -8.22265625 2.83203125 C-7.50980469 2.49558594 -6.79695312 2.15914062 -6.0625 1.8125 C-5.35222656 1.46832031 -4.64195312 1.12414062 -3.91015625 0.76953125 C-2 0 -2 0 0 0 Z " fill="#191919" transform="translate(211,184)"/>
<path d="M0 0 C1.4540625 0.0309375 1.4540625 0.0309375 2.9375 0.0625 C3.78431133 5.14336796 4.02788099 9.91078377 3.9375 15.0625 C1.80927023 12.47161158 0.24562491 10.45187406 -0.0625 7.0625 C0.875 4.3125 0.875 4.3125 1.9375 2.0625 C-1.02425123 2.67527612 -2.44308783 3.31622522 -5.0625 5.0625 C-3.9375 0.08035714 -3.9375 0.08035714 0 0 Z " fill="#202B34" transform="translate(341.0625,326.9375)"/>
<path d="M0 0 C2.475 0.495 2.475 0.495 5 1 C5 9.25 5 17.5 5 26 C4.67 26 4.34 26 4 26 C3.67 19.07 3.34 12.14 3 5 C2.01 4.67 1.02 4.34 0 4 C0 2.68 0 1.36 0 0 Z " fill="#293640" transform="translate(164,327)"/>
<path d="M0 0 C1.32 0.66 2.64 1.32 4 2 C4 2.66 4 3.32 4 4 C5.0725 3.690625 6.145 3.38125 7.25 3.0625 C9.82866222 2.33187904 12.39512102 1.62517096 15 1 C15 1.66 15 2.32 15 3 C14.030625 3.28875 13.06125 3.5775 12.0625 3.875 C8.89335797 4.64214682 8.89335797 4.64214682 8 7 C5.03 6.67 2.06 6.34 -1 6 C-1.33 5.01 -1.66 4.02 -2 3 C-1.34 2.01 -0.68 1.02 0 0 Z " fill="#0C0C0C" transform="translate(146,293)"/>
<path d="M0 0 C0 0.66 0 1.32 0 2 C2.31 2 4.62 2 7 2 C7 2.33 7 2.66 7 3 C-4.37078652 6.87640449 -4.37078652 6.87640449 -10 5 C-4.03225806 0 -4.03225806 0 0 0 Z " fill="#0B0B0B" transform="translate(290,277)"/>
<path d="M0 0 C2.475 0.99 2.475 0.99 5 2 C0.38823529 6.94117647 0.38823529 6.94117647 -3 8 C-5.25 7.125 -5.25 7.125 -7 6 C-6.67 5.01 -6.34 4.02 -6 3 C-3.69 3 -1.38 3 1 3 C0.67 2.01 0.34 1.02 0 0 Z " fill="#1A1A1A" transform="translate(272,290)"/>
<path d="M0 0 C0.66 0 1.32 0 2 0 C2 0.66 2 1.32 2 2 C3.65 2 5.3 2 7 2 C6.67 2.99 6.34 3.98 6 5 C5.34 5 4.68 5 4 5 C4.24631557 9.05085679 4.24631557 9.05085679 5 13 C6.92064793 14.5899433 6.92064793 14.5899433 9 15 C7.33388095 15.042721 5.66617115 15.04063832 4 15 C3 14 3 14 2.90234375 12.15234375 C2.93489583 10.1015625 2.96744792 8.05078125 3 6 C1.68 5.34 0.36 4.68 -1 4 C-0.67 2.68 -0.34 1.36 0 0 Z " fill="#2D2D2D" transform="translate(247,199)"/>
<path d="M0 0 C4.71208226 3.2622108 4.71208226 3.2622108 6 6.5625 C6 9 6 9 4.5625 10.8125 C4.046875 11.204375 3.53125 11.59625 3 12 C0.82637677 9.35384998 -0.34999225 7.35837336 -1 4 C-1.33 3.01 -1.66 2.02 -2 1 C-1.34 0.67 -0.68 0.34 0 0 Z " fill="#36495A" transform="translate(125,350)"/>
<path d="M0 0 C8.35010941 0.35010941 8.35010941 0.35010941 11.0625 3.0625 C11.371875 3.701875 11.68125 4.34125 12 5 C10.54364629 5.22174933 9.08477044 5.42698698 7.625 5.625 C6.81289063 5.74101562 6.00078125 5.85703125 5.1640625 5.9765625 C4.44992187 5.98429687 3.73578125 5.99203125 3 6 C2.34 5.34 1.68 4.68 1 4 C1.33 3.67 1.66 3.34 2 3 C1.34 2.67 0.68 2.34 0 2 C0 1.34 0 0.68 0 0 Z " fill="#19191B" transform="translate(290,277)"/>
<path d="M0 0 C0.33 0 0.66 0 1 0 C1 3.63 1 7.26 1 11 C3.64 11 6.28 11 9 11 C9 11.99 9 12.98 9 14 C7.68 14 6.36 14 5 14 C5 13.34 5 12.68 5 12 C3.35 12.33 1.7 12.66 0 13 C-2 10 -2 10 -1.7578125 7.51953125 C-1.54898438 6.62621094 -1.34015625 5.73289063 -1.125 4.8125 C-0.92132813 3.91144531 -0.71765625 3.01039063 -0.5078125 2.08203125 C-0.34023437 1.39496094 -0.17265625 0.70789063 0 0 Z " fill="#212121" transform="translate(246,184)"/>
<path d="M0 0 C2.97 0.33 5.94 0.66 9 1 C7 3 7 3 4 4 C3.67 5.65 3.34 7.3 3 9 C2.01 9.33 1.02 9.66 0 10 C-1.125 3.375 -1.125 3.375 0 0 Z " fill="#181818" transform="translate(238,152)"/>
<path d="M0 0 C2 1 2 1 2 1 Z M-10 1 C-7.69 1.66 -5.38 2.32 -3 3 C-2.67 2.34 -2.34 1.68 -2 1 C-1.34 1.66 -0.68 2.32 0 3 C1.98821313 3.39764263 3.98944339 3.73775349 6 4 C2.25816125 6.49455917 0.43756964 6.37606522 -4 6 C-7.4375 4.5 -7.4375 4.5 -10 3 C-10 2.34 -10 1.68 -10 1 Z " fill="#232323" transform="translate(206,292)"/>
<path d="M0 0 C0.66 0 1.32 0 2 0 C4.81763407 2.81763407 5.94608803 4.28566635 6.25 8.3125 C6.1675 9.199375 6.085 10.08625 6 11 C3 10 3 10 1.3125 7.75 C-0.06511203 4.8635748 -0.26985151 3.14826764 0 0 Z " fill="#1C1C1C" transform="translate(230,130)"/>
<path d="M0 0 C0.66 0 1.32 0 2 0 C2.35858439 3.85478218 2.2754818 5.57759458 0.125 8.875 C-0.57625 9.57625 -1.2775 10.2775 -2 11 C-2.66 11 -3.32 11 -4 11 C-3.49357808 6.64477147 -2.61588503 3.55760365 0 0 Z " fill="#1F1F1F" transform="translate(273,115)"/>
<path d="M0 0 C0.66 0 1.32 0 2 0 C1.98259766 1.19496094 1.98259766 1.19496094 1.96484375 2.4140625 C1.88148443 10.25478989 1.88148443 10.25478989 3 18 C2.01 18 1.02 18 0 18 C0 12.06 0 6.12 0 0 Z " fill="#435966" transform="translate(357,347)"/>
<path d="M0 0 C1.60407328 -0.02708567 3.2082785 -0.04643483 4.8125 -0.0625 C5.70582031 -0.07410156 6.59914062 -0.08570313 7.51953125 -0.09765625 C10 0 10 0 13 1 C13 1.66 13 2.32 13 3 C8.71 3 4.42 3 0 3 C0 2.01 0 1.02 0 0 Z " fill="#506473" transform="translate(139,328)"/>
<path d="M0 0 C2.64 0 5.28 0 8 0 C8 0.33 8 0.66 8 1 C6.35 1.33 4.7 1.66 3 2 C3.061875 3.299375 3.061875 3.299375 3.125 4.625 C2.99542279 8.12358468 2.23980344 10.74551597 1 14 C0.67 14 0.34 14 0 14 C-0.19532961 12.2300132 -0.38098882 10.45895721 -0.5625 8.6875 C-0.66691406 7.70136719 -0.77132813 6.71523438 -0.87890625 5.69921875 C-1 3 -1 3 0 0 Z " fill="#161F26" transform="translate(359,331)"/>
<path d="M0 0 C2.52259061 1.97420135 2.9929808 2.96745642 3.6875 6.1875 C3.790625 7.115625 3.89375 8.04375 4 9 C3.01 8.01 2.02 7.02 1 6 C0.67 8.64 0.34 11.28 0 14 C-0.33 14 -0.66 14 -1 14 C-1.66 10.7 -2.32 7.4 -3 4 C-2.01 3.34 -1.02 2.68 0 2 C0 1.34 0 0.68 0 0 Z " fill="#2D3E4C" transform="translate(247,333)"/>
<path d="M0 0 C1.67542976 0.28604898 3.34385343 0.61781233 5 1 C2.46826954 4.09433723 -0.16603176 5.04150794 -4 6 C-4.99 5.67 -5.98 5.34 -7 5 C-8.33106622 4.65772583 -9.66400079 4.32248257 -11 4 C-10.01 4 -9.02 4 -8 4 C-7.67 3.34 -7.34 2.68 -7 2 C-5.00714063 1.62633887 -3.00636471 1.29259485 -1 1 C-0.67 0.67 -0.34 0.34 0 0 Z " fill="#000000" transform="translate(219,173)"/>
<path d="M0 0 C2.4375 1.0625 2.4375 1.0625 5 3 C5.8125 6.6875 5.8125 6.6875 6 10 C3 9 3 9 1.3125 6.6875 C0 4 0 4 0 0 Z " fill="#191919" transform="translate(221,115)"/>
<path d="M0 0 C1 2 1 2 0.3125 4.875 C-1.05504521 8.13106003 -2.24134461 9.82651393 -5 12 C-5.99 12 -6.98 12 -8 12 C-7.67 10.68 -7.34 9.36 -7 8 C-6.34 8 -5.68 8 -5 8 C-5 7.34 -5 6.68 -5 6 C-4.01 6 -3.02 6 -2 6 C-1.855625 5.195625 -1.71125 4.39125 -1.5625 3.5625 C-1 1 -1 1 0 0 Z " fill="#576571" transform="translate(331,353)"/>
<path d="M0 0 C0.66 0.66 1.32 1.32 2 2 C4.56916657 2.30599063 7.04758384 2.51087087 9.625 2.625 C10.68460937 2.68300781 10.68460937 2.68300781 11.765625 2.7421875 C13.50998524 2.83647724 15.25495691 2.91932891 17 3 C17.33 4.32 17.66 5.64 18 7 C16.68 7 15.36 7 14 7 C14.66 6.67 15.32 6.34 16 6 C16 5.34 16 4.68 16 4 C10.72 4 5.44 4 0 4 C0 2.68 0 1.36 0 0 Z " fill="#07090B" transform="translate(360,359)"/>
<path d="M0 0 C0.66 0 1.32 0 2 0 C2.66 0.66 3.32 1.32 4 2 C4.99 2 5.98 2 7 2 C6.34 3.32 5.68 4.64 5 6 C4.67 5.34 4.34 4.68 4 4 C3.071875 4.37125 2.14375 4.7425 1.1875 5.125 C0.135625 5.41375 -0.91625 5.7025 -2 6 C-2.99 5.34 -3.98 4.68 -5 4 C-4.360625 3.71125 -3.72125 3.4225 -3.0625 3.125 C-0.84793921 2.17176549 -0.84793921 2.17176549 0 0 Z " fill="#2C3A45" transform="translate(243,354)"/>
<path d="M0 0 C3.3 0 6.6 0 10 0 C10.33 0.99 10.66 1.98 11 3 C7.37 3 3.74 3 0 3 C0 2.01 0 1.02 0 0 Z " fill="#292929" transform="translate(244,171)"/>
<path d="M0 0 C0.33 0 0.66 0 1 0 C1 4.95 1 9.9 1 15 C-0.32 14.67 -1.64 14.34 -3 14 C-2.67 13.67 -2.34 13.34 -2 13 C-1.60333773 10.81980521 -1.25684763 8.6303537 -0.9375 6.4375 C-0.76089844 5.23996094 -0.58429688 4.04242188 -0.40234375 2.80859375 C-0.26957031 1.88175781 -0.13679687 0.95492188 0 0 Z " fill="#19222A" transform="translate(154,351)"/>
<path d="M0 0 C0.33 0 0.66 0 1 0 C1 6.93 1 13.86 1 21 C0.67 21 0.34 21 0 21 C0 17.04 0 13.08 0 9 C-0.66 9 -1.32 9 -2 9 C-1.34 6.03 -0.68 3.06 0 0 Z " fill="#000000" transform="translate(339,335)"/>
<path d="M0 0 C0.99 0.66 1.98 1.32 3 2 C2.67 3.32 2.34 4.64 2 6 C-1 4 -4 2 -7 0 C-4.28569464 -1.35715268 -2.88661718 -0.77445827 0 0 Z " fill="#262626" transform="translate(185,280)"/>
<path d="M0 0 C0.33 0 0.66 0 1 0 C1.33 4.29 1.66 8.58 2 13 C0.35 13.33 -1.3 13.66 -3 14 C-2.125 9.25 -2.125 9.25 -1 7 C-0.63858045 4.67085177 -0.30300475 2.33746522 0 0 Z " fill="#010104" transform="translate(260,262)"/>
<path d="M0 0 C2 3 2 3 3 6 C1.68 6.99 0.36 7.98 -1 9 C-1.66 8.34 -2.32 7.68 -3 7 C-2.67028521 3.70285207 -2.3773161 2.3773161 0 0 Z " fill="#101010" transform="translate(217,190)"/>
<path d="M0 0 C4.0369867 1.79421631 6.64480474 3.20551875 9 7 C5.26512223 6.5020163 3.18762365 6.12508244 0 4 C0 2.68 0 1.36 0 0 Z " fill="#191919" transform="translate(202,134)"/>
<path d="M0 0 C1.65 0 3.3 0 5 0 C5.33 1.65 5.66 3.3 6 5 C5.67 4.34 5.34 3.68 5 3 C4.01 3 3.02 3 2 3 C1.67 6.3 1.34 9.6 1 13 C0.67 13 0.34 13 0 13 C0 8.71 0 4.42 0 0 Z " fill="#273137" transform="translate(189,327)"/>
<path d="M0 0 C0.33 0.99 0.66 1.98 1 3 C-2.69541586 3.95024979 -5.30458414 3.95024979 -9 3 C-7.14340032 -0.71319936 -3.69365381 -0.09982848 0 0 Z " fill="#1F1D1E" transform="translate(240,249)"/>
<path d="M0 0 C1.65 0 3.3 0 5 0 C5.97608217 2.92824652 6.08226668 4.95613276 6 8 C5.01 8.495 5.01 8.495 4 9 C4 8.34 4 7.68 4 7 C3.34 7 2.68 7 2 7 C2.33 5.35 2.66 3.7 3 2 C2.01 1.34 1.02 0.68 0 0 Z " fill="#0D080A" transform="translate(237,231)"/>
<path d="M0 0 C2.9375 0.75 2.9375 0.75 6 2 C6.9375 4 6.9375 4 7 6 C6.67 6.66 6.34 7.32 6 8 C2.63279613 6.60667426 1.0140476 5.0210714 -1 2 C-0.67 1.34 -0.34 0.68 0 0 Z " fill="#09090A" transform="translate(252,150)"/>
<path d="M0 0 C0.66 0.33 1.32 0.66 2 1 C1.67 1.66 1.34 2.32 1 3 C1.66 3.33 2.32 3.66 3 4 C2.1028125 4.37125 2.1028125 4.37125 1.1875 4.75 C-1.28777159 6.16444091 -2.33430804 7.72860188 -4 10 C-4.66 10 -5.32 10 -6 10 C-5.1875 7.5625 -5.1875 7.5625 -4 5 C-3.01 4.67 -2.02 4.34 -1 4 C-0.26676204 1.98491642 -0.26676204 1.98491642 0 0 Z " fill="#000000" transform="translate(275,138)"/>
<path d="M0 0 C5.28 0 10.56 0 16 0 C16 0.33 16 0.66 16 1 C11.71 1 7.42 1 3 1 C3 1.66 3 2.32 3 3 C2.34 3 1.68 3 1 3 C1 4.65 1 6.3 1 8 C0.67 8 0.34 8 0 8 C0 5.36 0 2.72 0 0 Z " fill="#000000" transform="translate(360,348)"/>
<path d="M0 0 C-0.33 0.99 -0.66 1.98 -1 3 C-4.47325181 4.1577506 -7.36067448 4.06866652 -11 4 C-11.33 3.01 -11.66 2.02 -12 1 C-11.278125 1.20625 -10.55625 1.4125 -9.8125 1.625 C-5.95264605 2.13964719 -3.67906044 0 0 0 Z " fill="#4A5A67" transform="translate(187,362)"/>
<path d="M0 0 C0.33 0 0.66 0 1 0 C1.33 4.95 1.66 9.9 2 15 C-0.78030572 10.82954142 -1.29986321 7.01336726 -0.5625 2.0625 C-0.376875 1.381875 -0.19125 0.70125 0 0 Z " fill="#080808" transform="translate(267,229)"/>
<path d="M0 0 C0.66 0.33 1.32 0.66 2 1 C-0.31 2.65 -2.62 4.3 -5 6 C-3.63016497 2.83884224 -3.0109362 2.0072908 0 0 Z M-9 5 C-7.68 5.33 -6.36 5.66 -5 6 C-5.33 6.99 -5.66 7.98 -6 9 C-6.99 9 -7.98 9 -9 9 C-9 7.68 -9 6.36 -9 5 Z " fill="#080808" transform="translate(316,277)"/>
<path d="M0 0 C4.83256305 0.41421969 6.82679218 2.46413986 10 6 C9.01 6.495 9.01 6.495 8 7 C7.236875 6.360625 6.47375 5.72125 5.6875 5.0625 C3.11753287 2.85767219 3.11753287 2.85767219 0 2 C0 1.34 0 0.68 0 0 Z " fill="#242424" transform="translate(209,279)"/>
<path d="M0 0 C1.98 0 3.96 0 6 0 C6 1.32 6 2.64 6 4 C3.69 3.67 1.38 3.34 -1 3 C-0.67 2.01 -0.34 1.02 0 0 Z " fill="#201F1F" transform="translate(233,255)"/>
<path d="M0 0 C1.875 0.25 1.875 0.25 4 1 C5.3125 2.875 5.3125 2.875 6 5 C5.67 5.99 5.34 6.98 5 8 C4.67 7.01 4.34 6.02 4 5 C3.34 5 2.68 5 2 5 C2 4.34 2 3.68 2 3 C1.34 3 0.68 3 0 3 C0 2.01 0 1.02 0 0 Z " fill="#232323" transform="translate(260,169)"/>
<path d="M0 0 C1.32 0.99 2.64 1.98 4 3 C3.01 3.33 2.02 3.66 1 4 C-0.68538601 5.99665314 -0.68538601 5.99665314 -2 8 C-2.66 7.67 -3.32 7.34 -4 7 C-3.43628586 3.73045798 -2.50037734 2.17424117 0 0 Z " fill="#040404" transform="translate(316,282)"/>
<path d="M0 0 C0.33 0.66 0.66 1.32 1 2 C-1.33333333 4.33333333 -3.66666667 6.66666667 -6 9 C-6.99 8.67 -7.98 8.34 -9 8 C-7.87811441 6.85111717 -6.75238316 5.70598863 -5.625 4.5625 C-4.99851563 3.92441406 -4.37203125 3.28632813 -3.7265625 2.62890625 C-2 1 -2 1 0 0 Z " fill="#000000" transform="translate(165,281)"/>
<path d="M0 0 C0 0.66 0 1.32 0 2 C-3.63 2 -7.26 2 -11 2 C-7.72338241 -1.27661759 -4.29690696 -1.43230232 0 0 Z " fill="#1D1D1E" transform="translate(240,274)"/>
<path d="M0 0 C0.66 0.33 1.32 0.66 2 1 C1.67 2.65 1.34 4.3 1 6 C-0.32 6.33 -1.64 6.66 -3 7 C-1.125 1.125 -1.125 1.125 0 0 Z " fill="#485968" transform="translate(191,354)"/>
<path d="M0 0 C0.99 0.33 1.98 0.66 3 1 C2.34 1 1.68 1 1 1 C1.33 2.65 1.66 4.3 2 6 C-2.455 5.01 -2.455 5.01 -7 4 C-6.67 3.34 -6.34 2.68 -6 2 C-4.35 2 -2.7 2 -1 2 C-0.67 1.34 -0.34 0.68 0 0 Z " fill="#272627" transform="translate(255,189)"/>
<path d="M0 0 C0.66 0.33 1.32 0.66 2 1 C2 1.99 2 2.98 2 4 C2.66 4.33 3.32 4.66 4 5 C1.03 5.66 -1.94 6.32 -5 7 C-4.0409375 6.1028125 -4.0409375 6.1028125 -3.0625 5.1875 C-0.79689611 3.09189663 -0.79689611 3.09189663 0 0 Z " fill="#000000" transform="translate(227,176)"/>
<path d="M0 0 C0 1.32 0 2.64 0 4 C-1.65 4.33 -3.3 4.66 -5 5 C-4.67 4.34 -4.34 3.68 -4 3 C-5.32 2.34 -6.64 1.68 -8 1 C-5.07175348 0.02391783 -3.04386724 -0.08226668 0 0 Z " fill="#1D1D1D" transform="translate(294,148)"/>
<path d="M0 0 C0.66 0 1.32 0 2 0 C2.69906942 1.59915881 3.38389468 3.20455045 4.0625 4.8125 C4.63677734 6.15248047 4.63677734 6.15248047 5.22265625 7.51953125 C6 10 6 10 5 13 C4.16209211 11.21046815 3.32980604 9.41830305 2.5 7.625 C1.80390625 6.12839844 1.80390625 6.12839844 1.09375 4.6015625 C0 2 0 2 0 0 Z " fill="#37454E" transform="translate(313,330)"/>
<path d="M0 0 C1.9375 0.125 1.9375 0.125 4 1 C5.25290395 3.44316271 6 5.24525395 6 8 C4.0625 7.25 4.0625 7.25 2 6 C1.375 3.9375 1.375 3.9375 1 2 C0.34 1.67 -0.32 1.34 -1 1 C-0.67 0.67 -0.34 0.34 0 0 Z " fill="#060606" transform="translate(348,292)"/>
<path d="M0 0 C0.66 0.33 1.32 0.66 2 1 C2 1.66 2 2.32 2 3 C3.32 3.66 4.64 4.32 6 5 C4 6 4 6 0.9375 5.25 C-0.031875 4.8375 -1.00125 4.425 -2 4 C-2.33 3.01 -2.66 2.02 -3 1 C-2.01 0.67 -1.02 0.34 0 0 Z " fill="#060606" transform="translate(177,294)"/>
<path d="M0 0 C2.97 0.495 2.97 0.495 6 1 C6.33 2.32 6.66 3.64 7 5 C4.625 4.75 4.625 4.75 2 4 C0.6875 1.9375 0.6875 1.9375 0 0 Z " fill="#1C1C1C" transform="translate(339,291)"/>
<path d="M0 0 C1.98 0 3.96 0 6 0 C6.33 0.99 6.66 1.98 7 3 C4.36 3 1.72 3 -1 3 C-0.67 2.01 -0.34 1.02 0 0 Z " fill="#272727" transform="translate(319,278)"/>
<path d="M0 0 C1.32 0.33 2.64 0.66 4 1 C4 2.65 4 4.3 4 6 C2.68 5.67 1.36 5.34 0 5 C0 3.35 0 1.7 0 0 Z " fill="#201F21" transform="translate(266,265)"/>
<path d="M0 0 C0.99 0 1.98 0 3 0 C3 2.31 3 4.62 3 7 C2.01 7 1.02 7 0 7 C0 4.69 0 2.38 0 0 Z " fill="#4D4D4D" transform="translate(252,205)"/>
<path d="M0 0 C0 0.66 0 1.32 0 2 C-2.76264289 2.59732819 -5.16032769 3 -8 3 C-8 2.34 -8 1.68 -8 1 C-4.93251126 -0.86240388 -3.40254489 -1.2151946 0 0 Z " fill="#1E263E" transform="translate(241,359)"/>
<path d="M0 0 C2.475 0.495 2.475 0.495 5 1 C4.67 2.32 4.34 3.64 4 5 C2.68 4.67 1.36 4.34 0 4 C0 2.68 0 1.36 0 0 Z " fill="#222F36" transform="translate(164,327)"/>
<path d="M0 0 C2.475 0.99 2.475 0.99 5 2 C5 3.32 5 4.64 5 6 C3.35 5.67 1.7 5.34 0 5 C0 3.35 0 1.7 0 0 Z " fill="#0D0D0C" transform="translate(226,269)"/>
<path d="M0 0 C1.65 0 3.3 0 5 0 C5 0.99 5 1.98 5 3 C2.69 3.33 0.38 3.66 -2 4 C-1.34 2.68 -0.68 1.36 0 0 Z " fill="#0F0F0F" transform="translate(248,219)"/>
<path d="M0 0 C0.99 0 1.98 0 3 0 C3 2.31 3 4.62 3 7 C2.01 6.67 1.02 6.34 0 6 C0 4.02 0 2.04 0 0 Z " fill="#3B3B3B" transform="translate(251,185)"/>
<path d="M0 0 C2.6855594 2.6855594 3.06049974 5.37621328 4 9 C3.34 9 2.68 9 2 9 C0.02 5.535 0.02 5.535 -2 2 C-1.34 1.34 -0.68 0.68 0 0 Z " fill="#000000" transform="translate(235,128)"/>
<path d="M0 0 C0.33 0.66 0.66 1.32 1 2 C-5.0546875 2.1953125 -5.0546875 2.1953125 -7 2 C-7.66 1.34 -8.32 0.68 -9 0 C-5.68955197 -1.10348268 -3.34493684 -0.99444068 0 0 Z " fill="#3B4D5D" transform="translate(148,364)"/>
<path d="M0 0 C1.9375 0.3125 1.9375 0.3125 4 1 C4.33 1.99 4.66 2.98 5 4 C3.68 4.33 2.36 4.66 1 5 C0.67 3.35 0.34 1.7 0 0 Z " fill="#405060" transform="translate(243,332)"/>
<path d="M0 0 C2.64 0 5.28 0 8 0 C8 0.66 8 1.32 8 2 C6.25 3.125 6.25 3.125 4 4 C1.75 3.125 1.75 3.125 0 2 C0 1.34 0 0.68 0 0 Z " fill="#272526" transform="translate(265,294)"/>
<path d="M0 0 C-0.33 0.99 -0.66 1.98 -1 3 C-3.0625 3.6875 -3.0625 3.6875 -5 4 C-5.66 3.01 -6.32 2.02 -7 1 C-3.375 -1.125 -3.375 -1.125 0 0 Z " fill="#292728" transform="translate(302,294)"/>
<path d="M0 0 C1.32 0 2.64 0 4 0 C4.33 1.32 4.66 2.64 5 4 C3.1875 4.625 3.1875 4.625 1 5 C0.01 4.34 -0.98 3.68 -2 3 C-1.34 3 -0.68 3 0 3 C0 2.01 0 1.02 0 0 Z " fill="#1E1C1D" transform="translate(248,289)"/>
<path d="M0 0 C2.97 0.33 5.94 0.66 9 1 C5.23312136 2.88343932 3.97041037 3.22057835 0 3 C0 2.01 0 1.02 0 0 Z " fill="#0A0607" transform="translate(295,290)"/>
<path d="M0 0 C0.66 0 1.32 0 2 0 C2.33 2.97 2.66 5.94 3 9 C2.34 7.68 1.68 6.36 1 5 C0.34 4.67 -0.32 4.34 -1 4 C-0.67 2.68 -0.34 1.36 0 0 Z " fill="#252125" transform="translate(249,268)"/>
<path d="M0 0 C0.66 0.33 1.32 0.66 2 1 C1.67 2.65 1.34 4.3 1 6 C1.66 6 2.32 6 3 6 C3 6.99 3 7.98 3 9 C2.01 9.33 1.02 9.66 0 10 C-1.125 3.375 -1.125 3.375 0 0 Z " fill="#000000" transform="translate(238,152)"/>
<path d="M0 0 C3 1 3 1 4 3 C4.99 3 5.98 3 7 3 C7 4.32 7 5.64 7 7 C3.17053157 5.54744301 1.87949705 3.57104439 0 0 Z " fill="#203039" transform="translate(124,358)"/>
<path d="M0 0 C0.33 0.66 0.66 1.32 1 2 C0.0625 4.125 0.0625 4.125 -1 6 C-2.32 5.67 -3.64 5.34 -5 5 C-3.35 3.35 -1.7 1.7 0 0 Z " fill="#1A1A1A" transform="translate(161,289)"/>
<path d="M0 0 C-2 3 -2 3 -4 3.8125 C-4.66 3.874375 -5.32 3.93625 -6 4 C-6.66 3.34 -7.32 2.68 -8 2 C-4.77208445 -0.1519437 -3.71599191 -0.20086443 0 0 Z " fill="#373737" transform="translate(291,150)"/>
<path d="M0 0 C2.31 0.66 4.62 1.32 7 2 C6.67 3.32 6.34 4.64 6 6 C2.535 4.02 2.535 4.02 -1 2 C-0.67 1.34 -0.34 0.68 0 0 Z " fill="#0C0C0C" transform="translate(279,292)"/>
<path d="M0 0 C0 1.65 0 3.3 0 5 C0.66 5.33 1.32 5.66 2 6 C0.35 5.67 -1.3 5.34 -3 5 C-3 3.68 -3 2.36 -3 1 C-1 0 -1 0 0 0 Z " fill="#1F1F1F" transform="translate(232,174)"/>
<path d="M0 0 C-3.06117568 2.62386487 -3.73173127 3 -8 3 C-8 2.34 -8 1.68 -8 1 C-4.93251126 -0.86240388 -3.40254489 -1.2151946 0 0 Z " fill="#000000" transform="translate(282,150)"/>
<path d="M0 0 C4 4.75 4 4.75 4 7 C3.01 7 2.02 7 1 7 C0.34 5.02 -0.32 3.04 -1 1 C-0.67 0.67 -0.34 0.34 0 0 Z " fill="#000000" transform="translate(228,134)"/>
<path d="M0 0 C2.31 0 4.62 0 7 0 C7 0.33 7 0.66 7 1 C4.69 1 2.38 1 0 1 C0 0.67 0 0.34 0 0 Z " fill="#000000" transform="translate(174,275)"/>
<path d="M0 0 C2.31 0 4.62 0 7 0 C7 0.33 7 0.66 7 1 C4.69 1 2.38 1 0 1 C0 0.67 0 0.34 0 0 Z " fill="#000000" transform="translate(210,169)"/>
<path d="M0 0 C1.32 0.33 2.64 0.66 4 1 C3.01 1.495 3.01 1.495 2 2 C1.34 1.34 0.68 0.68 0 0 Z " fill="#000000" transform="translate(216,128)"/>
<path d="M0 0 C0.99 0.33 1.98 0.66 3 1 C2.01 1 1.02 1 0 1 C0 0.67 0 0.34 0 0 Z " fill="#000000" transform="translate(274,182)"/>
<path d="M0 0 C0.99 0.495 0.99 0.495 2 1 C1.67 1.66 1.34 2.32 1 3 C0.67 2.01 0.34 1.02 0 0 Z " fill="#000000" transform="translate(220,120)"/>
<path d="" fill="#000000" transform="translate(0,0)"/>
<path d="" fill="#000000" transform="translate(0,0)"/>
<path d="M0 0 C2 1 2 1 2 1 Z " fill="#000000" transform="translate(216,297)"/>
<path d="M0 0 C2 1 2 1 2 1 Z " fill="#000000" transform="translate(278,295)"/>
<path d="M0 0 C2 1 2 1 2 1 Z " fill="#000000" transform="translate(249,295)"/>
<path d="M0 0 C2 1 2 1 2 1 Z " fill="#000000" transform="translate(191,295)"/>
<path d="M0 0 C2 1 2 1 2 1 Z " fill="#000000" transform="translate(201,186)"/>
<path d="M0 0 C2 1 2 1 2 1 Z " fill="#000000" transform="translate(204,184)"/>
<path d="M0 0 C2 1 2 1 2 1 Z " fill="#000000" transform="translate(206,183)"/>
<path d="M0 0 C2 1 2 1 2 1 Z " fill="#000000" transform="translate(272,181)"/>
<path d="M0 0 C2 1 2 1 2 1 Z " fill="#000000" transform="translate(205,178)"/>
<path d="" fill="#000000" transform="translate(0,0)"/>
<path d="" fill="#000000" transform="translate(0,0)"/>
<path d="M0 0 C2 1 2 1 2 1 Z " fill="#000000" transform="translate(205,134)"/>
<path d="M0 0 C2 1 2 1 2 1 Z " fill="#000000" transform="translate(203,133)"/>
<path d="" fill="#000000" transform="translate(0,0)"/>
<path d="" fill="#000000" transform="translate(0,0)"/>
<path d="" fill="#000000" transform="translate(0,0)"/>
<path d="" fill="#000000" transform="translate(0,0)"/>
<path d="" fill="#000000" transform="translate(0,0)"/>
<path d="" fill="#000000" transform="translate(0,0)"/>
<path d="" fill="#000000" transform="translate(0,0)"/>
<path d="" fill="#000000" transform="translate(0,0)"/>
<path d="" fill="#000000" transform="translate(0,0)"/>
<path d="" fill="#000000" transform="translate(0,0)"/>
<path d="" fill="#000000" transform="translate(0,0)"/>
<path d="" fill="#000000" transform="translate(0,0)"/>
<path d="" fill="#000000" transform="translate(0,0)"/>
<path d="" fill="#000000" transform="translate(0,0)"/>
<path d="" fill="#000000" transform="translate(0,0)"/>
<path d="" fill="#000000" transform="translate(0,0)"/>
<path d="" fill="#000000" transform="translate(0,0)"/>
<path d="" fill="#000000" transform="translate(0,0)"/>
<path d="" fill="#000000" transform="translate(0,0)"/>
<path d="" fill="#000000" transform="translate(0,0)"/>
<path d="" fill="#000000" transform="translate(0,0)"/>
<path d="" fill="#000000" transform="translate(0,0)"/>
<path d="" fill="#000000" transform="translate(0,0)"/>
<path d="" fill="#000000" transform="translate(0,0)"/>
<path d="" fill="#000000" transform="translate(0,0)"/>
<path d="" fill="#000000" transform="translate(0,0)"/>
<path d="" fill="#000000" transform="translate(0,0)"/>
<path d="" fill="#000000" transform="translate(0,0)"/>
<path d="" fill="#000000" transform="translate(0,0)"/>
<path d="" fill="#000000" transform="translate(0,0)"/>
<path d="" fill="#000000" transform="translate(0,0)"/>
<path d="" fill="#000000" transform="translate(0,0)"/>
<path d="" fill="#000000" transform="translate(0,0)"/>
<path d="" fill="#000000" transform="translate(0,0)"/>
<path d="" fill="#000000" transform="translate(0,0)"/>
<path d="" fill="#000000" transform="translate(0,0)"/>
<path d="" fill="#000000" transform="translate(0,0)"/>
<path d="" fill="#000000" transform="translate(0,0)"/>
<path d="" fill="#000000" transform="translate(0,0)"/>
<path d="" fill="#000000" transform="translate(0,0)"/>
</svg>
