<?xml version="1.0" encoding="UTF-8"?>
<svg version="1.1" xmlns="http://www.w3.org/2000/svg" width="500" height="500">
    <path d="M0 0 C165 0 330 0 500 0 C500 165 500 330 500 500 C335 500 170 500 0 500 C0 335 0 170 0 0 Z " fill="#FEFEFE"
        transform="translate(0,0)" />
    <path
        d="M0 0 C0.9796875 -0.01417969 1.959375 -0.02835938 2.96875 -0.04296875 C5.5 0.1875 5.5 0.1875 7.5 2.1875 C7.625 5.8125 7.625 5.8125 7.5 9.1875 C8.5725 9.435 9.645 9.6825 10.75 9.9375 C14.56462534 11.20904178 16.22812656 11.91600225 18.5 15.1875 C19 18.1875 19 18.1875 18.5 21.1875 C16.625 23.5625 16.625 23.5625 14.5 25.1875 C13.84 25.1875 13.18 25.1875 12.5 25.1875 C12.72743896 25.99743408 12.72743896 25.99743408 12.95947266 26.82373047 C13.58342438 29.5523215 13.87388919 32.22173638 14.1484375 35.0078125 C14.26525879 36.17022461 14.38208008 37.33263672 14.50244141 38.53027344 C14.62538574 39.7784082 14.74833008 41.02654297 14.875 42.3125 C15.13921791 44.945466 15.40432224 47.57831135 15.671875 50.2109375 C15.73964142 50.87830933 15.80740784 51.54568115 15.87722778 52.23327637 C16.55185626 58.81048084 17.33717591 65.37311329 18.125 71.9375 C19.13114857 80.38686851 19.84775579 88.77602851 20.25 97.2734375 C20.6043676 102.82150525 21.33433943 108.29207922 22.09765625 113.796875 C22.43544279 116.64346448 22.58187013 119.32750345 22.5 122.1875 C23.3971875 122.5896875 23.3971875 122.5896875 24.3125 123 C26.47224808 124.17243467 27.85790256 125.38119282 29.5 127.1875 C32.36103145 125.97706362 33.8427841 124.83635531 36.0625 122.5625 C39.66052767 119.52011711 43.14260922 119.36896066 47.73828125 119.55078125 C52.51977243 120.65316182 55.2059116 123.74480611 58.5 127.1875 C59.16 127.5175 59.82 127.8475 60.5 128.1875 C61.263125 127.23875 62.02625 126.29 62.8125 125.3125 C65.15357308 122.40197672 67.11851159 120.37401178 70.98828125 119.8515625 C77.06167516 119.76755982 80.82044498 119.93335907 85.5 124.1875 C87.32448012 126.1882782 89.09468479 128.22538931 90.84765625 130.2890625 C94.96411246 135.01860794 98.54805146 136.78704152 104.5 138.1875 C104.5 138.8475 104.5 139.5075 104.5 140.1875 C103.10307061 140.09924084 101.70739548 139.99105166 100.3125 139.875 C99.14654297 139.78798828 99.14654297 139.78798828 97.95703125 139.69921875 C92.48933561 138.56047769 89.66712034 135.48466642 86.4375 131.125 C83.44350457 127.08755269 81.39581564 124.6330101 76.31640625 123.8515625 C72.31712634 123.78225089 70.07259379 123.84638029 66.5625 125.9375 C64.68919134 127.98110945 63.50783795 129.62209432 62.5 132.1875 C66.52167317 135.15587781 69.50088076 136.71139341 74.5 137.1875 C74.5 138.1775 74.5 139.1675 74.5 140.1875 C68.50708997 139.77419586 65.24963401 138.86846635 60.5 135.1875 C59.695625 135.5896875 59.695625 135.5896875 58.875 136 C58.09125 136.391875 57.3075 136.78375 56.5 137.1875 C55.654375 137.72375 54.80875 138.26 53.9375 138.8125 C49.07061848 140.75925261 44.67369461 141.0264775 39.5 140.1875 C37.2584969 139.01099923 35.32860702 137.6663664 33.29296875 136.16796875 C31.312616 134.83662744 31.312616 134.83662744 28 135.875 C27.175 136.308125 26.35 136.74125 25.5 137.1875 C25.17 136.1975 24.84 135.2075 24.5 134.1875 C25.49 133.5275 26.48 132.8675 27.5 132.1875 C25.98626976 128.33436848 24.01632085 126.35714478 20.5 124.1875 C17.50627562 123.57971367 14.54917893 123.32036183 11.5 123.1875 C11.5 122.5275 11.5 121.8675 11.5 121.1875 C14.14 121.1875 16.78 121.1875 19.5 121.1875 C19.30664062 119.96160156 19.11328125 118.73570312 18.9140625 117.47265625 C17.44337715 107.85471102 16.26199463 98.27539767 15.5546875 88.5703125 C14.62607311 76.45423331 13.52329999 64.36079371 12.32275391 52.26879883 C11.99364871 48.93567517 11.67461545 45.60166835 11.35546875 42.26757812 C11.14384146 40.12233534 10.93162515 37.97715057 10.71875 35.83203125 C10.57959167 34.35558891 10.57959167 34.35558891 10.43762207 32.84931946 C9.7801469 24.29510817 9.7801469 24.29510817 5.5 17.1875 C2.9362107 16.82973834 2.9362107 16.82973834 0.0625 16.875 C-0.90558594 16.85824219 -1.87367188 16.84148437 -2.87109375 16.82421875 C-5.83747041 17.2341341 -6.69386292 17.86707304 -8.5 20.1875 C-7.015 20.6825 -7.015 20.6825 -5.5 21.1875 C-5.5 21.8475 -5.5 22.5075 -5.5 23.1875 C-6.82 23.1875 -8.14 23.1875 -9.5 23.1875 C-9.5 24.5075 -9.5 25.8275 -9.5 27.1875 C-8.015 27.6825 -8.015 27.6825 -6.5 28.1875 C-7.82 28.1875 -9.14 28.1875 -10.5 28.1875 C-10.5 29.8375 -10.5 31.4875 -10.5 33.1875 C-8.52 33.6825 -8.52 33.6825 -6.5 34.1875 C-8.15 34.1875 -9.8 34.1875 -11.5 34.1875 C-11.5 35.8375 -11.5 37.4875 -11.5 39.1875 C-9.85 39.1875 -8.2 39.1875 -6.5 39.1875 C-6.5 39.5175 -6.5 39.8475 -6.5 40.1875 C-8.15 40.1875 -9.8 40.1875 -11.5 40.1875 C-11.5 41.8375 -11.5 43.4875 -11.5 45.1875 C-9.85 45.1875 -8.2 45.1875 -6.5 45.1875 C-6.5 45.5175 -6.5 45.8475 -6.5 46.1875 C-8.48 46.1875 -10.46 46.1875 -12.5 46.1875 C-12.5 47.8375 -12.5 49.4875 -12.5 51.1875 C-10.52 51.1875 -8.54 51.1875 -6.5 51.1875 C-6.5 51.5175 -6.5 51.8475 -6.5 52.1875 C-8.48 52.1875 -10.46 52.1875 -12.5 52.1875 C-12.5 53.8375 -12.5 55.4875 -12.5 57.1875 C-10.52 57.1875 -8.54 57.1875 -6.5 57.1875 C-6.5 57.5175 -6.5 57.8475 -6.5 58.1875 C-8.81 58.1875 -11.12 58.1875 -13.5 58.1875 C-13.5 59.8375 -13.5 61.4875 -13.5 63.1875 C-11.19 63.1875 -8.88 63.1875 -6.5 63.1875 C-6.5 63.5175 -6.5 63.8475 -6.5 64.1875 C-8.81 64.1875 -11.12 64.1875 -13.5 64.1875 C-13.5 65.5075 -13.5 66.8275 -13.5 68.1875 C-11.19 68.1875 -8.88 68.1875 -6.5 68.1875 C-6.5 68.8475 -6.5 69.5075 -6.5 70.1875 C-9.14 70.1875 -11.78 70.1875 -14.5 70.1875 C-14.5 71.5075 -14.5 72.8275 -14.5 74.1875 C-12.19 74.1875 -9.88 74.1875 -7.5 74.1875 C-7.17 74.8475 -6.84 75.5075 -6.5 76.1875 C-9.47 76.1875 -12.44 76.1875 -15.5 76.1875 C-15.5 77.5075 -15.5 78.8275 -15.5 80.1875 C-12.53 80.1875 -9.56 80.1875 -6.5 80.1875 C-6.5 80.8475 -6.5 81.5075 -6.5 82.1875 C-9.47 82.1875 -12.44 82.1875 -15.5 82.1875 C-15.5 83.5075 -15.5 84.8275 -15.5 86.1875 C-12.86 86.1875 -10.22 86.1875 -7.5 86.1875 C-7.5 86.8475 -7.5 87.5075 -7.5 88.1875 C-10.47 88.1875 -13.44 88.1875 -16.5 88.1875 C-16.5 89.5075 -16.5 90.8275 -16.5 92.1875 C-13.53 92.1875 -10.56 92.1875 -7.5 92.1875 C-7.5 92.8475 -7.5 93.5075 -7.5 94.1875 C-10.8 94.1875 -14.1 94.1875 -17.5 94.1875 C-17.5 95.5075 -17.5 96.8275 -17.5 98.1875 C-14.2 98.1875 -10.9 98.1875 -7.5 98.1875 C-7.5 98.8475 -7.5 99.5075 -7.5 100.1875 C-10.8 100.1875 -14.1 100.1875 -17.5 100.1875 C-17.5 101.5075 -17.5 102.8275 -17.5 104.1875 C-14.2 104.1875 -10.9 104.1875 -7.5 104.1875 C-7.5 104.5175 -7.5 104.8475 -7.5 105.1875 C-11.13 105.1875 -14.76 105.1875 -18.5 105.1875 C-18.5 106.8375 -18.5 108.4875 -18.5 110.1875 C-14.87 110.1875 -11.24 110.1875 -7.5 110.1875 C-7.5 110.8475 -7.5 111.5075 -7.5 112.1875 C-11.46 112.1875 -15.42 112.1875 -19.5 112.1875 C-19.5 113.5075 -19.5 114.8275 -19.5 116.1875 C-15.54 116.1875 -11.58 116.1875 -7.5 116.1875 C-7.5 116.8475 -7.5 117.5075 -7.5 118.1875 C-11.46 118.1875 -15.42 118.1875 -19.5 118.1875 C-19.17 118.8475 -18.84 119.5075 -18.5 120.1875 C-17.72914063 120.17589844 -16.95828125 120.16429687 -16.1640625 120.15234375 C-15.16117187 120.14332031 -14.15828125 120.13429688 -13.125 120.125 C-12.12726563 120.11339844 -11.12953125 120.10179687 -10.1015625 120.08984375 C-7.5 120.1875 -7.5 120.1875 -5.5 121.1875 C-5.42652344 119.55941406 -5.42652344 119.55941406 -5.3515625 117.8984375 C-5.27648014 116.45310216 -5.20093472 115.00779081 -5.125 113.5625 C-5.0940625 112.84964844 -5.063125 112.13679688 -5.03125 111.40234375 C-4.78979845 107.01597392 -4.10657269 103.3280166 -2.5 99.1875 C-2.17 99.1875 -1.84 99.1875 -1.5 99.1875 C-1.40458728 105.76037641 -1.44580818 112.15648762 -2.25 118.6875 C-2.65700474 122.79010774 -2.74562813 123.77547862 -0.5625 127.4375 C0.118125 128.015 0.79875 128.5925 1.5 129.1875 C0.51 129.5175 -0.48 129.8475 -1.5 130.1875 C-2.97265625 128.97265625 -2.97265625 128.97265625 -4.5625 127.25 C-7.52879311 124.56651026 -9.55178736 123.64890805 -13.5625 123.4375 C-17.43385089 123.65027654 -19.3750619 124.457065 -22.125 127.1875 C-23.300625 128.6725 -23.300625 128.6725 -24.5 130.1875 C-23.9818964 132.1523239 -23.9818964 132.1523239 -22.5 134.1875 C-18.57873196 136.18512711 -14.85082321 137.52828436 -10.5 138.1875 C-10.5 138.5175 -10.5 138.8475 -10.5 139.1875 C-17.38581544 139.67739991 -20.72730037 139.21496486 -26.5 135.1875 C-29.499455 135.86237738 -31.51736928 137.19825241 -34.125 138.8125 C-38.94327403 140.77550053 -43.36780078 141.03913131 -48.5 140.1875 C-50.58984375 138.9921875 -50.58984375 138.9921875 -52.375 137.5625 C-53.40625 136.77875 -54.4375 135.995 -55.5 135.1875 C-58.16009292 135.55079803 -58.16009292 135.55079803 -60.5 137.1875 C-64.79162538 139.56159064 -67.56934875 140.53968938 -72.5 140.1875 C-72.17 139.1975 -71.84 138.2075 -71.5 137.1875 C-69.7578125 136.52734375 -69.7578125 136.52734375 -67.625 136.125 C-64.51466536 135.5224444 -63.26121234 135.02830823 -60.5 133.1875 C-61.0431366 129.38554378 -62.65665563 127.68619657 -65.5 125.1875 C-68.99698996 123.43900502 -72.6838413 123.63124636 -76.5 124.1875 C-80.45347297 126.7177227 -83.02204714 129.7685743 -86.0625 133.3125 C-88.64379201 136.30612093 -90.75521793 138.68958717 -94.5 140.1875 C-98.3125 140.375 -98.3125 140.375 -101.5 140.1875 C-101.17 139.1975 -100.84 138.2075 -100.5 137.1875 C-99.22125 136.878125 -97.9425 136.56875 -96.625 136.25 C-90.33787949 134.41625652 -86.9681784 129.72134404 -82.8828125 124.90234375 C-80.42079727 122.09726083 -78.79997805 120.38415273 -75.046875 119.81640625 C-69.21148102 119.67785639 -65.49190899 120.00923577 -60.9375 123.80078125 C-59.43988072 125.2454955 -57.96050133 126.70526502 -56.5 128.1875 C-55.9225 127.424375 -55.345 126.66125 -54.75 125.875 C-52.04895457 122.6487513 -50.15945167 120.46574643 -45.9140625 119.75390625 C-38.7059978 119.74381092 -34.98625908 120.93365819 -29.625 125.9375 C-29.25375 126.35 -28.8825 126.7625 -28.5 127.1875 C-25.8094472 125.96742056 -25.8094472 125.96742056 -23.5 124.1875 C-19.40669837 102.04645939 -18.44155249 79.05828526 -16.50219727 56.63354492 C-15.51146334 45.18597272 -15.51146334 45.18597272 -14.93359375 39.5390625 C-14.13495303 32.36552746 -14.13495303 32.36552746 -14.5 25.1875 C-16.41666921 22.93684898 -16.41666921 22.93684898 -18.5 21.1875 C-19.0625 18.25 -19.0625 18.25 -18.5 15.1875 C-15.9213422 11.77457056 -14.36470646 10.39959781 -10.1875 9.375 C-8.8571875 9.2821875 -8.8571875 9.2821875 -7.5 9.1875 C-7.5 6.5475 -7.5 3.9075 -7.5 1.1875 C-4.89820337 -0.11339831 -2.9030812 0.01909922 0 0 Z "
        fill="#191919" transform="translate(248.5,157.8125)" />
    <path
        d="M0 0 C0.98871094 -0.01417969 1.97742188 -0.02835938 2.99609375 -0.04296875 C5.5625 0.1875 5.5625 0.1875 7.5625 2.1875 C7.6875 5.8125 7.6875 5.8125 7.5625 9.1875 C9.17125 9.55875 9.17125 9.55875 10.8125 9.9375 C14.62712534 11.20904178 16.29062656 11.91600225 18.5625 15.1875 C19.0625 18.1875 19.0625 18.1875 18.5625 21.1875 C16.6875 23.5625 16.6875 23.5625 14.5625 25.1875 C13.9025 25.1875 13.2425 25.1875 12.5625 25.1875 C12.78993896 25.99743408 12.78993896 25.99743408 13.02197266 26.82373047 C13.64592438 29.5523215 13.93638919 32.22173638 14.2109375 35.0078125 C14.32775879 36.17022461 14.44458008 37.33263672 14.56494141 38.53027344 C14.68788574 39.7784082 14.81083008 41.02654297 14.9375 42.3125 C15.20171791 44.945466 15.46682224 47.57831135 15.734375 50.2109375 C15.80214142 50.87830933 15.86990784 51.54568115 15.93972778 52.23327637 C16.61435626 58.81048084 17.39967591 65.37311329 18.1875 71.9375 C19.19364857 80.38686851 19.91025579 88.77602851 20.3125 97.2734375 C20.6668676 102.82150525 21.39683943 108.29207922 22.16015625 113.796875 C22.49794279 116.64346448 22.64437013 119.32750345 22.5625 122.1875 C23.160625 122.455625 23.75875 122.72375 24.375 123 C26.53474808 124.17243467 27.92040256 125.38119282 29.5625 127.1875 C32.42353145 125.97706362 33.9052841 124.83635531 36.125 122.5625 C39.72302767 119.52011711 43.20510922 119.36896066 47.80078125 119.55078125 C52.58227243 120.65316182 55.2684116 123.74480611 58.5625 127.1875 C59.2225 127.5175 59.8825 127.8475 60.5625 128.1875 C61.325625 127.23875 62.08875 126.29 62.875 125.3125 C65.21607308 122.40197672 67.18101159 120.37401178 71.05078125 119.8515625 C77.12417516 119.76755982 80.88294498 119.93335907 85.5625 124.1875 C87.38698012 126.1882782 89.15718479 128.22538931 90.91015625 130.2890625 C95.02661246 135.01860794 98.61055146 136.78704152 104.5625 138.1875 C104.5625 138.8475 104.5625 139.5075 104.5625 140.1875 C103.16557061 140.09924084 101.76989548 139.99105166 100.375 139.875 C99.59769531 139.81699219 98.82039063 139.75898438 98.01953125 139.69921875 C92.55183561 138.56047769 89.72962034 135.48466642 86.5 131.125 C83.50600457 127.08755269 81.45831564 124.6330101 76.37890625 123.8515625 C72.37962634 123.78225089 70.13509379 123.84638029 66.625 125.9375 C64.75169134 127.98110945 63.57033795 129.62209432 62.5625 132.1875 C66.58417317 135.15587781 69.56338076 136.71139341 74.5625 137.1875 C74.5625 138.1775 74.5625 139.1675 74.5625 140.1875 C68.56958997 139.77419586 65.31213401 138.86846635 60.5625 135.1875 C59.758125 135.5896875 59.758125 135.5896875 58.9375 136 C58.15375 136.391875 57.37 136.78375 56.5625 137.1875 C55.2940625 137.991875 55.2940625 137.991875 54 138.8125 C49.13311848 140.75925261 44.73619461 141.0264775 39.5625 140.1875 C37.3209969 139.01099923 35.39110702 137.6663664 33.35546875 136.16796875 C31.375116 134.83662744 31.375116 134.83662744 28.0625 135.875 C27.2375 136.308125 26.4125 136.74125 25.5625 137.1875 C25.2325 136.1975 24.9025 135.2075 24.5625 134.1875 C25.5525 133.5275 26.5425 132.8675 27.5625 132.1875 C26.04876976 128.33436848 24.07882085 126.35714478 20.5625 124.1875 C17.56877562 123.57971367 14.61167893 123.32036183 11.5625 123.1875 C11.5625 122.5275 11.5625 121.8675 11.5625 121.1875 C14.2025 121.1875 16.8425 121.1875 19.5625 121.1875 C19.36914062 119.96160156 19.17578125 118.73570312 18.9765625 117.47265625 C17.50587715 107.85471102 16.32449463 98.27539767 15.6171875 88.5703125 C14.68857311 76.45423331 13.58579999 64.36079371 12.38525391 52.26879883 C12.05614871 48.93567517 11.73711545 45.60166835 11.41796875 42.26757812 C11.20634146 40.12233534 10.99412515 37.97715057 10.78125 35.83203125 C10.68847778 34.84773636 10.59570557 33.86344147 10.50012207 32.84931946 C9.8426469 24.29510817 9.8426469 24.29510817 5.5625 17.1875 C0.4063773 16.47344758 -4.05209867 16.3562592 -8.5625 19.0625 C-10.47284196 21.04448834 -10.47284196 21.04448834 -11.4375 23.1875 C-12.0975 22.8575 -12.7575 22.5275 -13.4375 22.1875 C-11.31718125 18.17005394 -9.43253554 15.43470749 -5.4375 13.1875 C-1.00094523 12.45597647 3.4528102 12.09513097 7.5390625 14.2109375 C10.0524804 16.25386338 11.77046298 18.49944448 13.5625 21.1875 C14.2225 21.1875 14.8825 21.1875 15.5625 21.1875 C15.16245382 18.22771368 15.16245382 18.22771368 13.5625 15.1875 C6.97490519 11.58296699 -0.04624432 11.51424758 -7.4375 11.1875 C-7.1075 10.5275 -6.7775 9.8675 -6.4375 9.1875 C-2.4775 9.1875 1.4825 9.1875 5.5625 9.1875 C5.5625 7.2075 5.5625 5.2275 5.5625 3.1875 C1.9325 3.1875 -1.6975 3.1875 -5.4375 3.1875 C-5.4375 4.8375 -5.4375 6.4875 -5.4375 8.1875 C-5.7675 8.1875 -6.0975 8.1875 -6.4375 8.1875 C-6.47991723 5.85455225 -6.47842937 3.52047433 -6.4375 1.1875 C-4.69900372 -0.55099628 -2.3588363 0.01533704 0 0 Z "
        fill="#161616" transform="translate(248.4375,157.8125)" />
    
    <path
        d="M0 0 C6.72 0.72 6.72 0.72 8 2 C9.31690624 9.62267625 10.31603123 17.25723488 10 25 C10.66 24.67 11.32 24.34 12 24 C13.54023996 23.93049459 15.08334988 23.91547643 16.625 23.9375 C17.85089844 23.95103516 17.85089844 23.95103516 19.1015625 23.96484375 C19.72804688 23.97644531 20.35453125 23.98804688 21 24 C21 24.33 21 24.66 21 25 C18.36 25 15.72 25 13 25 C13 25.66 13 26.32 13 27 C13.556875 26.91878906 14.11375 26.83757812 14.6875 26.75390625 C18.55600216 26.43370928 21.05664853 26.38194214 24.37890625 28.55859375 C26.34223246 30.30416285 28.20490915 32.08262775 30 34 C29.51660156 34.92425781 29.51660156 34.92425781 29.0234375 35.8671875 C27.9129309 37.93596546 27.9129309 37.93596546 27.625 40.125 C27 42 27 42 25.2890625 43.08984375 C20.97516437 44.80509676 16.54825496 44.66144982 12 44 C9.72579022 42.83226602 7.77470278 41.48271297 5.703125 39.9921875 C3.9378822 38.71434448 3.9378822 38.71434448 1.375 39.5 C0.59125 39.995 -0.1925 40.49 -1 41 C-6.67445349 44.51275692 -11.52896258 44.31088614 -18 44 C-16.68 43.34 -15.36 42.68 -14 42 C-14.55429688 41.75765625 -15.10859375 41.5153125 -15.6796875 41.265625 C-16.40414062 40.93046875 -17.12859375 40.5953125 -17.875 40.25 C-18.59429687 39.92515625 -19.31359375 39.6003125 -20.0546875 39.265625 C-22.3370674 37.78070314 -23.00375898 36.49584592 -24 34 C-21.33801711 30.54471095 -18.86898678 27.51650913 -14.5546875 26.32421875 C-9.65075993 26.06177614 -6.72892513 26.74495911 -3 30 C-2.46375 30.556875 -1.9275 31.11375 -1.375 31.6875 C-0.07569203 33.23015858 -0.07569203 33.23015858 2 33 C0.9790625 32.13375 0.9790625 32.13375 -0.0625 31.25 C-2.64899319 26.91136626 -1.96300252 24.17594481 -1.36328125 19.28125 C-0.79938105 14.18795784 -0.92793032 9.11694695 -1 4 C-1 1 -1 1 0 0 Z "
        fill="#202020" transform="translate(247,254)" />
    <path
        d="M0 0 C0.66 0.66 1.32 1.32 2 2 C2.66 1.67 3.32 1.34 4 1 C10.53333333 0.76666667 10.53333333 0.76666667 13 2 C13 3.98 13 5.96 13 8 C7.06 8.495 7.06 8.495 1 9 C2.64548828 9.16435547 2.64548828 9.16435547 4.32421875 9.33203125 C5.77871516 9.49155666 7.23313863 9.65174813 8.6875 9.8125 C9.7693457 9.91788086 9.7693457 9.91788086 10.87304688 10.02539062 C15.63108072 10.56854517 19.47219606 11.47219606 23 15 C23.04063832 16.66617115 23.042721 18.33388095 23 20 C22.01 20.33 21.02 20.66 20 21 C19.401875 20.05125 18.80375 19.1025 18.1875 18.125 C16.18437474 14.86035803 16.18437474 14.86035803 13 13 C8.59885285 12.34362798 3.96357747 11.96221571 -0.0546875 14.0859375 C-1.89397733 15.54205737 -1.89397733 15.54205737 -4 18 C-4 18.33 -4 18.66 -4 19 C-2.02 19.33 -0.04 19.66 2 20 C2 20.66 2 21.32 2 22 C0.68 22 -0.64 22 -2 22 C-2 23.32 -2 24.64 -2 26 C-1.01 26.33 -0.02 26.66 1 27 C-0.32 27 -1.64 27 -3 27 C-3 28.65 -3 30.3 -3 32 C-1.68 32.33 -0.36 32.66 1 33 C-0.65 33 -2.3 33 -4 33 C-4 34.65 -4 36.3 -4 38 C-2.35 38 -0.7 38 1 38 C1 38.33 1 38.66 1 39 C-0.65 39 -2.3 39 -4 39 C-4 40.65 -4 42.3 -4 44 C-2.35 44 -0.7 44 1 44 C1 44.33 1 44.66 1 45 C-0.98 45 -2.96 45 -5 45 C-5 46.65 -5 48.3 -5 50 C-3.02 50 -1.04 50 1 50 C1 50.33 1 50.66 1 51 C-0.98 51 -2.96 51 -5 51 C-5 52.65 -5 54.3 -5 56 C-3.02 56 -1.04 56 1 56 C1 56.33 1 56.66 1 57 C-1.31 57 -3.62 57 -6 57 C-6 58.65 -6 60.3 -6 62 C-3.69 62 -1.38 62 1 62 C1 62.33 1 62.66 1 63 C-1.31 63 -3.62 63 -6 63 C-6 64.32 -6 65.64 -6 67 C-3.69 67 -1.38 67 1 67 C1 67.66 1 68.32 1 69 C-1.64 69 -4.28 69 -7 69 C-7 70.32 -7 71.64 -7 73 C-4.69 73 -2.38 73 0 73 C0.33 73.66 0.66 74.32 1 75 C-1.97 75 -4.94 75 -8 75 C-8 76.32 -8 77.64 -8 79 C-5.03 79 -2.06 79 1 79 C1 79.66 1 80.32 1 81 C-1.97 81 -4.94 81 -8 81 C-8 82.32 -8 83.64 -8 85 C-5.36 85 -2.72 85 0 85 C0 85.66 0 86.32 0 87 C-2.97 87 -5.94 87 -9 87 C-9 88.32 -9 89.64 -9 91 C-6.03 91 -3.06 91 0 91 C0 91.66 0 92.32 0 93 C-3.3 93 -6.6 93 -10 93 C-10 94.32 -10 95.64 -10 97 C-6.7 97 -3.4 97 0 97 C0 97.66 0 98.32 0 99 C-3.3 99 -6.6 99 -10 99 C-10 100.32 -10 101.64 -10 103 C-6.7 103 -3.4 103 0 103 C0 103.33 0 103.66 0 104 C-3.63 104 -7.26 104 -11 104 C-11 105.65 -11 107.3 -11 109 C-7.37 109 -3.74 109 0 109 C0 109.66 0 110.32 0 111 C-3.96 111 -7.92 111 -12 111 C-12 112.32 -12 113.64 -12 115 C-8.04 115 -4.08 115 0 115 C0 115.66 0 116.32 0 117 C-1.26457031 117.07347656 -1.26457031 117.07347656 -2.5546875 117.1484375 C-4.19824219 117.26058594 -4.19824219 117.26058594 -5.875 117.375 C-7.51082031 117.47941406 -7.51082031 117.47941406 -9.1796875 117.5859375 C-12.13046474 117.73253491 -12.13046474 117.73253491 -14 120 C-14.18580541 111.35857373 -13.62929324 102.96091871 -12.6875 94.375 C-12.41092312 91.74236085 -12.13583484 89.10961638 -11.86328125 86.4765625 C-11.7924231 85.79609863 -11.72156494 85.11563477 -11.64855957 84.41455078 C-10.65313651 74.76910907 -9.83837758 65.10708334 -9.00268555 55.44677734 C-8.00753771 43.96011171 -8.00753771 43.96011171 -7.43359375 38.3515625 C-6.63495303 31.17802746 -6.63495303 31.17802746 -7 24 C-8.91666921 21.74934898 -8.91666921 21.74934898 -11 20 C-11.5625 17.0625 -11.5625 17.0625 -11 14 C-8.4213422 10.58707056 -6.86470646 9.21209781 -2.6875 8.1875 C-1.800625 8.125625 -0.91375 8.06375 0 8 C0 5.36 0 2.72 0 0 Z "
        fill="#333333" transform="translate(241,159)" />
    <path
        d="M0 0 C9.27807263 -1.07448268 9.27807263 -1.07448268 13.44140625 1.5234375 C15.38592285 3.27815782 17.19033685 5.10869791 19 7 C19.66 7.33 20.32 7.66 21 8 C21.763125 7.05125 22.52625 6.1025 23.3125 5.125 C25.65357308 2.21447672 27.61851159 0.18651178 31.48828125 -0.3359375 C37.56167516 -0.41994018 41.32044498 -0.25414093 46 4 C47.82448012 6.0007782 49.59468479 8.03788931 51.34765625 10.1015625 C55.46411246 14.83110794 59.04805146 16.59954152 65 18 C65 18.66 65 19.32 65 20 C63.60307061 19.91174084 62.20739548 19.80355166 60.8125 19.6875 C60.03519531 19.62949219 59.25789063 19.57148438 58.45703125 19.51171875 C52.98933561 18.37297769 50.16712034 15.29716642 46.9375 10.9375 C43.94350457 6.90005269 41.89581564 4.4455101 36.81640625 3.6640625 C32.81712634 3.59475089 30.57259379 3.65888029 27.0625 5.75 C25.18919134 7.79360945 24.00783795 9.43459432 23 12 C27.02167317 14.96837781 30.00088076 16.52389341 35 17 C35 17.99 35 18.98 35 20 C29.00708997 19.58669586 25.74963401 18.68096635 21 15 C20.46375 15.268125 19.9275 15.53625 19.375 15.8125 C18.59125 16.204375 17.8075 16.59625 17 17 C16.154375 17.53625 15.30875 18.0725 14.4375 18.625 C9.60867794 20.55652883 5.13635669 20.24676447 0 20 C0.99 19.34 1.98 18.68 3 18 C2.44570313 17.75765625 1.89140625 17.5153125 1.3203125 17.265625 C0.23363281 16.76289063 0.23363281 16.76289063 -0.875 16.25 C-1.59429687 15.92515625 -2.31359375 15.6003125 -3.0546875 15.265625 C-5 14 -5 14 -7 10 C-4.03 7.36 -1.06 4.72 2 2 C1.34 1.34 0.68 0.68 0 0 Z "
        fill="#1B1B1B" transform="translate(288,278)" />
    <path
        d="M0 0 C2.31 0 4.62 0 7 0 C13.72414839 17.16924407 13.72414839 17.16924407 16.4375 24.4375 C16.89962891 25.67306641 16.89962891 25.67306641 17.37109375 26.93359375 C18 29 18 29 18 32 C18.66 32 19.32 32 20 32 C20.11859375 31.29641357 20.2371875 30.59282715 20.359375 29.86791992 C21.04860138 26.78242363 22.06612574 24.04416616 23.25 21.11328125 C23.6934375 20.01048828 24.136875 18.90769531 24.59375 17.77148438 C25.28984375 16.05928711 25.28984375 16.05928711 26 14.3125 C26.4640625 13.15943359 26.928125 12.00636719 27.40625 10.81835938 C30.81667933 2.36664134 30.81667933 2.36664134 32 0 C33.98 0 35.96 0 38 0 C38 12.54 38 25.08 38 38 C37.01 38 36.02 38 35 38 C34.67 26.78 34.34 15.56 34 4 C32.68 7.96 31.36 11.92 30 16 C28.0625 19.9375 28.0625 19.9375 27.06640625 21.78125 C25.1269313 25.81649457 23.78295843 30.10487571 22.34375 34.33984375 C21.9003125 35.21769531 21.456875 36.09554687 21 37 C18.91601562 37.66625977 18.91601562 37.66625977 17 38 C16.70754395 37.20827393 16.41508789 36.41654785 16.11376953 35.60083008 C15.02217903 32.64669433 13.92998994 29.69278077 12.83740234 26.73901367 C12.36581025 25.463711 11.89445267 24.18832159 11.42333984 22.9128418 C10.74379036 21.07317348 10.0633107 19.23384885 9.3828125 17.39453125 C8.97434082 16.28956299 8.56586914 15.18459473 8.14501953 14.04614258 C7.13179942 11.35063143 6.06947589 8.67368971 5 6 C4.67 16.56 4.34 27.12 4 38 C2.68 38 1.36 38 0 38 C0 25.46 0 12.92 0 0 Z "
        fill="#60707C" transform="translate(306,328)" />
    <path
        d="M0 0 C0 0.99 0 1.98 0 3 C-1.24136719 2.95359375 -2.48273438 2.9071875 -3.76171875 2.859375 C-5.40362171 2.82184579 -7.04555077 2.78544686 -8.6875 2.75 C-9.50412109 2.71648437 -10.32074219 2.68296875 -11.16210938 2.6484375 C-15.19897894 2.58306309 -17.42181611 2.65476999 -20.95703125 4.765625 C-25.40279833 9.6279171 -25.37156317 13.58371364 -25.25390625 20.015625 C-24.83669602 24.91944991 -23.68540761 28.41993037 -20 31.875 C-14.36851929 35.0427079 -8.28398374 34.06221766 -2 34 C-2 29.71 -2 25.42 -2 21 C-4.97 21 -7.94 21 -11 21 C-11 20.01 -11 19.02 -11 18 C-7.04 18 -3.08 18 1 18 C1 23.94 1 29.88 1 36 C-8.02242446 38.25560611 -14.65876581 39.81225049 -23 35 C-27.26578866 31.06234893 -29.6706114 26.70792102 -30.37109375 20.94921875 C-30.52090348 13.59091752 -30.00199724 8.59301132 -25 3 C-18.00094267 -3.77328129 -8.5126076 -2.83753587 0 0 Z "
        fill="#435664" transform="translate(153,329)" />
    <path
        d="M0 0 C0.66 0.66 1.32 1.32 2 2 C2.66 1.67 3.32 1.34 4 1 C10.53333333 0.76666667 10.53333333 0.76666667 13 2 C13 3.98 13 5.96 13 8 C7.06 8.495 7.06 8.495 1 9 C2.64548828 9.16435547 2.64548828 9.16435547 4.32421875 9.33203125 C5.77871516 9.49155666 7.23313863 9.65174813 8.6875 9.8125 C9.7693457 9.91788086 9.7693457 9.91788086 10.87304688 10.02539062 C15.63108072 10.56854517 19.47219606 11.47219606 23 15 C23.04063832 16.66617115 23.042721 18.33388095 23 20 C22.01 20.33 21.02 20.66 20 21 C19.1028125 19.576875 19.1028125 19.576875 18.1875 18.125 C16.18437474 14.86035803 16.18437474 14.86035803 13 13 C8.59885285 12.34362798 3.96357747 11.96221571 -0.0546875 14.0859375 C-1.89397733 15.54205737 -1.89397733 15.54205737 -4 18 C-4 18.33 -4 18.66 -4 19 C-2.02 19.33 -0.04 19.66 2 20 C2 20.66 2 21.32 2 22 C0.68 22 -0.64 22 -2 22 C-2 23.32 -2 24.64 -2 26 C-1.01 26.33 -0.02 26.66 1 27 C-0.32 27 -1.64 27 -3 27 C-3 28.65 -3 30.3 -3 32 C-1.68 32.33 -0.36 32.66 1 33 C-0.65 33 -2.3 33 -4 33 C-4 34.65 -4 36.3 -4 38 C-2.35 38 -0.7 38 1 38 C1 38.33 1 38.66 1 39 C-0.65 39 -2.3 39 -4 39 C-4 40.65 -4 42.3 -4 44 C-4.99 43.34 -5.98 42.68 -7 42 C-7.145964 38.17499461 -7.01496365 34.46841064 -6.79492188 30.65234375 C-6.51895065 25.72682372 -6.51895065 25.72682372 -8.96875 21.61328125 C-9.6390625 21.08089844 -10.309375 20.54851562 -11 20 C-11.5625 17.0625 -11.5625 17.0625 -11 14 C-8.4213422 10.58707056 -6.86470646 9.21209781 -2.6875 8.1875 C-1.800625 8.125625 -0.91375 8.06375 0 8 C0 5.36 0 2.72 0 0 Z "
        fill="#262626" transform="translate(241,159)" />
    <path
        d="M0 0 C20.7109375 0 20.7109375 0 25.64453125 4.5 C30.75145541 11.05872534 30.53807296 16.91894129 30 25 C28.31624283 30.23835565 25.42867803 32.81135182 21 36 C16 38 16 38 0 38 C0 25.46 0 12.92 0 0 Z M3 2 C3 12.89 3 23.78 3 35 C15.16517418 35.37199327 15.16517418 35.37199327 23.875 29.75 C27.25610668 25.3776894 26.73071045 19.85627182 26.5546875 14.5859375 C25.89753699 10.33759826 24.82361812 8.17518994 21.80078125 5.19921875 C15.2586677 0.8425401 11.49743906 2 3 2 Z "
        fill="#425564" transform="translate(221,328)" />
    <path
        d="M0 0 C0.99 0 1.98 0 3 0 C3.0093457 0.81678223 3.01869141 1.63356445 3.02832031 2.47509766 C3.08215507 6.19233506 3.16577994 9.908332 3.25 13.625 C3.26417969 14.91019531 3.27835938 16.19539063 3.29296875 17.51953125 C3.28497086 24.95931954 3.28497086 24.95931954 5.671875 31.85546875 C8.59738182 34.55027286 10.05754069 34.78113341 14 34.6875 C15.546875 34.69330078 15.546875 34.69330078 17.125 34.69921875 C20.99492924 33.75802672 21.86299963 32.31555103 24 29 C24.63635465 25.72402546 24.63635465 25.72402546 24.609375 22.16796875 C24.65771484 20.22954102 24.65771484 20.22954102 24.70703125 18.25195312 C24.7217735 16.89713991 24.73609112 15.54232202 24.75 14.1875 C24.77817759 12.81311361 24.80810754 11.43876195 24.83984375 10.06445312 C24.91047274 6.7095759 24.96320774 3.35539104 25 0 C26.32 0 27.64 0 29 0 C29.08735463 4.54154478 29.14051247 9.08287232 29.1875 13.625 C29.21263672 14.91019531 29.23777344 16.19539063 29.26367188 17.51953125 C29.27333984 18.76347656 29.28300781 20.00742187 29.29296875 21.2890625 C29.3086792 22.43068848 29.32438965 23.57231445 29.34057617 24.74853516 C28.825914 29.6619909 27.09562565 32.90437435 23.625 36.375 C18.14648934 38.83088409 12.90477952 38.90488829 7 38 C3.63662506 35.55990446 2.28118836 33.42178255 0 30 C-0.22705078 26.90551758 -0.22705078 26.90551758 -0.1953125 23.14453125 C-0.1924826 22.48289474 -0.18965271 21.82125824 -0.18673706 21.13957214 C-0.17555918 19.03036263 -0.15045981 16.92158075 -0.125 14.8125 C-0.11496707 13.38086552 -0.10584176 11.94922436 -0.09765625 10.51757812 C-0.07562795 7.01158023 -0.04111485 3.50583187 0 0 Z "
        fill="#495C69" transform="translate(165,328)" />
    <path
        d="M0 0 C6.93 0 13.86 0 21 0 C21 0.99 21 1.98 21 3 C15.39 3 9.78 3 4 3 C4 7.62 4 12.24 4 17 C9.28 17 14.56 17 20 17 C20 17.99 20 18.98 20 20 C14.72 20 9.44 20 4 20 C4 24.95 4 29.9 4 35 C9.61 35 15.22 35 21 35 C21 35.99 21 36.98 21 38 C14.07 38 7.14 38 0 38 C0 25.46 0 12.92 0 0 Z "
        fill="#465967" transform="translate(356,328)" />
    <path
        d="M0 0 C6.93 0 13.86 0 21 0 C21 0.99 21 1.98 21 3 C15.39 3 9.78 3 4 3 C4 7.29 4 11.58 4 16 C9.28 16 14.56 16 20 16 C20 16.99 20 17.98 20 19 C14.72 19 9.44 19 4 19 C4 24.28 4 29.56 4 35 C9.61 35 15.22 35 21 35 C21 35.99 21 36.98 21 38 C14.07 38 7.14 38 0 38 C0 25.46 0 12.92 0 0 Z "
        fill="#495B69" transform="translate(261,328)" />
    <path
        d="M0 0 C5.60712773 0 8.1703604 2.11533921 12.0390625 5.96875 C12.50054687 6.4740625 12.96203125 6.979375 13.4375 7.5 C12.17389843 10.33140351 11.55581823 11.41717724 8.9375 13.25 C3.85543817 15.06502208 -1.3871433 15.72370466 -6.5390625 13.73828125 C-8.1875 12.75 -8.1875 12.75 -10.5625 10.5 C-10.5625 6.5 -10.5625 6.5 -8.125 3.8125 C-7.279375 3.049375 -6.43375 2.28625 -5.5625 1.5 C-3.94687455 -0.11562545 -2.23259006 0.13634138 0 0 Z "
        fill="#F3F3F3" transform="translate(205.5625,280.5)" />
    <path
        d="M0 0 C4.53727217 1.20390811 7.44770677 4.2822786 10.546875 7.67578125 C8.76168647 11.51592013 7.58159275 13.02895768 3.546875 14.67578125 C-1.54928219 15.32056943 -6.61111089 15.65427428 -11.140625 12.92578125 C-11.90375 12.18328125 -12.666875 11.44078125 -13.453125 10.67578125 C-13.453125 6.02384755 -13.453125 6.02384755 -11.078125 3.42578125 C-7.62779852 0.24399433 -4.6119793 -0.24457466 0 0 Z "
        fill="#F5F5F5" transform="translate(237.453125,280.32421875)" />
    <path
        d="M0 0 C4.57771925 1.13577301 7.47263612 4.23592419 10.58203125 7.640625 C8.79684272 11.48076388 7.616749 12.99380143 3.58203125 14.640625 C-2.08664762 15.44668135 -6.83018156 15.56404881 -11.60546875 12.140625 C-12.53359375 11.315625 -13.46171875 10.490625 -14.41796875 9.640625 C-11.55577188 2.61523268 -7.48350343 -0.31415007 0 0 Z "
        fill="#F6F6F6" transform="translate(266.41796875,280.359375)" />
    <path
        d="M0 0 C3.01896946 2.02265947 5.52072751 4.35183974 8 7 C6.73639843 9.83140351 6.11831823 10.91717724 3.5 12.75 C-1.12452116 14.4016147 -5.1453778 14.85624832 -10 14 C-12.74880033 12.59386413 -14.64466943 11.04811354 -17 9 C-14.20503975 1.45360732 -7.66979416 -2.1140273 0 0 Z "
        fill="#F5F5F5" transform="translate(298,281)" />
    <path
        d="M0 0 C1.32 0 2.64 0 4 0 C6.93035783 21.08811081 6.93035783 21.08811081 6 26 C4.48046875 27.76171875 4.48046875 27.76171875 3 29 C0.53199953 27.84826645 -1.04783565 26.95216435 -3 25 C-3.046875 22.63671875 -3.046875 22.63671875 -2.75 19.6875 C-2.64300781 18.62402344 -2.53601563 17.56054688 -2.42578125 16.46484375 C-1.74869602 10.95498508 -0.90969816 5.47585303 0 0 Z "
        fill="#F1F1F1" transform="translate(248,257)" />
    <path
        d="M0 0 C3 3 6 6 9 9 C11.5661993 7.9002003 12.88179239 7.16076235 14.5625 4.875 C18.55765128 1.80180671 23.13553424 2.69806764 28 3 C28 3.33 28 3.66 28 4 C27.01 4.020625 26.02 4.04125 25 4.0625 C19.7869255 4.74478378 16.5873215 8.43131394 13 12 C13.67011673 15.02367493 13.67011673 15.02367493 15.671875 16.1328125 C19.42633057 17.92535332 22.82129414 19.47766177 27 20 C27 20.33 27 20.66 27 21 C20.0769444 21.49254941 16.825005 20.97159432 11 17 C7.67221575 17.60738122 7.67221575 17.60738122 5 19 C4.67 18.01 4.34 17.02 4 16 C4.99 15.34 5.98 14.68 7 14 C5.48626976 10.14686848 3.51632085 8.16964478 0 6 C-2.99372438 5.39221367 -5.95082107 5.13286183 -9 5 C-9 4.34 -9 3.68 -9 3 C-5.92382812 2.70703125 -5.92382812 2.70703125 -2.84765625 2.4140625 C-2.23792969 2.27742188 -1.62820313 2.14078125 -1 2 C-0.67 1.34 -0.34 0.68 0 0 Z "
        fill="#1E1E1E" transform="translate(269,276)" />
    <path d="M0 0 C1.32 0 2.64 0 4 0 C4 12.54 4 25.08 4 38 C2.68 38 1.36 38 0 38 C0 25.46 0 12.92 0 0 Z " fill="#455866"
        transform="translate(205,328)" />
    <path
        d="M0 0 C0 0.99 0 1.98 0 3 C-1.24136719 2.95359375 -2.48273438 2.9071875 -3.76171875 2.859375 C-5.40362171 2.82184579 -7.04555077 2.78544686 -8.6875 2.75 C-9.50412109 2.71648437 -10.32074219 2.68296875 -11.16210938 2.6484375 C-15.19897894 2.58306309 -17.42181611 2.65476999 -20.95703125 4.765625 C-24.51182378 8.65346693 -25.2515808 11.52213123 -25.625 16.75 C-25.69976562 17.73484375 -25.77453125 18.7196875 -25.8515625 19.734375 C-25.90054688 20.48203125 -25.94953125 21.2296875 -26 22 C-26.66 21.67 -27.32 21.34 -28 21 C-28.66 21.99 -29.32 22.98 -30 24 C-30.91916899 10.60055866 -30.91916899 10.60055866 -26.35546875 4.515625 C-19.20813756 -3.47620353 -9.46024798 -3.15341599 0 0 Z "
        fill="#3F5261" transform="translate(153,329)" />
    <path
        d="M0 0 C4.95 0 9.9 0 15 0 C15.33 0.66 15.66 1.32 16 2 C11.71 2 7.42 2 3 2 C3 13.22 3 24.44 3 36 C5.97 36 8.94 36 12 36 C12 36.33 12 36.66 12 37 C8.04 37 4.08 37 0 37 C0 24.79 0 12.58 0 0 Z "
        fill="#293E4F" transform="translate(221,328)" />
    <path
        d="M0 0 C1.98 0 3.96 0 6 0 C6 12.54 6 25.08 6 38 C5.01 38 4.02 38 3 38 C2.67 26.78 2.34 15.56 2 4 C1.01 4.33 0.02 4.66 -1 5 C-0.67 3.35 -0.34 1.7 0 0 Z "
        fill="#384C5B" transform="translate(338,328)" />
    <path
        d="M0 0 C2 2 2 2 2.125 4.625 C2.08375 5.40875 2.0425 6.1925 2 7 C1.01 7.33 0.02 7.66 -1 8 C-1.8971875 6.576875 -1.8971875 6.576875 -2.8125 5.125 C-4.81562526 1.86035803 -4.81562526 1.86035803 -8 0 C-12.37132214 -0.65192402 -16.99201428 -1.00981874 -21.01953125 1.015625 C-23.64386477 3.13552458 -24.93019679 4.79059036 -26 8 C-27.32 7.34 -28.64 6.68 -30 6 C-30 3.75 -30 3.75 -29 1 C-20.31318614 -5.18100217 -9.33868304 -4.58124074 0 0 Z "
        fill="#E7E7E7" transform="translate(262,172)" />
    <path
        d="M0 0 C1.32 0 2.64 0 4 0 C4.02473868 3.93268867 4.04287835 7.86534713 4.05493164 11.7980957 C4.06242729 13.79314768 4.07513345 15.78817786 4.08789062 17.78320312 C4.09111328 19.03681641 4.09433594 20.29042969 4.09765625 21.58203125 C4.10289307 22.73936768 4.10812988 23.8967041 4.11352539 25.08911133 C4 28 4 28 3 31 C2.01 30.67 1.02 30.34 0 30 C0 20.1 0 10.2 0 0 Z "
        fill="#485A68" transform="translate(190,328)" />
    <path
        d="M0 0 C0.33 0 0.66 0 1 0 C1.0501123 0.67353516 1.10022461 1.34707031 1.15185547 2.04101562 C2.05590444 14.07040192 2.96705838 26.05037364 4.73046875 37.98828125 C4.97391061 40.70847944 4.8878534 42.44978279 4 45 C3.34 44.67 2.68 44.34 2 44 C1.49755859 42.27270508 1.49755859 42.27270508 1.1484375 40.01953125 C0.95459473 38.77792236 0.95459473 38.77792236 0.75683594 37.51123047 C0.63083008 36.62064941 0.50482422 35.73006836 0.375 34.8125 C0.24383789 33.9064502 0.11267578 33.00040039 -0.02246094 32.06689453 C-1.49224995 21.28398785 -1.39387861 10.80255926 0 0 Z "
        fill="#212121" transform="translate(266,234)" />
    <path
        d="M0 0 C0.91007812 0.00902344 1.82015625 0.01804687 2.7578125 0.02734375 C3.80582031 0.04474609 3.80582031 0.04474609 4.875 0.0625 C4.875 0.3925 4.875 0.7225 4.875 1.0625 C3.67875 1.289375 2.4825 1.51625 1.25 1.75 C-5.10846715 3.37034752 -8.57193323 7.36235276 -12.6875 12.1875 C-15.26879201 15.18112093 -17.38021793 17.56458717 -21.125 19.0625 C-24.9375 19.25 -24.9375 19.25 -28.125 19.0625 C-27.63 17.5775 -27.63 17.5775 -27.125 16.0625 C-25.84625 15.753125 -24.5675 15.44375 -23.25 15.125 C-16.93031663 13.28894432 -13.51781958 8.51963829 -9.41015625 3.6796875 C-6.20602163 0.00999486 -4.70411776 -0.0603092 0 0 Z "
        fill="#1E1E1E" transform="translate(175.125,278.9375)" />
    <path
        d="M0 0 C8.96406513 -0.78326783 8.96406513 -0.78326783 12.5625 1.9375 C13.366875 2.948125 14.17125 3.95875 15 5 C20.43625087 11.12248373 24.82886243 15.31941142 33 17 C33 17.66 33 18.32 33 19 C31.60307061 18.91174084 30.20739548 18.80355166 28.8125 18.6875 C28.03519531 18.62949219 27.25789063 18.57148438 26.45703125 18.51171875 C19.83443344 17.13244957 16.87052148 12.53425491 13.0625 7.375 C9.29210245 3.0333301 5.63212585 1.65489835 0 1 C0 0.67 0 0.34 0 0 Z "
        fill="#141414" transform="translate(320,279)" />
    <path
        d="M0 0 C0.33 0.66 0.66 1.32 1 2 C4.63 2 8.26 2 12 2 C12 2.33 12 2.66 12 3 C8.37 3 4.74 3 1 3 C1 4.65 1 6.3 1 8 C4.63 8 8.26 8 12 8 C12 8.66 12 9.32 12 10 C8.04 10 4.08 10 0 10 C0 11.32 0 12.64 0 14 C3.96 14 7.92 14 12 14 C12 14.66 12 15.32 12 16 C10.73542969 16.07347656 10.73542969 16.07347656 9.4453125 16.1484375 C8.34960938 16.22320312 7.25390625 16.29796875 6.125 16.375 C5.03445312 16.44460938 3.94390625 16.51421875 2.8203125 16.5859375 C-0.13046474 16.73253491 -0.13046474 16.73253491 -2 19 C-2.19818283 12.29481414 -2.30844801 6.34823202 0 0 Z "
        fill="#262626" transform="translate(229,260)" />
    <path
        d="M0 0 C0.33 0 0.66 0 1 0 C1.268125 1.010625 1.53625 2.02125 1.8125 3.0625 C4.09115429 11.28008499 4.09115429 11.28008499 10 17 C13.03268887 17.78628026 13.03268887 17.78628026 16.25 18.1875 C17.86648437 18.42533203 17.86648437 18.42533203 19.515625 18.66796875 C20.74539062 18.83232422 20.74539062 18.83232422 22 19 C22 19.33 22 19.66 22 20 C16.81548295 21.33793988 10.76115189 22.60240762 5.93359375 19.80078125 C2.82660214 17.22567547 0.40126852 14.84825981 -1 11 C-0.9765625 8.203125 -0.9765625 8.203125 -0.625 5.25 C-0.51414062 4.26515625 -0.40328125 3.2803125 -0.2890625 2.265625 C-0.19367188 1.51796875 -0.09828125 0.7703125 0 0 Z "
        fill="#374C5B" transform="translate(125,345)" />
    <path
        d="M0 0 C0.99 0 1.98 0 3 0 C3 3.96 3 7.92 3 12 C4.423125 12.2165625 4.423125 12.2165625 5.875 12.4375 C9 13 9 13 11 14 C11 14.66 11 15.32 11 16 C10.04738281 15.91621094 9.09476562 15.83242187 8.11328125 15.74609375 C6.23189453 15.59333984 6.23189453 15.59333984 4.3125 15.4375 C3.07113281 15.33308594 1.82976562 15.22867188 0.55078125 15.12109375 C-2.55835533 15.01506159 -5.00810972 15.22771475 -8 16 C-7.67 15.01 -7.34 14.02 -7 13 C-3.535 12.505 -3.535 12.505 0 12 C0 8.04 0 4.08 0 0 Z "
        fill="#1C1C1C" transform="translate(247,141)" />
    <path
        d="M0 0 C1.65 0 3.3 0 5 0 C4.01 0.495 4.01 0.495 3 1 C2.67 12.88 2.34 24.76 2 37 C1.34 37 0.68 37 0 37 C0 24.79 0 12.58 0 0 Z "
        fill="#2B4050" transform="translate(307,328)" />
    <path
        d="M0 0 C0.99 0 1.98 0 3 0 C3 9.24 3 18.48 3 28 C2.34 28.33 1.68 28.66 1 29 C-0.09857724 22.8323971 -0.11539104 16.81584877 -0.0625 10.5625 C-0.05798828 9.54478516 -0.05347656 8.52707031 -0.04882812 7.47851562 C-0.03712437 4.98561491 -0.02072848 2.49283926 0 0 Z "
        fill="#324756" transform="translate(165,328)" />
    <path
        d="M0 0 C0.98871094 -0.01417969 1.97742188 -0.02835938 2.99609375 -0.04296875 C5.5625 0.1875 5.5625 0.1875 7.5625 2.1875 C8.13434935 5.1762221 8.30214622 8.15003926 8.5625 11.1875 C3.2825 11.1875 -1.9975 11.1875 -7.4375 11.1875 C-7.1075 10.5275 -6.7775 9.8675 -6.4375 9.1875 C-2.4775 9.1875 1.4825 9.1875 5.5625 9.1875 C5.5625 7.2075 5.5625 5.2275 5.5625 3.1875 C1.9325 3.1875 -1.6975 3.1875 -5.4375 3.1875 C-5.4375 4.8375 -5.4375 6.4875 -5.4375 8.1875 C-5.7675 8.1875 -6.0975 8.1875 -6.4375 8.1875 C-6.47991723 5.85455225 -6.47842937 3.52047433 -6.4375 1.1875 C-4.69900372 -0.55099628 -2.3588363 0.01533704 0 0 Z "
        fill="#0C0C0C" transform="translate(248.4375,157.8125)" />
    <path
        d="M0 0 C2.80802348 2.80802348 3.73074553 6.21348527 5.0625 9.875 C5.33126953 10.59558594 5.60003906 11.31617188 5.87695312 12.05859375 C7.09309864 15.35219482 8.19156 18.57942161 9 22 C7.68 22 6.36 22 5 22 C4.01602415 19.4392555 3.03770033 16.87658508 2.0625 14.3125 C1.78470703 13.59126953 1.50691406 12.87003906 1.22070312 12.12695312 C-0.17766574 8.43728107 -1.38936004 4.91891718 -2 1 C-1.34 0.67 -0.68 0.34 0 0 Z "
        fill="#445765" transform="translate(312,328)" />
    <path
        d="M0 0 C0.33 0 0.66 0 1 0 C1 1.65 1 3.3 1 5 C2.98 5 4.96 5 7 5 C7 5.33 7 5.66 7 6 C5.02 6 3.04 6 1 6 C1 7.65 1 9.3 1 11 C2.98 11 4.96 11 7 11 C7 11.33 7 11.66 7 12 C5.02 12 3.04 12 1 12 C1 13.65 1 15.3 1 17 C2.98 17 4.96 17 7 17 C7 17.33 7 17.66 7 18 C4.69 18 2.38 18 0 18 C-0.66 19.32 -1.32 20.64 -2 22 C-2.05416741 19.27056463 -2.09375225 16.54221436 -2.125 13.8125 C-2.14175781 13.04357422 -2.15851563 12.27464844 -2.17578125 11.48242188 C-2.21266851 7.1850566 -1.9958504 3.92098169 0 0 Z "
        fill="#262626" transform="translate(235,198)" />
    <path d="M0 0 C1.98 0 3.96 0 6 0 C6 3.63 6 7.26 6 11 C4.02 11 2.04 11 0 11 C0 7.37 0 3.74 0 0 Z " fill="#595959"
        transform="translate(250,204)" />
    <path
        d="M0 0 C6.57692308 0.57692308 6.57692308 0.57692308 8 2 C8.23427778 4.01594582 8.41336124 6.038474 8.5625 8.0625 C8.64628906 9.16722656 8.73007813 10.27195312 8.81640625 11.41015625 C8.87699219 12.26480469 8.93757812 13.11945313 9 14 C8.34 14 7.68 14 7 14 C7 15.65 7 17.3 7 19 C6.67 19 6.34 19 6 19 C5.67 13.72 5.34 8.44 5 3 C3.68 3 2.36 3 1 3 C0.67 4.32 0.34 5.64 0 7 C-0.66 5.35 -1.32 3.7 -2 2 C-1.34 1.34 -0.68 0.68 0 0 Z "
        fill="#222222" transform="translate(247,254)" />
    <path
        d="M0 0 C0.66 0.66 1.32 1.32 2 2 C0 4 0 4 -2.42578125 4.0546875 C-3.85470703 3.96574219 -3.85470703 3.96574219 -5.3125 3.875 C-9.26301069 3.79215836 -10.65307268 3.79184361 -14.125 5.875 C-16.03534196 7.85698834 -16.03534196 7.85698834 -17 10 C-17.66 9.67 -18.32 9.34 -19 9 C-14.50912658 0.49097667 -9.32258633 -1.2910506 0 0 Z "
        fill="#1A1A1A" transform="translate(254,171)" />
    <path
        d="M0 0 C6.44851898 -0.40303244 11.10070492 0.30909347 17 3 C19 5 19 5 19.125 7.625 C19.08375 8.40875 19.0425 9.1925 19 10 C18.01 10.33 17.02 10.66 16 11 C15.46375 10.071875 14.9275 9.14375 14.375 8.1875 C11.06391263 3.74367221 7.98497112 2.40434597 2.625 1.3125 C1.75875 1.209375 0.8925 1.10625 0 1 C0 0.67 0 0.34 0 0 Z "
        fill="#EEEEEE" transform="translate(245,169)" />
    <path d="M0 0 C1.98 0 3.96 0 6 0 C6 2.97 6 5.94 6 9 C4.02 9 2.04 9 0 9 C0 6.03 0 3.06 0 0 Z " fill="#525252"
        transform="translate(249,184)" />
    <path
        d="M0 0 C3.5 0.125 3.5 0.125 4.5 1.125 C4.54063832 2.79117115 4.542721 4.45888095 4.5 6.125 C1.53 6.125 -1.44 6.125 -4.5 6.125 C-4.542721 4.45888095 -4.54063832 2.79117115 -4.5 1.125 C-3.5 0.125 -3.5 0.125 0 0 Z "
        fill="#EDEDED" transform="translate(248.5,159.875)" />
    <path
        d="M0 0 C5.52677733 -0.19392201 9.75614911 0.2520497 15 2 C15 2.99 15 3.98 15 5 C8.07 4.505 8.07 4.505 1 4 C0.67 2.68 0.34 1.36 0 0 Z "
        fill="#566774" transform="translate(138,327)" />
    <path
        d="M0 0 C6.6 0 13.2 0 20 0 C20 0.99 20 1.98 20 3 C7.35771221 3.20067123 7.35771221 3.20067123 2 2 C1.34 1.34 0.68 0.68 0 0 Z "
        fill="#384C5B" transform="translate(262,328)" />
    <path
        d="M0 0 C9.76991826 -0.62583106 9.76991826 -0.62583106 14.5625 1.8125 C17 4 17 4 19 7 C18.34 7.66 17.68 8.32 17 9 C16.175 8.195625 15.35 7.39125 14.5 6.5625 C11.9278893 4.381399 10.16724333 3.65404519 6.8125 3.375 C2.82505166 2.98279197 2.41210799 2.82283845 0 0 Z "
        fill="#262626" transform="translate(200,278)" />
    <path
        d="M0 0 C0.66 0.33 1.32 0.66 2 1 C2 7.27 2 13.54 2 20 C-0.46662244 16.30006635 -0.47969937 13.17458392 -0.6875 8.875 C-0.73455078 8.13378906 -0.78160156 7.39257812 -0.83007812 6.62890625 C-0.93458359 4.75466073 -0.97270642 2.87695837 -1 1 C-0.67 0.67 -0.34 0.34 0 0 Z "
        fill="#181818" transform="translate(264,224)" />
    <path
        d="M0 0 C10.58569133 -0.86140345 10.58569133 -0.86140345 15.1875 2.5 C16.115625 3.325 17.04375 4.15 18 5 C17.01 5.99 16.02 6.98 15 8 C14.5978125 7.525625 14.195625 7.05125 13.78125 6.5625 C11.65148295 4.69428329 10.27125988 4.44340158 7.5 4 C3.9815227 3.43704363 2.3246115 2.74184946 0 0 Z "
        fill="#2B2B2B" transform="translate(171,278)" />
    <path
        d="M0 0 C0.33 0 0.66 0 1 0 C1 4.29 1 8.58 1 13 C4.3 13 7.6 13 11 13 C11 13.66 11 14.32 11 15 C7.04 15 3.08 15 -1 15 C-1.09038099 9.84828377 -0.84681133 5.08086796 0 0 Z "
        fill="#3C3C3C" transform="translate(246,204)" />
    <path
        d="M0 0 C0.33 0 0.66 0 1 0 C1.33 1.98 1.66 3.96 2 6 C2.66 6 3.32 6 4 6 C6.17204 8.96187272 7.83561997 11.50685991 9 15 C5.3226295 14.79570164 4.19915015 14.22067989 1.6875 11.4375 C-0.41084636 7.16309076 -0.32385526 4.6959013 0 0 Z "
        fill="#405361" transform="translate(165,350)" />
    <path
        d="M0 0 C0.845625 0.61875 1.69125 1.2375 2.5625 1.875 C5.91372345 4.13047736 9.08856854 5.06125645 13 6 C13 6.66 13 7.32 13 8 C7.62007164 7.66009167 3.46726453 7.31442207 -1 4 C-0.67 2.68 -0.34 1.36 0 0 Z "
        fill="#232323" transform="translate(340,290)" />
    <path
        d="M0 0 C0.33 0 0.66 0 1 0 C1 3.96 1 7.92 1 12 C3.64 12 6.28 12 9 12 C9 12.66 9 13.32 9 14 C5.7 14 2.4 14 -1 14 C-1.13392857 3.82142857 -1.13392857 3.82142857 0 0 Z "
        fill="#303030" transform="translate(246,183)" />
    <path
        d="M0 0 C-3.41104551 2.07128547 -6.10535276 2.26961411 -10.0625 2.25 C-11.62677734 2.25773438 -11.62677734 2.25773438 -13.22265625 2.265625 C-16 2 -16 2 -19 0 C-12.4085525 -3.19585333 -6.67684122 -2.18019305 0 0 Z "
        fill="#BDBDBD" transform="translate(258,157)" />
    <path
        d="M0 0 C1.32 0 2.64 0 4 0 C4 3.63 4 7.26 4 11 C3.34 10.67 2.68 10.34 2 10 C1.34 10.99 0.68 11.98 0 13 C0 8.71 0 4.42 0 0 Z "
        fill="#455866" transform="translate(123,340)" />
    <path
        d="M0 0 C0.268125 0.886875 0.53625 1.77375 0.8125 2.6875 C1.91710819 5.76877548 3.22849144 8.26221405 5 11 C0.62140745 10.49477778 -1.81651224 7.82172778 -5 5 C-3.33333333 0 -3.33333333 0 0 0 Z "
        fill="#121212" transform="translate(245,277)" />
    <path
        d="M0 0 C7.57142857 2.85714286 7.57142857 2.85714286 10 7 C9.01 8.32 8.02 9.64 7 11 C6.835 10.236875 6.67 9.47375 6.5 8.6875 C4.30520092 4.75515165 1.1777633 4.19503462 -3 3 C-2.01 2.67 -1.02 2.34 0 2 C0 1.34 0 0.68 0 0 Z "
        fill="#2A2A2A" transform="translate(257,167)" />
    <path
        d="M0 0 C0 0.66 0 1.32 0 2 C-1.725227 2.67679658 -3.45538939 3.34102 -5.1875 4 C-6.15042969 4.37125 -7.11335938 4.7425 -8.10546875 5.125 C-10.92182358 5.97636772 -13.08164439 6.17072647 -16 6 C-13.73701772 3.41889881 -11.81995115 2.35070956 -8.5625 1.3125 C-7.80066406 1.06113281 -7.03882813 0.80976563 -6.25390625 0.55078125 C-4 0 -4 0 0 0 Z "
        fill="#464646" transform="translate(294,149)" />
    <path
        d="M0 0 C2 1 2 1 3.0703125 3.58203125 C3.41835937 4.64808594 3.76640625 5.71414062 4.125 6.8125 C4.47820312 7.87082031 4.83140625 8.92914063 5.1953125 10.01953125 C6 13 6 13 6 17 C5.34 17 4.68 17 4 17 C3.32844651 14.73050898 2.6626037 12.4596039 2 10.1875 C1.443125 8.29064453 1.443125 8.29064453 0.875 6.35546875 C0 3 0 3 0 0 Z "
        fill="#434343" transform="translate(235,116)" />
    <path
        d="M0 0 C0.99 0.33 1.98 0.66 3 1 C2.11223998 4.69900008 1.05418136 8.34550461 0 12 C-0.33 11.34 -0.66 10.68 -1 10 C-1.66 10 -2.32 10 -3 10 C-2.39009109 6.44219804 -1.4216319 3.3171411 0 0 Z "
        fill="#576875" transform="translate(336,332)" />
    <path
        d="M0 0 C0 0.99 0 1.98 0 3 C-3.34939881 5.02558881 -5.86962551 5.21738987 -9.75 5.125 C-10.73484375 5.10695313 -11.7196875 5.08890625 -12.734375 5.0703125 C-13.85585938 5.03550781 -13.85585938 5.03550781 -15 5 C-12.57692716 2.08111688 -10.63379347 1.44941655 -6.9375 0.8125 C-6.05964844 0.65394531 -5.18179687 0.49539063 -4.27734375 0.33203125 C-2 0 -2 0 0 0 Z "
        fill="#292929" transform="translate(274,293)" />
    <path
        d="M0 0 C0.33 0 0.66 0 1 0 C1.33 5.28 1.66 10.56 2 16 C1.67 16 1.34 16 1 16 C0.67 18.64 0.34 21.28 0 24 C-0.33 24 -0.66 24 -1 24 C-1.10466648 15.92905177 -1.03387512 8.0125322 0 0 Z "
        fill="#575757" transform="translate(266,234)" />
    <path
        d="M0 0 C-1.3125 2 -1.3125 2 -4 4 C-7.68855385 4.36089448 -11.3051649 4.22933459 -15 4 C-12.5817792 1.09494267 -10.61720036 0.42199241 -6.9375 -0.25 C-5.62072266 -0.50523437 -5.62072266 -0.50523437 -4.27734375 -0.765625 C-2 -1 -2 -1 0 0 Z "
        fill="#2B2B2B" transform="translate(303,294)" />
    <path
        d="M0 0 C2 2 2 2 2 5 C-2.62 5 -7.24 5 -12 5 C-12 4.01 -12 3.02 -12 2 C-8.04 2 -4.08 2 0 2 C0 1.34 0 0.68 0 0 Z "
        fill="#F1F1F1" transform="translate(241,274)" />
    <path
        d="M0 0 C-5.25432063 2.45946923 -10.30860098 3.90301833 -16 5 C-16 4.34 -16 3.68 -16 3 C-14.08802961 2.29954544 -12.17019565 1.615081 -10.25 0.9375 C-9.18265625 0.55464844 -8.1153125 0.17179688 -7.015625 -0.22265625 C-4.07719958 -0.98010011 -2.77651052 -1.07151741 0 0 Z "
        fill="#393939" transform="translate(219,172)" />
    <path
        d="M0 0 C-0.33 0.66 -0.66 1.32 -1 2 C-4.14930893 3.04976964 -6.38814456 3.10131595 -9.6875 3.0625 C-10.68136719 3.05347656 -11.67523438 3.04445313 -12.69921875 3.03515625 C-13.83810547 3.01775391 -13.83810547 3.01775391 -15 3 C-10.44752517 -0.78863677 -5.79810975 -1.93270325 0 0 Z "
        fill="#2E2E2E" transform="translate(244,295)" />
    <path
        d="M0 0 C0.33 0 0.66 0 1 0 C1.33 3.3 1.66 6.6 2 10 C3.65 10 5.3 10 7 10 C7 10.66 7 11.32 7 12 C4.69 12 2.38 12 0 12 C0 8.04 0 4.08 0 0 Z "
        fill="#DADADA" transform="translate(247,183)" />
    <path
        d="M0 0 C3.45201639 1.47721422 5.64961936 3.43794001 8.25 6.125 C8.95640625 6.84945312 9.6628125 7.57390625 10.390625 8.3203125 C11.18726563 9.15175781 11.18726563 9.15175781 12 10 C11.67 10.66 11.34 11.32 11 12 C9.16053461 10.38150935 7.32848583 8.75581169 5.5 7.125 C4.97535156 6.66480469 4.45070313 6.20460937 3.91015625 5.73046875 C2.56858245 4.52827924 1.28000815 3.26754054 0 2 C0 1.34 0 0.68 0 0 Z "
        fill="#2D2D2D" transform="translate(270,185)" />
    <path
        d="M0 0 C-1.0625 1.5 -1.0625 1.5 -3 3 C-6.6875 3.1875 -6.6875 3.1875 -10 3 C-9.67 2.01 -9.34 1.02 -9 0 C-5.62182575 -0.84454356 -3.32534757 -1.10844919 0 0 Z "
        fill="#242424" transform="translate(157,295)" />
    <path
        d="M0 0 C0 4.13781054 -1.71509607 5.20919996 -4.5 8.1875 C-5.3353125 9.08855469 -6.170625 9.98960937 -7.03125 10.91796875 C-7.6809375 11.60503906 -8.330625 12.29210937 -9 13 C-9.66 12.67 -10.32 12.34 -11 12 C-9.54234835 10.37438849 -8.08385614 8.74953066 -6.625 7.125 C-5.81289062 6.22007812 -5.00078125 5.31515625 -4.1640625 4.3828125 C-2.80923795 2.89103817 -1.42494565 1.42494565 0 0 Z "
        fill="#2D2D2D" transform="translate(226,185)" />
    <path
        d="M0 0 C3.42856619 1.50982731 5.95678216 3.51713969 8.75 6 C9.54921875 6.70125 10.3484375 7.4025 11.171875 8.125 C13 10 13 10 13 12 C9.81440048 10.60366893 7.76056155 8.95442507 5.375 6.4375 C2.95478041 3.85984611 2.95478041 3.85984611 0 2 C0 1.34 0 0.68 0 0 Z "
        fill="#2A2A2A" transform="translate(214,129)" />
    <path
        d="M0 0 C1.35158203 0.15275391 1.35158203 0.15275391 2.73046875 0.30859375 C3.41753906 0.39238281 4.10460937 0.47617188 4.8125 0.5625 C4.8125 0.8925 4.8125 1.2225 4.8125 1.5625 C4.12542969 1.68367187 3.43835938 1.80484375 2.73046875 1.9296875 C1.37888672 2.18105469 1.37888672 2.18105469 0 2.4375 C-0.89332031 2.59992188 -1.78664062 2.76234375 -2.70703125 2.9296875 C-5.41477846 3.47438449 -5.41477846 3.47438449 -8.1875 5.5625 C-8.1875 3.9125 -8.1875 2.2625 -8.1875 0.5625 C-4.98734144 -0.50421952 -3.30205706 -0.38595472 0 0 Z "
        fill="#CBCBCB" transform="translate(246.1875,169.4375)" />
    <path
        d="M0 0 C0 4.13781054 -1.71509607 5.20919996 -4.5 8.1875 C-5.3353125 9.08855469 -6.170625 9.98960937 -7.03125 10.91796875 C-7.6809375 11.60503906 -8.330625 12.29210937 -9 13 C-9 9.26130751 -8.09514308 8.63449295 -5.625 5.9375 C-4.99851562 5.24527344 -4.37203125 4.55304688 -3.7265625 3.83984375 C-2.50602933 2.53923035 -1.26120903 1.26120903 0 0 Z "
        fill="#292929" transform="translate(280,128)" />
    <path
        d="M0 0 C4.76350585 0.71452588 9.34201396 1.79534844 14 3 C14 3.33 14 3.66 14 4 C4.82713348 4.63019694 4.82713348 4.63019694 1.375 2 C0.92125 1.34 0.4675 0.68 0 0 Z "
        fill="#101010" transform="translate(282,293)" />
    <path
        d="M0 0 C2 3 2 3 2 5 C-1.63 5 -5.26 5 -9 5 C-9 4.34 -9 3.68 -9 3 C-5.92382812 2.70703125 -5.92382812 2.70703125 -2.84765625 2.4140625 C-2.23792969 2.27742188 -1.62820313 2.14078125 -1 2 C-0.67 1.34 -0.34 0.68 0 0 Z "
        fill="#0F0F0F" transform="translate(269,276)" />
    <path
        d="M0 0 C1.79133978 -0.05391993 3.58313899 -0.09275571 5.375 -0.125 C6.37273437 -0.14820313 7.37046875 -0.17140625 8.3984375 -0.1953125 C11 0 11 0 13 2 C11 4 11 4 8.90625 4.08203125 C8.1121875 3.99308594 7.318125 3.90414062 6.5 3.8125 C5.30890625 3.69841797 5.30890625 3.69841797 4.09375 3.58203125 C2 3 2 3 0 0 Z "
        fill="#2F2F2F" transform="translate(243,171)" />
    <path
        d="M0 0 C1.51400391 0.01740234 1.51400391 0.01740234 3.05859375 0.03515625 C4.07050781 0.04417969 5.08242188 0.05320312 6.125 0.0625 C7.29869141 0.07990234 7.29869141 0.07990234 8.49609375 0.09765625 C6.49609375 3.09765625 6.49609375 3.09765625 4.33203125 3.609375 C3.11386719 3.69638672 3.11386719 3.69638672 1.87109375 3.78515625 C1.05382812 3.85089844 0.2365625 3.91664063 -0.60546875 3.984375 C-1.23195313 4.02175781 -1.8584375 4.05914062 -2.50390625 4.09765625 C-2.83390625 3.10765625 -3.16390625 2.11765625 -3.50390625 1.09765625 C-2.50390625 0.09765625 -2.50390625 0.09765625 0 0 Z "
        fill="#313131" transform="translate(319.50390625,277.90234375)" />
    <path
        d="M0 0 C1.79133978 -0.05391993 3.58313899 -0.09275571 5.375 -0.125 C6.37273437 -0.14820313 7.37046875 -0.17140625 8.3984375 -0.1953125 C11 0 11 0 13 2 C11.33315985 3.66684015 9.34356931 3.21072764 7.0625 3.25 C6.16660156 3.27578125 5.27070313 3.3015625 4.34765625 3.328125 C3.57292969 3.21984375 2.79820312 3.1115625 2 3 C1.34 2.01 0.68 1.02 0 0 Z "
        fill="#303030" transform="translate(288,278)" />
    <path
        d="M0 0 C1.37478516 0.01740234 1.37478516 0.01740234 2.77734375 0.03515625 C3.69644531 0.04417969 4.61554688 0.05320312 5.5625 0.0625 C6.27277344 0.07410156 6.98304688 0.08570313 7.71484375 0.09765625 C7.71484375 0.42765625 7.71484375 0.75765625 7.71484375 1.09765625 C6.49796875 1.36578125 5.28109375 1.63390625 4.02734375 1.91015625 C0.49363331 2.78259986 -2.26198445 4.01922564 -5.28515625 6.09765625 C-2.98903326 0.12773646 -2.98903326 0.12773646 0 0 Z "
        fill="#0C0C0C" transform="translate(201.28515625,278.90234375)" />
    <path
        d="M0 0 C3.63 0 7.26 0 11 0 C11.33 0.99 11.66 1.98 12 3 C10.37581255 3.08090971 8.75048255 3.13914995 7.125 3.1875 C5.76761719 3.23970703 5.76761719 3.23970703 4.3828125 3.29296875 C3.20332031 3.14794922 3.20332031 3.14794922 2 3 C1.34 2.01 0.68 1.02 0 0 Z "
        fill="#2D2D2D" transform="translate(230,278)" />
    <path
        d="M0 0 C2.3828125 -0.29296875 2.3828125 -0.29296875 5.125 -0.1875 C6.03507813 -0.16042969 6.94515625 -0.13335937 7.8828125 -0.10546875 C8.58148438 -0.07066406 9.28015625 -0.03585937 10 0 C10 0.33 10 0.66 10 1 C8.205625 1.37125 8.205625 1.37125 6.375 1.75 C2.20550902 2.77382519 -0.5823753 4.43678148 -4 7 C-2.79618552 4.50638429 -1.54571278 2.31856917 0 0 Z "
        fill="#0A0A0A" transform="translate(170,279)" />
    <path
        d="M0 0 C0.99 0.66 1.98 1.32 3 2 C-0.14930893 3.04976964 -2.38814456 3.10131595 -5.6875 3.0625 C-6.68136719 3.05347656 -7.67523438 3.04445313 -8.69921875 3.03515625 C-9.83810547 3.01775391 -9.83810547 3.01775391 -11 3 C-7.22326747 -0.14589369 -4.94221855 -0.4492926 0 0 Z "
        fill="#363636" transform="translate(211,295)" />
    <path
        d="M0 0 C5.94 1.485 5.94 1.485 12 3 C12 3.33 12 3.66 12 4 C10.37509046 4.02698189 8.75005367 4.04638757 7.125 4.0625 C5.76761719 4.07990234 5.76761719 4.07990234 4.3828125 4.09765625 C2 4 2 4 0 3 C0 2.01 0 1.02 0 0 Z "
        fill="#0F0F0F" transform="translate(255,293)" />
    <path
        d="M0 0 C0.33 0 0.66 0 1 0 C1.33 3.3 1.66 6.6 2 10 C1.34 10 0.68 10 0 10 C-0.33 11.32 -0.66 12.64 -1 14 C-1.18451025 4.58997722 -1.18451025 4.58997722 0 0 Z "
        fill="#282828" transform="translate(262,200)" />
    <path
        d="M0 0 C3.94727588 -0.17942163 6.5980513 -0.09350689 10 2 C10 2.66 10 3.32 10 4 C3.47692308 3.38461538 3.47692308 3.38461538 1.0625 1.4375 C0.711875 0.963125 0.36125 0.48875 0 0 Z "
        fill="#151515" transform="translate(248,153)" />
    <path
        d="M0 0 C1.76462683 3.08809695 2 4.23312136 2 8 C1.34 8 0.68 8 0 8 C0 9.65 0 11.3 0 13 C-0.33 13 -0.66 13 -1 13 C-1.02708567 11.39592672 -1.04643483 9.7917215 -1.0625 8.1875 C-1.07410156 7.29417969 -1.08570313 6.40085937 -1.09765625 5.48046875 C-1 3 -1 3 0 0 Z "
        fill="#303030" transform="translate(254,260)" />
    <path
        d="M0 0 C1.65 0 3.3 0 5 0 C5 2.31 5 4.62 5 7 C4.67 7 4.34 7 4 7 C4 5.35 4 3.7 4 2 C2.35 2.66 0.7 3.32 -1 4 C-0.67 2.68 -0.34 1.36 0 0 Z "
        fill="#334757" transform="translate(338,329)" />
    <path
        d="M0 0 C0.33 0 0.66 0 1 0 C1 1.65 1 3.3 1 5 C2.98 5 4.96 5 7 5 C7 5.33 7 5.66 7 6 C5.02 6 3.04 6 1 6 C1 7.65 1 9.3 1 11 C-0.98362069 8.08291076 -0.9876191 6.87619096 -0.625 3.25 C-0.41875 2.1775 -0.2125 1.105 0 0 Z "
        fill="#080808" transform="translate(235,198)" />
    <path
        d="M0 0 C0 0.66 0 1.32 0 2 C-1.6796875 3.2890625 -1.6796875 3.2890625 -3.875 4.625 C-4.95394531 5.29402344 -4.95394531 5.29402344 -6.0546875 5.9765625 C-8 7 -8 7 -10 7 C-8.60449526 2.81348579 -4.64858615 0 0 0 Z "
        fill="#373737" transform="translate(280,144)" />
    <path
        d="M0 0 C2.63249349 2.45699392 4.78137264 4.56568654 6 8 C5.67 8.99 5.34 9.98 5 11 C4.15841464 9.73461631 3.32700252 8.46246221 2.5 7.1875 C1.80390625 6.12595703 1.80390625 6.12595703 1.09375 5.04296875 C0 3 0 3 0 0 Z "
        fill="#373737" transform="translate(230,130)" />
    <path
        d="M0 0 C1 3 1 3 0.22265625 4.82421875 C-0.8515625 6.54947917 -1.92578125 8.27473958 -3 10 C-3.66 10 -4.32 10 -5 10 C-3.66511872 6.40608886 -2.03977277 3.24509304 0 0 Z "
        fill="#404040" transform="translate(274,115)" />
    <path
        d="M0 0 C0.99 0.33 1.98 0.66 3 1 C3.33 2.98 3.66 4.96 4 7 C3.01 6.67 2.02 6.34 1 6 C0.67 4.02 0.34 2.04 0 0 Z "
        fill="#374B5A" transform="translate(318,349)" />
    <path
        d="M0 0 C3.66881155 0.70554068 6.70450534 2.27735506 10 4 C10 4.66 10 5.32 10 6 C5.56909529 4.79157144 3.01887244 3.48331435 0 0 Z "
        fill="#333333" transform="translate(270,176)" />
    <path
        d="M0 0 C-1.28813342 0.83878455 -2.58063256 1.67086783 -3.875 2.5 C-4.59429687 2.9640625 -5.31359375 3.428125 -6.0546875 3.90625 C-8 5 -8 5 -10 5 C-10 4.34 -10 3.68 -10 3 C-3.375 -1.125 -3.375 -1.125 0 0 Z "
        fill="#333333" transform="translate(227,177)" />
    <path d="M0 0 C1.98 0 3.96 0 6 0 C5.67 0.99 5.34 1.98 5 3 C3.02 3 1.04 3 -1 3 C-0.67 2.01 -0.34 1.02 0 0 Z "
        fill="#262626" transform="translate(177,295)" />
    <path d="M0 0 C0 0.66 0 1.32 0 2 C-6.75 6 -6.75 6 -9 6 C-9 5.34 -9 4.68 -9 4 C-2.25 0 -2.25 0 0 0 Z " fill="#343434"
        transform="translate(211,185)" />
    <path d="M0 0 C-0.33 0.99 -0.66 1.98 -1 3 C-3.31 3.33 -5.62 3.66 -8 4 C-4.5 0 -4.5 0 0 0 Z " fill="#354958"
        transform="translate(243,361)" />
    <path d="M0 0 C2.97 0.495 2.97 0.495 6 1 C5.67 2.32 5.34 3.64 5 5 C2.525 4.01 2.525 4.01 0 3 C0 2.01 0 1.02 0 0 Z "
        fill="#3B4E5D" transform="translate(236,328)" />
    <path
        d="M0 0 C0.78375 0.04125 1.5675 0.0825 2.375 0.125 C2.045 1.115 1.715 2.105 1.375 3.125 C0.385 3.125 -0.605 3.125 -1.625 3.125 C-1.955 4.445 -2.285 5.765 -2.625 7.125 C-3.285 5.475 -3.945 3.825 -4.625 2.125 C-2.625 0.125 -2.625 0.125 0 0 Z "
        fill="#303030" transform="translate(249.625,253.875)" />
    <path
        d="M0 0 C3.93673644 1.31224548 6.22719294 2.91910327 9 6 C5.59687262 4.94124926 2.98646769 3.99097846 0 2 C0 1.34 0 0.68 0 0 Z "
        fill="#363636" transform="translate(202,135)" />
    <path
        d="M0 0 C3 1 3 1 4.75 3.375 C6 6 6 6 5 9 C4.16396622 7.68921847 3.3312426 6.37632511 2.5 5.0625 C2.0359375 4.33160156 1.571875 3.60070312 1.09375 2.84765625 C0 1 0 1 0 0 Z "
        fill="#303030" transform="translate(221,116)" />
    <path
        d="M0 0 C1.4384798 0.06423833 2.87666999 0.14163547 4.3125 0.25 C4.3125 0.58 4.3125 0.91 4.3125 1.25 C3.260625 1.37375 2.20875 1.4975 1.125 1.625 C-2.14708771 2.16140782 -4.69286076 2.88880035 -7.6875 4.25 C-5.84004374 0.30875998 -4.09551026 -0.02575793 0 0 Z "
        fill="#070707" transform="translate(292.6875,278.75)" />
</svg>