<?xml version="1.0" encoding="UTF-8"?>
<svg version="1.1" xmlns="http://www.w3.org/2000/svg" width="500" height="500">
<path d="M0 0 C165 0 330 0 500 0 C500 165 500 330 500 500 C335 500 170 500 0 500 C0 335 0 170 0 0 Z " fill="#FEFEFE" transform="translate(0,0)"/>
<path d="M0 0 C108.9 0 217.8 0 330 0 C330 95.7 330 191.4 330 290 C221.1 290 112.2 290 0 290 C0 194.3 0 98.6 0 0 Z " fill="#324256" transform="translate(94,105)"/>
<path d="M0 0 C0 0.66 0 1.32 0 2 C-2.31 2.33 -4.62 2.66 -7 3 C-7 4.65 -7 6.3 -7 8 C-4.03 8 -1.06 8 2 8 C2 6.02 2 4.04 2 2 C2.66 2 3.32 2 4 2 C4 3.98 4 5.96 4 8 C4.928125 8.268125 5.85625 8.53625 6.8125 8.8125 C11.58823529 10.5916955 11.58823529 10.5916955 13 13 C12.875 16.5625 12.875 16.5625 12 20 C11.01 20.66 10.02 21.32 9 22 C9.68651279 32.95305013 10.76536064 43.84050606 11.9375 54.75 C12.10893337 56.36456111 12.28015801 57.9791444 12.45117188 59.59375 C13.13814767 66.05809436 13.82652908 72.52188308 14.5703125 78.97998047 C14.66260635 79.78743713 14.75490021 80.5948938 14.84999084 81.42681885 C15.02485977 82.95053182 15.2022728 84.473956 15.38279724 85.99700928 C16.03409001 91.68287092 16.22660236 97.28458491 16 103 C16.92039062 103.46019531 16.92039062 103.46019531 17.859375 103.9296875 C19.90625 104.953125 21.953125 105.9765625 24 107 C24.94875 106.195625 25.8975 105.39125 26.875 104.5625 C31.06610265 101.00917384 31.06610265 101.00917384 33.98828125 100.98046875 C39.11256499 101.43691755 42.31907487 102.08159582 46 106 C46 106.66 46 107.32 46 108 C48.44030285 106.61496324 50.63354873 105.36645127 52.625 103.375 C54.76722512 101.23277488 57.15326102 100.96872224 60.0625 100.375 C66.17961667 101.3459709 69.94234548 105.47698068 74 110 C74 110.66 74 111.32 74 112 C77.50538557 113.96301592 81.13351728 114.95902388 85 116 C85 116.66 85 117.32 85 118 C81.23910288 118.54846416 79.12893551 118.741453 75.89453125 116.6171875 C72.1622376 113.38206618 69.00268959 109.92659407 66 106 C62.80261338 104.40130669 59.469833 104.48914505 56 105 C53.03268602 106.83656989 53.03268602 106.83656989 51 109 C51.27617533 110.94074861 51.27617533 110.94074861 52 113 C54.91765 114.9451 56.62537285 115.45276317 60 116 C60 116.66 60 117.32 60 118 C58.39431334 117.71682074 56.79047953 117.42312209 55.1875 117.125 C54.29417969 116.96257812 53.40085937 116.80015625 52.48046875 116.6328125 C50 116 50 116 47 114 C45.824375 114.99 45.824375 114.99 44.625 116 C40.35487896 118.84337444 35.95579394 118.70220533 31 118 C27.625 116.5 27.625 116.5 25 115 C21.11411144 114.60788553 21.11411144 114.60788553 18.9375 116.5 C14.41523731 118.80924052 9.98046063 118.71046917 5 118 C2.9765625 116.95703125 2.9765625 116.95703125 1.25 115.75 C0.1775 115.1725 -0.895 114.595 -2 114 C-5.2809317 115.53751371 -5.2809317 115.53751371 -7.25 116.9609375 C-11.22329901 119.32008378 -15.43772266 118.13342174 -19.6875 117.125 C-22.28923433 116.24139212 -24.61101382 115.33783226 -27 114 C-27.825 114.66 -28.65 115.32 -29.5 116 C-33.19799419 118.45372791 -36.68117541 118.56694995 -41 118 C-44.96323118 117.09040596 -47.61517128 116.25655248 -51 114 C-52.0209375 114.99 -52.0209375 114.99 -53.0625 116 C-56.64457375 118.43885872 -58.75519536 118.33292585 -63 118 C-63 117.34 -63 116.68 -63 116 C-62.43410156 115.82984375 -61.86820313 115.6596875 -61.28515625 115.484375 C-60.18494141 115.12085938 -60.18494141 115.12085938 -59.0625 114.75 C-58.33160156 114.51796875 -57.60070312 114.2859375 -56.84765625 114.046875 C-54.79429444 113.1492447 -54.79429444 113.1492447 -54.24609375 110.890625 C-54.16488281 110.26671875 -54.08367187 109.6428125 -54 109 C-56.85807336 106.14192664 -58.98106842 104.68267871 -63 104.5 C-67.12951902 104.73972863 -69.07733891 106.00042678 -72 109 C-73.5554008 110.78156877 -75.08405347 112.57431484 -76.5703125 114.4140625 C-78 116 -78 116 -81 118 C-84.1875 118.125 -84.1875 118.125 -87 118 C-87 117.34 -87 116.68 -87 116 C-86.443125 115.81566406 -85.88625 115.63132812 -85.3125 115.44140625 C-79.22995991 113.12963003 -75.84966107 110.10376512 -71.82421875 105.0234375 C-69.37401139 102.30564861 -67.49784882 101.08038545 -63.81640625 100.8828125 C-57.47910961 101.56376985 -54.51181694 103.48818306 -50 108 C-49.50371094 107.4946875 -49.00742188 106.989375 -48.49609375 106.46875 C-42.97017282 101.18399829 -42.97017282 101.18399829 -38.375 100.3125 C-34.43232195 101.11563812 -32.19202984 102.58824412 -29 105 C-27.6808418 105.69429379 -26.35350594 106.37530495 -25 107 C-23.11701366 105.41361621 -22.10739566 104.45980367 -21.53930664 102.02758789 C-21.4753772 100.88664673 -21.4753772 100.88664673 -21.41015625 99.72265625 C-21.35013428 98.83408936 -21.2901123 97.94552246 -21.22827148 97.0300293 C-21.1462146 95.56110229 -21.1462146 95.56110229 -21.0625 94.0625 C-20.30557959 83.06519557 -19.18909615 72.13697023 -17.9375 61.1875 C-15.79797405 44.13548316 -15.79797405 44.13548316 -14.75 27 C-14.72421875 26.113125 -14.6984375 25.22625 -14.671875 24.3125 C-15.06983078 21.50785923 -15.94452192 20.84940187 -18 19 C-18.5625 16.125 -18.5625 16.125 -18 13 C-16.17285089 10.79363126 -14.44042354 9.62694903 -12 8 C-11.01 8 -10.02 8 -9 8 C-9.061875 7.05125 -9.12375 6.1025 -9.1875 5.125 C-9.0946875 3.578125 -9.0946875 3.578125 -9 2 C-5.5647952 -0.29013653 -4.014669 -0.17842973 0 0 Z " fill="#CED0DA" transform="translate(262,164)"/>
<path d="M0 0 C3.27636518 0.76208494 4.84329069 2.04219602 7.1328125 4.49609375 C7.63111347 7.2168782 7.83291762 9.39838725 7.8203125 12.12109375 C7.92948357 20.4852775 8.88712827 28.714202 9.84915161 37.0135498 C10.61063781 43.67792628 11.29855858 50.35054843 11.99267578 57.0222168 C12.17113858 58.72944517 12.35151284 60.43647469 12.53369141 62.14331055 C12.80297353 64.66800978 13.06616875 67.19328139 13.328125 69.71875 C13.40934601 70.46890884 13.49056702 71.21906769 13.57424927 71.99195862 C14.10363541 77.18339674 14.19923445 82.27745684 14.1328125 87.49609375 C11.4928125 87.82609375 8.8528125 88.15609375 6.1328125 88.49609375 C4.75357619 82.79525032 3.82123705 77.3144429 3.37890625 71.46484375 C3.33740227 69.49603665 3.33740227 69.49603665 2.1328125 68.49609375 C0.4828125 68.49609375 -1.1671875 68.49609375 -2.8671875 68.49609375 C-3.8571875 75.09609375 -4.8471875 81.69609375 -5.8671875 88.49609375 C-9.8271875 88.49609375 -13.7871875 88.49609375 -17.8671875 88.49609375 C-17.7228125 87.21734375 -17.5784375 85.93859375 -17.4296875 84.62109375 C-16.86991134 79.58310827 -16.36463796 74.54055229 -15.8671875 69.49609375 C-15.70077828 67.82940136 -15.5341124 66.16273457 -15.3671875 64.49609375 C-15.2846875 63.67109375 -15.2021875 62.84609375 -15.1171875 61.99609375 C-14.3671875 54.49609375 -14.3671875 54.49609375 -14.1171875 52.00390625 C-13.9484643 50.31140167 -13.78184693 48.61868602 -13.6171875 46.92578125 C-13.11267292 41.77027286 -12.53312386 36.63331709 -11.8671875 31.49609375 C-10.2171875 31.49609375 -8.5671875 31.49609375 -6.8671875 31.49609375 C-6.8671875 30.83609375 -6.8671875 30.17609375 -6.8671875 29.49609375 C-8.1871875 29.49609375 -9.5071875 29.49609375 -10.8671875 29.49609375 C-10.8671875 28.50609375 -10.8671875 27.51609375 -10.8671875 26.49609375 C-9.5471875 26.49609375 -8.2271875 26.49609375 -6.8671875 26.49609375 C-6.8671875 25.83609375 -6.8671875 25.17609375 -6.8671875 24.49609375 C-8.1871875 24.49609375 -9.5071875 24.49609375 -10.8671875 24.49609375 C-10.8671875 23.50609375 -10.8671875 22.51609375 -10.8671875 21.49609375 C-9.5471875 21.49609375 -8.2271875 21.49609375 -6.8671875 21.49609375 C-6.8671875 20.83609375 -6.8671875 20.17609375 -6.8671875 19.49609375 C-8.1871875 19.49609375 -9.5071875 19.49609375 -10.8671875 19.49609375 C-10.8671875 18.50609375 -10.8671875 17.51609375 -10.8671875 16.49609375 C-9.5471875 16.49609375 -8.2271875 16.49609375 -6.8671875 16.49609375 C-6.8671875 15.83609375 -6.8671875 15.17609375 -6.8671875 14.49609375 C-7.8571875 14.49609375 -8.8471875 14.49609375 -9.8671875 14.49609375 C-9.8671875 13.50609375 -9.8671875 12.51609375 -9.8671875 11.49609375 C-8.8771875 11.49609375 -7.8871875 11.49609375 -6.8671875 11.49609375 C-6.8671875 10.83609375 -6.8671875 10.17609375 -6.8671875 9.49609375 C-7.8571875 9.49609375 -8.8471875 9.49609375 -9.8671875 9.49609375 C-9.8671875 8.50609375 -9.8671875 7.51609375 -9.8671875 6.49609375 C-8.8771875 6.49609375 -7.8871875 6.49609375 -6.8671875 6.49609375 C-6.8671875 5.83609375 -6.8671875 5.17609375 -6.8671875 4.49609375 C-7.5271875 4.16609375 -8.1871875 3.83609375 -8.8671875 3.49609375 C-6.57147272 0.05252158 -3.9392509 0.11586032 0 0 Z " fill="#39485C" transform="translate(260.8671875,177.50390625)"/>
<path d="M0 0 C2.375 -0.125 2.375 -0.125 5 0 C7.35926204 2.35926204 7.33157398 3.12400689 7.6328125 6.3515625 C7.75849609 7.62773437 7.75849609 7.62773437 7.88671875 8.9296875 C7.96535156 9.81914062 8.04398437 10.70859375 8.125 11.625 C8.21136719 12.5221875 8.29773438 13.419375 8.38671875 14.34375 C8.59908089 16.56175458 8.80056861 18.78079539 9 21 C11.97 21 14.94 21 18 21 C18 19.02 18 17.04 18 15 C19.4606285 17.64738916 20 18.89448334 20 22 C20.5775 22.28875 21.155 22.5775 21.75 22.875 C23.83333333 23.91666667 25.91666667 24.95833333 28 26 C28.94875 25.195625 29.8975 24.39125 30.875 23.5625 C35.06610265 20.00917384 35.06610265 20.00917384 37.98828125 19.98046875 C43.11256499 20.43691755 46.31907487 21.08159582 50 25 C50 25.66 50 26.32 50 27 C52.44030285 25.61496324 54.63354873 24.36645127 56.625 22.375 C58.76722512 20.23277488 61.15326102 19.96872224 64.0625 19.375 C70.17961667 20.3459709 73.94234548 24.47698068 78 29 C78 29.66 78 30.32 78 31 C81.50538557 32.96301592 85.13351728 33.95902388 89 35 C89 35.66 89 36.32 89 37 C85.23910288 37.54846416 83.12893551 37.741453 79.89453125 35.6171875 C76.1622376 32.38206618 73.00268959 28.92659407 70 25 C66.80261338 23.40130669 63.469833 23.48914505 60 24 C57.03268602 25.83656989 57.03268602 25.83656989 55 28 C55.27617533 29.94074861 55.27617533 29.94074861 56 32 C58.91765 33.9451 60.62537285 34.45276317 64 35 C64 35.66 64 36.32 64 37 C62.39431334 36.71682074 60.79047953 36.42312209 59.1875 36.125 C58.29417969 35.96257812 57.40085937 35.80015625 56.48046875 35.6328125 C54 35 54 35 51 33 C50.21625 33.66 49.4325 34.32 48.625 35 C44.35487896 37.84337444 39.95579394 37.70220533 35 37 C31.625 35.5 31.625 35.5 29 34 C25.11411144 33.60788553 25.11411144 33.60788553 22.9375 35.5 C18.40472063 37.81461074 13.99113052 37.68942234 9 37 C6.94140625 36.0625 6.94140625 36.0625 5.1875 34.9375 C2.15702488 32.68237487 2.15702488 32.68237487 -1.25 33.1875 C-3.17727451 33.75692201 -5.09349387 34.36449796 -7 35 C-12.71717911 35.53935652 -15.48784435 34.52168246 -20 31 C-19.6858889 28.06829636 -18.9610478 26.95750669 -16.9375 24.75 C-12.54880476 22.13545815 -8.760165 22.36156183 -3.75390625 23.51953125 C-2.88572266 23.75736328 -2.88572266 23.75736328 -2 24 C-2.02320313 22.77023437 -2.04640625 21.54046875 -2.0703125 20.2734375 C-2.08908039 18.6406311 -2.10727949 17.0078181 -2.125 15.375 C-2.14175781 14.56675781 -2.15851563 13.75851562 -2.17578125 12.92578125 C-2.21420986 8.19906185 -1.82737094 4.44612298 0 0 Z " fill="#D2D4DD" transform="translate(258,245)"/>
<path d="M0 0 C16.62025316 0 16.62025316 0 23 5 C26.29544631 10.04009436 26.75818514 15.13185477 26 21 C24.37654755 26.21213683 22.60072209 29.04239294 18 32 C13 34 13 34 0 34 C0 22.78 0 11.56 0 0 Z " fill="#3B4A5D" transform="translate(236,306)"/>
<path d="M0 0 C2.31 0 4.62 0 7 0 C10.25106618 7.30174735 13.37386259 14.46774405 15.45703125 22.20703125 C15.84753455 24.00480528 15.84753455 24.00480528 17 25 C17.23187012 24.38479492 17.46374023 23.76958984 17.70263672 23.13574219 C18.7578918 20.33965902 19.81641064 17.54482243 20.875 14.75 C21.23980469 13.78191406 21.60460937 12.81382812 21.98046875 11.81640625 C22.33496094 10.88183594 22.68945312 9.94726562 23.0546875 8.984375 C23.37937012 8.12553711 23.70405273 7.26669922 24.03857422 6.38183594 C24.92426143 4.18763471 25.9084845 2.09808816 27 0 C28.98 0 30.96 0 33 0 C33 10.89 33 21.78 33 33 C31.68 33 30.36 33 29 33 C28.505 21.12 28.505 21.12 28 9 C27.39671875 10.64871094 26.7934375 12.29742187 26.171875 13.99609375 C25.36541048 16.14353998 24.55807359 18.29065874 23.75 20.4375 C23.35425781 21.52611328 22.95851563 22.61472656 22.55078125 23.73632812 C22.15761719 24.77080078 21.76445312 25.80527344 21.359375 26.87109375 C21.00327148 27.82943115 20.64716797 28.78776855 20.28027344 29.77514648 C19 32 19 32 16.85253906 32.82055664 C16.24120117 32.87977295 15.62986328 32.93898926 15 33 C12.45380649 28.21254634 10.6205685 23.36390168 8.875 18.25 C7.16073381 13.03377988 7.16073381 13.03377988 5 8 C4.67 16.25 4.34 24.5 4 33 C2.68 33 1.36 33 0 33 C0 22.11 0 11.22 0 0 Z " fill="#D3D5D8" transform="translate(307,307)"/>
<path d="M0 0 C0.33 0 0.66 0 1 0 C1 1.98 1 3.96 1 6 C1.928125 6.268125 2.85625 6.53625 3.8125 6.8125 C8.58823529 8.5916955 8.58823529 8.5916955 10 11 C9.875 14.5625 9.875 14.5625 9 18 C8.01 18.66 7.02 19.32 6 20 C6.68651279 30.95305013 7.76536064 41.84050606 8.9375 52.75 C9.10893337 54.36456111 9.28015801 55.9791444 9.45117188 57.59375 C9.62224836 59.20314068 9.79347189 60.81251574 9.96484375 62.421875 C10.04898529 63.21251343 10.13312683 64.00315186 10.21981812 64.81774902 C10.65279653 68.85805591 11.10107056 72.89588608 11.57470703 76.93164062 C11.66756485 77.73289368 11.76042267 78.53414673 11.85609436 79.35968018 C12.03140984 80.86563417 12.21033669 82.37117455 12.39378357 83.87615967 C12.94315533 88.61738843 13.23752484 93.22623544 13 98 C11 100 11 100 7.375 100.125 C6.26125 100.08375 5.1475 100.0425 4 100 C4 99.67 4 99.34 4 99 C5.98 99 7.96 99 10 99 C9.32546266 92.49355681 8.64988059 85.98722266 7.97363281 79.48095703 C7.74456127 77.27590283 7.51571328 75.07082539 7.28710938 72.86572266 C6.95504215 69.66302169 6.62222043 66.46040018 6.2890625 63.2578125 C6.18004608 62.20773514 6.07102966 61.15765778 5.95870972 60.07575989 C5.37550505 54.48776485 4.76640344 48.90385735 4.12402344 43.32237244 C3.28474539 36.01938562 2.66320629 28.78243452 2.609375 21.42773438 C2.50003937 18.24181547 2.40986142 16.44940945 0.21875 14.046875 C-3.41120875 12.33414798 -6.00910764 12.67815384 -10 13 C-10.66 13.66 -11.32 14.32 -12 15 C-11.67 15.99 -11.34 16.98 -11 18 C-11.99 18 -12.98 18 -14 18 C-14 18.99 -14 19.98 -14 21 C-13.01 21 -12.02 21 -11 21 C-11 21.66 -11 22.32 -11 23 C-11.99 23 -12.98 23 -14 23 C-14 23.99 -14 24.98 -14 26 C-13.01 26 -12.02 26 -11 26 C-11 26.66 -11 27.32 -11 28 C-12.32 28 -13.64 28 -15 28 C-15.33 24.37 -15.66 20.74 -16 17 C-16.99 16.67 -17.98 16.34 -19 16 C-18.8125 13.6875 -18.8125 13.6875 -18 11 C-14.1955896 8.07777172 -11.41885022 7.65652142 -6.6875 7.8125 C-5.08455078 7.85310547 -5.08455078 7.85310547 -3.44921875 7.89453125 C-2.64097656 7.92933594 -1.83273437 7.96414062 -1 8 C-0.67 5.36 -0.34 2.72 0 0 Z " fill="#D7D8E1" transform="translate(265,166)"/>
<path d="M0 0 C2.7356442 1.80436106 4.69749576 3.69749576 7 6 C7.49628906 5.4946875 7.99257812 4.989375 8.50390625 4.46875 C14.05806968 -0.84301161 14.05806968 -0.84301161 18.75 -1.625 C22.13019706 -0.9749621 23.63104051 -0.45669873 26 2 C27.5753672 4.57033596 28.37036727 7.06171392 29 10 C27.02 11.32 25.04 12.64 23 14 C23.495 14.99 23.495 14.99 24 16 C17.29157865 16.23538321 11.76240474 15.84160316 6 12 C5.319375 12.66 4.63875 13.32 3.9375 14 C0.35542625 16.43885872 -1.75519536 16.33292585 -6 16 C-6 15.34 -6 14.68 -6 14 C-5.43410156 13.82984375 -4.86820313 13.6596875 -4.28515625 13.484375 C-3.55167969 13.24203125 -2.81820312 12.9996875 -2.0625 12.75 C-1.33160156 12.51796875 -0.60070312 12.2859375 0.15234375 12.046875 C2.20570556 11.1492447 2.20570556 11.1492447 2.75390625 8.890625 C2.83511719 8.26671875 2.91632813 7.6428125 3 7 C0.14192664 4.14192664 -1.98106842 2.68267871 -6 2.5 C-10.12951902 2.73972863 -12.07733891 4.00042678 -15 7 C-16.5554008 8.78156877 -18.08405347 10.57431484 -19.5703125 12.4140625 C-21 14 -21 14 -24 16 C-27.1875 16.125 -27.1875 16.125 -30 16 C-30 15.34 -30 14.68 -30 14 C-29.443125 13.81566406 -28.88625 13.63132812 -28.3125 13.44140625 C-22.22995991 11.12963003 -18.84966107 8.10376512 -14.82421875 3.0234375 C-10.47280167 -1.80318787 -5.97542881 -1.50452761 0 0 Z " fill="#D5D7E0" transform="translate(205,266)"/>
<path d="M0 0 C-0.33 0.99 -0.66 1.98 -1 3 C-1.80824219 2.97679687 -2.61648437 2.95359375 -3.44921875 2.9296875 C-4.51785156 2.91164063 -5.58648437 2.89359375 -6.6875 2.875 C-7.74324219 2.85179687 -8.79898438 2.82859375 -9.88671875 2.8046875 C-14.09393626 3.06862837 -16.80324771 3.77973074 -19.7890625 6.82421875 C-22.21410815 11.1814782 -21.65391447 16.40803467 -20.4609375 21.13671875 C-19.47679162 23.71604613 -18.57166837 25.61463427 -16.25 27.1796875 C-13.46499412 28.19505423 -11.20695934 28.19540379 -8.25 28.125 C-7.26515625 28.10695313 -6.2803125 28.08890625 -5.265625 28.0703125 C-4.51796875 28.04710937 -3.7703125 28.02390625 -3 28 C-3 24.7 -3 21.4 -3 18 C-5.64 18 -8.28 18 -11 18 C-11 16.68 -11 15.36 -11 14 C-7.04 14 -3.08 14 1 14 C1 19.61 1 25.22 1 31 C-2.59001609 32.19667203 -5.5904839 32.20538881 -9.375 32.25 C-10.68210938 32.27578125 -11.98921875 32.3015625 -13.3359375 32.328125 C-17.1838619 31.98353476 -18.96933012 31.32624391 -22 29 C-26.31659387 23.63342383 -26.62497983 18.90179475 -26.375 12.09765625 C-25.82292085 7.53725245 -24.99989703 5.52487901 -22 2 C-15.44464086 -2.94241524 -7.35477791 -3.79601441 0 0 Z " fill="#D5D7DA" transform="translate(180,308)"/>
<path d="M0 0 C16.62025316 0 16.62025316 0 23 5 C26.29544631 10.04009436 26.75818514 15.13185477 26 21 C24.37654755 26.21213683 22.60072209 29.04239294 18 32 C13 34 13 34 0 34 C0 22.78 0 11.56 0 0 Z M3 4 C3 12.58 3 21.16 3 30 C11.73273032 30.2071391 11.73273032 30.2071391 19 27 C21.92423759 23.88710192 22.22168609 21.12721035 22.375 17 C22.24019329 12.8761403 21.74151614 10.2310726 19 7 C14.23333333 2.8 14.23333333 2.8 3 4 Z " fill="#DFE0E1" transform="translate(236,306)"/>
<path d="M0 0 C0.74886475 0.00523682 1.49772949 0.01047363 2.26928711 0.01586914 C3.07817383 0.0190918 3.88706055 0.02231445 4.72045898 0.02563477 C5.5705957 0.03401367 6.42073242 0.04239258 7.29663086 0.05102539 C8.15063477 0.05553711 9.00463867 0.06004883 9.88452148 0.06469727 C12.00108749 0.07652166 14.11761771 0.0944577 16.23413086 0.11352539 C16.23413086 1.43352539 16.23413086 2.75352539 16.23413086 4.11352539 C11.28413086 4.11352539 6.33413086 4.11352539 1.23413086 4.11352539 C1.23413086 7.74352539 1.23413086 11.37352539 1.23413086 15.11352539 C5.85413086 15.11352539 10.47413086 15.11352539 15.23413086 15.11352539 C15.23413086 16.10352539 15.23413086 17.09352539 15.23413086 18.11352539 C10.61413086 18.11352539 5.99413086 18.11352539 1.23413086 18.11352539 C1.23413086 22.07352539 1.23413086 26.03352539 1.23413086 30.11352539 C6.18413086 30.11352539 11.13413086 30.11352539 16.23413086 30.11352539 C16.23413086 31.43352539 16.23413086 32.75352539 16.23413086 34.11352539 C9.96413086 34.11352539 3.69413086 34.11352539 -2.76586914 34.11352539 C-2.78878002 29.43206828 -2.80870646 24.75080437 -2.82080078 20.06933594 C-2.82584071 18.47557925 -2.83267264 16.8818272 -2.84130859 15.28808594 C-2.85338913 13.00202286 -2.85910069 10.71602072 -2.86352539 8.42993164 C-2.86868668 7.71325821 -2.87384796 6.99658478 -2.87916565 6.25819397 C-2.87936177 4.54288867 -2.82778921 2.82771273 -2.76586914 1.11352539 C-1.76586914 0.11352539 -1.76586914 0.11352539 0 0 Z " fill="#D0D3D6" transform="translate(271.765869140625,305.886474609375)"/>
<path d="M0 0 C1.32 0 2.64 0 4 0 C4.08746928 4.04152915 4.14054982 8.08281305 4.1875 12.125 C4.21263672 13.26710938 4.23777344 14.40921875 4.26367188 15.5859375 C4.35795406 26.39696184 4.35795406 26.39696184 1 31 C-2.09152819 34.13806732 -4.60374403 34.45627989 -8.9375 34.5 C-15.42512269 34.36550051 -15.42512269 34.36550051 -18.1875 31.5625 C-18.785625 30.716875 -19.38375 29.87125 -20 29 C-20.33 28.67 -20.66 28.34 -21 28 C-21.08758003 26.00035018 -21.10696576 23.9976389 -21.09765625 21.99609375 C-21.09443359 20.78115234 -21.09121094 19.56621094 -21.08789062 18.31445312 C-21.07951172 17.03505859 -21.07113281 15.75566406 -21.0625 14.4375 C-21.05798828 13.15423828 -21.05347656 11.87097656 -21.04882812 10.54882812 C-21.03699545 7.36583978 -21.02051068 4.18294238 -21 1 C-20.01 1 -19.02 1 -18 1 C-17.98018066 1.64026123 -17.96036133 2.28052246 -17.93994141 2.94018555 C-17.84436399 5.8563528 -17.73481786 8.77183572 -17.625 11.6875 C-17.57859375 13.19860352 -17.57859375 13.19860352 -17.53125 14.74023438 C-17.49257812 15.71669922 -17.45390625 16.69316406 -17.4140625 17.69921875 C-17.3826416 18.59471436 -17.3512207 19.49020996 -17.31884766 20.4128418 C-16.96907623 23.25091824 -16.26210756 25.43793847 -15 28 C-12.67313547 29.16343227 -11.15278587 29.19895988 -8.5625 29.25 C-7.78003906 29.27578125 -6.99757812 29.3015625 -6.19140625 29.328125 C-3.37679639 28.90668609 -2.70374732 28.26341371 -1 26 C-0.4939264 23.1971271 -0.4939264 23.1971271 -0.48828125 20.01953125 C-0.45283203 18.85615234 -0.41738281 17.69277344 -0.38085938 16.49414062 C-0.35830078 15.27919922 -0.33574219 14.06425781 -0.3125 12.8125 C-0.27833984 11.58595703 -0.24417969 10.35941406 -0.20898438 9.09570312 C-0.1264059 6.06389322 -0.05728631 3.03237621 0 0 Z " fill="#DADBDD" transform="translate(210,306)"/>
<path d="M0 0 C5.94 0 11.88 0 18 0 C18 0.99 18 1.98 18 3 C13.38 3 8.76 3 4 3 C4 6.63 4 10.26 4 14 C8.62 14 13.24 14 18 14 C18 14.99 18 15.98 18 17 C13.38 17 8.76 17 4 17 C4 20.96 4 24.92 4 29 C8.95 29 13.9 29 19 29 C19 30.32 19 31.64 19 33 C12.73 33 6.46 33 0 33 C0 22.11 0 11.22 0 0 Z " fill="#D8DADC" transform="translate(349,307)"/>
<path d="M0 0 C0.99 0 1.98 0 3 0 C3.15819214 1.51460815 3.15819214 1.51460815 3.31958008 3.05981445 C3.72513614 6.94033224 4.13171834 10.82074193 4.53869629 14.70111084 C4.72092295 16.43908849 4.90297109 18.17708486 5.08483887 19.9151001 C6.00445145 28.69820043 6.93038455 37.47991045 7.93359375 46.25390625 C8.07240967 47.46973389 8.21122559 48.68556152 8.35424805 49.93823242 C8.61086366 52.16671978 8.87121453 54.39478143 9.13598633 56.62231445 C9.76817138 62.11350841 10.33036414 67.47275383 10 73 C8 75 8 75 4.375 75.125 C3.26125 75.08375 2.1475 75.0425 1 75 C1 74.67 1 74.34 1 74 C2.98 74 4.96 74 7 74 C6.32546266 67.49355681 5.64988059 60.98722266 4.97363281 54.48095703 C4.74456127 52.27590283 4.51571328 50.07082539 4.28710938 47.86572266 C3.95504216 44.66302172 3.62216562 41.46040585 3.2890625 38.2578125 C3.18031799 37.20877747 3.07157349 36.15974243 2.95953369 35.07891846 C2.45939439 30.28116097 1.94743455 25.48576175 1.38964844 20.69433594 C1.29581879 19.88318329 1.20198914 19.07203064 1.10531616 18.23629761 C0.93351431 16.76520898 0.75798025 15.2945481 0.57754517 13.82449341 C0.03469317 9.17698719 -0.06961537 4.66943452 0 0 Z " fill="#DADBE3" transform="translate(268,191)"/>
<path d="M0 0 C0.33 0 0.66 0 1 0 C1.02693575 2.12493141 1.04636628 4.24995912 1.0625 6.375 C1.07410156 7.55835938 1.08570313 8.74171875 1.09765625 9.9609375 C1 13 1 13 0 15 C-1.21236328 14.93039062 -1.21236328 14.93039062 -2.44921875 14.859375 C-9.10099258 14.52493903 -9.10099258 14.52493903 -15.1875 16.8125 C-17.18654008 18.95666241 -17.18654008 18.95666241 -18 22 C-17.38125 22.309375 -16.7625 22.61875 -16.125 22.9375 C-14.75 23.625 -13.375 24.3125 -12 25 C-7.17387057 25.27843054 -3.50092174 24.75645727 1 23 C1.66 23.66 2.32 24.32 3 25 C-2.88378483 28.44416673 -7.10199257 28.68766278 -13.6875 27.125 C-16.28923433 26.24139212 -18.61101382 25.33783226 -21 24 C-21.53625 24.495 -22.0725 24.99 -22.625 25.5 C-25.59358445 27.37489544 -27.55312427 27.23501425 -31 27 C-30.01 26.34 -29.02 25.68 -28 25 C-27.319375 24.46375 -26.63875 23.9275 -25.9375 23.375 C-24 22 -24 22 -22 22 C-22.474375 21.236875 -22.94875 20.47375 -23.4375 19.6875 C-25 17 -25 17 -26 14 C-25.4225 14.33 -24.845 14.66 -24.25 15 C-21.80116138 16.27075898 -21.80116138 16.27075898 -18 16 C-15.23776722 13.23776722 -15.42143709 10.79293383 -15 7 C-14.34 8.32 -13.68 9.64 -13 11 C-11.7625 10.979375 -10.525 10.95875 -9.25 10.9375 C-6.3359175 10.93233319 -3.79046673 11.06984442 -1 12 C-1.020625 10.7625 -1.04125 9.525 -1.0625 8.25 C-1.06766681 5.3359175 -0.93015558 2.79046673 0 0 Z " fill="#DCDDE5" transform="translate(256,254)"/>
<path d="M0 0 C3.77193043 0.97491963 5.58196357 2.68932843 8.19140625 5.56640625 C8.19140625 6.55640625 8.19140625 7.54640625 8.19140625 8.56640625 C4.11300814 12.22650711 0.70967274 13.2463684 -4.6171875 13.0390625 C-8.32556866 12.23921558 -10.19596269 10.24602785 -12.80859375 7.56640625 C-9.31533297 2.196374 -6.63696964 -0.52781315 0 0 Z " fill="#3C4B5E" transform="translate(225.80859375,267.43359375)"/>
<path d="M0 0 C3.71882518 0.84815311 5.59570357 2.80949565 8.2265625 5.5078125 C8.1015625 7.3203125 8.1015625 7.3203125 7.2265625 9.5078125 C2.87911139 12.40611324 -0.60374295 13.15402432 -5.7734375 12.5078125 C-9.2109375 10.6953125 -9.2109375 10.6953125 -11.7734375 8.5078125 C-11.7734375 5.5078125 -11.7734375 5.5078125 -9.8359375 2.8203125 C-6.24948403 0.11217416 -4.38169778 -0.21981761 0 0 Z " fill="#3B4A5E" transform="translate(274.7734375,267.4921875)"/>
<path d="M0 0 C3.84108454 1.00013145 6.39239018 3.72724407 9.0703125 6.5390625 C5.30225208 10.51080186 3.30577207 12.32817009 -2.2421875 12.8515625 C-6.54860118 12.48661219 -8.56498461 11.16517207 -11.9296875 8.5390625 C-11.6155764 5.60735886 -10.8907353 4.49656919 -8.8671875 2.2890625 C-5.80835982 0.46678218 -3.57500058 -0.14952474 0 0 Z " fill="#38485B" transform="translate(249.9296875,267.4609375)"/>
<path d="M0 0 C4.90521385 0.01767645 6.92755282 1.99005282 10.3125 5.375 C10.02098534 8.19297506 9.46833027 9.2292233 7.375 11.1875 C2.89600812 12.92425195 -1.08361937 12.68706716 -5.6875 11.375 C-8.3125 8.8125 -8.3125 8.8125 -9.6875 6.375 C-3.6875 0.375 -3.6875 0.375 0 0 Z " fill="#37465A" transform="translate(296.6875,267.625)"/>
<path d="M0 0 C1.32 0 2.64 0 4 0 C4 11.22 4 22.44 4 34 C2.35 34 0.7 34 -1 34 C-1.02465288 29.31860746 -1.04283739 24.63725241 -1.05493164 19.95581055 C-1.05997157 18.36205386 -1.0668035 16.76830181 -1.07543945 15.17456055 C-1.08751999 12.88849747 -1.09323155 10.60249533 -1.09765625 8.31640625 C-1.10281754 7.59973282 -1.10797882 6.88305939 -1.11329651 6.14466858 C-1.11349263 4.42936328 -1.06192007 2.71418734 -1 1 C-0.67 0.67 -0.34 0.34 0 0 Z " fill="#C3C6CB" transform="translate(223,306)"/>
<path d="M0 0 C0.99 0 1.98 0 3 0 C3.01981934 0.64026123 3.03963867 1.28052246 3.06005859 1.94018555 C3.15563601 4.8563528 3.26518214 7.77183572 3.375 10.6875 C3.42140625 12.19860352 3.42140625 12.19860352 3.46875 13.74023438 C3.50742188 14.71669922 3.54609375 15.69316406 3.5859375 16.69921875 C3.6173584 17.59471436 3.6487793 18.49020996 3.68115234 19.4128418 C4.03092377 22.25091824 4.73789244 24.43793847 6 27 C8.43387753 28.21693876 10.41838846 28.31959896 13.125 28.5625 C14.03507813 28.64628906 14.94515625 28.73007812 15.8828125 28.81640625 C16.58148438 28.87699219 17.28015625 28.93757813 18 29 C17.67 29.99 17.34 30.98 17 32 C15.10617836 32.13592021 13.20950296 32.2324094 11.3125 32.3125 C10.25675781 32.37050781 9.20101562 32.42851562 8.11328125 32.48828125 C5 32 5 32 2.125 30.34375 C-1.30475321 24.94693245 -0.52237602 19.42889002 -0.3125 13.1875 C-0.28994141 11.92228516 -0.26738281 10.65707031 -0.24414062 9.35351562 C-0.18529078 6.23447381 -0.1031137 3.11784098 0 0 Z " fill="#E0E1E2" transform="translate(189,307)"/>
<path d="M0 0 C0 0.66 0 1.32 0 2 C-2.31 2.33 -4.62 2.66 -7 3 C-7 4.65 -7 6.3 -7 8 C-4.03 8 -1.06 8 2 8 C2 8.66 2 9.32 2 10 C0.78763672 10.05607422 0.78763672 10.05607422 -0.44921875 10.11328125 C-1.51785156 10.17902344 -2.58648437 10.24476563 -3.6875 10.3125 C-5.27111328 10.39951172 -5.27111328 10.39951172 -6.88671875 10.48828125 C-10.30269528 11.04975293 -12.3121874 11.82082726 -15 14 C-15 15.32 -15 16.64 -15 18 C-14.34 18.33 -13.68 18.66 -13 19 C-12.67 18.01 -12.34 17.02 -12 16 C-11.81548975 31.74487472 -11.81548975 31.74487472 -13 39 C-13.33 39 -13.66 39 -14 39 C-14.03738281 37.80761719 -14.07476562 36.61523438 -14.11328125 35.38671875 C-14.17894032 33.820281 -14.24538768 32.25387616 -14.3125 30.6875 C-14.33505859 29.90181641 -14.35761719 29.11613281 -14.38085938 28.30664062 C-14.41630859 27.54931641 -14.45175781 26.79199219 -14.48828125 26.01171875 C-14.51446533 25.31522217 -14.54064941 24.61872559 -14.56762695 23.90112305 C-15.11496837 21.49448972 -16.23947826 20.67359651 -18 19 C-18.5625 16.125 -18.5625 16.125 -18 13 C-16.17285089 10.79363126 -14.44042354 9.62694903 -12 8 C-11.01 8 -10.02 8 -9 8 C-9.061875 7.05125 -9.12375 6.1025 -9.1875 5.125 C-9.125625 4.09375 -9.06375 3.0625 -9 2 C-5.5647952 -0.29013653 -4.014669 -0.17842973 0 0 Z M2 2 C2.33 2 2.66 2 3 2 C3 3.98 3 5.96 3 8 C2.67 8 2.34 8 2 8 C2 6.02 2 4.04 2 2 Z " fill="#E1E2EA" transform="translate(262,164)"/>
<path d="M0 0 C3.6795289 2.6604174 6.96740593 5.61960339 10 9 C10 9.66 10 10.32 10 11 C13.50538557 12.96301592 17.13351728 13.95902388 21 15 C21 15.66 21 16.32 21 17 C17.23910288 17.54846416 15.12893551 17.741453 11.89453125 15.6171875 C8.1622376 12.38206618 5.00268959 8.92659407 2 5 C-1.20367853 3.39816073 -4.52376994 3.50625523 -8 4 C-11.27981751 6.06771104 -12.84746007 7.77119011 -15 11 C-15 10.01 -15 9.02 -15 8 C-15.99 8 -16.98 8 -18 8 C-18.33 8.99 -18.66 9.98 -19 11 C-21.875 6.25 -21.875 6.25 -23 4 C-20.525 4.495 -20.525 4.495 -18 5 C-18 5.66 -18 6.32 -18 7 C-15.55969715 5.61496324 -13.36645127 4.36645127 -11.375 2.375 C-8.20427445 -0.79572555 -4.14978247 -0.65869563 0 0 Z " fill="#CFD2DB" transform="translate(326,265)"/>
<path d="M0 0 C0.99 0 1.98 0 3 0 C6.05867202 14.36483467 6.05867202 14.36483467 5 21 C3 23.625 3 23.625 1 25 C-0.85236547 23.22481643 -1.89517575 21.71857786 -2.26953125 19.15234375 C-2.39908365 12.66294622 -1.2042639 6.35464253 0 0 Z " fill="#3A495C" transform="translate(259,248)"/>
<path d="M0 0 C0.33 0.66 0.66 1.32 1 2 C2.32 2 3.64 2 5 2 C5 2.66 5 3.32 5 4 C3.68 4 2.36 4 1 4 C1 4.99 1 5.98 1 7 C2.32 7 3.64 7 5 7 C5 7.66 5 8.32 5 9 C3.68 9 2.36 9 1 9 C1 9.99 1 10.98 1 12 C2.32 12 3.64 12 5 12 C5 12.66 5 13.32 5 14 C3.35 14 1.7 14 0 14 C0 14.99 0 15.98 0 17 C1.65 17 3.3 17 5 17 C5 17.33 5 17.66 5 18 C3.02 18 1.04 18 -1 18 C-1 19.32 -1 20.64 -1 22 C0.98 22 2.96 22 5 22 C5 22.33 5 22.66 5 23 C3.02 23 1.04 23 -1 23 C-1 24.32 -1 25.64 -1 27 C0.98 27 2.96 27 5 27 C5 27.33 5 27.66 5 28 C2.69 28 0.38 28 -2 28 C-2.33 29.32 -2.66 30.64 -3 32 C-3.95167609 25.00287903 -3.95887598 18.51060071 -3.1875 11.5 C-3.10435547 10.60796875 -3.02121094 9.7159375 -2.93554688 8.796875 C-2.25676247 2.25676247 -2.25676247 2.25676247 0 0 Z " fill="#B5BAC5" transform="translate(249,195)"/>
<path d="M0 0 C2.375 -0.125 2.375 -0.125 5 0 C7.75537052 2.75537052 7.69377341 5.6046583 8.125 9.3125 C8.21136719 9.97701172 8.29773438 10.64152344 8.38671875 11.32617188 C8.83254941 14.90343219 9.09759828 18.39583495 9 22 C8.34 22 7.68 22 7 22 C6.67 22.66 6.34 23.32 6 24 C5.6616656 21.62561751 5.32920998 19.25065041 5 16.875 C4.90460938 16.20984375 4.80921875 15.5446875 4.7109375 14.859375 C4.16388547 10.87371019 3.89977818 7.02140062 4 3 C3.01 3 2.02 3 1 3 C1.04125 4.2375 1.0825 5.475 1.125 6.75 C1.2361216 10.08364791 0.65876079 12.1004339 -1 15 C-1.91457003 9.43842552 -2.32086397 5.324335 0 0 Z " fill="#DEDFE7" transform="translate(258,245)"/>
<path d="M0 0 C1.18464844 -0.00773438 2.36929687 -0.01546875 3.58984375 -0.0234375 C7.3442353 0.40732509 9.81015283 1.49807293 13.0625 3.375 C13.0625 5.025 13.0625 6.675 13.0625 8.375 C12.0725 8.87 12.0725 8.87 11.0625 9.375 C10.381875 8.1684375 10.381875 8.1684375 9.6875 6.9375 C8.31524335 4.28643428 8.31524335 4.28643428 6.0625 3.375 C4.27497508 3.22745826 2.4808716 3.1538478 0.6875 3.125 C-0.26898438 3.09921875 -1.22546875 3.0734375 -2.2109375 3.046875 C-5.37178645 3.4272637 -6.67741733 4.16651739 -8.9375 6.375 C-9.2675 7.365 -9.5975 8.355 -9.9375 9.375 C-10.9275 9.045 -11.9175 8.715 -12.9375 8.375 C-12.75 6.0625 -12.75 6.0625 -11.9375 3.375 C-8.00487661 0.32032389 -4.90694337 -0.03196706 0 0 Z " fill="#546173" transform="translate(258.9375,173.625)"/>
<path d="M0 0 C1.40765625 -0.01160156 1.40765625 -0.01160156 2.84375 -0.0234375 C5.86316774 0.42947516 7.24702018 1.36644724 9.5 3.375 C9.17 4.035 8.84 4.695 8.5 5.375 C7.84 5.045 7.18 4.715 6.5 4.375 C2.56490757 3.06330252 -0.35518004 3.10320853 -4.5 3.375 C-5.16 4.035 -5.82 4.695 -6.5 5.375 C-6.17 6.365 -5.84 7.355 -5.5 8.375 C-6.49 8.375 -7.48 8.375 -8.5 8.375 C-8.5 9.365 -8.5 10.355 -8.5 11.375 C-7.51 11.375 -6.52 11.375 -5.5 11.375 C-5.5 12.035 -5.5 12.695 -5.5 13.375 C-6.49 13.375 -7.48 13.375 -8.5 13.375 C-8.5 14.365 -8.5 15.355 -8.5 16.375 C-7.51 16.375 -6.52 16.375 -5.5 16.375 C-5.5 17.035 -5.5 17.695 -5.5 18.375 C-6.82 18.375 -8.14 18.375 -9.5 18.375 C-9.6079859 15.93631832 -9.68726589 13.50240867 -9.75 11.0625 C-9.78351563 10.37220703 -9.81703125 9.68191406 -9.8515625 8.97070312 C-9.91310576 5.78583934 -9.94096869 3.89118064 -7.828125 1.41796875 C-5.05189383 0.17425445 -3.03843025 -0.02504201 0 0 Z " fill="#D3D5DE" transform="translate(259.5,175.625)"/>
<path d="M0 0 C2.64 0 5.28 0 8 0 C8 2.64 8 5.28 8 8 C7.01 8.33 6.02 8.66 5 9 C5.99 9.66 6.98 10.32 8 11 C5.36 11 2.72 11 0 11 C0 7.37 0 3.74 0 0 Z " fill="#A1A7B4" transform="translate(257,186)"/>
<path d="M0 0 C1.4606285 2.64738916 2 3.89448334 2 7 C2.5775 7.226875 3.155 7.45375 3.75 7.6875 C6.5663661 9.33038023 8.08077114 11.39533227 10 14 C9.25 15.9375 9.25 15.9375 8 18 C5.875 18.75 5.875 18.75 4 19 C4 18.34 4 17.68 4 17 C4.66 16.67 5.32 16.34 6 16 C5.65557106 13.50289018 5.15296001 12.17845335 3.5 10.25 C-0.27032608 8.36483696 -3.86318252 8.40794172 -8 9 C-10.5189267 10.31763329 -10.5189267 10.31763329 -12 12 C-11.625 9.5625 -11.625 9.5625 -11 7 C-8.59454362 5.79727181 -7.05003047 5.89928528 -4.375 5.9375 C-3.14910156 5.95103516 -3.14910156 5.95103516 -1.8984375 5.96484375 C-0.95871094 5.98224609 -0.95871094 5.98224609 0 6 C0 4.02 0 2.04 0 0 Z " fill="#DADBE4" transform="translate(276,260)"/>
<path d="M0 0 C0.99 0 1.98 0 3 0 C4.81376023 12.54642404 5.03624948 24.36895909 4 37 C3.67 37 3.34 37 3 37 C2.94465088 36.29915283 2.88930176 35.59830566 2.83227539 34.8762207 C2.57875273 31.68806115 2.32067224 28.50028627 2.0625 25.3125 C1.97548828 24.20970703 1.88847656 23.10691406 1.79882812 21.97070312 C1.71181641 20.90400391 1.62480469 19.83730469 1.53515625 18.73828125 C1.456604 17.75899658 1.37805176 16.77971191 1.29711914 15.77075195 C1.01403293 13.13086252 0.53822048 10.59769223 0 8 C-0.11678799 5.32321927 -0.0454506 2.68158543 0 0 Z " fill="#B8BCC7" transform="translate(268,191)"/>
<path d="M0 0 C0.66 0.99 1.32 1.98 2 3 C-0.22148208 7.44296417 -2.73146336 9.51002029 -7 12 C-10.42232972 13.14077657 -13.08673217 13.09815117 -16.6875 13.0625 C-18.45673828 13.04896484 -18.45673828 13.04896484 -20.26171875 13.03515625 C-21.16535156 13.02355469 -22.06898438 13.01195312 -23 13 C-23 12.67 -23 12.34 -23 12 C-17.555 11.505 -17.555 11.505 -12 11 C-11.67 10.01 -11.34 9.02 -11 8 C-9.865625 7.71125 -8.73125 7.4225 -7.5625 7.125 C-6.386875 6.75375 -5.21125 6.3825 -4 6 C-2.62533375 3.52363988 -2.62533375 3.52363988 -2 1 C-1.34 0.67 -0.68 0.34 0 0 Z " fill="#CDCFD3" transform="translate(259,327)"/>
<path d="M0 0 C0.99 0 1.98 0 3 0 C3 0.99 3 1.98 3 3 C6.50538557 4.96301592 10.13351728 5.95902388 14 7 C14 7.66 14 8.32 14 9 C12.39431334 8.71682074 10.79047953 8.42312209 9.1875 8.125 C8.29417969 7.96257812 7.40085937 7.80015625 6.48046875 7.6328125 C4 7 4 7 1 5 C0.21625 5.66 -0.5675 6.32 -1.375 7 C-5.61192232 9.89251428 -10.06675416 9.35098192 -15 9 C-15 8.34 -15 7.68 -15 7 C-14.25234375 6.87882812 -13.5046875 6.75765625 -12.734375 6.6328125 C-11.74953125 6.46523438 -10.7646875 6.29765625 -9.75 6.125 C-8.28820312 5.88136719 -8.28820312 5.88136719 -6.796875 5.6328125 C-4.22735883 5.05144152 -2.27928944 4.29159735 0 3 C0 2.01 0 1.02 0 0 Z " fill="#D7D8E1" transform="translate(308,273)"/>
<path d="M0 0 C0.99 0 1.98 0 3 0 C3 3.3 3 6.6 3 10 C5.475 10.99 5.475 10.99 8 12 C8 12.33 8 12.66 8 13 C3.05 13.33 -1.9 13.66 -7 14 C-6.67 13.01 -6.34 12.02 -6 11 C-4.02 10.67 -2.04 10.34 0 10 C0 6.7 0 3.4 0 0 Z " fill="#C3C6D1" transform="translate(258,150)"/>
<path d="M0 0 C0.99 0.33 1.98 0.66 3 1 C3 1.66 3 2.32 3 3 C2.01 3.66 1.02 4.32 0 5 C-0.73343428 8.06556598 -0.73343428 8.06556598 -1 11 C-3.97 11 -6.94 11 -10 11 C-10 9.35 -10 7.7 -10 6 C-6.535 5.505 -6.535 5.505 -3 5 C-2.67 4.01 -2.34 3.02 -2 2 C-1.34 1.34 -0.68 0.68 0 0 Z " fill="#ACB1BD" transform="translate(265,161)"/>
<path d="M0 0 C0.33 0 0.66 0 1 0 C1.33896268 2.83275953 1.67129694 5.66604661 2 8.5 C2.09539062 9.29148438 2.19078125 10.08296875 2.2890625 10.8984375 C2.87069501 15.96694934 3.27088639 20.89830637 3 26 C1 28 1 28 -2.625 28.125 C-3.73875 28.08375 -4.8525 28.0425 -6 28 C-6 27.67 -6 27.34 -6 27 C-4.02 27 -2.04 27 0 27 C-0.08378906 25.97261719 -0.16757812 24.94523437 -0.25390625 23.88671875 C-0.86530882 15.7946834 -1.11250014 8.07846257 0 0 Z " fill="#B7BCC7" transform="translate(275,238)"/>
<path d="M0 0 C0.33 0 0.66 0 1 0 C1.33 4.29 1.66 8.58 2 13 C4.97 13 7.94 13 11 13 C11 13.33 11 13.66 11 14 C8.03 14 5.06 14 2 14 C2 15.32 2 16.64 2 18 C4.97 18 7.94 18 11 18 C11 18.33 11 18.66 11 19 C7.7 19 4.4 19 1 19 C0.67 19.66 0.34 20.32 0 21 C-0.82514784 18.16615892 -1.07936233 15.83064749 -0.87890625 12.890625 C-0.83056641 12.13652344 -0.78222656 11.38242188 -0.73242188 10.60546875 C-0.67634766 9.82816406 -0.62027344 9.05085937 -0.5625 8.25 C-0.51029297 7.45722656 -0.45808594 6.66445312 -0.40429688 5.84765625 C-0.27510676 3.89806003 -0.13830035 1.94897114 0 0 Z " fill="#C8CBD4" transform="translate(242,244)"/>
<path d="M0 0 C1.65 0 3.3 0 5 0 C6.53445094 3.06890187 5.54984289 5.70094266 5 9 C4.67 9 4.34 9 4 9 C4 7.02 4 5.04 4 3 C3.01 3 2.02 3 1 3 C1.04125 4.2375 1.0825 5.475 1.125 6.75 C1.2361216 10.08364791 0.65876079 12.1004339 -1 15 C-1.91457003 9.43842552 -2.32086397 5.324335 0 0 Z " fill="#C4C7D2" transform="translate(258,245)"/>
<path d="M0 0 C1.32 1.32 2.64 2.64 4 4 C4.33 3.01 4.66 2.02 5 1 C5.18451025 16.74487472 5.18451025 16.74487472 4 24 C3.67 24 3.34 24 3 24 C2.96261719 22.81921875 2.92523438 21.6384375 2.88671875 20.421875 C2.82104851 18.86455212 2.75460153 17.30726186 2.6875 15.75 C2.66494141 14.97269531 2.64238281 14.19539062 2.61914062 13.39453125 C2.40680641 8.87760343 2.00586466 6.53631137 -1 3 C-0.67 2.01 -0.34 1.02 0 0 Z " fill="#D5D7E0" transform="translate(245,179)"/>
<path d="M0 0 C1.65 0 3.3 0 5 0 C5 2.97 5 5.94 5 9 C3.35 9 1.7 9 0 9 C0 6.03 0 3.06 0 0 Z " fill="#A6ACB8" transform="translate(261,203)"/>
<path d="M0 0 C0.33 0 0.66 0 1 0 C1 3.63 1 7.26 1 11 C3.64 11 6.28 11 9 11 C9 11.33 9 11.66 9 12 C5.37 12.33 1.74 12.66 -2 13 C-2 12.34 -2 11.68 -2 11 C-3.32 11 -4.64 11 -6 11 C-6 10.01 -6 9.02 -6 8 C-4.68 8 -3.36 8 -2 8 C-1.34 5.36 -0.68 2.72 0 0 Z " fill="#4A586A" transform="translate(256,186)"/>
<path d="M0 0 C0.66 0 1.32 0 2 0 C2 3.63 2 7.26 2 11 C4.31 11 6.62 11 9 11 C9 11.66 9 12.32 9 13 C6.03 13 3.06 13 0 13 C0 8.71 0 4.42 0 0 Z " fill="#B3B8C3" transform="translate(257,203)"/>
<path d="M0 0 C2.4375 1.5 2.4375 1.5 4 3 C3.34 3.66 2.68 4.32 2 5 C1.67 4.67 1.34 4.34 1 4 C-0.47648876 3.90176004 -1.95775417 3.87026481 -3.4375 3.875 C-4.24058594 3.87242187 -5.04367188 3.86984375 -5.87109375 3.8671875 C-8.05397931 3.86421674 -8.05397931 3.86421674 -10 5 C-9.625 3.0625 -9.625 3.0625 -9 1 C-5.94306678 -0.52846661 -3.37015453 -0.23242445 0 0 Z " fill="#CCCED8" transform="translate(227,265)"/>
<path d="M0 0 C0.66 0 1.32 0 2 0 C2 1.32 2 2.64 2 4 C4.64 4 7.28 4 10 4 C10 4.33 10 4.66 10 5 C7.36 5 4.72 5 2 5 C2 6.32 2 7.64 2 9 C4.64 9 7.28 9 10 9 C10 9.33 10 9.66 10 10 C7.03 10 4.06 10 1 10 C0.67 10.66 0.34 11.32 0 12 C0 8.04 0 4.08 0 0 Z " fill="#DCDDE5" transform="translate(243,243)"/>
<path d="M0 0 C0.33 0 0.66 0 1 0 C1 8.58 1 17.16 1 26 C0.67 26 0.34 26 0 26 C-0.33 20.06 -0.66 14.12 -1 8 C-1.99 8.495 -1.99 8.495 -3 9 C-2.01 6.03 -1.02 3.06 0 0 Z " fill="#415062" transform="translate(335,314)"/>
<path d="M0 0 C0.99 0 1.98 0 3 0 C3 0.99 3 1.98 3 3 C6.50538557 4.96301592 10.13351728 5.95902388 14 7 C14 7.66 14 8.32 14 9 C4.92675452 7.6840331 4.92675452 7.6840331 1.375 5.0625 C0 3 0 3 0 0 Z " fill="#DDDEE6" transform="translate(308,273)"/>
<path d="M0 0 C0.33 1.32 0.66 2.64 1 4 C3.31 4 5.62 4 8 4 C8 4.33 8 4.66 8 5 C6.02 5 4.04 5 2 5 C2 6.32 2 7.64 2 9 C3.98 9 5.96 9 8 9 C8 9.33 8 9.66 8 10 C5.69 10 3.38 10 1 10 C0.67 11.32 0.34 12.64 0 14 C-1.33257403 4.58997722 -1.33257403 4.58997722 0 0 Z " fill="#D6D7E0" transform="translate(245,223)"/>
<path d="M0 0 C0.66 0 1.32 0 2 0 C0.50150567 3.81434921 -1.55528439 5.80790825 -5 8 C-8.3125 8.25 -8.3125 8.25 -11 8 C-11 7.34 -11 6.68 -11 6 C-10.37351563 5.73445313 -9.74703125 5.46890625 -9.1015625 5.1953125 C-8.28429687 4.84210938 -7.46703125 4.48890625 -6.625 4.125 C-5.40683594 3.60292969 -5.40683594 3.60292969 -4.1640625 3.0703125 C-1.86197701 2.07553933 -1.86197701 2.07553933 0 0 Z " fill="#D3D5DE" transform="translate(186,274)"/>
<path d="M0 0 C0.99 0 1.98 0 3 0 C3.33 0.99 3.66 1.98 4 3 C1.54438955 5.80641195 -0.27382327 6.93578671 -4.00390625 7.265625 C-7.01123516 7.25142274 -9.99779002 7.17237569 -13 7 C-13 6.67 -13 6.34 -13 6 C-9.37 6 -5.74 6 -2 6 C-1.67 4.35 -1.34 2.7 -1 1 C-0.67 0.67 -0.34 0.34 0 0 Z " fill="#C5C8CC" transform="translate(208,333)"/>
<path d="M0 0 C0.66 0 1.32 0 2 0 C2 0.66 2 1.32 2 2 C2.66 2 3.32 2 4 2 C4 2.66 4 3.32 4 4 C3.01 4 2.02 4 1 4 C1 4.99 1 5.98 1 7 C1.99 7 2.98 7 4 7 C4 7.66 4 8.32 4 9 C3.01 9 2.02 9 1 9 C1 9.99 1 10.98 1 12 C1.99 12 2.98 12 4 12 C4 12.66 4 13.32 4 14 C2.68 14 1.36 14 0 14 C0 9.38 0 4.76 0 0 Z " fill="#AAAFBB" transform="translate(250,180)"/>
<path d="M0 0 C0.66 1.32 1.32 2.64 2 4 C-1.0684847 6.97550031 -2.46236331 7.96474513 -6.8125 8.25 C-7.864375 8.1675 -8.91625 8.085 -10 8 C-10 7.34 -10 6.68 -10 6 C-9.16855469 5.72736328 -9.16855469 5.72736328 -8.3203125 5.44921875 C-7.59585938 5.19785156 -6.87140625 4.94648438 -6.125 4.6875 C-5.40570313 4.44386719 -4.68640625 4.20023437 -3.9453125 3.94921875 C-1.66005095 3.03664453 -1.66005095 3.03664453 0 0 Z " fill="#C7CAD4" transform="translate(209,274)"/>
<path d="M0 0 C9.41002278 -0.3690205 9.41002278 -0.3690205 14 2 C14 2.66 14 3.32 14 4 C9.02906176 3.58846263 4.55491614 3.20399168 0 1 C0 0.67 0 0.34 0 0 Z " fill="#949BA8" transform="translate(221,159)"/>
<path d="M0 0 C0.268125 0.598125 0.53625 1.19625 0.8125 1.8125 C2.83614662 5.54027009 5.15900412 7.27817426 9 9 C6.8125 9.8125 6.8125 9.8125 4 10 C1.20434007 7.7761796 -0.6173816 6.08899084 -1.8125 2.6875 C-1.874375 2.130625 -1.93625 1.57375 -2 1 C-1.34 0.67 -0.68 0.34 0 0 Z " fill="#CACDD7" transform="translate(286,271)"/>
<path d="M0 0 C0.33 0 0.66 0 1 0 C1 2.31 1 4.62 1 7 C0.09507812 7.16435547 0.09507812 7.16435547 -0.828125 7.33203125 C-6.93684987 8.50797128 -6.93684987 8.50797128 -12 12 C-11.625 9.5625 -11.625 9.5625 -11 7 C-8.59454362 5.79727181 -7.05003047 5.89928528 -4.375 5.9375 C-3.14910156 5.95103516 -3.14910156 5.95103516 -1.8984375 5.96484375 C-0.95871094 5.98224609 -0.95871094 5.98224609 0 6 C0 4.02 0 2.04 0 0 Z " fill="#E5E6ED" transform="translate(276,260)"/>
<path d="M0 0 C0 1.32 0 2.64 0 4 C-3.96 4 -7.92 4 -12 4 C-12 3.01 -12 2.02 -12 1 C-10.37512529 0.83211627 -8.75009558 0.66573213 -7.125 0.5 C-6.22007812 0.4071875 -5.31515625 0.314375 -4.3828125 0.21875 C-2 0 -2 0 0 0 Z " fill="#4B596B" transform="translate(255,262)"/>
<path d="M0 0 C5.625 -0.25 5.625 -0.25 9 2 C9.1875 4.625 9.1875 4.625 9 7 C8.01 7.495 8.01 7.495 7 8 C6.5875 7.236875 6.175 6.47375 5.75 5.6875 C4.04124191 3.0633358 2.58982247 1.69678024 0 0 Z " fill="#3F4E61" transform="translate(263,175)"/>
<path d="M0 0 C2.31 0 4.62 0 7 0 C7 1.32 7 2.64 7 4 C4.69 4 2.38 4 0 4 C0 2.68 0 1.36 0 0 Z " fill="#364659" transform="translate(256,167)"/>
<path d="M0 0 C0 0.66 0 1.32 0 2 C-1.9570868 2.67031719 -3.91571113 3.33614683 -5.875 4 C-6.96554687 4.37125 -8.05609375 4.7425 -9.1796875 5.125 C-12 6 -12 6 -14 6 C-13.67 5.01 -13.34 4.02 -13 3 C-10.8203125 2.05078125 -10.8203125 2.05078125 -8.125 1.3125 C-7.24070312 1.06113281 -6.35640625 0.80976563 -5.4453125 0.55078125 C-3 0 -3 0 0 0 Z " fill="#A3A9B6" transform="translate(298,157)"/>
<path d="M0 0 C0.66 0 1.32 0 2 0 C1.71831703 1.95979427 1.42433283 3.91782378 1.125 5.875 C0.96257812 6.96554688 0.80015625 8.05609375 0.6328125 9.1796875 C0 12 0 12 -2 14 C-1.85970581 11.8537974 -1.71261836 9.70803782 -1.5625 7.5625 C-1.48128906 6.36753906 -1.40007812 5.17257813 -1.31640625 3.94140625 C-1 1 -1 1 0 0 Z " fill="#A3A9B5" transform="translate(268,129)"/>
<path d="M0 0 C1.32 0.66 2.64 1.32 4 2 C2.63875 2.61875 2.63875 2.61875 1.25 3.25 C-1.79665618 4.89050718 -3.71126806 6.44718361 -6 9 C-6.66 8.34 -7.32 7.68 -8 7 C-5.36 4.69 -2.72 2.38 0 0 Z " fill="#D2D4DD" transform="translate(194,266)"/>
<path d="M0 0 C0.33 0 0.66 0 1 0 C1 1.98 1 3.96 1 6 C1.969375 6.28875 2.93875 6.5775 3.9375 6.875 C7 8 7 8 8 10 C5 11 5 11 1.8125 9.5625 C0.884375 9.046875 -0.04375 8.53125 -1 8 C-0.67 5.36 -0.34 2.72 0 0 Z " fill="#D0D2DC" transform="translate(265,166)"/>
<path d="M0 0 C-3.34939881 2.02558881 -5.86962551 2.21738987 -9.75 2.125 C-10.73484375 2.10695313 -11.7196875 2.08890625 -12.734375 2.0703125 C-13.85585938 2.03550781 -13.85585938 2.03550781 -15 2 C-15 1.67 -15 1.34 -15 1 C-13.06697628 0.4425699 -11.12835147 -0.09546757 -9.1875 -0.625 C-8.10855469 -0.92664063 -7.02960938 -1.22828125 -5.91796875 -1.5390625 C-3 -2 -3 -2 0 0 Z " fill="#CFD1DA" transform="translate(282,280)"/>
<path d="M0 0 C2.475 0.495 2.475 0.495 5 1 C5 1.66 5 2.32 5 3 C6.65 2.67 8.3 2.34 10 2 C9.67 3.65 9.34 5.3 9 7 C8.67 6.01 8.34 5.02 8 4 C7.01 4 6.02 4 5 4 C4.67 4.99 4.34 5.98 4 7 C1.125 2.25 1.125 2.25 0 0 Z " fill="#C1C4CF" transform="translate(303,269)"/>
<path d="M0 0 C3.3 0.33 6.6 0.66 10 1 C9.67 1.99 9.34 2.98 9 4 C5.7 3.34 2.4 2.68 -1 2 C-0.67 1.34 -0.34 0.68 0 0 Z " fill="#CFD1DA" transform="translate(245,265)"/>
<path d="M0 0 C0.99 0.33 1.98 0.66 3 1 C3 2.32 3 3.64 3 5 C4.98 5 6.96 5 9 5 C9 5.33 9 5.66 9 6 C6.69 6 4.38 6 2 6 C1.67 7.32 1.34 8.64 1 10 C0.67 6.7 0.34 3.4 0 0 Z " fill="#C5C7D2" transform="translate(245,217)"/>
<path d="M0 0 C3.21524305 1.40844718 5.32183868 3.10344786 7.75 5.625 C8.67039062 6.57246094 8.67039062 6.57246094 9.609375 7.5390625 C10.29773438 8.26222656 10.29773438 8.26222656 11 9 C7.25983417 9 6.54723807 8.0658409 3.8125 5.625 C3.09707031 4.99851563 2.38164062 4.37203125 1.64453125 3.7265625 C0 2 0 2 0 0 Z " fill="#B5B9C4" transform="translate(277,187)"/>
<path d="M0 0 C-1.60149886 0.67305018 -3.20631029 1.33822227 -4.8125 2 C-6.15248047 2.556875 -6.15248047 2.556875 -7.51953125 3.125 C-10 4 -10 4 -13 4 C-13 3.34 -13 2.68 -13 2 C-11.5882217 1.46605821 -10.17029756 0.94834896 -8.75 0.4375 C-7.96109375 0.14746094 -7.1721875 -0.14257812 -6.359375 -0.44140625 C-3.80896548 -1.04522837 -2.44677771 -0.8473932 0 0 Z " fill="#B7BBC6" transform="translate(234,177)"/>
<path d="M0 0 C1.32 0 2.64 0 4 0 C4 2.64 4 5.28 4 8 C2.68 7.67 1.36 7.34 0 7 C0.66 7 1.32 7 2 7 C2 5.35 2 3.7 2 2 C1.34 2 0.68 2 0 2 C0 1.34 0 0.68 0 0 Z " fill="#C3C6D0" transform="translate(261,186)"/>
<path d="M0 0 C0.33 0 0.66 0 1 0 C1.33 3.3 1.66 6.6 2 10 C1.34 10 0.68 10 0 10 C-0.33 10.66 -0.66 11.32 -1 12 C-0.67 8.04 -0.34 4.08 0 0 Z " fill="#C3C7D1" transform="translate(265,257)"/>
<path d="M0 0 C1.98 0.495 1.98 0.495 4 1 C3.34 3.64 2.68 6.28 2 9 C0.4375 7.875 0.4375 7.875 -1 6 C-0.6875 2.8125 -0.6875 2.8125 0 0 Z " fill="#C8CCCF" transform="translate(329,318)"/>
<path d="M0 0 C0.66 0.33 1.32 0.66 2 1 C1.04882866 2.1725131 0.08882991 3.33787015 -0.875 4.5 C-1.40867188 5.1496875 -1.94234375 5.799375 -2.4921875 6.46875 C-2.98976562 6.9740625 -3.48734375 7.479375 -4 8 C-4.66 8 -5.32 8 -6 8 C-5.65120368 4.74456771 -4.97866739 3.98126893 -2.4375 1.75 C-1.633125 1.1725 -0.82875 0.595 0 0 Z " fill="#4F5C6E" transform="translate(244,268)"/>
<path d="M0 0 C0.66 0 1.32 0 2 0 C0.61811547 3.21043882 -0.92421903 5.04936365 -3.625 7.25 C-4.57246094 8.03117188 -4.57246094 8.03117188 -5.5390625 8.828125 C-6.02117187 9.21484375 -6.50328125 9.6015625 -7 10 C-5.15014033 6.06048404 -2.92434659 3.21678125 0 0 Z " fill="#BDC1CB" transform="translate(239,188)"/>
<path d="M0 0 C0.66 0.33 1.32 0.66 2 1 C-0.64 3.97 -3.28 6.94 -6 10 C-6 6.41087588 -5.33563446 5.89142971 -3 3.3125 C-2.443125 2.68988281 -1.88625 2.06726563 -1.3125 1.42578125 C-0.879375 0.95527344 -0.44625 0.48476562 0 0 Z " fill="#B9BDC8" transform="translate(285,140)"/>
<path d="M0 0 C2.96175123 0.61277612 4.38058783 1.25372522 7 3 C7 3.66 7 4.32 7 5 C4.625 4.75 4.625 4.75 2 4 C0.6875 1.9375 0.6875 1.9375 0 0 Z " fill="#D3D5DE" transform="translate(237,276)"/>
<path d="M0 0 C1.1446875 0.3403125 1.1446875 0.3403125 2.3125 0.6875 C-0.31397188 2.43848126 -2.97525382 4.07481308 -5.6875 5.6875 C-5.6875 2.6875 -5.6875 2.6875 -4.5 0.9375 C-2.6875 -0.3125 -2.6875 -0.3125 0 0 Z " fill="#D7D8E1" transform="translate(318.6875,266.3125)"/>
<path d="M0 0 C0.33 0 0.66 0 1 0 C1.26785714 8.03571429 1.26785714 8.03571429 -1 12 C-1.2226746 10.56465159 -1.42761906 9.12654475 -1.625 7.6875 C-1.74101562 6.88699219 -1.85703125 6.08648437 -1.9765625 5.26171875 C-2 3 -2 3 0 0 Z " fill="#B1B6C2" transform="translate(258,248)"/>
<path d="M0 0 C0.66 0.33 1.32 0.66 2 1 C0.02 3.31 -1.96 5.62 -4 8 C-4.66 7.34 -5.32 6.68 -6 6 C-4 4 -2 2 0 0 Z " fill="#4A576A" transform="translate(293,268)"/>
<path d="M0 0 C0.33 0.66 0.66 1.32 1 2 C1.66 2 2.32 2 3 2 C3 3.65 3 5.3 3 7 C2.01 7.33 1.02 7.66 0 8 C0 5.36 0 2.72 0 0 Z " fill="#9098A5" transform="translate(260,186)"/>
<path d="M0 0 C-1.36983503 3.16115776 -1.9890638 3.9927092 -5 6 C-5.66 5.34 -6.32 4.68 -7 4 C-2.25 0 -2.25 0 0 0 Z " fill="#DEDFE7" transform="translate(188,274)"/>
<path d="M0 0 C2.92879371 0.62759865 5.36095629 1.58622659 8 3 C8 3.66 8 4.32 8 5 C2.25 3.125 2.25 3.125 0 2 C0 1.34 0 0.68 0 0 Z " fill="#ADB2BE" transform="translate(290,187)"/>
<path d="M0 0 C-1.25125384 3.75376152 -2.5652404 4.24073289 -6 6 C-6.66 6 -7.32 6 -8 6 C-8 5.34 -8 4.68 -8 4 C-2.58823529 0 -2.58823529 0 0 0 Z " fill="#ADB2BE" transform="translate(241,179)"/>
</svg>
