<?xml version="1.0" encoding="UTF-8"?>
<svg version="1.1" xmlns="http://www.w3.org/2000/svg" width="330" height="330">
<path d="M0 0 C5.82702315 3.80540287 10.10973465 9.47583833 14.49609375 14.82421875 C17.70494813 18.69397539 21.14245825 21.967816 24.96484375 25.23046875 C27.03945787 27.0343079 29.0324356 28.89263413 31 30.8125 C31.5775 31.37582031 32.155 31.93914063 32.75 32.51953125 C34 34 34 34 34 36 C34.66 36 35.32 36 36 36 C37.133154 39.39946201 37.13840588 42.01572444 37.15771484 45.60083008 C37.16279556 46.2681868 37.16787628 46.93554352 37.17311096 47.62312317 C37.18381361 49.07502239 37.19243421 50.52693809 37.19923019 51.97886086 C37.21109204 54.29976824 37.23057587 56.62049554 37.25234985 58.94132996 C37.31362928 65.54195847 37.36740572 72.14257837 37.40136719 78.7434082 C37.50900036 110.5070364 37.50900036 110.5070364 43.17382812 141.68017578 C45.32483883 150.32362836 46.67188924 159.17504522 48.25 167.9375 C49.05149678 172.35451081 49.85580072 176.77100901 50.66015625 181.1875 C50.85958328 182.28444687 51.05901031 183.38139374 51.26448059 184.51158142 C52.88606981 193.41687782 54.56097553 202.3112628 56.26034546 211.20199585 C58.73664843 224.16167447 61.13316432 237.1335985 63.4375 250.125 C63.56941742 250.86426727 63.70133484 251.60353455 63.83724976 252.36520386 C64.20559636 254.43307428 64.57028416 256.50155191 64.93359375 258.5703125 C65.2438147 260.33012451 65.2438147 260.33012451 65.56030273 262.12548828 C66 265 66 265 66 268 C66.73114014 268.00410889 67.46228027 268.00821777 68.21557617 268.01245117 C71.54036307 268.04542209 74.86332616 268.11607147 78.1875 268.1875 C79.33798828 268.19330078 80.48847656 268.19910156 81.67382812 268.20507812 C90.18448774 268.42709533 90.18448774 268.42709533 94.26953125 271.296875 C96.8960221 275.39965529 96.6098293 277.19759428 96 282 C94.25746655 285.23613354 93.52814056 285.82395315 90 287 C87.77302321 287.09067156 85.54326909 287.11597144 83.31445312 287.11083984 C82.60530762 287.11047855 81.89616211 287.11011726 81.16552734 287.10974503 C78.70406431 287.10691655 76.24269157 287.09644805 73.78125 287.0859375 C71.95471261 287.08159425 70.12817445 287.07756931 68.30163574 287.07382202 C62.8250037 287.06047467 57.34842533 287.03883528 51.87182617 287.01585388 C47.72184651 286.99886105 43.5718627 286.98373021 39.421875 286.96887207 C21.08805329 286.90229717 2.75439234 286.81670075 -15.57925415 286.71245193 C-25.41029201 286.65674355 -35.24131804 286.60770284 -45.07242918 286.56685698 C-52.07796417 286.53719012 -59.0834351 286.50001569 -66.088902 286.45720994 C-70.24330115 286.43203789 -74.39765413 286.41022056 -78.55210876 286.39665604 C-82.42025276 286.38389517 -86.28823123 286.3619077 -90.15628433 286.33261681 C-91.5745122 286.32351909 -92.99276663 286.31784571 -94.41102219 286.31578636 C-96.33927831 286.31248223 -98.26749817 286.29586234 -100.19567871 286.2784729 C-101.8145612 286.27017676 -101.8145612 286.27017676 -103.46614838 286.26171303 C-106 286 -106 286 -108 284 C-109.46499715 277.12578258 -109.46499715 277.12578258 -107.8125 273.125 C-105.22500892 270.09138976 -103.18152995 269.12816001 -99.20678711 268.69702148 C-98.1575708 268.67196533 -97.10835449 268.64690918 -96.02734375 268.62109375 C-94.88072266 268.58693359 -93.73410156 268.55277344 -92.55273438 268.51757812 C-90.76319336 268.47793945 -90.76319336 268.47793945 -88.9375 268.4375 C-86.57151213 268.3776177 -84.20561517 268.31399152 -81.83984375 268.24609375 C-80.79175537 268.22216553 -79.74366699 268.1982373 -78.66381836 268.17358398 C-75.89614913 268.10642178 -75.89614913 268.10642178 -73 267 C-72.96039658 266.2420665 -72.92079315 265.484133 -72.87998962 264.70323181 C-72.31659717 255.80033606 -70.89737256 247.18003587 -69.19140625 238.44140625 C-68.9053153 236.94708666 -68.61990227 235.45263716 -68.33511353 233.95806885 C-67.7310146 230.79447517 -67.12269632 227.63173623 -66.51083374 224.46963501 C-65.55306287 219.51915001 -64.60517525 214.56680721 -63.65942383 209.61401367 C-63.34014312 207.94239627 -63.02085295 206.27078067 -62.70155334 204.59916687 C-62.54336687 203.77095617 -62.3851804 202.94274548 -62.22220039 202.08943748 C-61.74185028 199.57636076 -61.26057637 197.06346259 -60.77903748 194.5506134 C-58.08191362 180.47098434 -55.43760936 166.38212301 -52.83004761 152.28561401 C-52.19956149 148.87769504 -51.56675065 145.47021314 -50.93383789 142.06274414 C-50.55335072 140.00670971 -50.17304919 137.95064091 -49.79296875 135.89453125 C-49.62382965 134.9843927 -49.45469055 134.07425415 -49.28042603 133.13653564 C-49.12496307 132.29201843 -48.96950012 131.44750122 -48.80932617 130.57739258 C-48.67612473 129.85683182 -48.54292328 129.13627106 -48.40568542 128.39387512 C-47.41977759 122.57621422 -46.85372368 116.94903247 -46.8581543 111.04858398 C-46.85467987 110.28666748 -46.85120544 109.52475098 -46.84762573 108.73974609 C-46.84031584 107.09743911 -46.83494529 105.45512255 -46.83133507 103.81280327 C-46.8241196 101.21033248 -46.80841825 98.60804483 -46.78999329 96.00563049 C-46.73774268 88.61063038 -46.68952114 81.2157377 -46.67407227 73.82055664 C-46.66398263 69.28650863 -46.63464447 64.7529334 -46.59275246 60.21907234 C-46.58046299 58.49638508 -46.57531745 56.77363106 -46.57755089 55.05090141 C-46.5799082 52.6407615 -46.55771049 50.23197778 -46.5300293 47.82202148 C-46.53993141 46.76281242 -46.53993141 46.76281242 -46.55003357 45.6822052 C-46.45605628 40.68584724 -45.10541442 37.86426732 -42 34 C-40.34614767 32.65080468 -38.678298 31.31866272 -37 30 C-35.3908301 28.16832759 -33.85063333 26.29789304 -32.33203125 24.390625 C-31.89246094 23.93171875 -31.45289062 23.4728125 -31 23 C-30.34 23 -29.68 23 -29 23 C-28.73880371 22.41806885 -28.47760742 21.8361377 -28.20849609 21.23657227 C-26.92564503 18.86239073 -25.50977497 17.17826619 -23.6640625 15.21484375 C-22.68566406 14.17166992 -22.68566406 14.17166992 -21.6875 13.10742188 C-21.006875 12.39134766 -20.32625 11.67527344 -19.625 10.9375 C-18.95210938 10.21755859 -18.27921875 9.49761719 -17.5859375 8.75585938 C-7.83365662 -1.58194231 -7.83365662 -1.58194231 0 0 Z " fill="#334554" transform="translate(152,24)"/>
<path d="M0 0 C0.99261337 0.00222061 1.98522675 0.00444122 3.00791931 0.00672913 C4.12900589 0.00680466 5.25009247 0.00688019 6.40515137 0.00695801 C8.2348069 0.01469994 8.2348069 0.01469994 10.10142517 0.02259827 C11.96377052 0.02472069 11.96377052 0.02472069 13.86373901 0.02688599 C17.16982383 0.03154861 20.47584039 0.04053955 23.78190613 0.05158997 C27.15338042 0.06180625 30.52486175 0.06638407 33.89634705 0.07142639 C40.51550667 0.08248056 47.13463385 0.09923715 53.75376892 0.12025452 C55.26749749 4.38584842 56.32431235 8.56113491 57.16392517 13.00697327 C57.29208618 13.68137955 57.42024719 14.35578583 57.55229187 15.05062866 C57.9783295 17.3021452 58.3976066 19.55485568 58.81626892 21.80775452 C59.11728603 23.41257378 59.41831165 25.01739144 59.71934509 26.62220764 C62.42365003 41.10552539 65.00215902 55.61156903 67.56626892 70.12025452 C67.7607663 71.21953278 67.95526367 72.31881104 68.15565491 73.45140076 C69.97902004 83.77222811 71.78668819 94.08726866 73.33506775 104.45326233 C73.99548932 108.65993594 74.83099937 112.82559815 75.69126892 116.99525452 C75.86239197 117.84023499 76.03351501 118.68521545 76.20982361 119.55580139 C77.02356094 123.57145115 77.84957027 127.58449813 78.67955017 131.59681702 C78.81949402 132.28018127 78.95943787 132.96354553 79.10362244 133.6676178 C79.47836465 135.49628662 79.85807426 137.32393552 80.23814392 139.15150452 C80.75376892 142.12025452 80.75376892 142.12025452 80.75376892 146.12025452 C44.78376892 146.12025452 8.81376892 146.12025452 -28.24623108 146.12025452 C-28.24623108 139.47825268 -28.23283119 134.81221774 -26.96107483 128.60462952 C-26.82484207 127.92375778 -26.68860931 127.24288605 -26.54824829 126.54138184 C-26.25473776 125.07899961 -25.9570229 123.61745582 -25.65541077 122.15672302 C-24.83098603 118.160322 -24.03993282 114.15723306 -23.24232483 110.15541077 C-23.0760257 109.32596451 -22.90972656 108.49651825 -22.73838806 107.64193726 C-20.98558674 98.88010484 -19.35526034 90.09695398 -17.74623108 81.30775452 C-17.60348755 80.52992615 -17.46074402 79.75209778 -17.31367493 78.95069885 C-15.0319427 66.51264386 -12.79091568 54.06728359 -10.55873108 41.62025452 C-10.41151611 40.79961517 -10.26430115 39.97897583 -10.11262512 39.13346863 C-8.71881401 31.36212416 -7.32828204 23.59026214 -5.95326233 15.81556702 C-5.59262233 13.79212291 -5.2319488 11.76868477 -4.87123108 9.74525452 C-4.71565735 8.8538678 -4.56008362 7.96248108 -4.39979553 7.04408264 C-3.16890062 0.16965067 -3.16890062 0.16965067 0 0 Z " fill="#FBFBFB" transform="translate(122.24623107910156,148.87974548339844)"/>
<path d="M0 0 C2.86598825 3.04511252 2.56028622 5.59476267 2.56640625 9.65234375 C1.81599898 12.9282596 0.5479862 13.95267674 -2 16.125 C-4.82714844 17.44604492 -4.82714844 17.44604492 -8.109375 18.60546875 C-9.32834473 19.04318604 -10.54731445 19.48090332 -11.80322266 19.93188477 C-13.11879866 20.39213686 -14.43439146 20.85234093 -15.75 21.3125 C-17.09600336 21.79289418 -18.44154037 22.27459688 -19.78662109 22.75756836 C-22.52336628 23.73974285 -25.26163022 24.71748857 -28.00097656 25.69238281 C-33.89791624 27.79754444 -39.7627113 29.98800068 -45.625 32.1875 C-46.61854492 32.55705811 -47.61208984 32.92661621 -48.63574219 33.30737305 C-49.55258789 33.6506665 -50.46943359 33.99395996 -51.4140625 34.34765625 C-52.2076416 34.64422119 -53.0012207 34.94078613 -53.81884766 35.24633789 C-56.99685199 36.50932733 -56.99685199 36.50932733 -60 38.125 C-60.81584568 41.18408413 -60.81584568 41.18408413 -61 44.125 C-58.06265139 45.20874411 -55.12510303 46.29194572 -52.1875 47.375 C-51.31617432 47.69637939 -50.44484863 48.01775879 -49.54711914 48.34887695 C-45.01598762 50.01881783 -40.48138129 51.67749069 -35.9375 53.3125 C-30.91079189 55.13758171 -25.95099346 57.10463944 -21 59.125 C-19.98292969 59.52847656 -18.96585937 59.93195313 -17.91796875 60.34765625 C-6.2305987 65.06007303 -6.2305987 65.06007303 -3 68.125 C-1.6528783 71.39215722 -0.75043502 74.67563202 0 78.125 C-4.05001845 80.15000922 -9.02024986 79.61900114 -13.32275391 78.54541016 C-15.68560038 77.74503432 -17.99710174 76.86608729 -20.3125 75.9375 C-21.14064209 75.61869873 -21.96878418 75.29989746 -22.82202148 74.97143555 C-30.08415989 72.15642837 -37.28112222 69.17999516 -44.421875 66.0703125 C-49.27484642 64.024452 -54.07798556 62.54065697 -59.1875 61.25 C-66.43307587 59.41687022 -73.19224438 56.81843954 -80.07226562 53.92480469 C-82.09665994 53.08489641 -84.13155548 52.2769664 -86.171875 51.4765625 C-86.85443359 51.20827637 -87.53699219 50.93999023 -88.24023438 50.66357422 C-89.23506836 50.27322998 -89.23506836 50.27322998 -90.25 49.875 C-93.80905413 48.47840914 -96.81819882 47.24620079 -100 45.125 C-100 43.805 -100 42.485 -100 41.125 C-100.66 41.125 -101.32 41.125 -102 41.125 C-101.71996794 37.7646153 -101.35792934 36.4472002 -98.80859375 34.15234375 C-88.50529723 26.71505461 -76.22365594 22.89735031 -64.35546875 18.73046875 C-55.7379026 15.700865 -47.18310819 12.50545261 -38.625 9.3125 C-37.13129325 8.75562425 -35.6375601 8.19881933 -34.14379883 7.64208984 C-33.42735703 7.37504745 -32.71091522 7.10800507 -31.97276306 6.83287048 C-29.26167943 5.82330557 -26.5494627 4.81680106 -23.83734131 3.81002808 C-22.11361564 3.16736007 -20.3928763 2.51669837 -18.67236328 1.86547852 C-17.70282715 1.50252686 -16.73329102 1.1395752 -15.734375 0.765625 C-14.91420898 0.4552832 -14.09404297 0.14494141 -13.24902344 -0.17480469 C-8.58080383 -1.62817571 -4.71065962 -1.37394239 0 0 Z " fill="#304250" transform="translate(299,63.875)"/>
<path d="M0 0 C16.17 0 32.34 0 49 0 C46 3 46 3 43.75 3.6875 C38.43012364 6.2265319 34.79636606 10.78022883 32.82421875 16.27734375 C31.08680566 24.12452229 30.03089998 33.93277651 34.375 41.0625 C39.46449677 47.37009908 46.66959807 51.72060966 54 55 C54 56.65 54 58.3 54 60 C36.18 60 18.36 60 0 60 C0 40.2 0 20.4 0 0 Z " fill="#FEFEFE" transform="translate(121,74)"/>
<path d="M0 0 C3.4375 1 3.4375 1 5.12808228 2.44239807 C7.19530473 6.48017154 6.85426192 10.44976337 6.82568359 14.92163086 C6.83094055 15.92855484 6.83619751 16.93547882 6.84161377 17.97291565 C6.85482482 21.30371584 6.84607087 24.63403864 6.8359375 27.96484375 C6.83795807 30.2788553 6.84086936 32.59286624 6.84463501 34.90687561 C6.84906 39.75820982 6.8426221 44.60937839 6.82861328 49.46069336 C6.81153104 55.67954431 6.82135565 61.89800657 6.83933067 68.11684322 C6.8501718 72.89607165 6.84672044 77.67520796 6.8389473 82.45443916 C6.83694572 84.7473715 6.83940308 87.0403122 6.84638596 89.33323479 C6.85400456 92.53870665 6.84238943 95.74354958 6.82568359 98.94897461 C6.83479263 100.37129898 6.83479263 100.37129898 6.84408569 101.82235718 C6.79736032 106.66179836 6.68473812 110.11811533 3.4375 114 C1.5 114.59375 1.5 114.59375 -0.5625 114.5 C-1.243125 114.4896875 -1.92375 114.479375 -2.625 114.46875 C-5.12618252 113.8636252 -5.95775231 112.99624943 -7.5625 111 C-7.94281673 108.97097111 -7.94281673 108.97097111 -7.95018005 106.60401917 C-7.96008469 105.70536133 -7.96998932 104.80670349 -7.98019409 103.8808136 C-7.97569244 102.89735458 -7.9711908 101.91389557 -7.96655273 100.90063477 C-7.97341599 99.86298981 -7.98027924 98.82534485 -7.98735046 97.7562561 C-8.00568846 94.31783458 -8.00177085 90.8798663 -7.99609375 87.44140625 C-8.00065223 85.0563085 -8.0059568 82.67121206 -8.01197815 80.28611755 C-8.02092307 75.28338287 -8.0184704 70.2808077 -8.00854492 65.27807617 C-7.99705465 58.86060724 -8.01726121 52.44368848 -8.04646206 46.02629185 C-8.06479043 41.09954824 -8.06453826 36.17293727 -8.05882454 31.24616814 C-8.05867091 28.87983364 -8.0647496 26.51349038 -8.07711601 24.14718819 C-8.09195995 20.8406923 -8.08139661 17.53522308 -8.06420898 14.22875977 C-8.07387695 13.24732498 -8.08354492 12.2658902 -8.09350586 11.25471497 C-8.02167422 4.67003759 -8.02167422 4.67003759 -5.75379944 1.36070251 C-3.5625 0 -3.5625 0 0 0 Z " fill="#2E4252" transform="translate(147.5625,164)"/>
<path d="M0 0 C2.11327022 1.147457 3.56203112 2.34681545 5.23828125 4.07421875 C5.78226563 4.62207031 6.32625 5.16992188 6.88671875 5.734375 C9.72919573 9.00940283 12.26136393 12.54249565 14.86328125 16.01171875 C4.63328125 16.01171875 -5.59671875 16.01171875 -16.13671875 16.01171875 C-13.61441435 11.80787809 -11.09286177 8.57124904 -7.69921875 5.13671875 C-7.22162109 4.62625 -6.74402344 4.11578125 -6.25195312 3.58984375 C-2.73022314 0.0149738 -2.73022314 0.0149738 0 0 Z " fill="#FAFBFB" transform="translate(148.13671875,42.98828125)"/>
<path d="M0 0 C0 8.58 0 17.16 0 26 C-7.77142857 22.11428571 -7.77142857 22.11428571 -10 18 C-10.79986747 14.14392248 -10.93110243 10.83942825 -10 7 C-7.55758248 3.7894919 -4.27565992 0 0 0 Z " fill="#FBFBFC" transform="translate(175,88)"/>
<path d="M0 0 C0.33 0 0.66 0 1 0 C0.5198812 7.21833789 -0.43378793 14.34912556 -1.5 21.5 C-1.63059814 22.38461914 -1.76119629 23.26923828 -1.89575195 24.18066406 C-2.02296631 25.01823242 -2.15018066 25.85580078 -2.28125 26.71875 C-2.39533203 27.47091797 -2.50941406 28.22308594 -2.62695312 28.99804688 C-3 31 -3 31 -4 34 C-13.9 34 -23.8 34 -34 34 C-34 33.34 -34 32.68 -34 32 C-33.22809326 31.97494385 -32.45618652 31.9498877 -31.66088867 31.92407227 C-28.16958819 31.80815993 -24.67856078 31.68541176 -21.1875 31.5625 C-19.97255859 31.52318359 -18.75761719 31.48386719 -17.50585938 31.44335938 C-16.34248047 31.40146484 -15.17910156 31.35957031 -13.98046875 31.31640625 C-12.90692139 31.27974854 -11.83337402 31.24309082 -10.72729492 31.20532227 C-7.90688447 31.10458153 -7.90688447 31.10458153 -5 30 C-4.96261719 29.2471875 -4.92523438 28.494375 -4.88671875 27.71875 C-4.47928495 21.13589804 -3.71461231 14.72598229 -2.5 8.25 C-2.36940186 7.54681641 -2.23880371 6.84363281 -2.10424805 6.11914062 C-1.13267481 1.13267481 -1.13267481 1.13267481 0 0 Z " fill="#717477" transform="translate(84,261)"/>
<path d="M0 0 C1.32 0.33 2.64 0.66 4 1 C3.01 1.495 3.01 1.495 2 2 C1.27840576 3.64363134 0.60648579 5.31050386 0 7 C-1.32 7 -2.64 7 -4 7 C-2.79618552 4.50638429 -1.54571278 2.31856917 0 0 Z " fill="#202021" transform="translate(237,100)"/>
<path d="M0 0 C0.99 0.33 1.98 0.66 3 1 C-0.11016455 4.28788824 -3.01618925 6.83735988 -7 9 C-5.44499019 5.18315774 -2.96404505 2.80804268 0 0 Z " fill="#414D57" transform="translate(163,77)"/>
<path d="M0 0 C0.66 0.66 1.32 1.32 2 2 C0.02 3.98 -1.96 5.96 -4 8 C-4.66 7.67 -5.32 7.34 -6 7 C-4.02 4.69 -2.04 2.38 0 0 Z " fill="#363F47" transform="translate(113,55)"/>
<path d="M0 0 C-1.36983503 3.16115776 -1.9890638 3.9927092 -5 6 C-5.33 5.34 -5.66 4.68 -6 4 C-2.25 0 -2.25 0 0 0 Z " fill="#3C454B" transform="translate(50,294)"/>
</svg>
