<?xml version="1.0" encoding="UTF-8"?>
<svg version="1.1" xmlns="http://www.w3.org/2000/svg" width="330" height="330">
<path d="M0 0 C108.9 0 217.8 0 330 0 C330 108.9 330 217.8 330 330 C221.1 330 112.2 330 0 330 C0 221.1 0 112.2 0 0 Z " fill="#FEFEFE" transform="translate(0,0)"/>
<path d="M0 0 C4.42823253 1.18086201 6.75398141 3.25894628 9.81640625 6.48828125 C10.36699707 7.04499008 10.91758789 7.60169891 11.48486328 8.17527771 C13.23495386 9.95217849 14.96285715 11.74903909 16.69140625 13.546875 C17.85151838 14.7285367 19.012966 15.90888883 20.17578125 17.08789062 C25.38432592 22.39259047 30.51232601 27.74254775 35.32421875 33.41381836 C36.62573901 35.02287499 36.62573901 35.02287499 38.25776672 36.1439209 C40.47322693 38.98804786 40.03282292 41.44344492 39.99682617 45.00219727 C39.99435442 45.71622994 39.99188267 46.43026262 39.98933601 47.16593266 C39.98267106 48.7233897 39.96940936 50.28082903 39.95040321 51.83818436 C39.91145973 55.19984257 39.91050949 58.56120557 39.90702724 61.92305756 C39.90374771 64.61814528 39.89562684 67.31319358 39.88739014 70.00827026 C39.82275688 99.38514133 40.37399237 127.38505856 47.72167969 155.99560547 C49.28947603 162.22743273 50.27044725 168.57053946 51.33453369 174.90335083 C51.91559181 178.29166401 52.55218654 181.66912879 53.19140625 185.046875 C53.31415924 185.69765518 53.43691223 186.34843536 53.56338501 187.01893616 C53.81188147 188.33519307 54.06069228 189.65139067 54.30981445 190.9675293 C56.21738776 201.04971935 58.09672713 211.13391722 59.83984375 221.24609375 C60.57232933 225.40290162 61.37014611 229.54676063 62.16796875 233.69140625 C62.44085918 235.1171676 62.71364424 236.54294913 62.98632812 237.96875 C63.39511622 240.10606604 63.80583862 242.24289082 64.22387695 244.37841797 C65.89053103 252.89415386 67.19911328 261.31000941 67.69140625 269.984375 C68.48836914 269.96342773 69.28533203 269.94248047 70.10644531 269.92089844 C73.71797059 269.83774178 77.32929449 269.78571466 80.94140625 269.734375 C82.19566406 269.70085937 83.44992188 269.66734375 84.7421875 269.6328125 C85.94746094 269.61992187 87.15273437 269.60703125 88.39453125 269.59375 C89.50473633 269.57280273 90.61494141 269.55185547 91.75878906 269.53027344 C95.35754589 270.0875235 96.49756877 271.13538796 98.69140625 273.984375 C99.25390625 276.484375 99.25390625 276.484375 98.69140625 278.984375 C95.84791627 281.94373784 94.1738817 282.91725328 90.07318783 283.48773956 C88.64563373 283.50964477 87.21764038 283.50967246 85.7900238 283.49230957 C84.6056606 283.50166951 84.6056606 283.50166951 83.39737087 283.51121855 C80.75476209 283.52715847 78.11307442 283.51454079 75.47045898 283.50195312 C73.57475242 283.50737377 71.67905007 283.5144961 69.78335571 283.52319336 C64.63674816 283.54143527 59.49046118 283.53435587 54.34384799 283.52167702 C48.96051079 283.51155537 43.57720118 283.52094024 38.19386292 283.52722168 C29.15433825 283.53449988 20.11494428 283.52490515 11.07543945 283.50585938 C0.61944691 283.48408377 -9.83623374 283.49114637 -20.29221874 283.513165 C-29.26558339 283.53130618 -38.23885405 283.53388378 -47.2122311 283.52341032 C-52.573435 283.5171692 -57.9344922 283.51635692 -63.29568672 283.52955627 C-68.33465711 283.54109571 -73.37322456 283.5331239 -78.41215134 283.50997925 C-80.26329694 283.50468224 -82.11447636 283.50622283 -83.9656086 283.51502991 C-86.48893125 283.52592989 -89.01095547 283.51229004 -91.53419495 283.49230957 C-92.63803153 283.5056939 -92.63803153 283.5056939 -93.76416785 283.51934862 C-97.1928089 283.466535 -99.00349631 283.21748726 -101.76324368 281.10887909 C-103.30859375 278.984375 -103.30859375 278.984375 -103.80859375 276.484375 C-103.1327898 273.10535525 -102.02663648 272.08522985 -99.30859375 269.984375 C-96.00878906 269.53027344 -96.00878906 269.53027344 -92.13671875 269.59375 C-91.45430115 269.59940979 -90.77188354 269.60506958 -90.06878662 269.61090088 C-87.89799613 269.63321864 -85.72888169 269.68339992 -83.55859375 269.734375 C-82.08335725 269.75444624 -80.60809476 269.77269593 -79.1328125 269.7890625 C-75.52419874 269.8330662 -71.91655994 269.90205917 -68.30859375 269.984375 C-68.24194897 269.13747132 -68.24194897 269.13747132 -68.17395782 268.27345848 C-67.52248938 260.90290564 -66.26789931 253.69889666 -64.91601562 246.42822266 C-64.67084416 245.09341645 -64.42602699 243.75854512 -64.18153381 242.4236145 C-63.52199672 238.82832775 -62.85746237 235.23398162 -62.19190407 231.63980532 C-61.49426037 227.86791481 -60.80105784 224.09520806 -60.1072998 220.32260132 C-58.943222 213.99597818 -57.77611924 207.66991936 -56.60693359 201.34423828 C-55.1066862 193.22732071 -53.61140599 185.10949639 -52.11769867 176.99137306 C-50.8312445 169.99983036 -49.54259266 163.00869301 -48.25354958 156.01762724 C-47.84004911 153.77455152 -47.42683645 151.53142292 -47.01365662 149.28828812 C-46.36485249 145.76678011 -45.71467947 142.24552742 -45.06344414 138.72446823 C-44.71094342 136.81703539 -44.3596732 134.90937528 -44.00843811 133.00170898 C-43.79815475 131.86633698 -43.5878714 130.73096497 -43.37121582 129.56118774 C-43.18907784 128.57495234 -43.00693985 127.58871693 -42.81928253 126.5725956 C-42.50693778 124.98960192 -42.15730033 123.41269733 -41.74449825 121.85288239 C-41.00948225 118.70223169 -41.2889726 115.50164437 -41.38891602 112.28857422 C-41.42833206 110.68930158 -41.46682707 109.09000604 -41.50453186 107.49069214 C-41.52542437 106.64419979 -41.54631687 105.79770744 -41.56784248 104.92556381 C-41.68642273 99.45581982 -41.7222524 93.98480847 -41.76793003 88.51405144 C-41.81244785 83.72594574 -41.8889844 78.94279252 -42.03881836 74.15673828 C-43.10078131 38.9009188 -43.10078131 38.9009188 -34.1013031 29.08084106 C-31.06646342 26.34196957 -27.91706395 23.93846053 -24.53659058 21.6438446 C-20.88578883 18.92463314 -18.16750931 15.49452139 -15.30859375 11.984375 C-13.34982939 9.75509169 -11.34743476 7.57792211 -9.30859375 5.421875 C-8.82648438 4.87724609 -8.344375 4.33261719 -7.84765625 3.77148438 C-5.19760097 1.00575208 -3.88743256 -0.0183586 0 0 Z " fill="#344958" transform="translate(148.30859375,26.015625)"/>
<path d="M0 0 C18.48 0 36.96 0 56 0 C58.25 7.875 58.25 7.875 58.95800781 11.76904297 C59.1189241 12.64438187 59.27984039 13.51972076 59.44563293 14.42158508 C59.61310532 15.35238388 59.7805777 16.28318268 59.953125 17.2421875 C60.13360886 18.2293425 60.31409271 19.2164975 60.50004578 20.23356628 C61.08669497 23.44678071 61.6684096 26.66086643 62.25 29.875 C62.65928989 32.12301953 63.06887896 34.37098462 63.47875977 36.61889648 C64.29063553 41.07452714 65.10058155 45.53050122 65.90869141 49.98681641 C66.79262192 54.8605461 67.68132258 59.73337474 68.57421875 64.60546875 C70.06206792 72.73471644 71.53355083 80.86687128 73 89 C73.19309753 90.07010315 73.38619507 91.1402063 73.58514404 92.24273682 C74.95305318 99.82505154 76.31721136 107.40803061 77.67776489 114.9916687 C78.14099423 117.57167788 78.60507931 120.15153357 79.07003784 122.73123169 C79.72368486 126.35943778 80.37397615 129.98823015 81.0234375 133.6171875 C81.2231163 134.72181839 81.4227951 135.82644928 81.62852478 136.96455383 C81.80960281 137.98026962 81.99068085 138.99598541 82.17724609 140.04248047 C82.41657364 141.37543655 82.41657364 141.37543655 82.66073608 142.73532104 C83 145 83 145 83 148 C46.7 148 10.4 148 -27 148 C-24.70502794 131.93519561 -24.70502794 131.93519561 -23.37109375 124.94921875 C-23.14583008 123.74791321 -23.14583008 123.74791321 -22.91601562 122.52233887 C-22.59364856 120.80471913 -22.26996376 119.08734625 -21.94503784 117.37020874 C-21.05085785 112.64381345 -20.16703993 107.91547349 -19.28125 103.1875 C-19.09533798 102.19679001 -18.90942596 101.20608002 -18.71788025 100.18534851 C-16.78779738 89.89196974 -14.89471879 79.59187729 -13.00637817 69.29077148 C-12.43948495 66.19832803 -11.87204359 63.10598563 -11.30444336 60.01367188 C-9.8478043 52.07703436 -8.39197284 44.14024927 -6.93798828 36.203125 C-6.11263294 31.69777434 -5.28611647 27.19263815 -4.45877075 22.68765259 C-4.15594133 21.03732992 -3.85358379 19.38692058 -3.55172729 17.73641968 C-3.13981033 15.48422165 -2.7263407 13.23231396 -2.3125 10.98046875 C-2.08175781 9.72129639 -1.85101563 8.46212402 -1.61328125 7.16479492 C-1.14755442 4.76144427 -0.59374167 2.37496667 0 0 Z " fill="#FCFCFC" transform="translate(120,148)"/>
<path d="M0 0 C1.9375 1.125 1.9375 1.125 3 3 C3.4375 5.9375 3.4375 5.9375 3 9 C0.07355175 12.63022828 -2.85617459 13.97987371 -7.20214844 15.51782227 C-7.81411072 15.73791962 -8.426073 15.95801697 -9.05657959 16.18478394 C-11.07051102 16.90612844 -13.08972283 17.61125536 -15.109375 18.31640625 C-16.51974957 18.81815524 -17.92975827 19.32093375 -19.3394165 19.82469177 C-23.0482184 21.14707032 -26.7616729 22.45586049 -30.47631836 23.76171875 C-34.23438093 25.08529281 -37.988168 26.4208703 -41.7421875 27.75585938 C-45.97287736 29.25985299 -50.20393821 30.76269432 -54.43841553 32.2559967 C-60.64825294 34.44654439 -66.84679668 36.65432254 -73 39 C-62.50818652 43.18172837 -51.94710124 47.13796532 -41.31640625 50.953125 C-40.1188974 51.38371216 -38.92138855 51.81429932 -37.68759155 52.25793457 C-32.70557899 54.04817657 -27.72323451 55.837397 -22.73608398 57.61328125 C-19.05124571 58.92582532 -15.37131599 60.25182377 -11.69140625 61.578125 C-10.56029922 61.97815735 -9.4291922 62.3781897 -8.2638092 62.79034424 C-6.69958473 63.35673615 -6.69958473 63.35673615 -5.10375977 63.93457031 C-4.1876442 64.2620929 -3.27152863 64.58961548 -2.32765198 64.92706299 C0.05290582 66.02438707 1.39983021 66.93627381 3 69 C3.4375 72 3.4375 72 3 75 C1.4375 76.9375 1.4375 76.9375 -1 78 C-5.74078682 77.56067714 -9.91723549 76.49886663 -14.3840332 74.88623047 C-15.60673416 74.44842255 -16.82943512 74.01061462 -18.08918762 73.55953979 C-19.40979295 73.07895931 -20.73032215 72.5981696 -22.05078125 72.1171875 C-23.43236309 71.61919863 -24.81413673 71.12174163 -26.1960907 70.62478638 C-29.09324222 69.5814193 -31.98876166 68.53368649 -34.88305664 67.48242188 C-38.53735036 66.15517048 -42.19434849 64.83558812 -45.85244942 63.51887131 C-59.43493216 58.62886289 -73.00992885 53.72935051 -86.43041992 48.40673828 C-88.32958482 47.65829507 -90.23396221 46.91978646 -92.16494751 46.25775146 C-97.79618012 44.30572982 -97.79618012 44.30572982 -100 41 C-100.37569856 37.24301443 -100.1642235 36.24633524 -98 33 C-95.24245755 31.86849546 -92.5433844 30.89623015 -89.71484375 29.9765625 C-87.88465792 29.35885938 -86.05510567 28.73927698 -84.22607422 28.11816406 C-82.7278714 27.61234802 -82.7278714 27.61234802 -81.19940186 27.09631348 C-75.37943161 25.10203076 -69.6000199 22.99534992 -63.81640625 20.8984375 C-62.57748627 20.45018616 -61.33856628 20.00193481 -60.06210327 19.5401001 C-57.51615647 18.61892641 -54.97049265 17.69697669 -52.42504883 16.77441406 C-49.19003874 15.60202386 -45.95425092 14.43179667 -42.71824741 13.26215172 C-39.56301817 12.12131914 -36.40850025 10.97852546 -33.25390625 9.8359375 C-32.11506485 9.42435394 -30.97622345 9.01277039 -29.8028717 8.5887146 C-23.08572831 6.15200479 -16.41752094 3.62081381 -9.78062439 0.9725647 C-6.15692159 -0.2948792 -3.77617876 -0.65672674 0 0 Z " fill="#344858" transform="translate(297,65)"/>
<path d="M0 0 C17.82 0 35.64 0 54 0 C54 0.66 54 1.32 54 2 C53.443125 2.14695312 52.88625 2.29390625 52.3125 2.4453125 C43.53119381 5.02630452 37.96827345 8.59827865 33.5 16.75 C30.56498406 23.23750792 29.66886522 28.50372252 31.703125 35.375 C35.32144288 44.45145841 41.0952369 50.08190423 50 54 C51.32403296 54.36854526 52.65569564 54.71410722 54 55 C54 57.64 54 60.28 54 63 C36.18 63 18.36 63 0 63 C0 42.21 0 21.42 0 0 Z " fill="#FBFCFC" transform="translate(121,73)"/>
<path d="M0 0 C2.07204286 1.55800411 2.89554446 2.44624113 3.38031673 5.01620483 C3.38396158 6.17873276 3.38396158 6.17873276 3.38768005 7.36474609 C3.402537 8.70227936 3.402537 8.70227936 3.41769409 10.0668335 C3.41094162 11.53035248 3.41094162 11.53035248 3.40405273 13.0234375 C3.41091599 14.05293518 3.41777924 15.08243286 3.42485046 16.14312744 C3.4431862 19.55389101 3.43927154 22.96419762 3.43359375 26.375 C3.43815199 28.74007315 3.44345649 31.10514497 3.44947815 33.47021484 C3.45842237 38.43006772 3.45597079 43.38975969 3.44604492 48.34960938 C3.43454843 54.71561221 3.45477106 61.08106095 3.48396206 67.44699097 C3.50227868 72.33166042 3.50204074 77.21619595 3.49632454 82.10089111 C3.4961708 84.44851459 3.50225854 86.79614684 3.51461601 89.14373779 C3.52943977 92.42170325 3.51891215 95.69863027 3.50170898 98.9765625 C3.51621094 100.44008148 3.51621094 100.44008148 3.53100586 101.9331665 C3.52117172 102.82485535 3.51133759 103.71654419 3.50120544 104.63525391 C3.50099616 105.41027252 3.50078688 106.18529114 3.50057125 106.98379517 C3 109 3 109 1.12883091 110.74935913 C-1.51183306 112.30069055 -2.98396567 112.46400528 -6 112 C-8.04261581 110.43136323 -8.89855509 109.54177755 -9.37752342 106.98379517 C-9.3786545 106.20877655 -9.37978558 105.43375793 -9.38095093 104.63525391 C-9.3894104 103.74356506 -9.39786987 102.85187622 -9.40658569 101.9331665 C-9.400513 100.95748718 -9.39444031 99.98180786 -9.38818359 98.9765625 C-9.39344055 97.94706482 -9.39869751 96.91756714 -9.40411377 95.85687256 C-9.4173422 92.44609507 -9.4085654 89.03578242 -9.3984375 85.625 C-9.40045741 83.25992747 -9.40336815 80.89485555 -9.40713501 78.52978516 C-9.41156223 73.56992674 -9.40511437 68.61023025 -9.39111328 63.65039062 C-9.37402136 57.28446565 -9.3838604 50.91892008 -9.40183067 44.55300903 C-9.41265767 39.66834643 -9.40922712 34.78377417 -9.4014473 29.89910889 C-9.39944229 27.55149287 -9.40191503 25.20386873 -9.40888596 22.85626221 C-9.41648243 19.57843212 -9.40492105 16.30122132 -9.38818359 13.0234375 C-9.39425629 12.04775818 -9.40032898 11.07207886 -9.40658569 10.0668335 C-9.39812622 9.17514465 -9.38966675 8.28345581 -9.38095093 7.36474609 C-9.37981985 6.58972748 -9.37868877 5.81470886 -9.37752342 5.01620483 C-8.39983316 -0.2052562 -4.69104936 -0.58638117 0 0 Z " fill="#2F4454" transform="translate(150,166)"/>
<path d="M0 0 C4.53665737 3.7301405 8.77941122 7.67053566 12.9375 11.8125 C13.68253784 12.55077026 13.68253784 12.55077026 14.44262695 13.30395508 C18 16.87624634 18 16.87624634 18 18 C6.78 18 -4.44 18 -16 18 C-8.94117647 9.76470588 -8.94117647 9.76470588 -6.3125 6.75 C-5.75175781 6.10546875 -5.19101563 5.4609375 -4.61328125 4.796875 C-3.12522939 3.13948068 -1.59138765 1.55773293 0 0 Z " fill="#F9FAFA" transform="translate(147,42)"/>
<path d="M0 0 C0 8.91 0 17.82 0 27 C-4.84777067 25.06089173 -7.45241967 23.44846719 -10 19 C-11.30133301 15.0166514 -11.28527705 11.80828498 -9.875 7.8125 C-4.66666667 0 -4.66666667 0 0 0 Z " fill="#F8F8F9" transform="translate(175,88)"/>
</svg>
