<svg xmlns="http://www.w3.org/2000/svg" version="1.1" xmlns:xlink="http://www.w3.org/1999/xlink" xmlns:svgjs="http://svgjs.dev/svgjs" width="2000" height="1500" viewBox="0 0 2000 1500"><rect width="2000" height="1500" fill="#ffffff"></rect><g transform="matrix(0.75,0,0,0.75,249.090909090909,534.5431306878529)"><svg viewBox="0 0 396 113" data-background-color="#ffffff" preserveAspectRatio="xMidYMid meet" height="570" width="2000" xmlns="http://www.w3.org/2000/svg" xmlns:xlink="http://www.w3.org/1999/xlink"><g id="tight-bounds" transform="matrix(1,0,0,1,0.2400000000000091,0.4511724731523543)"><svg viewBox="0 0 395.52 112.0976550536953" height="112.0976550536953" width="395.52"><g><svg viewBox="0 0 554.8668464928762 157.2594871533428" height="112.0976550536953" width="395.52"><g transform="matrix(1,0,0,1,159.34684649287618,41.684537317780936)"><svg viewBox="0 0 395.52 73.89041251778093" height="73.89041251778093" width="395.52"><g id="textblocktransform"><svg viewBox="0 0 395.52 73.89041251778093" height="73.89041251778093" width="395.52" id="textblock"><g><svg viewBox="0 0 395.52 73.89041251778093" height="73.89041251778093" width="395.52"><g transform="matrix(1,0,0,1,0,0)"><svg width="395.52" viewBox="3.05 -37.99 205.94 38.480000000000004" height="73.89041251778093" data-palette-color="#2f4454"><path d="M20.61-14.99L20.61-18.7 32.74-18.7 32.74-1.34Q29.91-0.44 26.98 0.02 24.05 0.49 20.19 0.49L20.19 0.49Q12.08 0.49 7.57-4.33 3.05-9.16 3.05-17.85L3.05-17.85Q3.05-23.41 5.29-27.6 7.52-31.79 11.72-34 15.92-36.21 21.56-36.21L21.56-36.21Q27.27-36.21 32.2-34.11L32.2-34.11 30.59-30.44Q25.76-32.5 21.29-32.5L21.29-32.5Q14.77-32.5 11.11-28.61 7.45-24.73 7.45-17.85L7.45-17.85Q7.45-10.62 10.97-6.88 14.5-3.15 21.34-3.15L21.34-3.15Q25.05-3.15 28.59-4L28.59-4 28.59-14.99 20.61-14.99ZM40.4-26.76L44.5-26.76 44.5-9.4Q44.5-6.13 45.99-4.52 47.48-2.91 50.66-2.91L50.66-2.91Q54.86-2.91 56.8-5.2 58.74-7.5 58.74-12.7L58.74-12.7 58.74-26.76 62.79-26.76 62.79 0 59.45 0 58.86-3.59 58.64-3.59Q57.39-1.61 55.19-0.56 52.98 0.49 50.14 0.49L50.14 0.49Q45.26 0.49 42.83-1.83 40.4-4.15 40.4-9.25L40.4-9.25 40.4-26.76ZM75.43-26.76L75.43 0 71.38 0 71.38-26.76 75.43-26.76ZM71.04-34.01L71.04-34.01Q71.04-35.4 71.72-36.05 72.41-36.69 73.43-36.69L73.43-36.69Q74.41-36.69 75.12-36.04 75.83-35.38 75.83-34.01L75.83-34.01Q75.83-32.64 75.12-31.97 74.41-31.3 73.43-31.3L73.43-31.3Q72.41-31.3 71.72-31.97 71.04-32.64 71.04-34.01ZM102.78 0L102.24-3.59 102.02-3.59Q99.21 0.49 93.62 0.49L93.62 0.49Q88.37 0.49 85.45-3.1 82.54-6.69 82.54-13.31L82.54-13.31Q82.54-19.92 85.47-23.58 88.4-27.25 93.62-27.25L93.62-27.25Q99.06-27.25 101.97-23.29L101.97-23.29 102.29-23.29 102.12-25.22 102.02-27.1 102.02-37.99 106.07-37.99 106.07 0 102.78 0ZM94.13-2.91L94.13-2.91Q98.28-2.91 100.15-5.16 102.02-7.42 102.02-12.45L102.02-12.45 102.02-13.31Q102.02-18.99 100.13-21.42 98.23-23.85 94.08-23.85L94.08-23.85Q90.52-23.85 88.63-21.08 86.74-18.31 86.74-13.26L86.74-13.26Q86.74-8.13 88.62-5.52 90.5-2.91 94.13-2.91ZM125.97 0.49L125.97 0.49Q120.03 0.49 116.6-3.13 113.17-6.74 113.17-13.16L113.17-13.16Q113.17-19.63 116.36-23.44 119.55-27.25 124.92-27.25L124.92-27.25Q129.95-27.25 132.88-23.94 135.81-20.63 135.81-15.21L135.81-15.21 135.81-12.65 117.37-12.65Q117.49-7.93 119.75-5.49 122.01-3.05 126.11-3.05L126.11-3.05Q130.43-3.05 134.66-4.86L134.66-4.86 134.66-1.25Q132.51-0.32 130.59 0.09 128.68 0.49 125.97 0.49ZM124.87-23.85L124.87-23.85Q121.65-23.85 119.73-21.75 117.81-19.65 117.47-15.94L117.47-15.94 131.46-15.94Q131.46-19.78 129.75-21.81 128.04-23.85 124.87-23.85ZM162.46 0L159.12 0 147.01-31.64 146.81-31.64Q147.16-27.88 147.16-22.71L147.16-22.71 147.16 0 143.32 0 143.32-35.69 149.57-35.69 160.88-6.25 161.07-6.25 172.47-35.69 178.67-35.69 178.67 0 174.52 0 174.52-23Q174.52-26.95 174.87-31.59L174.87-31.59 174.67-31.59 162.46 0ZM199.15 0.49L199.15 0.49Q193.22 0.49 189.79-3.13 186.36-6.74 186.36-13.16L186.36-13.16Q186.36-19.63 189.55-23.44 192.73-27.25 198.11-27.25L198.11-27.25Q203.13-27.25 206.06-23.94 208.99-20.63 208.99-15.21L208.99-15.21 208.99-12.65 190.56-12.65Q190.68-7.93 192.94-5.49 195.2-3.05 199.3-3.05L199.3-3.05Q203.62-3.05 207.85-4.86L207.85-4.86 207.85-1.25Q205.7-0.32 203.78 0.09 201.86 0.49 199.15 0.49ZM198.06-23.85L198.06-23.85Q194.83-23.85 192.92-21.75 191-19.65 190.66-15.94L190.66-15.94 204.65-15.94Q204.65-19.78 202.94-21.81 201.23-23.85 198.06-23.85Z" opacity="1" transform="matrix(1,0,0,1,0,0)" fill="#2f4454" class="wordmark-text-0" data-fill-palette-color="primary" id="text-0"></path></svg></g></svg></g></svg></g></svg></g><g><svg viewBox="0 0 141.90309346732852 157.2594871533428" height="157.2594871533428" width="141.90309346732852"><g><svg xmlns="http://www.w3.org/2000/svg" xmlns:xlink="http://www.w3.org/1999/xlink" version="1.0" x="0" y="0" viewBox="17.7 14.1 64.69849282724931 71.7" enable-background="new 0 0 100 100" xml:space="preserve" height="157.2594871533428" width="141.90309346732852" class="icon-icon-0" data-fill-palette-color="accent" id="icon-0"><path d="M59.7 85.6C58.9 85.6 58.3 85.1 58.1 84.3L50.9 45C50.7 44.1 51.3 43.3 52.2 43.1S53.9 43.5 54.1 44.4L61.3 83.6C61.5 84.5 60.9 85.3 60 85.5 59.9 85.5 59.8 85.6 59.7 85.6" fill="#2f4454" data-fill-palette-color="accent"></path><path d="M67.2 85.8H19.3C18.4 85.8 17.7 85.1 17.7 84.2S18.4 82.6 19.3 82.6H67.2C68.1 82.6 68.8 83.3 68.8 84.2S68.1 85.8 67.2 85.8" fill="#2f4454" data-fill-palette-color="accent"></path><path d="M27.9 85.6H27.6C26.7 85.4 26.1 84.6 26.3 83.7L33.5 44.6C33.7 43.7 34.5 43.2 35.4 43.3 36.3 43.5 36.9 44.3 36.7 45.2L29.5 84.3C29.3 85 28.7 85.6 27.9 85.6" fill="#2f4454" data-fill-palette-color="accent"></path><path d="M52.3 45.1H35.3C34.4 45.1 33.7 44.4 33.7 43.5V24.4C33.7 23.5 34.4 22.8 35.3 22.8H52.3C53.2 22.8 53.9 23.5 53.9 24.4V43.5C53.9 44.4 53.2 45.1 52.3 45.1M36.9 41.9H50.7V26H36.9z" fill="#2f4454" data-fill-palette-color="accent"></path><path d="M52 26C51.6 26 51.2 25.8 50.8 25.5L43.7 18.1 36.6 25.5C36 26.1 35 26.2 34.3 25.5 33.7 24.9 33.6 23.9 34.3 23.2L42.6 14.6C42.9 14.3 43.3 14.1 43.8 14.1 44.2 14.1 44.7 14.3 45 14.6L53.3 23.2C53.9 23.8 53.9 24.9 53.3 25.5 52.8 25.9 52.4 26 52 26" fill="#2f4454" data-fill-palette-color="accent"></path><path d="M80.7 43.7C80.5 43.7 80.3 43.7 80.2 43.6L57.3 35.3C56.7 35.1 56.2 34.5 56.2 33.8S56.6 32.5 57.3 32.3L80.2 24C81 23.7 82 24.1 82.3 25 82.6 25.8 82.2 26.8 81.3 27.1L62.6 33.9 81.3 40.7C82.1 41 82.6 41.9 82.3 42.8 82 43.3 81.4 43.7 80.7 43.7" fill="#2f4454" data-fill-palette-color="accent"></path><path d="M52.3 40.2C48.1 40.2 44.6 37.1 44.6 33.2S48 26.2 52.3 26.2C53.2 26.2 53.9 26.9 53.9 27.8S53.2 29.4 52.3 29.4C49.8 29.4 47.9 31.1 47.9 33.2S49.9 37 52.3 37C53.2 37 53.9 37.7 53.9 38.6S53.2 40.2 52.3 40.2" fill="#2f4454" data-fill-palette-color="accent"></path><path d="M43.5 78C42.6 78 41.9 77.3 41.9 76.4V51.1C41.9 50.2 42.6 49.5 43.5 49.5S45.1 50.2 45.1 51.1V76.4C45.1 77.3 44.4 78 43.5 78" fill="#2f4454" data-fill-palette-color="accent"></path></svg></g></svg></g></svg></g><defs></defs></svg><rect width="395.52" height="112.0976550536953" fill="none" stroke="none" visibility="hidden"></rect></g></svg></g></svg>