<svg xmlns="http://www.w3.org/2000/svg" viewBox="0 0 1200 800" width="1200" height="800"><path fill="#FFF" d="M0 0h1200v800H0z"/><g transform="translate(496.0 296.0) rotate(0.0 104.5 104.0) scale(0.999612590335803 0.9952867430676842)"><svg width="209.081" height="208.985" viewBox="0 0 209.081 208.985"><path d="M201.027 1.998c-.162.162-.17.424-.007.587s.424.155.586-.008a.404.404 0 0 0 0-.579.405.405 0 0 0-.58 0zm-7.396 7.396c-.155.155-.163.417 0 .58s.424.155.579 0c.17-.17.17-.424.008-.586s-.417-.163-.587.007zm-7.39 7.389a.406.406 0 0 0 0 .58.406.406 0 0 0 .579 0c.163-.163.163-.417 0-.579s-.417-.163-.58 0zm-7.481-7.481a.52.52 0 0 0-.007.728.521.521 0 0 0 .735 0 .514.514 0 1 0-.729-.728zm7.396-7.396a.514.514 0 1 0 .728.728.514.514 0 0 0-.008-.729.512.512 0 0 0-.721 0zm-14.877-.085a.614.614 0 1 0 .869.869.614.614 0 1 0-.869-.869zm37.179.735a.367.367 0 0 0 .517-.007.36.36 0 0 0 0-.509c-.141-.141-.375-.148-.516-.008s-.141.383 0 .523zm-22.175 22.175a.359.359 0 0 0 .51 0 .363.363 0 0 0 .007-.517.37.37 0 0 0-.523 0 .368.368 0 0 0 .007.517zm7.397-7.396c.142.142.368.142.51 0s.141-.367 0-.509c-.141-.141-.374-.149-.516-.008s-.134.376.007.517zm7.389-7.39a.359.359 0 0 0 .51 0 .367.367 0 0 0 .006-.516.375.375 0 0 0-.523 0 .368.368 0 0 0 .007.517zm-7.481-7.99a.459.459 0 0 0 0 .651c.184.184.474.191.658.006s.184-.481 0-.664a.466.466 0 0 0-.657.007zm-14.785 14.786a.464.464 0 1 0 .663.65.464.464 0 0 0-.663-.65zm7.396-7.397a.469.469 0 0 0-.008.658.47.47 0 0 0 .665 0 .464.464 0 0 0-.657-.657zm-7.481-7.481a.57.57 0 0 0 0 .807c.219.219.579.212.799-.008s.226-.579.007-.798a.568.568 0 0 0-.806 0zm-7.396 7.396c-.22.22-.22.573.007.8a.56.56 0 0 0 .792 0 .56.56 0 0 0 .007-.798.562.562 0 0 0-.806 0zm-7.482-7.481a.669.669 0 1 0 .947.947.663.663 0 0 0 0-.947.663.663 0 0 0-.947 0zm.315 37.091c-.155.155-.163.417 0 .58s.424.155.579 0c.17-.17.17-.424.008-.586a.407.407 0 0 0-.587.007zm-7.389 7.39c-.162.162-.163.417 0 .58s.417.162.579 0a.404.404 0 0 0 0-.579.405.405 0 0 0-.58 0zm14.786-14.786c-.162.162-.17.424-.007.587s.424.155.586-.008c.163-.163.163-.417 0-.579s-.417-.163-.58 0zm7.389-7.389c-.163.163-.163.417 0 .58s.416.162.579 0 .163-.417 0-.579a.406.406 0 0 0-.58 0zm-14.871-.092a.514.514 0 1 0 .728.728.515.515 0 0 0-.729-.729zm-14.785 14.785a.52.52 0 0 0-.007.728.521.521 0 0 0 .735 0 .515.515 0 1 0-.729-.728zm7.396-7.396a.514.514 0 1 0 .728.728.514.514 0 0 0-.008-.729.512.512 0 0 0-.721 0zm14.779-14.779a.506.506 0 0 0 0 .721.509.509 0 0 0 .729.008.514.514 0 1 0-.728-.728zm-14.871-.092a.614.614 0 1 0 .869.869.614.614 0 1 0-.869-.869zm-14.786 14.786a.614.614 0 1 0 .869.869.614.614 0 1 0-.869-.869zm7.39-7.389a.609.609 0 0 0 .007.87c.24.24.622.24.862 0a.608.608 0 0 0 .008-.869.61.61 0 0 0-.877 0zm14.786-14.786a.614.614 0 1 0 .869.869.614.614 0 1 0-.869-.869zm-7.482-7.481a.717.717 0 0 0 0 1.018c.283.283.735.284 1.019 0s.282-.735 0-1.019a.718.718 0 0 0-1.018 0zm-7.389 7.389a.717.717 0 0 0 0 1.018.717.717 0 0 0 1.019 0 .725.725 0 0 0 0-1.019.724.724 0 0 0-1.018 0zm-7.396 7.396a.724.724 0 0 0 0 1.018.726.726 0 0 0 1.026-1.026.725.725 0 0 0-1.025.008zm-7.39 7.39a.718.718 0 0 0 0 1.018c.283.283.736.283 1.019 0s.282-.735 0-1.019-.735-.283-1.018 0zm-7.481-7.481a.825.825 0 0 0 1.167 1.166.818.818 0 0 0 0-1.16.82.82 0 0 0-1.167-.007zm14.786-14.786a.829.829 0 0 0 0 1.174.824.824 0 1 0 0-1.174zm-7.397 7.396a.824.824 0 1 0 1.174 1.162.824.824 0 0 0-1.174-1.162zm-14.87-.092c-.36.36-.36.954 0 1.315s.948.354 1.309-.006.368-.948.007-1.309-.955-.36-1.315 0zm7.389-7.389a.926.926 0 1 0 1.319 1.303.926.926 0 0 0-1.319-1.304z" fill="#172D59"/><circle cx="112.607" cy="2.1" r="1.03" fill="#172D59"/><path d="M171.594 39.42a.359.359 0 0 0 .51 0c.141-.141.148-.374.006-.516s-.382-.142-.523 0a.368.368 0 0 0 .007.517zm-7.39 7.39c.142.142.368.142.51 0s.141-.367 0-.509a.368.368 0 0 0-.516-.008.368.368 0 0 0 .007.517zm14.779-14.779c.142.142.375.135.517-.007s.141-.367 0-.509-.375-.148-.516-.008a.375.375 0 0 0 0 .523zm-22.175 22.175a.359.359 0 0 0 .51 0 .363.363 0 0 0 .007-.517.37.37 0 0 0-.523 0 .368.368 0 0 0 .007.517zm7.305-22.776a.459.459 0 0 0 0 .651.46.46 0 0 0 .658.006.468.468 0 0 0 0-.664.466.466 0 0 0-.657.007zm7.389-7.389a.465.465 0 0 0 .657.658.47.47 0 0 0 0-.665.467.467 0 0 0-.658.008zm-14.778 14.778a.469.469 0 0 0-.008.658.47.47 0 0 0 .665 0 .464.464 0 0 0-.657-.657zm-7.396 7.397a.465.465 0 0 0 .657.658.468.468 0 0 0 0-.664.466.466 0 0 0-.657.007zm14.693-29.656a.56.56 0 0 0 .008.799.558.558 0 0 0 .791 0 .56.56 0 0 0 .008-.799.563.563 0 0 0-.807 0zm-22.175 22.175c-.22.22-.22.573.007.8a.56.56 0 0 0 .792 0 .56.56 0 0 0 .007-.798.562.562 0 0 0-.806 0zm14.786-14.786a.57.57 0 0 0 0 .807.567.567 0 0 0 .799-.008.56.56 0 0 0 .007-.798.562.562 0 0 0-.806 0zm-7.389 7.389a.57.57 0 0 0 0 .807.567.567 0 0 0 .799-.008.567.567 0 0 0 .007-.798.568.568 0 0 0-.806 0zm7.296-22.259a.676.676 0 0 0 0 .947.676.676 0 0 0 .955-.955.672.672 0 0 0-.955.008zm-22.174 22.174a.669.669 0 1 0 .947.947.663.663 0 0 0 0-.947.663.663 0 0 0-.947 0zm14.786-14.785a.67.67 0 1 0 .945.946.67.67 0 0 0-.944-.945zm-7.39 7.389a.669.669 0 1 0 .944.947.669.669 0 0 0-.944-.947zm-.091-14.871a.77.77 0 0 0 0 1.09c.304.304.791.311 1.096.006s.304-.798 0-1.102a.778.778 0 0 0-1.096.006zm-7.39 7.39a.77.77 0 0 0 0 1.09.772.772 0 0 0 1.096.006.775.775 0 0 0-1.096-1.095zm-7.396 7.396a.777.777 0 0 0 0 1.09.779.779 0 0 0 1.096.006.78.78 0 0 0 0-1.102.778.778 0 0 0-1.096.006zM149.066 1.59a.778.778 0 0 0-.007 1.097.781.781 0 0 0 1.103 0 .775.775 0 0 0-1.096-1.095zm-22.267 7.305a.887.887 0 0 0 0 1.244c.34.34.898.333 1.237-.007a.871.871 0 0 0 0-1.231.88.88 0 0 0-1.237-.007zm-7.396 7.396a.879.879 0 0 0 .007 1.237.87.87 0 0 0 1.231 0 .872.872 0 0 0 .007-1.237.881.881 0 0 0-1.244 0zm14.785-14.786a.879.879 0 0 0 .007 1.237.87.87 0 0 0 1.231 0c.339-.339.347-.898.007-1.237s-.905-.339-1.244 0zM111.921 8.81c-.382.382-.375.998.007 1.38s.997.388 1.379.006a.98.98 0 0 0-1.386-1.385zm7.397-7.397c-.382.382-.382 1.005 0 1.387s1.004.381 1.386 0 .375-.996-.007-1.378-.997-.389-1.379-.008zm-14.878-.085a1.088 1.088 0 0 0 0 1.527 1.081 1.081 0 0 0 1.527-1.527 1.082 1.082 0 0 0-1.527 0zm37.636 59.62c-.162.162-.17.424-.007.587s.424.155.586-.008.163-.417 0-.579a.405.405 0 0 0-.58 0zm-7.396 7.396c-.155.155-.163.417 0 .58s.424.155.579 0c.17-.17.17-.424.008-.586a.407.407 0 0 0-.587.007zm-7.389 7.39c-.162.162-.163.417 0 .58s.417.162.579 0c.163-.163.163-.417 0-.579s-.417-.163-.58 0zm22.175-22.175a.405.405 0 0 0 0 .58.406.406 0 0 0 .579 0c.162-.162.163-.417 0-.579s-.418-.162-.58 0zm-7.481-7.482a.506.506 0 0 0 0 .721c.205.205.523.213.729.008s.204-.53 0-.735a.514.514 0 0 0-.728.007zm-7.39 7.39a.514.514 0 1 0 .728.728.515.515 0 0 0-.729-.729zm-7.389 7.389a.514.514 0 1 0 .728.728.515.515 0 0 0-.729-.729zm-7.396 7.397a.52.52 0 0 0-.007.728.521.521 0 0 0 .735 0 .514.514 0 1 0-.728-.728zm7.304-22.267a.614.614 0 1 0 .869.869.614.614 0 1 0-.869-.869zm7.389-7.39a.614.614 0 1 0 .869.869.614.614 0 1 0-.869-.869zm-22.175 22.175a.614.614 0 1 0 .869.869.614.614 0 1 0-.869-.869zm7.39-7.389a.609.609 0 0 0 .007.87c.24.24.622.24.862 0a.608.608 0 0 0 .008-.869.61.61 0 0 0-.877 0zm-7.482-7.481a.724.724 0 0 0 0 1.018.726.726 0 0 0 1.026-1.026.724.724 0 0 0-1.025.008zm-7.389 7.389a.718.718 0 0 0 0 1.018c.283.283.736.283 1.019 0s.282-.735 0-1.019a.717.717 0 0 0-1.018 0zm22.175-22.175a.717.717 0 0 0 0 1.018.716.716 0 0 0 1.018 0 .72.72 0 1 0-1.018-1.019zm-7.389 7.389c-.283.283-.282.735 0 1.018s.735.284 1.018 0c.276-.276.282-.735 0-1.019s-.742-.276-1.018 0zm-7.481-7.481a.829.829 0 0 0 0 1.174.824.824 0 1 0 0-1.174zM97.366 45.809a.825.825 0 0 0 1.167 1.166.818.818 0 0 0 0-1.16.82.82 0 0 0-1.167-.007zm7.389-7.39a.824.824 0 1 0 1.174 1.162.824.824 0 0 0-1.174-1.162zm14.786-14.785a.824.824 0 1 0 1.174 1.162.824.824 0 0 0-1.174-1.162zm-14.871-.092c-.36.36-.36.954 0 1.315s.948.354 1.309-.006.36-.94 0-1.302a.927.927 0 0 0-1.308-.007zm7.39-7.39a.926.926 0 0 0 1.309 1.308c.36-.36.367-.947.006-1.309s-.954-.36-1.315 0zM89.885 38.328c-.36.36-.36.954 0 1.315s.948.354 1.309-.006a.927.927 0 0 0 .007-1.309.936.936 0 0 0-1.315 0zm7.389-7.39a.926.926 0 1 0 1.319 1.303.926.926 0 0 0-1.319-1.304zm7.304-22.267a1.03 1.03 0 1 0 1.457 1.457 1.03 1.03 0 1 0-1.457-1.457zM89.793 23.457c-.396.396-.403 1.054 0 1.457s1.061.396 1.457 0a1.03 1.03 0 1 0-1.457-1.457zm-7.39 7.389a1.03 1.03 0 1 0 1.457 1.457 1.03 1.03 0 1 0-1.457-1.457zm14.786-14.785a1.03 1.03 0 1 0 1.457 1.457 1.03 1.03 0 1 0-1.457-1.457zM74.93 23.373a1.12 1.12 0 0 0-.008 1.59 1.123 1.123 0 0 0 1.599 0 1.124 1.124 0 0 0 0-1.599 1.12 1.12 0 0 0-1.59.008zM97.105 1.198a1.127 1.127 0 0 0-.008 1.59c.446.446 1.16.439 1.599 0a1.124 1.124 0 0 0 0-1.599 1.12 1.12 0 0 0-1.59.008zM82.319 15.983a1.127 1.127 0 0 0-.008 1.59c.446.446 1.16.439 1.599 0a1.132 1.132 0 0 0 .006-1.606 1.128 1.128 0 0 0-1.597.015zm7.396-7.396a1.12 1.12 0 0 0-.008 1.59 1.123 1.123 0 0 0 1.599 0 1.13 1.13 0 0 0 0-1.599 1.125 1.125 0 0 0-1.59.008zm-14.877-.085a1.23 1.23 0 1 0 1.74 1.739 1.239 1.239 0 0 0 .007-1.747 1.237 1.237 0 0 0-1.746.008zm7.396-7.396c-.481.481-.488 1.266-.008 1.746s1.266.474 1.747-.007a1.23 1.23 0 1 0-1.739-1.74zM67.448 15.891a1.23 1.23 0 1 0 1.74 1.743 1.23 1.23 0 0 0-1.74-1.744zM59.967 8.41a1.332 1.332 0 0 0-.007 1.888 1.34 1.34 0 0 0 1.895-1.895 1.331 1.331 0 0 0-1.888.007zm7.39-7.389c-.517.517-.523 1.358 0 1.881s1.371.523 1.888.007c.523-.523.523-1.372 0-1.895s-1.365-.517-1.888.007zM52.486.929a1.44 1.44 0 0 0 0 2.036c.559.559 1.471.552 2.029-.006s.566-1.471.007-2.03a1.44 1.44 0 0 0-2.036 0zm97.022 60.577a.366.366 0 0 0 .516-.516.368.368 0 0 0-.516-.008.375.375 0 0 0 0 .523zm-22.175 22.175a.359.359 0 0 0 .51 0c.148-.148.148-.375.007-.516s-.375-.148-.523 0a.367.367 0 0 0 .007.516zm14.786-14.786a.359.359 0 0 0 .51 0c.141-.141.148-.374.006-.516s-.382-.142-.523 0-.134.376.007.516zm-7.39 7.39c.142.142.368.142.51 0s.141-.367 0-.509-.374-.149-.516-.008a.368.368 0 0 0 .007.517zm-.091-15.38a.459.459 0 0 0 0 .651.46.46 0 0 0 .658.006.468.468 0 0 0 0-.664.466.466 0 0 0-.657.007zm-7.389 7.39a.469.469 0 0 0-.008.658.47.47 0 0 0 .665 0 .465.465 0 0 0-.658-.657zm14.778-14.778a.464.464 0 1 0 .657-.008.467.467 0 0 0-.658.008zm-22.175 22.174a.465.465 0 0 0 .657.658.468.468 0 0 0 0-.664.466.466 0 0 0-.657.007zm7.305-22.267a.57.57 0 0 0 0 .807.567.567 0 0 0 .799-.008.56.56 0 0 0 .007-.798.562.562 0 0 0-.806 0zM112.371 68.21c-.22.22-.22.573.007.8a.56.56 0 0 0 .792 0 .56.56 0 0 0 .007-.798.562.562 0 0 0-.806 0zm22.175-22.175a.56.56 0 0 0 .008.799.558.558 0 0 0 .791 0 .56.56 0 0 0 .008-.799.563.563 0 0 0-.807 0zm-14.779 14.778a.57.57 0 0 0 0 .807.567.567 0 0 0 .799-.008.567.567 0 0 0 .007-.798.568.568 0 0 0-.806 0zm-14.877-.085a.669.669 0 1 0 .947.947c.269-.269.262-.686 0-.947s-.679-.269-.947 0zm14.786-14.785a.67.67 0 1 0 .945.946.67.67 0 0 0-.944-.945zm-7.39 7.389a.669.669 0 1 0 .944.947.669.669 0 0 0-.944-.947zm14.778-14.778a.676.676 0 0 0 0 .947.676.676 0 0 0 .955-.955.672.672 0 0 0-.955.008zm-7.473-7.489a.778.778 0 0 0-.007 1.097.781.781 0 0 0 1.103 0 .775.775 0 0 0-1.096-1.095zM97.409 53.247a.777.777 0 0 0 0 1.09.779.779 0 0 0 1.096.006.78.78 0 0 0 0-1.102.778.778 0 0 0-1.096.006zm7.396-7.396a.77.77 0 0 0 0 1.09.772.772 0 0 0 1.096.006.775.775 0 0 0-1.096-1.095zm7.389-7.389a.77.77 0 0 0 0 1.09c.304.304.791.311 1.096.006s.304-.798 0-1.102a.778.778 0 0 0-1.096.006zm-14.87-.092a.887.887 0 0 0 0 1.244c.34.34.898.333 1.237-.007.339-.339.34-.891 0-1.231s-.898-.346-1.237-.007zm-7.397 7.396c-.34.34-.332.898.007 1.237s.891.34 1.231 0c.346-.346.347-.898.007-1.237s-.898-.346-1.244 0zm22.182-22.182a.88.88 0 0 0 0 1.245c.34.34.891.339 1.238-.008a.87.87 0 0 0 0-1.23.88.88 0 0 0-1.237-.008zm-7.396 7.396a.879.879 0 0 0 .007 1.237c.34.34.891.34 1.231 0s.347-.898.007-1.237-.905-.339-1.244 0zm-.092-14.87a.98.98 0 0 0 1.386 1.386.98.98 0 0 0-1.387-1.386zm-7.389 7.389c-.382.382-.382 1.005 0 1.387s1.004.381 1.386 0c.381-.381.382-1.003 0-1.385s-1.005-.382-1.386 0zM82.446 38.285c-.382.382-.375.998.007 1.38s.997.388 1.379.006a.98.98 0 0 0-1.386-1.385zm7.396-7.397c-.382.382-.382 1.005 0 1.387s1.004.381 1.386 0c.382-.382.375-.996-.007-1.378s-.997-.389-1.379-.008zm-14.877-.085a1.088 1.088 0 0 0 0 1.527 1.081 1.081 0 0 0 1.527-1.527 1.082 1.082 0 0 0-1.527 0zM97.139 8.629a1.08 1.08 0 0 0 .008 1.52 1.074 1.074 0 1 0 1.52-1.519 1.081 1.081 0 0 0-1.527 0zM82.361 23.407a1.081 1.081 0 0 0 1.527 1.527 1.081 1.081 0 0 0 0-1.527 1.088 1.088 0 0 0-1.527 0zm7.39-7.389a1.081 1.081 0 1 0 1.53 1.527 1.081 1.081 0 0 0-1.53-1.527zm-14.871-.092c-.467.467-.46 1.21.007 1.677.46.46 1.202.466 1.669 0a1.185 1.185 0 0 0-1.676-1.676zM89.658 1.148a1.185 1.185 0 1 0 1.683 1.668 1.185 1.185 0 0 0-1.683-1.668zM67.484 23.322a1.185 1.185 0 1 0 1.683.002 1.186 1.186 0 0 0-1.683 0zM82.269 8.537a1.185 1.185 0 0 0 1.676 1.677 1.185 1.185 0 0 0-1.676-1.676zM60.01 15.849a1.281 1.281 0 0 0 0 1.81 1.292 1.292 0 0 0 1.818.007c.502-.502.502-1.322 0-1.824s-1.315-.494-1.817.008zm7.396-7.397c-.502.502-.51 1.315-.008 1.817s1.322.502 1.824 0 .494-1.315-.008-1.817-1.307-.502-1.809 0zm7.39-7.389a1.274 1.274 0 0 0 0 1.81c.502.502 1.315.51 1.818.007a1.294 1.294 0 0 0 0-1.824 1.283 1.283 0 0 0-1.816.007zM59.925.971a1.385 1.385 0 1 0 1.95 1.965 1.385 1.385 0 0 0-1.95-1.964zm-7.396 7.396a1.384 1.384 0 1 0 1.965 1.953 1.384 1.384 0 0 0-1.965-1.953zM45.048.886c-.58.58-.573 1.521.007 2.101a1.486 1.486 0 1 0 2.1-2.1 1.487 1.487 0 0 0-2.107 0zm74.943 82.148a.405.405 0 0 0 0 .58.406.406 0 0 0 .579 0c.162-.162.163-.417 0-.579s-.418-.162-.58 0zM105.205 97.82a.412.412 0 0 0 0 .58.412.412 0 0 0 .579 0c.17-.17.17-.424.008-.586s-.417-.163-.587.007zm7.396-7.397a.414.414 0 0 0-.007.587c.162.162.424.155.586-.008s.163-.417 0-.579-.417-.163-.58 0zm-14.785 14.786c-.162.162-.163.417 0 .58s.417.162.579 0 .163-.417 0-.579-.417-.163-.58 0zm-.085-14.878a.514.514 0 1 0 .728.728.514.514 0 0 0-.008-.729.512.512 0 0 0-.721 0zm7.389-7.389a.514.514 0 1 0 .728.728.514.514 0 0 0-.008-.729.512.512 0 0 0-.721 0zm7.389-7.389a.506.506 0 0 0 0 .721c.205.205.523.213.729.008s.204-.53 0-.735a.514.514 0 0 0-.728.007zM90.334 97.728a.52.52 0 0 0-.007.728.521.521 0 0 0 .735 0 .514.514 0 1 0-.729-.728zm7.305-22.267a.614.614 0 1 0 .869.869.614.614 0 1 0-.869-.869zM82.853 90.246a.614.614 0 1 0 .869.869.614.614 0 1 0-.869-.869zm7.389-7.389a.609.609 0 0 0 .007.87c.24.24.622.24.862 0a.608.608 0 0 0 .008-.869.61.61 0 0 0-.877 0zm14.786-14.786a.614.614 0 1 0 .869.869.614.614 0 1 0-.869-.869zm-7.481-7.481a.717.717 0 0 0 0 1.018c.283.283.735.284 1.019 0s.282-.735 0-1.018a.718.718 0 0 0-1.018 0zM75.372 82.765c-.282.282-.282.735 0 1.018s.736.283 1.019 0 .282-.735 0-1.018a.717.717 0 0 0-1.018 0zM90.158 67.98a.717.717 0 0 0 0 1.018.716.716 0 0 0 1.018 0 .724.724 0 0 0 0-1.018.724.724 0 0 0-1.018 0zm-7.397 7.396a.724.724 0 0 0 0 1.018.726.726 0 0 0 1.025-1.026.724.724 0 0 0-1.025.008zm-14.87-.092a.825.825 0 0 0 1.167 1.166.818.818 0 0 0 0-1.16.82.82 0 0 0-1.167-.007zm14.785-14.786a.829.829 0 0 0 0 1.174.824.824 0 1 0 0-1.174zm-7.396 7.397a.824.824 0 1 0 1.174 1.162.824.824 0 0 0-1.174-1.162zm14.786-14.786a.824.824 0 1 0 1.174 1.162.824.824 0 0 0-1.174-1.162zm-7.481-7.481a.926.926 0 0 0 1.309 1.308c.36-.36.367-.947.006-1.309s-.954-.36-1.315 0zm-7.39 7.389a.936.936 0 0 0 0 1.315.927.927 0 0 0 1.309-.006.925.925 0 0 0-1.308-1.309zM60.409 67.803c-.36.36-.36.954 0 1.315s.948.354 1.309-.006.368-.948.007-1.309-.955-.36-1.315 0zm7.39-7.39a.926.926 0 1 0 1.319 1.303.926.926 0 0 0-1.319-1.304zm-14.871-.092a1.03 1.03 0 1 0 1.457 1.457 1.03 1.03 0 1 0-1.457-1.457z" fill="#172D59"/><circle cx="68.442" cy="46.264" r="1.03" fill="#172D59"/><circle cx="75.832" cy="38.875" r="1.03" fill="#172D59"/><path d="M60.318 52.932c-.396.396-.403 1.054 0 1.457s1.061.396 1.457 0a1.03 1.03 0 1 0-1.457-1.457zm-7.474-7.474a1.127 1.127 0 0 0-.008 1.59c.446.446 1.16.439 1.599 0a1.132 1.132 0 0 0 .006-1.606 1.128 1.128 0 0 0-1.597.015zm7.396-7.396a1.12 1.12 0 0 0-.008 1.59 1.123 1.123 0 0 0 1.599 0 1.13 1.13 0 0 0 0-1.599 1.125 1.125 0 0 0-1.59.008zM45.454 52.848a1.12 1.12 0 0 0-.008 1.59 1.123 1.123 0 0 0 1.599 0 1.124 1.124 0 0 0 0-1.599 1.12 1.12 0 0 0-1.59.008zM67.63 30.673a1.126 1.126 0 0 0-.008 1.59c.446.446 1.16.439 1.599 0a1.124 1.124 0 0 0 0-1.599 1.12 1.12 0 0 0-1.59.008zm-14.871-.092a1.238 1.238 0 0 0-.008 1.746 1.238 1.238 0 0 0 1.747-.007 1.23 1.23 0 1 0-1.739-1.74zM37.973 45.367c-.481.481-.481 1.258 0 1.739s1.259.481 1.739 0a1.23 1.23 0 1 0-1.739-1.74zm22.175-22.176a1.23 1.23 0 1 0 1.74 1.739c.481-.481.488-1.266.007-1.747s-1.266-.473-1.746.008zM45.363 37.977a1.23 1.23 0 0 0 1.74 1.739 1.239 1.239 0 0 0 .007-1.747 1.237 1.237 0 0 0-1.746.008zm-7.482-7.481c-.517.517-.523 1.358 0 1.881s1.371.523 1.888.007c.523-.523.523-1.372 0-1.895s-1.365-.517-1.888.007zm7.397-7.396c-.523.523-.53 1.365-.007 1.888s1.371.523 1.895 0 .516-1.365-.007-1.888-1.358-.523-1.881 0zM30.492 37.885c-.523.523-.53 1.365-.007 1.888s1.371.523 1.895 0 .523-1.372 0-1.895-1.365-.517-1.888.007zM52.667 15.71c-.523.523-.523 1.358 0 1.881s1.365.53 1.888.007.523-1.372 0-1.895-1.365-.516-1.888.007zM23.011 30.404a1.44 1.44 0 0 0 0 2.036 1.438 1.438 0 0 0 2.029-.006 1.438 1.438 0 0 0 .007-2.03 1.44 1.44 0 0 0-2.036 0zm14.785-14.786a1.433 1.433 0 0 0 0 2.036 1.432 1.432 0 0 0 2.03-.007 1.438 1.438 0 0 0 .007-2.03 1.44 1.44 0 0 0-2.036 0zM30.4 23.015a1.43 1.43 0 0 0 .007 2.029 1.43 1.43 0 0 0 2.023 0 1.432 1.432 0 0 0 .007-2.03 1.434 1.434 0 0 0-2.036 0zM45.186 8.229a1.44 1.44 0 0 0 0 2.036 1.438 1.438 0 0 0 2.03-.007 1.43 1.43 0 0 0 .006-2.029 1.433 1.433 0 0 0-2.036 0zm-14.871-.092a1.54 1.54 0 1 0 2.18 2.178 1.54 1.54 0 0 0-2.18-2.178zM15.53 22.923a1.54 1.54 0 1 0 2.18 2.178 1.54 1.54 0 0 0-2.18-2.178zM37.705.748a1.54 1.54 0 1 0 2.18 2.178 1.54 1.54 0 0 0-2.18-2.178zM22.919 15.533a1.54 1.54 0 1 0 2.18 2.178 1.54 1.54 0 0 0-2.18-2.178zm-14.871-.091a1.648 1.648 0 0 0 0 2.319c.644.644 1.69.644 2.326.008a1.643 1.643 0 0 0-.007-2.327 1.643 1.643 0 0 0-2.32 0zM22.834.656a1.64 1.64 0 0 0 0 2.319 1.643 1.643 0 0 0 2.326.008 1.648 1.648 0 0 0-.008-2.326 1.647 1.647 0 0 0-2.319 0zm-7.396 7.396a1.647 1.647 0 0 0 0 2.319c.644.644 1.69.644 2.326.008a1.651 1.651 0 0 0 0-2.334 1.649 1.649 0 0 0-2.326.008zM.567 7.96a1.743 1.743 0 0 0 .007 2.468 1.741 1.741 0 0 0 2.461 0A1.745 1.745 0 1 0 .567 7.96zM7.956.571a1.743 1.743 0 0 0 .007 2.468 1.741 1.741 0 0 0 2.461 0A1.745 1.745 0 1 0 7.956.571zm97.298 105.189c.142.142.368.142.51 0s.141-.367 0-.509-.374-.149-.516-.008a.367.367 0 0 0 .007.516zm-7.396 7.396a.359.359 0 0 0 .51 0c.148-.148.148-.375.007-.516s-.375-.148-.523 0a.367.367 0 0 0 .007.516zm14.785-14.785a.359.359 0 0 0 .51 0c.141-.141.148-.374.006-.516s-.382-.142-.523 0a.367.367 0 0 0 .007.516zm7.39-7.39a.366.366 0 0 0 .516-.516.368.368 0 0 0-.516-.008.375.375 0 0 0 0 .523zm-29.656 14.185a.465.465 0 0 0 .657.658.468.468 0 0 0 0-.664.466.466 0 0 0-.657.007zm14.786-14.786a.459.459 0 0 0 0 .651c.184.184.474.191.658.006s.184-.481 0-.664a.466.466 0 0 0-.657.007zm-7.39 7.39a.469.469 0 0 0-.008.658.47.47 0 0 0 .665 0 .465.465 0 0 0-.658-.657zm14.779-14.778a.464.464 0 1 0 .657-.008.467.467 0 0 0-.658.008zm-22.26 7.297a.57.57 0 0 0 0 .807.567.567 0 0 0 .799-.008.567.567 0 0 0 .007-.798.568.568 0 0 0-.806 0zM105.07 75.51a.56.56 0 0 0 .008.799.558.558 0 0 0 .791 0 .56.56 0 0 0 .008-.799.563.563 0 0 0-.807 0zM82.896 97.685c-.22.22-.22.573.007.8a.56.56 0 0 0 .792 0 .56.56 0 0 0 .007-.798.562.562 0 0 0-.806 0zm14.786-14.786a.57.57 0 0 0 0 .807.567.567 0 0 0 .799-.008.56.56 0 0 0 .007-.798.562.562 0 0 0-.806 0zm-.093-14.87c-.254.254-.262.686 0 .947s.693.254.947 0c.269-.269.269-.693.008-.955s-.686-.261-.955.008zM82.811 82.807a.669.669 0 1 0 .947.947.669.669 0 1 0-.947-.947z" fill="#172D59"/><circle cx="75.888" cy="90.677" r=".67" fill="#172D59"/><path d="M90.2 75.418a.67.67 0 1 0 .945.946.67.67 0 0 0-.944-.945zm-14.87-.092a.77.77 0 0 0 0 1.09.772.772 0 0 0 1.096.006.775.775 0 0 0-1.096-1.095zm7.389-7.389a.77.77 0 0 0 0 1.09c.304.304.791.311 1.096.006s.304-.798 0-1.102a.778.778 0 0 0-1.096.006zM67.933 82.722a.777.777 0 0 0 0 1.09.779.779 0 0 0 1.096.006.78.78 0 0 0 0-1.102.778.778 0 0 0-1.096.006zM90.115 60.54a.778.778 0 0 0-.007 1.097.781.781 0 0 0 1.103 0 .775.775 0 0 0-1.096-1.095zm-7.481-7.481c-.347.347-.34.906 0 1.245s.891.339 1.238-.008c.339-.339.339-.89 0-1.23s-.898-.347-1.237-.008zm-7.396 7.396a.879.879 0 0 0 .007 1.237.87.87 0 0 0 1.231 0 .879.879 0 0 0 .007-1.237.888.888 0 0 0-1.244 0zm-7.39 7.39a.887.887 0 0 0 0 1.244c.34.34.898.333 1.237-.007a.871.871 0 0 0 0-1.231.88.88 0 0 0-1.237-.007zm-7.396 7.396a.879.879 0 0 0 .007 1.237.87.87 0 0 0 1.231 0 .872.872 0 0 0 .007-1.237.881.881 0 0 0-1.244 0zm-7.481-7.481c-.382.382-.375.998.007 1.38s.997.388 1.379.006a.98.98 0 0 0-1.386-1.385zm7.396-7.396c-.382.382-.382 1.005 0 1.387s1.004.381 1.386 0c.382-.382.375-.996-.007-1.378s-.997-.389-1.379-.008zm14.778-14.779a.98.98 0 0 0 1.386 1.386.98.98 0 0 0-1.387-1.386zm-7.388 7.389c-.382.382-.382 1.005 0 1.387s1.004.381 1.386 0a.98.98 0 0 0-1.386-1.385zM45.49 60.279a1.088 1.088 0 0 0 0 1.527 1.081 1.081 0 0 0 1.527-1.527 1.082 1.082 0 0 0-1.527 0zm14.785-14.786a1.081 1.081 0 1 0 1.53 1.527 1.081 1.081 0 0 0-1.53-1.527zm7.389-7.389a1.08 1.08 0 0 0 .008 1.52 1.074 1.074 0 1 0 1.52-1.519 1.081 1.081 0 0 0-1.527 0zM52.886 52.882a1.081 1.081 0 0 0 1.527 1.527 1.081 1.081 0 0 0 0-1.527 1.088 1.088 0 0 0-1.527 0zm-14.878-.085a1.185 1.185 0 1 0 1.683.002 1.186 1.186 0 0 0-1.683 0zm7.397-7.396c-.467.467-.46 1.21.007 1.677.46.46 1.202.466 1.669 0a1.185 1.185 0 0 0-1.676-1.676zm7.389-7.389a1.185 1.185 0 0 0 1.676 1.677 1.185 1.185 0 0 0-1.676-1.676zm7.389-7.389a1.185 1.185 0 1 0 1.681 1.668 1.185 1.185 0 0 0-1.68-1.668zM30.535 45.324c-.495.495-.503 1.308 0 1.81s1.322.502 1.818.007c.502-.502.502-1.322 0-1.824s-1.315-.494-1.817.008zm7.396-7.397c-.502.502-.51 1.315-.008 1.817s1.322.502 1.824 0 .494-1.315-.008-1.817-1.307-.502-1.809 0zm14.778-14.778a1.275 1.275 0 0 0 0 1.809 1.284 1.284 0 1 0 1.817-1.816 1.277 1.277 0 0 0-1.817.008zm-7.388 7.389c-.503.503-.503 1.308 0 1.81s1.315.51 1.818.007.501-1.322 0-1.824-1.314-.495-1.816.007zm-22.267 7.305a1.384 1.384 0 1 0 1.965 1.953 1.384 1.384 0 0 0-1.965-1.953zM45.236 15.66a1.385 1.385 0 1 0 1.95 1.965 1.385 1.385 0 0 0-1.95-1.964zm-7.397 7.397a1.385 1.385 0 1 0 1.963 1.951 1.385 1.385 0 0 0-1.962-1.951zm-7.389 7.389a1.385 1.385 0 1 0 1.95 1.965 1.385 1.385 0 0 0-1.95-1.964zm-7.481-7.481c-.58.58-.58 1.527 0 2.107a1.495 1.495 0 0 0 2.107 0 1.494 1.494 0 0 0 0-2.106 1.493 1.493 0 0 0-2.107 0zM37.754 8.179a1.487 1.487 0 0 0 0 2.107 1.485 1.485 0 1 0 2.1-2.099 1.486 1.486 0 0 0-2.1-.008zM15.572 30.361c-.58.58-.573 1.521.007 2.101a1.485 1.485 0 1 0 2.1-2.1 1.486 1.486 0 0 0-2.107 0zm14.786-14.785c-.58.58-.58 1.527 0 2.107s1.527.579 2.107 0 .579-1.527 0-2.106a1.493 1.493 0 0 0-2.107 0zm-14.871-.092c-.622.622-.622 1.626 0 2.248s1.626.622 2.248 0 .622-1.626 0-2.248-1.626-.622-2.248 0zm7.39-7.39a1.587 1.587 0 0 0 0 2.249c.622.622 1.626.622 2.249 0s.622-1.626 0-2.248-1.626-.622-2.248 0zM8.091 22.88a1.594 1.594 0 0 0 0 2.248 1.594 1.594 0 0 0 2.255-2.255 1.596 1.596 0 0 0-2.255.007zM30.273.698a1.596 1.596 0 0 0-.008 2.256A1.596 1.596 0 0 0 32.521.698a1.594 1.594 0 0 0-2.248 0zM15.396.613a1.695 1.695 0 0 0 2.397 2.398 1.688 1.688 0 0 0 0-2.389 1.69 1.69 0 0 0-2.397-.008zm-7.39 7.389a1.698 1.698 0 0 0 0 2.404 1.694 1.694 0 1 0 0-2.405zM.61 15.399a1.695 1.695 0 1 0 2.404.002 1.698 1.698 0 0 0-2.404 0zM.525.521c-.7.7-.7 1.846 0 2.546s1.838.693 2.538-.007c.699-.7.7-1.831 0-2.531S1.224-.177.525.522zM75.73 127.295c-.155.155-.163.417 0 .58s.424.155.579 0c.17-.17.17-.424.008-.586s-.417-.163-.587.007zm7.396-7.397c-.162.162-.17.424-.007.587s.424.155.586-.008.163-.417 0-.579-.417-.163-.58 0zm7.389-7.389a.405.405 0 0 0 0 .58.406.406 0 0 0 .579 0c.162-.162.163-.417 0-.579s-.418-.162-.58 0zM68.34 134.684c-.162.162-.163.417 0 .58s.417.162.579 0 .163-.417 0-.579-.417-.163-.58 0zm-.085-14.877a.514.514 0 1 0 .728.728.514.514 0 0 0-.008-.729.512.512 0 0 0-.721 0zm14.779-14.779a.506.506 0 0 0 0 .721.509.509 0 0 0 .729.008.514.514 0 1 0-.728-.728zm-22.175 22.175a.52.52 0 0 0-.007.728.521.521 0 0 0 .735 0 .514.514 0 1 0-.729-.728zm14.786-14.786a.514.514 0 1 0 .728.728.514.514 0 0 0-.008-.729.512.512 0 0 0-.721 0zm-.092-14.87a.614.614 0 1 0 .869.869.614.614 0 1 0-.869-.869zm-7.389 7.389a.614.614 0 1 0 .869.869.614.614 0 1 0-.869-.869zm-14.786 14.786a.614.614 0 1 0 .869.869.614.614 0 1 0-.869-.869zm7.389-7.39a.609.609 0 0 0 .007.87c.24.24.622.24.862 0a.608.608 0 0 0 .008-.869.61.61 0 0 0-.877 0zm-7.481-7.481a.724.724 0 0 0 0 1.018.726.726 0 0 0 1.025-1.026.725.725 0 0 0-1.025.008zm7.396-7.396c-.283.283-.282.735 0 1.018s.735.284 1.019 0a.724.724 0 0 0 0-1.018.724.724 0 0 0-1.018 0zM45.897 112.24a.718.718 0 0 0 0 1.018.716.716 0 0 0 1.018 0 .717.717 0 0 0 0-1.018.717.717 0 0 0-1.018 0zm22.175-22.175c-.283.283-.282.735 0 1.018s.735.284 1.019 0a.72.72 0 1 0-1.018-1.019zM45.805 97.37a.824.824 0 1 0 1.174 1.162.824.824 0 0 0-1.174-1.162zm-7.39 7.389a.825.825 0 0 0 1.167 1.166.818.818 0 0 0 0-1.16.82.82 0 0 0-1.167-.007zm14.786-14.786a.829.829 0 0 0 0 1.174.824.824 0 1 0 0-1.174zm7.389-7.389a.824.824 0 1 0 1.174 1.162.824.824 0 0 0-1.174-1.162zm-14.87-.092a.936.936 0 0 0 0 1.315.927.927 0 0 0 1.309-.006.92.92 0 0 0 0-1.302.927.927 0 0 0-1.308-.007zm7.389-7.389a.926.926 0 0 0 1.309 1.308c.36-.36.367-.947.006-1.309s-.954-.36-1.315 0zM38.324 89.888a.926.926 0 1 0 1.319 1.303.926.926 0 0 0-1.319-1.304zm-7.39 7.39c-.36.36-.36.954 0 1.315s.948.354 1.309-.006c.36-.36.368-.948.007-1.309s-.955-.36-1.315 0zm-.092-14.871c-.396.396-.403 1.054 0 1.457s1.061.396 1.457 0a1.03 1.03 0 1 0-1.457-1.457zm14.786-14.786a1.03 1.03 0 1 0 1.457 1.457 1.03 1.03 0 1 0-1.457-1.457zm-7.389 7.39a1.03 1.03 0 1 0 1.457 1.457 1.03 1.03 0 1 0-1.457-1.457zM23.453 89.797a1.03 1.03 0 1 0 1.457 1.457 1.03 1.03 0 1 0-1.457-1.457zm-.084-14.863a1.126 1.126 0 0 0-.008 1.59c.446.446 1.16.439 1.599 0a1.132 1.132 0 0 0 .006-1.606 1.128 1.128 0 0 0-1.597.015zm-7.39 7.389a1.12 1.12 0 0 0-.008 1.59c.446.446 1.153.446 1.599 0s.445-1.153 0-1.599a1.12 1.12 0 0 0-1.59.008zm14.786-14.786a1.12 1.12 0 0 0-.008 1.59 1.123 1.123 0 0 0 1.599 0 1.13 1.13 0 0 0 0-1.599 1.125 1.125 0 0 0-1.59.008zm7.389-7.389a1.127 1.127 0 0 0-.008 1.59c.446.446 1.16.439 1.599 0a1.124 1.124 0 0 0 0-1.599 1.12 1.12 0 0 0-1.59.008zm-14.87-.092c-.481.481-.488 1.266-.008 1.746s1.266.474 1.747-.007a1.23 1.23 0 1 0-1.739-1.74zm7.389-7.389a1.23 1.23 0 1 0 1.74 1.74c.48-.481.488-1.266.007-1.747s-1.266-.473-1.746.008zM15.887 67.452a1.23 1.23 0 1 0 1.74 1.739c.481-.481.488-1.266.007-1.747s-1.266-.473-1.746.008zm-7.389 7.39c-.481.481-.481 1.258 0 1.739s1.259.481 1.739 0a1.23 1.23 0 1 0-1.739-1.74zm14.694-29.657c-.523.523-.523 1.358 0 1.881s1.364.53 1.888.007.523-1.372 0-1.895-1.365-.516-1.888.007zM1.017 67.36c-.523.523-.53 1.365-.007 1.888s1.371.523 1.895 0 .523-1.372 0-1.895-1.365-.516-1.888.007zm7.389-7.389c-.516.517-.523 1.358 0 1.881s1.371.523 1.888.007c.523-.523.523-1.372 0-1.895s-1.365-.516-1.888.007zm7.397-7.396c-.523.523-.53 1.365-.007 1.888s1.371.523 1.895 0 .516-1.365-.007-1.888-1.358-.523-1.881 0zm-.092-14.871a1.44 1.44 0 0 0 0 2.036 1.438 1.438 0 0 0 2.03-.007 1.43 1.43 0 0 0 .006-2.029 1.433 1.433 0 0 0-2.036 0zM.925 52.49a1.43 1.43 0 0 0 .007 2.029 1.43 1.43 0 0 0 2.023 0 1.432 1.432 0 0 0 .007-2.03 1.434 1.434 0 0 0-2.036 0zm7.396-7.396a1.433 1.433 0 0 0 0 2.036 1.432 1.432 0 0 0 2.03-.007 1.438 1.438 0 0 0 .007-2.03 1.44 1.44 0 0 0-2.036 0zM.84 37.612a1.54 1.54 0 1 0 2.18 2.178 1.54 1.54 0 0 0-2.18-2.178zm7.389-7.389a1.54 1.54 0 1 0 2.18 2.178 1.54 1.54 0 0 0-2.18-2.178zM.748 22.742a1.647 1.647 0 0 0 0 2.32 1.65 1.65 0 0 0 2.327.007 1.642 1.642 0 0 0-.008-2.326 1.64 1.64 0 0 0-2.319 0zm82.42 105.104a.366.366 0 0 0 .516-.516.375.375 0 0 0-.523 0 .368.368 0 0 0 .007.517zm-7.389 7.389c.142.142.368.142.51 0s.141-.367 0-.509a.368.368 0 0 0-.516-.008.367.367 0 0 0 .007.516zm-7.397 7.397a.359.359 0 0 0 .51 0 .363.363 0 0 0 .007-.517.37.37 0 0 0-.523 0 .368.368 0 0 0 .007.517zm22.176-22.176a.367.367 0 0 0 .517-.007.36.36 0 0 0 0-.509c-.141-.141-.375-.148-.516-.008s-.141.383 0 .523zm-7.482-7.989a.464.464 0 1 0 .657-.008.467.467 0 0 0-.658.008zm-7.388 7.389a.459.459 0 0 0 0 .651.46.46 0 0 0 .658.006.468.468 0 0 0 0-.664.466.466 0 0 0-.657.007zm-7.39 7.389a.469.469 0 0 0-.008.658.47.47 0 0 0 .665 0 .464.464 0 0 0-.657-.657zm-7.396 7.396a.464.464 0 1 0 .663.65.464.464 0 0 0-.663-.65zm14.693-29.655a.56.56 0 0 0 .008.799.558.558 0 0 0 .791 0 .56.56 0 0 0 .008-.799.563.563 0 0 0-.807 0zM53.421 127.16c-.22.22-.22.573.007.8a.56.56 0 0 0 .792 0 .56.56 0 0 0 .007-.798.562.562 0 0 0-.806 0zm7.396-7.396a.57.57 0 0 0 0 .807.567.567 0 0 0 .799-.008.567.567 0 0 0 .007-.798.568.568 0 0 0-.806 0zm7.389-7.39a.57.57 0 0 0 0 .807.567.567 0 0 0 .799-.008.56.56 0 0 0 .007-.798.562.562 0 0 0-.806 0zm-7.481-7.481a.67.67 0 1 0 .945.946.67.67 0 0 0-.944-.945zm7.389-7.389c-.254.254-.262.686 0 .947s.693.254.947 0c.269-.269.269-.693.008-.955s-.686-.261-.955.008z" fill="#172D59"/><circle cx="53.809" cy="112.756" r=".67" fill="#172D59"/><path d="M45.939 119.679a.669.669 0 1 0 .947.947.663.663 0 0 0 0-.947.663.663 0 0 0-.947 0zm-7.481-7.481a.777.777 0 0 0 0 1.09.779.779 0 0 0 1.096.006.78.78 0 0 0 0-1.102.778.778 0 0 0-1.096.006zm7.397-7.397a.77.77 0 0 0 0 1.09.772.772 0 0 0 1.096.006.775.775 0 0 0-1.096-1.095zm7.389-7.389a.77.77 0 0 0 0 1.09.772.772 0 0 0 1.096.006.78.78 0 0 0 0-1.102.778.778 0 0 0-1.096.006zm7.396-7.396a.778.778 0 0 0-.007 1.097.781.781 0 0 0 1.103 0 .775.775 0 0 0-1.096-1.095zm-14.877-.085a.879.879 0 0 0 .007 1.237c.34.34.891.34 1.231 0s.347-.898.007-1.237-.905-.339-1.244 0zm-7.39 7.389c-.34.34-.339.905 0 1.244s.898.333 1.237-.007a.871.871 0 0 0 0-1.231.88.88 0 0 0-1.237-.007zm14.786-14.786c-.347.347-.34.906 0 1.245s.891.339 1.238-.008c.339-.339.339-.89 0-1.23s-.898-.347-1.237-.008zm-22.182 22.182c-.34.34-.332.898.007 1.237s.891.34 1.231 0a.872.872 0 0 0 .007-1.237.881.881 0 0 0-1.244 0zM45.67 75.061a.98.98 0 0 0 1.386 1.386.98.98 0 0 0-1.387-1.386zM23.496 97.235c-.382.382-.375.998.007 1.38s.997.388 1.379.006a.98.98 0 0 0-1.386-1.385zm14.785-14.786c-.382.382-.382 1.005 0 1.387s1.004.381 1.386 0c.381-.381.382-1.003 0-1.385s-1.005-.382-1.386 0zm-7.389 7.39c-.382.382-.382 1.005 0 1.387s1.004.381 1.386 0 .375-.996-.007-1.378-.997-.389-1.379-.008zm-7.481-7.481a1.081 1.081 0 0 0 1.527 1.527 1.081 1.081 0 0 0 0-1.527 1.088 1.088 0 0 0-1.527 0zm14.778-14.779a1.079 1.079 0 0 0 .008 1.52 1.074 1.074 0 1 0 1.52-1.519 1.081 1.081 0 0 0-1.527 0zM16.014 89.754a1.088 1.088 0 0 0 0 1.527 1.081 1.081 0 0 0 1.527-1.527 1.082 1.082 0 0 0-1.527 0zM30.8 74.968a1.081 1.081 0 1 0 1.53 1.527 1.081 1.081 0 0 0-1.53-1.527zM8.533 82.273a1.185 1.185 0 1 0 1.683.002 1.186 1.186 0 0 0-1.683 0zm7.397-7.397c-.467.467-.46 1.21.007 1.677.46.46 1.202.466 1.669 0a1.185 1.185 0 0 0-1.676-1.676zm14.778-14.778a1.185 1.185 0 1 0 1.683 1.668 1.185 1.185 0 0 0-1.683-1.668zm-7.389 7.389a1.185 1.185 0 0 0 1.676 1.677 1.185 1.185 0 0 0-1.676-1.676zM1.06 74.799c-.495.495-.503 1.308 0 1.81s1.322.502 1.818.007c.502-.502.502-1.322 0-1.824s-1.315-.494-1.817.008zm22.174-22.175a1.275 1.275 0 0 0 0 1.809 1.284 1.284 0 1 0 1.817-1.816 1.277 1.277 0 0 0-1.817.008zm-7.389 7.389c-.503.503-.503 1.308 0 1.81s1.315.51 1.817.007a1.294 1.294 0 0 0 0-1.824 1.283 1.283 0 0 0-1.816.007zm-7.389 7.39c-.502.502-.51 1.315-.008 1.817s1.322.502 1.824 0 .494-1.315-.008-1.817-1.307-.502-1.809 0zm7.304-22.267a1.385 1.385 0 1 0 1.95 1.965 1.385 1.385 0 0 0-1.95-1.964zm-7.396 7.396a1.385 1.385 0 1 0 1.963 1.951 1.385 1.385 0 0 0-1.962-1.951zM.975 59.921a1.385 1.385 0 1 0 1.95 1.965 1.385 1.385 0 0 0-1.95-1.964zm7.304-22.267a1.487 1.487 0 0 0 0 2.107 1.485 1.485 0 1 0 2.1-2.099 1.486 1.486 0 0 0-2.1-.008zM.883 45.051c-.58.58-.58 1.527 0 2.108s1.527.579 2.107 0 .579-1.527 0-2.106a1.493 1.493 0 0 0-2.107 0zM.798 30.173a1.596 1.596 0 0 0-.008 2.256 1.596 1.596 0 0 0 2.256-2.256 1.594 1.594 0 0 0-2.248 0zm38.067 133.986a.406.406 0 0 0 0 .58c.162.162.417.162.579 0s.163-.417 0-.579-.417-.163-.58 0zm22.175-22.175c-.163.163-.163.417 0 .58s.416.162.579 0 .163-.417 0-.579a.406.406 0 0 0-.58 0zm-7.389 7.39c-.162.162-.17.424-.007.587s.424.155.586-.008a.404.404 0 0 0 0-.579.405.405 0 0 0-.58 0zm-7.396 7.396c-.155.155-.163.417 0 .58s.424.155.579 0c.17-.17.17-.424.008-.586a.407.407 0 0 0-.587.007zm7.304-22.267a.506.506 0 0 0 0 .721c.205.205.523.213.728.008s.204-.53 0-.735a.514.514 0 0 0-.728.007zm-22.175 22.175a.52.52 0 0 0-.007.728.521.521 0 0 0 .735 0 .514.514 0 1 0-.729-.728zm14.786-14.786a.514.514 0 1 0 .728.728.514.514 0 0 0-.008-.729.512.512 0 0 0-.721 0zm-7.39 7.39a.514.514 0 1 0 .728.728.514.514 0 0 0-.008-.729.512.512 0 0 0-.721 0zm-7.488-7.475a.609.609 0 0 0 .007.87c.24.24.622.24.862 0a.608.608 0 0 0 .008-.869.61.61 0 0 0-.877 0zm14.786-14.785a.614.614 0 1 0 .869.869.614.614 0 1 0-.869-.869zm-7.39 7.389a.614.614 0 1 0 .869.869.614.614 0 1 0-.869-.869zm-14.785 14.786a.614.614 0 1 0 .869.869.614.614 0 1 0-.869-.869zm7.304-22.267c-.283.283-.282.735 0 1.018s.735.284 1.019 0a.725.725 0 0 0 0-1.019.724.724 0 0 0-1.018 0zm7.39-7.39c-.283.283-.282.735 0 1.018s.735.284 1.019 0a.72.72 0 1 0-1.018-1.019zm-14.786 14.786c-.276.276-.282.735 0 1.018s.743.276 1.019 0a.726.726 0 0 0 .007-1.026.725.725 0 0 0-1.025.008zm-7.39 7.39a.718.718 0 0 0 0 1.018c.283.283.736.283 1.019 0s.282-.735 0-1.019-.735-.283-1.018 0zm14.694-29.657a.824.824 0 1 0 1.174 1.162.824.824 0 0 0-1.174-1.162zM8.94 134.234a.825.825 0 0 0 1.167 1.166.818.818 0 0 0 0-1.16.82.82 0 0 0-1.167-.007zm14.786-14.785a.829.829 0 0 0 0 1.174.824.824 0 1 0 0-1.174zm-7.396 7.396a.824.824 0 1 0 1.174 1.162.824.824 0 0 0-1.174-1.162zm-.085-14.878c-.36.36-.36.954 0 1.315s.948.354 1.309-.006a.92.92 0 0 0 0-1.302.927.927 0 0 0-1.308-.007zm7.389-7.389a.926.926 0 0 0 1.309 1.308c.36-.36.367-.947.006-1.309s-.954-.36-1.315 0zM8.848 119.364a.926.926 0 1 0 1.319 1.303.926.926 0 0 0-1.319-1.304zm-7.389 7.389c-.36.36-.36.954 0 1.315s.948.354 1.309-.006.368-.948.007-1.309-.955-.36-1.315 0zm7.304-22.267a1.03 1.03 0 1 0 1.457 1.457 1.03 1.03 0 1 0-1.457-1.457zm7.39-7.389a1.03 1.03 0 1 0 1.457 1.457 1.03 1.03 0 1 0-1.457-1.457zM1.367 111.882c-.396.396-.403 1.054 0 1.457s1.061.396 1.457 0a1.03 1.03 0 1 0-1.457-1.457zm7.312-22.259a1.127 1.127 0 0 0-.008 1.59c.446.446 1.16.439 1.599 0a1.124 1.124 0 0 0 0-1.599 1.12 1.12 0 0 0-1.59.008zM1.29 97.012a1.12 1.12 0 0 0-.008 1.59 1.123 1.123 0 0 0 1.599 0 1.13 1.13 0 0 0 0-1.599 1.125 1.125 0 0 0-1.59.008zm-.092-14.87a1.23 1.23 0 1 0 1.74 1.74c.481-.481.487-1.266.007-1.747s-1.266-.473-1.746.008zm59.884 67.79c.142.142.375.135.517-.007s.141-.367 0-.509-.375-.148-.516-.008-.141.383 0 .523zm-7.389 7.389a.359.359 0 0 0 .51 0 .367.367 0 0 0 .006-.516c-.141-.141-.382-.142-.523 0s-.134.376.007.517zm-7.389 7.389c.142.142.368.142.51 0s.141-.367 0-.509c-.141-.141-.374-.149-.516-.008s-.134.376.007.517zm-7.397 7.397a.359.359 0 0 0 .51 0c.148-.148.148-.375.007-.517s-.375-.148-.523 0a.368.368 0 0 0 .007.517zm-7.48-7.991a.464.464 0 1 0 .663.65.464.464 0 0 0-.663-.65zm22.174-22.174a.465.465 0 0 0 .657.658.47.47 0 0 0 0-.665.467.467 0 0 0-.658.008zm-7.389 7.389a.459.459 0 0 0 0 .651.46.46 0 0 0 .658.006.468.468 0 0 0 0-.664.466.466 0 0 0-.657.007zm-7.389 7.389a.469.469 0 0 0-.008.658.47.47 0 0 0 .665 0 .464.464 0 0 0-.657-.657zm-.092-14.87a.57.57 0 0 0 0 .807.567.567 0 0 0 .799-.008.56.56 0 0 0 .007-.798.562.562 0 0 0-.806 0zm7.389-7.389a.56.56 0 0 0 .008.799.558.558 0 0 0 .791 0 .56.56 0 0 0 .008-.799.563.563 0 0 0-.807 0zm-14.778 14.778a.57.57 0 0 0 0 .807c.219.219.579.212.799-.008s.226-.579.007-.798a.568.568 0 0 0-.806 0zm-7.397 7.396c-.22.22-.22.573.007.8a.56.56 0 0 0 .792 0 .56.56 0 0 0 .007-.798.562.562 0 0 0-.806 0zm-7.481-7.481a.669.669 0 1 0 .947.947c.269-.269.262-.686 0-.947s-.679-.269-.947 0zm7.397-7.396a.669.669 0 1 0 .947.947.669.669 0 1 0-.947-.947zm7.389-7.39a.67.67 0 1 0 .945.946.67.67 0 0 0-.944-.945zm7.389-7.388c-.254.254-.262.686 0 .947s.693.254.947 0c.269-.269.269-.693.008-.955s-.686-.261-.955.008zm-14.87-.093a.77.77 0 0 0 0 1.09c.304.304.791.311 1.096.006s.304-.798 0-1.102a.778.778 0 0 0-1.096.006zM8.983 141.673a.777.777 0 0 0 0 1.09.779.779 0 0 0 1.096.006.78.78 0 0 0 0-1.102.778.778 0 0 0-1.096.006zm22.182-22.182a.778.778 0 0 0-.007 1.097.781.781 0 0 0 1.103 0 .775.775 0 0 0-1.096-1.095zm-14.786 14.785a.77.77 0 0 0 0 1.09.772.772 0 0 0 1.096.006.775.775 0 0 0-1.096-1.095zm-.092-14.87a.879.879 0 0 0 .007 1.237c.34.34.891.34 1.231 0s.347-.898.007-1.237-.905-.339-1.244 0zM1.502 134.192c-.34.34-.332.898.007 1.237s.891.34 1.231 0a.872.872 0 0 0 .007-1.237.881.881 0 0 0-1.244 0zm7.396-7.397a.887.887 0 0 0 0 1.244c.34.34.898.333 1.237-.007s.34-.891 0-1.231a.88.88 0 0 0-1.237-.007zm14.786-14.786c-.347.347-.34.906 0 1.245s.891.339 1.238-.008a.87.87 0 0 0 0-1.23.88.88 0 0 0-1.237-.008zm-22.267 7.305c-.382.382-.382 1.005 0 1.387s1.004.381 1.386 0c.382-.382.375-.996-.007-1.378s-.997-.389-1.379-.008zm14.778-14.778a.98.98 0 0 0 1.386 1.386.98.98 0 0 0-1.387-1.386zm-7.389 7.389c-.382.382-.382 1.005 0 1.387s1.004.381 1.386 0c.381-.381.382-1.003 0-1.385s-1.005-.382-1.386 0zm-.092-14.87a1.08 1.08 0 0 0 .008 1.52 1.074 1.074 0 1 0 1.52-1.519 1.081 1.081 0 0 0-1.527 0zm-7.389 7.388a1.081 1.081 0 1 0 1.53 1.527 1.081 1.081 0 0 0-1.53-1.527zm-.093-14.87a1.185 1.185 0 1 0 1.683 1.668 1.185 1.185 0 0 0-1.683-1.668zm15.547 96.672c-.155.155-.163.417 0 .58s.424.155.579 0c.17-.17.17-.424.008-.586a.407.407 0 0 0-.587.007zm-7.389 7.389c-.162.162-.163.417 0 .58s.417.162.579 0a.404.404 0 0 0 0-.579.405.405 0 0 0-.58 0zm14.786-14.785c-.162.162-.17.424-.007.587s.424.155.586-.008c.163-.163.163-.417 0-.579s-.417-.163-.58 0zm7.389-7.39c-.163.163-.163.417 0 .58s.416.162.579 0a.405.405 0 0 0 0-.579.406.406 0 0 0-.58 0zM1.909 186.153a.52.52 0 0 0-.007.728.521.521 0 0 0 .735 0 .514.514 0 1 0-.729-.728zm14.785-14.785a.514.514 0 1 0 .728.728.515.515 0 0 0-.729-.729zm7.39-7.39a.506.506 0 0 0 0 .721c.205.205.523.213.729.008s.204-.53 0-.735a.514.514 0 0 0-.728.007zM9.305 178.757a.514.514 0 1 0 .728.728.515.515 0 0 0-.729-.729zm-.092-14.871a.614.614 0 1 0 .869.869.614.614 0 1 0-.869-.869zm-7.396 7.397a.609.609 0 0 0 .007.87c.24.24.622.24.862 0a.608.608 0 0 0 .008-.869.61.61 0 0 0-.877 0zm14.786-14.786a.614.614 0 1 0 .869.869.614.614 0 1 0-.869-.869zm-14.871-.092c-.283.283-.282.735 0 1.018s.735.284 1.019 0a.725.725 0 0 0 0-1.019.724.724 0 0 0-1.018 0zm7.389-7.389a.717.717 0 0 0 0 1.018c.283.283.735.284 1.019 0s.282-.735 0-1.019a.718.718 0 0 0-1.018 0zm-7.481-7.482a.824.824 0 1 0 1.174 1.162.824.824 0 0 0-1.174-1.162zm29.967 37.873c.142.142.375.135.517-.007s.141-.367 0-.509-.375-.148-.516-.008a.375.375 0 0 0 0 .523zm-7.389 7.389a.366.366 0 0 0 .516-.516.374.374 0 0 0-.523 0 .368.368 0 0 0 .007.517zM9.432 201.582a.359.359 0 0 0 .51 0 .363.363 0 0 0 .007-.517.37.37 0 0 0-.523 0 .368.368 0 0 0 .007.517zm7.396-7.396c.142.142.368.142.51 0s.141-.367 0-.509c-.141-.141-.374-.149-.516-.008s-.134.376.007.517zm-.091-15.38a.459.459 0 0 0 0 .651.46.46 0 0 0 .658.006.468.468 0 0 0 0-.664.466.466 0 0 0-.657.007zm7.389-7.389a.465.465 0 0 0 .657.658.47.47 0 0 0 0-.665.467.467 0 0 0-.658.008zM9.348 186.195a.469.469 0 0 0-.008.658.47.47 0 0 0 .665 0 .464.464 0 0 0-.657-.657zm-7.396 7.397a.464.464 0 1 0 .663.65.464.464 0 0 0-.663-.65zm-.085-14.878a.57.57 0 0 0 0 .807.567.567 0 0 0 .799-.008.567.567 0 0 0 .007-.798.568.568 0 0 0-.806 0zm7.389-7.389a.57.57 0 0 0 0 .807.567.567 0 0 0 .799-.008.56.56 0 0 0 .007-.798.564.564 0 0 0-.806 0zm7.389-7.389a.56.56 0 0 0 .008.799.558.558 0 0 0 .791 0 .56.56 0 0 0 .008-.799.563.563 0 0 0-.807 0zm-7.482-7.481a.676.676 0 0 0 0 .947.676.676 0 0 0 .955-.955.672.672 0 0 0-.955.008zm-7.388 7.388a.67.67 0 1 0 .945.946.67.67 0 0 0-.944-.945zm-.085-14.877a.778.778 0 0 0-.007 1.097.781.781 0 0 0 1.103 0 .775.775 0 0 0-1.096-1.095zm.4 51.969a.405.405 0 0 0 0 .58c.162.162.416.162.579 0s.163-.417 0-.579a.406.406 0 0 0-.58 0zm.042 7.947a.366.366 0 0 0 .516-.516.368.368 0 0 0-.516-.008.375.375 0 0 0 0 .523z" fill="#172D59"/></svg></g></svg>